G04*
G04 #@! TF.GenerationSoftware,Altium Limited,Altium Designer,24.7.2 (38)*
G04*
G04 Layer_Color=65535*
%FSLAX25Y25*%
%MOIN*%
G70*
G04*
G04 #@! TF.SameCoordinates,4FB6B1DA-FF44-45C5-9F46-3DC55F4CF08E*
G04*
G04*
G04 #@! TF.FilePolarity,Positive*
G04*
G01*
G75*
%ADD10C,0.00984*%
%ADD11C,0.00787*%
%ADD12C,0.00787*%
%ADD13C,0.00591*%
G04:AMPARAMS|DCode=14|XSize=38.66mil|YSize=72.84mil|CornerRadius=0mil|HoleSize=0mil|Usage=FLASHONLY|Rotation=45.000|XOffset=0mil|YOffset=0mil|HoleType=Round|Shape=Rectangle|*
%AMROTATEDRECTD14*
4,1,4,0.01208,-0.03942,-0.03942,0.01208,-0.01208,0.03942,0.03942,-0.01208,0.01208,-0.03942,0.0*
%
%ADD14ROTATEDRECTD14*%

%ADD15R,0.07284X0.03866*%
%ADD16R,0.03866X0.07284*%
G04:AMPARAMS|DCode=17|XSize=38.66mil|YSize=72.84mil|CornerRadius=0mil|HoleSize=0mil|Usage=FLASHONLY|Rotation=135.000|XOffset=0mil|YOffset=0mil|HoleType=Round|Shape=Rectangle|*
%AMROTATEDRECTD17*
4,1,4,0.03942,0.01208,-0.01208,-0.03942,-0.03942,-0.01208,0.01208,0.03942,0.03942,0.01208,0.0*
%
%ADD17ROTATEDRECTD17*%

%ADD18C,0.00394*%
G36*
X163591Y337198D02*
X163580Y337247D01*
X163563Y337345D01*
X163552Y337444D01*
X163545Y337544D01*
X163545Y337594D01*
X163545D01*
X163542Y337729D01*
X163556Y337999D01*
X163590Y338267D01*
X163643Y338532D01*
X163680Y338662D01*
X163680Y338662D01*
X163711Y338771D01*
X163792Y338982D01*
X163890Y339185D01*
X164005Y339380D01*
X164071Y339472D01*
X164132Y339556D01*
X164267Y339714D01*
X164413Y339861D01*
X164571Y339996D01*
X164655Y340057D01*
Y340057D01*
X164737Y340117D01*
X164910Y340226D01*
X165088Y340325D01*
X165272Y340413D01*
X165367Y340452D01*
Y340452D01*
X165461Y340490D01*
X165653Y340559D01*
X165848Y340619D01*
X166045Y340670D01*
X166144Y340692D01*
Y340692D01*
X166241Y340713D01*
X166435Y340749D01*
X166629Y340778D01*
X166825Y340802D01*
X166923Y340811D01*
X166923D01*
Y340811D01*
X167086Y340825D01*
X167413Y340841D01*
X167740Y340844D01*
X168067Y340835D01*
X168230Y340824D01*
Y340824D01*
X168299Y340820D01*
X168437Y340808D01*
X168574Y340794D01*
X168711Y340777D01*
X168779Y340767D01*
X168779Y340767D01*
X168596Y340808D01*
X168233Y340906D01*
X167876Y341020D01*
X167523Y341151D01*
X167350Y341223D01*
Y341223D01*
X167350D01*
X167205Y341284D01*
X166922Y341421D01*
X166646Y341572D01*
X166377Y341737D01*
X166247Y341826D01*
X166247Y341826D01*
X165747Y342168D01*
X164947Y343079D01*
X164399Y344160D01*
X164137Y345343D01*
X164157Y345949D01*
X164157Y345949D01*
X164157Y346007D01*
X164162Y346125D01*
X164172Y346243D01*
X164185Y346360D01*
X164193Y346418D01*
X164193Y346418D01*
X164215Y346578D01*
X164274Y346894D01*
X164350Y347206D01*
X164443Y347514D01*
X164497Y347666D01*
X164497Y347666D01*
Y347666D01*
X164620Y348017D01*
X164979Y348670D01*
X165444Y349252D01*
X166000Y349747D01*
X166316Y349944D01*
Y349944D01*
X166316Y349944D01*
X166404Y349999D01*
X166584Y350101D01*
X166769Y350196D01*
X166957Y350282D01*
X167053Y350322D01*
Y350322D01*
X167053Y350322D01*
X167279Y350412D01*
X167745Y350556D01*
X168220Y350663D01*
X168702Y350730D01*
X168946Y350744D01*
X168946Y350744D01*
X168946Y350744D01*
X169006Y350748D01*
X169126Y350753D01*
X169247Y350755D01*
X169367Y350753D01*
X169428Y350750D01*
X169428D01*
X169625Y350759D01*
X170020Y350769D01*
X170415Y350771D01*
X170809Y350764D01*
X171007Y350756D01*
X171007Y350756D01*
Y350756D01*
X171169Y350750D01*
X171494Y350728D01*
X171818Y350698D01*
X172141Y350659D01*
X172301Y350635D01*
D01*
X172433Y350615D01*
X172694Y350567D01*
X172954Y350510D01*
X173211Y350444D01*
X173338Y350406D01*
X173442Y350375D01*
X173647Y350305D01*
X173849Y350226D01*
X174047Y350138D01*
X174144Y350089D01*
X174144Y350089D01*
X174224Y350049D01*
X174380Y349961D01*
X174531Y349865D01*
X174677Y349761D01*
X174747Y349705D01*
X174909Y349579D01*
X175184Y349274D01*
X175401Y348925D01*
X175555Y348545D01*
X175597Y348343D01*
D01*
X175619Y348235D01*
X175646Y348015D01*
X175655Y347793D01*
X175648Y347571D01*
X175636Y347461D01*
X175635Y347461D01*
X175625Y347355D01*
X175584Y347146D01*
X175523Y346942D01*
X175443Y346745D01*
X175394Y346651D01*
X175394D01*
X175347Y346564D01*
X175239Y346399D01*
X175116Y346244D01*
X174980Y346101D01*
X174906Y346036D01*
X174906D01*
X174830Y345970D01*
X174670Y345848D01*
X174502Y345736D01*
X174327Y345636D01*
X174236Y345592D01*
D01*
X174142Y345546D01*
X173948Y345462D01*
X173751Y345387D01*
X173550Y345321D01*
X173449Y345292D01*
X173449Y345292D01*
X173345Y345263D01*
X173136Y345211D01*
X172925Y345165D01*
X172713Y345126D01*
X172607Y345110D01*
X172503Y345094D01*
X172296Y345067D01*
X172087Y345044D01*
X171879Y345026D01*
X171774Y345019D01*
Y345019D01*
X171602Y345008D01*
X171257Y344996D01*
X170912Y344994D01*
X170567Y345001D01*
X170395Y345009D01*
Y345009D01*
X170323Y345012D01*
X170179Y345021D01*
X170036Y345031D01*
X169893Y345044D01*
X169821Y345052D01*
Y345052D01*
X169821D01*
X170057Y345022D01*
X170526Y344947D01*
X170992Y344856D01*
X171454Y344750D01*
X171684Y344689D01*
X171684Y344689D01*
X171873Y344639D01*
X172247Y344525D01*
X172616Y344395D01*
X172980Y344252D01*
X173159Y344173D01*
X173159Y344173D01*
X173307Y344108D01*
X173597Y343964D01*
X173881Y343808D01*
X174157Y343639D01*
X174292Y343548D01*
X174292D01*
X174404Y343472D01*
X174621Y343310D01*
X174830Y343138D01*
X175031Y342956D01*
X175127Y342860D01*
X175127D01*
X175208Y342779D01*
X175363Y342609D01*
X175509Y342433D01*
X175646Y342249D01*
X175711Y342154D01*
X175711Y342154D01*
X175811Y342007D01*
X175986Y341697D01*
X176134Y341374D01*
X176255Y341040D01*
X176302Y340868D01*
X176302Y340868D01*
X176302Y340868D01*
X176318Y340808D01*
X176346Y340686D01*
X176371Y340564D01*
X176391Y340441D01*
X176399Y340379D01*
Y340379D01*
X176407Y340323D01*
X176418Y340212D01*
X176424Y340101D01*
X176425Y339989D01*
X176423Y339933D01*
X176423Y339933D01*
X176424Y339741D01*
X176404Y339358D01*
X176362Y338977D01*
X176298Y338599D01*
X176254Y338412D01*
X176254D01*
X176186Y338109D01*
X175972Y337526D01*
X175685Y336975D01*
X175331Y336466D01*
X175122Y336235D01*
X175122D01*
X175030Y336135D01*
X174835Y335943D01*
X174629Y335762D01*
X174415Y335593D01*
X174303Y335514D01*
X174197Y335440D01*
X173980Y335300D01*
X173757Y335170D01*
X173528Y335049D01*
X173412Y334994D01*
Y334994D01*
X173129Y334863D01*
X172545Y334645D01*
X171946Y334474D01*
X171336Y334349D01*
X171027Y334311D01*
D01*
X170949Y334300D01*
X170792Y334283D01*
X170636Y334270D01*
X170479Y334261D01*
X170400Y334259D01*
X170166Y334241D01*
X169696Y334218D01*
X169225Y334211D01*
X168755Y334218D01*
X168520Y334228D01*
Y334228D01*
X168520Y334228D01*
X168331Y334237D01*
X167954Y334268D01*
X167578Y334313D01*
X167205Y334373D01*
X167019Y334410D01*
X167019Y334410D01*
X166870Y334439D01*
X166575Y334512D01*
X166284Y334598D01*
X165997Y334698D01*
X165855Y334754D01*
Y334754D01*
X165741Y334800D01*
X165517Y334903D01*
X165299Y335018D01*
X165088Y335144D01*
X164986Y335212D01*
Y335212D01*
X164830Y335315D01*
X164543Y335553D01*
X164283Y335820D01*
X164055Y336115D01*
X163957Y336273D01*
X163892Y336380D01*
X163780Y336604D01*
X163688Y336836D01*
X163616Y337076D01*
X163591Y337198D01*
X163591D01*
D02*
G37*
G36*
X180334Y336945D02*
X180417Y336812D01*
X180592Y336553D01*
X180777Y336301D01*
X180973Y336056D01*
X181075Y335938D01*
X181075Y335938D01*
Y335938D01*
X181135Y335869D01*
X181259Y335734D01*
X181387Y335603D01*
X181518Y335476D01*
X181586Y335414D01*
Y335414D01*
X181657Y335348D01*
X181804Y335222D01*
X181956Y335102D01*
X182111Y334986D01*
X182191Y334932D01*
X182191Y334932D01*
X182274Y334875D01*
X182445Y334768D01*
X182620Y334668D01*
X182799Y334577D01*
X182891Y334535D01*
X182891Y334535D01*
X183089Y334444D01*
X183501Y334306D01*
X183926Y334213D01*
X184359Y334166D01*
X184576Y334166D01*
X184576Y334166D01*
X185074Y334156D01*
X186042Y334386D01*
X186922Y334853D01*
X187656Y335526D01*
X187927Y335944D01*
X187927Y335944D01*
X187927Y335944D01*
X187988Y336033D01*
X188104Y336215D01*
X188214Y336403D01*
X188316Y336594D01*
X188363Y336691D01*
X188363Y336691D01*
X188408Y336782D01*
X188491Y336966D01*
X188570Y337153D01*
X188643Y337343D01*
X188677Y337438D01*
X188677D01*
Y337438D01*
X188748Y337637D01*
X188868Y338041D01*
X188968Y338451D01*
X189047Y338865D01*
X189076Y339074D01*
Y339074D01*
X189076Y339074D01*
X189079Y339092D01*
X189083Y339127D01*
X189087Y339162D01*
X189091Y339198D01*
X189093Y339215D01*
X189093Y339215D01*
X189092Y339150D01*
X189094Y339020D01*
X189099Y338890D01*
X189108Y338760D01*
X189114Y338695D01*
Y338695D01*
X189134Y338440D01*
X189213Y337935D01*
X189329Y337438D01*
X189484Y336951D01*
X189579Y336714D01*
X189579Y336714D01*
X189619Y336617D01*
X189707Y336428D01*
X189803Y336243D01*
X189907Y336062D01*
X189963Y335974D01*
X190022Y335881D01*
X190149Y335703D01*
X190286Y335533D01*
X190432Y335370D01*
X190509Y335293D01*
X190509D01*
X190683Y335121D01*
X191076Y334826D01*
X191504Y334588D01*
X191961Y334410D01*
X192199Y334352D01*
D01*
Y334352D01*
X192347Y334317D01*
X192645Y334263D01*
X192946Y334228D01*
X193249Y334211D01*
X193401Y334212D01*
X193401Y334212D01*
X193401Y334212D01*
X193444Y334211D01*
X193531Y334211D01*
X193618Y334214D01*
X193705Y334220D01*
X193748Y334224D01*
X193797Y334227D01*
X193895Y334238D01*
X193993Y334250D01*
X194090Y334264D01*
X194139Y334272D01*
X194679Y334361D01*
X195699Y334761D01*
X196614Y335364D01*
X197383Y336143D01*
X197679Y336604D01*
Y336604D01*
X197679Y336604D01*
X197753Y336717D01*
X197892Y336948D01*
X198021Y337184D01*
X198141Y337425D01*
X198196Y337548D01*
X198196D01*
X198219Y337596D01*
X198264Y337692D01*
X198307Y337788D01*
X198349Y337886D01*
X198369Y337935D01*
X198369Y337935D01*
X198369Y337935D01*
X198393Y337993D01*
X198441Y338110D01*
X198488Y338227D01*
X198533Y338345D01*
X198556Y338404D01*
Y338404D01*
X198586Y338483D01*
X198644Y338643D01*
X198701Y338803D01*
X198756Y338963D01*
X198782Y339043D01*
X198782Y339043D01*
X198782Y339043D01*
X198854Y339259D01*
X198987Y339694D01*
X199111Y340132D01*
X199224Y340573D01*
X199276Y340795D01*
X199276Y340795D01*
Y340795D01*
X199422Y341423D01*
X199643Y342694D01*
X199790Y343976D01*
X199863Y345264D01*
X199862Y345910D01*
X199862Y345910D01*
X199863Y345976D01*
X199860Y346108D01*
X199855Y346241D01*
X199846Y346373D01*
X199840Y346439D01*
X199821Y346697D01*
X199744Y347208D01*
X199630Y347712D01*
X199480Y348207D01*
X199388Y348448D01*
X199388D01*
X199388Y348448D01*
X199349Y348546D01*
X199265Y348737D01*
X199172Y348924D01*
X199071Y349107D01*
X199017Y349196D01*
Y349196D01*
X198961Y349289D01*
X198839Y349467D01*
X198708Y349639D01*
X198567Y349802D01*
X198492Y349880D01*
X198492Y349880D01*
X198221Y350153D01*
X197577Y350571D01*
X196859Y350844D01*
X196100Y350959D01*
X195717Y350935D01*
X195717D01*
X195662Y350933D01*
X195554Y350923D01*
X195446Y350908D01*
X195339Y350888D01*
X195286Y350875D01*
X195286Y350875D01*
X195226Y350861D01*
X195109Y350830D01*
X194993Y350794D01*
X194878Y350754D01*
X194821Y350732D01*
X194821D01*
X194821D01*
X194659Y350668D01*
X194347Y350510D01*
X194050Y350324D01*
X193772Y350113D01*
X193644Y349994D01*
X193644Y349994D01*
X193559Y349917D01*
X193397Y349753D01*
X193243Y349581D01*
X193098Y349402D01*
X193030Y349309D01*
X193030D01*
X192948Y349197D01*
X192796Y348965D01*
X192655Y348725D01*
X192525Y348479D01*
X192466Y348353D01*
Y348353D01*
X192394Y348200D01*
X192265Y347886D01*
X192148Y347568D01*
X192046Y347245D01*
X192002Y347081D01*
X192002Y347081D01*
X191947Y346880D01*
X191854Y346475D01*
X191775Y346066D01*
X191711Y345655D01*
X191687Y345448D01*
X191687Y345448D01*
X191657Y345194D01*
X191612Y344685D01*
X191583Y344175D01*
X191569Y343664D01*
X191570Y343408D01*
X191571Y343453D01*
X191571Y343544D01*
X191568Y343634D01*
X191564Y343724D01*
X191561Y343770D01*
X191561Y343770D01*
X191554Y343878D01*
X191531Y344095D01*
X191500Y344311D01*
X191461Y344526D01*
X191437Y344632D01*
X191437Y344632D01*
X191422Y344698D01*
X191388Y344828D01*
X191351Y344957D01*
X191309Y345085D01*
X191287Y345148D01*
X191287Y345148D01*
X191263Y345215D01*
X191211Y345346D01*
X191153Y345475D01*
X191090Y345602D01*
X191056Y345664D01*
X191056D01*
X191056D01*
X191021Y345728D01*
X190944Y345851D01*
X190861Y345970D01*
X190772Y346085D01*
X190724Y346140D01*
X190675Y346196D01*
X190569Y346302D01*
X190457Y346400D01*
X190338Y346491D01*
X190275Y346532D01*
X190275D01*
X190275Y346532D01*
X190128Y346626D01*
X189810Y346768D01*
X189474Y346863D01*
X189128Y346908D01*
X188954Y346905D01*
Y346905D01*
X188921Y346906D01*
X188856Y346905D01*
X188792Y346902D01*
X188727Y346897D01*
X188695Y346892D01*
X188695D01*
X188436Y346863D01*
X187947Y346682D01*
X187515Y346391D01*
X187165Y346006D01*
X187040Y345777D01*
X187040Y345777D01*
X187000Y345706D01*
X186927Y345559D01*
X186863Y345409D01*
X186807Y345255D01*
X186783Y345177D01*
X186754Y345081D01*
X186705Y344888D01*
X186665Y344692D01*
X186634Y344494D01*
X186623Y344395D01*
X186623D01*
X186610Y344272D01*
X186592Y344026D01*
X186584Y343779D01*
X186586Y343531D01*
X186591Y343408D01*
X186591Y343408D01*
X186592Y343506D01*
X186591Y343702D01*
X186586Y343898D01*
X186577Y344093D01*
X186571Y344191D01*
Y344191D01*
X186557Y344426D01*
X186514Y344895D01*
X186456Y345362D01*
X186382Y345827D01*
X186338Y346058D01*
X186338D01*
Y346058D01*
X186310Y346199D01*
X186248Y346479D01*
X186179Y346758D01*
X186103Y347034D01*
X186061Y347172D01*
X186061Y347172D01*
X186018Y347314D01*
X185922Y347597D01*
X185815Y347876D01*
X185698Y348150D01*
X185635Y348286D01*
Y348286D01*
X185573Y348421D01*
X185433Y348685D01*
X185281Y348941D01*
X185117Y349189D01*
X185028Y349309D01*
X185028D01*
X184941Y349428D01*
X184749Y349653D01*
X184544Y349865D01*
X184324Y350061D01*
X184207Y350152D01*
Y350152D01*
X183950Y350348D01*
X183376Y350649D01*
X182760Y350849D01*
X182120Y350942D01*
X181796Y350935D01*
Y350935D01*
X181746Y350934D01*
X181647Y350928D01*
X181548Y350919D01*
X181450Y350906D01*
X181401Y350897D01*
Y350897D01*
X180895Y350821D01*
X179968Y350393D01*
X179198Y349722D01*
X178646Y348861D01*
X178503Y348371D01*
X178460Y348238D01*
X178387Y347967D01*
X178328Y347693D01*
X178283Y347416D01*
X178267Y347277D01*
X178267D01*
X178248Y347107D01*
X178225Y346765D01*
X178215Y346423D01*
X178220Y346080D01*
X178229Y345910D01*
D01*
X178229Y345910D01*
X178230Y345849D01*
X178232Y345727D01*
X178235Y345606D01*
X178240Y345484D01*
X178243Y345424D01*
X178246Y345353D01*
X178253Y345212D01*
X178261Y345072D01*
X178270Y344931D01*
X178275Y344861D01*
X178275D01*
X178275Y344861D01*
X178317Y344249D01*
X178462Y343030D01*
X178667Y341820D01*
X178933Y340622D01*
X179095Y340030D01*
X179095D01*
X179095Y340030D01*
X179136Y339884D01*
X179223Y339592D01*
X179315Y339301D01*
X179411Y339012D01*
X179462Y338868D01*
Y338868D01*
X179513Y338721D01*
X179622Y338430D01*
X179737Y338140D01*
X179857Y337853D01*
X179920Y337710D01*
X179920Y337710D01*
X179941Y337663D01*
X179985Y337570D01*
X180031Y337478D01*
X180079Y337387D01*
X180104Y337342D01*
X180104Y337342D01*
X180131Y337291D01*
X180187Y337191D01*
X180245Y337092D01*
X180304Y336993D01*
X180334Y336945D01*
X180334Y336945D01*
D02*
G37*
G36*
X202097Y336814D02*
X202130Y336752D01*
X202202Y336631D01*
X202279Y336512D01*
X202360Y336397D01*
X202403Y336342D01*
X202403Y336342D01*
X202456Y336273D01*
X202569Y336139D01*
X202688Y336012D01*
X202812Y335889D01*
X202876Y335830D01*
X202955Y335760D01*
X203118Y335625D01*
X203287Y335499D01*
X203461Y335380D01*
X203551Y335324D01*
X203660Y335257D01*
X203884Y335133D01*
X204112Y335018D01*
X204345Y334913D01*
X204464Y334866D01*
X204464Y334866D01*
X204608Y334809D01*
X204902Y334705D01*
X205198Y334614D01*
X205499Y334534D01*
X205650Y334499D01*
X205650Y334499D01*
X205835Y334458D01*
X206206Y334387D01*
X206580Y334329D01*
X206956Y334283D01*
X207144Y334267D01*
X207373Y334247D01*
X207833Y334220D01*
X208293Y334207D01*
X208753Y334206D01*
X208983Y334212D01*
X208983Y334212D01*
X208983Y334212D01*
X209061Y334212D01*
X209216Y334213D01*
X209372Y334217D01*
X209528Y334222D01*
X209606Y334226D01*
X209606D01*
X209793Y334235D01*
X210166Y334261D01*
X210539Y334296D01*
X210911Y334340D01*
X211097Y334367D01*
X211209Y334383D01*
X211433Y334420D01*
X211657Y334461D01*
X211880Y334506D01*
X211991Y334531D01*
X211991Y334531D01*
X212105Y334556D01*
X212331Y334613D01*
X212556Y334676D01*
X212779Y334745D01*
X212890Y334783D01*
X212890D01*
X212998Y334819D01*
X213210Y334900D01*
X213418Y334990D01*
X213623Y335088D01*
X213723Y335141D01*
X213723D01*
X213817Y335190D01*
X213999Y335300D01*
X214174Y335421D01*
X214341Y335553D01*
X214420Y335624D01*
X214420Y335624D01*
X214420Y335624D01*
X214494Y335690D01*
X214631Y335836D01*
X214754Y335993D01*
X214863Y336161D01*
X214909Y336250D01*
X214909Y336250D01*
X214956Y336341D01*
X215030Y336533D01*
X215084Y336732D01*
X215115Y336935D01*
X215121Y337038D01*
X215121D01*
X215121Y337038D01*
X215123Y337077D01*
X215123Y337156D01*
X215120Y337235D01*
X215111Y337314D01*
X215105Y337353D01*
X215105Y337353D01*
X215099Y337396D01*
X215084Y337481D01*
X215064Y337565D01*
X215042Y337649D01*
X215029Y337691D01*
D01*
X214991Y337808D01*
X214892Y338035D01*
X214770Y338250D01*
X214626Y338451D01*
X214544Y338543D01*
X214490Y338605D01*
X214375Y338722D01*
X214253Y338832D01*
X214126Y338936D01*
X214060Y338984D01*
X214060Y338984D01*
X214060Y338984D01*
X213978Y339043D01*
X213809Y339152D01*
X213634Y339253D01*
X213454Y339344D01*
X213362Y339385D01*
Y339385D01*
X213247Y339436D01*
X213014Y339527D01*
X212776Y339609D01*
X212535Y339679D01*
X212413Y339709D01*
X212413D01*
X212413D01*
X212261Y339746D01*
X211953Y339810D01*
X211643Y339863D01*
X211331Y339904D01*
X211175Y339919D01*
X210980Y339938D01*
X210588Y339965D01*
X210196Y339980D01*
X209804Y339983D01*
X209608Y339979D01*
Y339979D01*
X209641Y339986D01*
X209706Y340001D01*
X209771Y340018D01*
X209836Y340036D01*
X209868Y340045D01*
D01*
X209868Y340045D01*
X209997Y340083D01*
X210251Y340172D01*
X210500Y340277D01*
X210741Y340396D01*
X210859Y340463D01*
X210907Y340491D01*
X211001Y340549D01*
X211094Y340611D01*
X211185Y340676D01*
X211229Y340710D01*
X211229Y340710D01*
X211275Y340745D01*
X211363Y340819D01*
X211448Y340896D01*
X211530Y340978D01*
X211569Y341020D01*
X211569Y341020D01*
X211569Y341020D01*
X211609Y341063D01*
X211684Y341155D01*
X211754Y341250D01*
X211819Y341348D01*
X211849Y341399D01*
X211849Y341399D01*
Y341399D01*
X211914Y341512D01*
X212013Y341751D01*
X212078Y342002D01*
X212110Y342259D01*
X212109Y342388D01*
X212109D01*
X212113Y342413D01*
X212118Y342463D01*
X212121Y342513D01*
X212121Y342563D01*
X212120Y342588D01*
X212118Y342616D01*
X212114Y342671D01*
X212107Y342727D01*
X212099Y342782D01*
X212094Y342809D01*
X212094Y342809D01*
X212078Y342888D01*
X212031Y343041D01*
X211970Y343190D01*
X211895Y343332D01*
X211851Y343399D01*
Y343399D01*
X211822Y343443D01*
X211760Y343530D01*
X211693Y343612D01*
X211621Y343691D01*
X211584Y343729D01*
X211584Y343729D01*
Y343729D01*
X211538Y343775D01*
X211442Y343862D01*
X211342Y343944D01*
X211238Y344022D01*
X211184Y344058D01*
Y344058D01*
X211118Y344102D01*
X210982Y344185D01*
X210842Y344262D01*
X210699Y344333D01*
X210627Y344366D01*
D01*
X210536Y344406D01*
X210354Y344480D01*
X210168Y344547D01*
X209981Y344607D01*
X209886Y344634D01*
Y344634D01*
X209769Y344667D01*
X209532Y344726D01*
X209295Y344779D01*
X209056Y344824D01*
X208935Y344843D01*
X208936D01*
X209016Y344837D01*
X209177Y344826D01*
X209338Y344817D01*
X209500Y344812D01*
X209581Y344810D01*
X209773Y344806D01*
X210157Y344808D01*
X210541Y344823D01*
X210925Y344848D01*
X211116Y344867D01*
X211231Y344879D01*
X211461Y344907D01*
X211690Y344941D01*
X211917Y344981D01*
X212031Y345003D01*
X212147Y345026D01*
X212377Y345079D01*
X212606Y345141D01*
X212831Y345210D01*
X212943Y345249D01*
X212943Y345249D01*
X212943Y345249D01*
X213052Y345286D01*
X213266Y345372D01*
X213476Y345469D01*
X213680Y345576D01*
X213779Y345635D01*
X213874Y345691D01*
X214055Y345817D01*
X214227Y345957D01*
X214388Y346108D01*
X214462Y346190D01*
X214462Y346190D01*
X214620Y346367D01*
X214860Y346774D01*
X215018Y347220D01*
X215086Y347688D01*
X215074Y347925D01*
X215074Y347925D01*
X215078Y347961D01*
X215081Y348033D01*
X215078Y348105D01*
X215071Y348177D01*
X215065Y348213D01*
X215065Y348213D01*
X215058Y348253D01*
X215042Y348332D01*
X215021Y348410D01*
X214997Y348487D01*
X214983Y348525D01*
X214983Y348525D01*
X214982Y348525D01*
X214964Y348575D01*
X214920Y348674D01*
X214871Y348769D01*
X214816Y348862D01*
X214786Y348907D01*
X214786Y348907D01*
X214748Y348964D01*
X214664Y349074D01*
X214575Y349179D01*
X214479Y349279D01*
X214429Y349326D01*
Y349326D01*
X214364Y349386D01*
X214228Y349500D01*
X214087Y349606D01*
X213940Y349705D01*
X213864Y349751D01*
X213864Y349751D01*
X213766Y349810D01*
X213565Y349918D01*
X213360Y350018D01*
X213151Y350109D01*
X213044Y350149D01*
X212907Y350202D01*
X212630Y350296D01*
X212349Y350381D01*
X212066Y350457D01*
X211923Y350489D01*
X211923D01*
X211923Y350489D01*
X211741Y350531D01*
X211375Y350603D01*
X211008Y350666D01*
X210639Y350718D01*
X210454Y350739D01*
X210453Y350739D01*
Y350739D01*
X210221Y350765D01*
X209756Y350807D01*
X209290Y350839D01*
X208823Y350861D01*
X208589Y350866D01*
Y350866D01*
X208511Y350872D01*
X208354Y350880D01*
X208197Y350886D01*
X208040Y350888D01*
X207962Y350887D01*
X207652Y350888D01*
X207033Y350852D01*
X206418Y350780D01*
X205809Y350670D01*
X205508Y350597D01*
X205508D01*
X205386Y350566D01*
X205146Y350497D01*
X204907Y350419D01*
X204672Y350333D01*
X204556Y350286D01*
X204556D01*
X204437Y350237D01*
X204205Y350130D01*
X203978Y350012D01*
X203757Y349883D01*
X203649Y349814D01*
X203649Y349814D01*
X203540Y349743D01*
X203331Y349589D01*
X203132Y349423D01*
X202943Y349244D01*
X202854Y349149D01*
Y349149D01*
X202660Y348938D01*
X202337Y348463D01*
X202087Y347946D01*
X201916Y347397D01*
X201871Y347113D01*
Y347113D01*
X201871Y347113D01*
X201860Y347038D01*
X201839Y346887D01*
X201819Y346737D01*
X201800Y346586D01*
X201791Y346510D01*
Y346510D01*
X201780Y346424D01*
X201760Y346251D01*
X201740Y346078D01*
X201721Y345905D01*
X201712Y345818D01*
X201712Y345818D01*
X201712Y345818D01*
X201671Y345427D01*
X201604Y344644D01*
X201551Y343859D01*
X201513Y343074D01*
X201501Y342681D01*
X201501D01*
Y342681D01*
X201497Y342523D01*
X201490Y342208D01*
X201487Y341893D01*
X201486Y341577D01*
X201488Y341420D01*
X201489Y341257D01*
X201495Y340932D01*
X201505Y340607D01*
X201519Y340282D01*
X201527Y340120D01*
X201527Y340120D01*
Y340120D01*
X201536Y339957D01*
X201558Y339633D01*
X201585Y339308D01*
X201617Y338984D01*
X201635Y338823D01*
X201635Y338823D01*
X201653Y338665D01*
X201694Y338351D01*
X201742Y338038D01*
X201795Y337726D01*
X201825Y337570D01*
X201825D01*
X201825Y337570D01*
X201832Y337524D01*
X201852Y337431D01*
X201876Y337340D01*
X201905Y337250D01*
X201922Y337206D01*
X201941Y337155D01*
X201981Y337056D01*
X202025Y336958D01*
X202072Y336862D01*
X202097Y336814D01*
Y336814D01*
D02*
G37*
G36*
X217569D02*
X217603Y336752D01*
X217674Y336631D01*
X217751Y336512D01*
X217832Y336397D01*
X217875Y336342D01*
X217875D01*
X217929Y336273D01*
X218041Y336139D01*
X218160Y336012D01*
X218283Y335889D01*
X218348Y335830D01*
X218348Y335830D01*
X218426Y335760D01*
X218590Y335626D01*
X218759Y335499D01*
X218933Y335380D01*
X219023Y335324D01*
X219023Y335324D01*
X219023Y335324D01*
X219132Y335257D01*
X219355Y335133D01*
X219584Y335018D01*
X219817Y334913D01*
X219936Y334866D01*
X219936D01*
X219936Y334866D01*
X220080Y334809D01*
X220373Y334705D01*
X220670Y334614D01*
X220970Y334534D01*
X221122Y334499D01*
X221122D01*
X221306Y334458D01*
X221678Y334387D01*
X222052Y334329D01*
X222427Y334283D01*
X222616Y334267D01*
D01*
X222845Y334247D01*
X223304Y334220D01*
X223764Y334207D01*
X224224Y334206D01*
X224454Y334212D01*
X224454D01*
X224532Y334212D01*
X224688Y334213D01*
X224844Y334217D01*
X224999Y334222D01*
X225077Y334226D01*
X225264Y334235D01*
X225638Y334261D01*
X226011Y334296D01*
X226383Y334340D01*
X226568Y334367D01*
X226680Y334383D01*
X226905Y334420D01*
X227129Y334461D01*
X227351Y334506D01*
X227462Y334531D01*
X227462Y334531D01*
X227576Y334556D01*
X227803Y334613D01*
X228028Y334676D01*
X228251Y334745D01*
X228361Y334783D01*
X228361Y334783D01*
X228469Y334819D01*
X228681Y334900D01*
X228889Y334990D01*
X229094Y335088D01*
X229195Y335141D01*
X229195Y335141D01*
X229195D01*
X229289Y335190D01*
X229470Y335300D01*
X229645Y335421D01*
X229812Y335553D01*
X229891Y335624D01*
X229891Y335624D01*
X229891D01*
X229966Y335690D01*
X230103Y335836D01*
X230226Y335993D01*
X230334Y336161D01*
X230381Y336250D01*
X230381Y336250D01*
X230428Y336341D01*
X230502Y336533D01*
X230555Y336732D01*
X230587Y336935D01*
X230592Y337038D01*
D01*
X230594Y337077D01*
X230595Y337156D01*
X230591Y337235D01*
X230583Y337314D01*
X230577Y337353D01*
D01*
X230577Y337353D01*
X230571Y337396D01*
X230555Y337481D01*
X230536Y337565D01*
X230513Y337649D01*
X230500Y337691D01*
X230500Y337691D01*
X230463Y337808D01*
X230364Y338035D01*
X230241Y338250D01*
X230098Y338451D01*
X230016Y338543D01*
D01*
Y338543D01*
X229962Y338605D01*
X229847Y338722D01*
X229725Y338832D01*
X229598Y338936D01*
X229532Y338984D01*
X229450Y339043D01*
X229280Y339152D01*
X229106Y339253D01*
X228926Y339344D01*
X228834Y339385D01*
X228834Y339385D01*
X228719Y339436D01*
X228486Y339527D01*
X228248Y339609D01*
X228007Y339679D01*
X227885Y339709D01*
Y339709D01*
X227732Y339746D01*
X227425Y339810D01*
X227115Y339863D01*
X226803Y339904D01*
X226646Y339919D01*
Y339919D01*
X226451Y339938D01*
X226060Y339965D01*
X225668Y339980D01*
X225275Y339983D01*
X225079Y339979D01*
X225079Y339979D01*
X225112Y339986D01*
X225178Y340001D01*
X225243Y340018D01*
X225307Y340036D01*
X225339Y340045D01*
X225340Y340045D01*
X225469Y340083D01*
X225723Y340172D01*
X225971Y340277D01*
X226213Y340396D01*
X226330Y340463D01*
X226330D01*
X226378Y340491D01*
X226473Y340549D01*
X226566Y340611D01*
X226656Y340676D01*
X226700Y340710D01*
Y340710D01*
X226700Y340710D01*
X226746Y340745D01*
X226834Y340819D01*
X226920Y340896D01*
X227001Y340978D01*
X227040Y341020D01*
X227040Y341020D01*
X227080Y341063D01*
X227156Y341155D01*
X227226Y341250D01*
X227291Y341348D01*
X227321Y341399D01*
Y341399D01*
Y341399D01*
X227385Y341512D01*
X227484Y341751D01*
X227550Y342002D01*
X227582Y342259D01*
X227581Y342388D01*
X227581D01*
X227585Y342413D01*
X227590Y342463D01*
X227592Y342513D01*
X227592Y342563D01*
X227591Y342588D01*
X227591D01*
X227590Y342616D01*
X227586Y342671D01*
X227579Y342727D01*
X227571Y342782D01*
X227565Y342809D01*
X227550Y342888D01*
X227503Y343041D01*
X227442Y343190D01*
X227367Y343332D01*
X227323Y343399D01*
X227323D01*
X227294Y343443D01*
X227232Y343529D01*
X227165Y343612D01*
X227093Y343691D01*
X227056Y343729D01*
X227056Y343729D01*
X227010Y343775D01*
X226914Y343862D01*
X226814Y343944D01*
X226710Y344022D01*
X226656Y344058D01*
X226656Y344058D01*
X226590Y344102D01*
X226454Y344185D01*
X226314Y344262D01*
X226171Y344333D01*
X226099Y344366D01*
Y344366D01*
X226009Y344406D01*
X225826Y344480D01*
X225641Y344547D01*
X225453Y344607D01*
X225358Y344634D01*
X225358Y344634D01*
X225241Y344667D01*
X225005Y344726D01*
X224767Y344779D01*
X224528Y344824D01*
X224408Y344843D01*
X224408Y344843D01*
X224408Y344843D01*
X224488Y344836D01*
X224649Y344826D01*
X224811Y344817D01*
X224972Y344812D01*
X225053Y344810D01*
X225053Y344810D01*
X225245Y344806D01*
X225629Y344808D01*
X226013Y344823D01*
X226397Y344848D01*
X226588Y344867D01*
X226588Y344867D01*
X226703Y344879D01*
X226933Y344907D01*
X227162Y344941D01*
X227389Y344981D01*
X227503Y345003D01*
Y345003D01*
Y345003D01*
X227619Y345026D01*
X227849Y345079D01*
X228077Y345141D01*
X228303Y345210D01*
X228415Y345249D01*
X228415D01*
X228524Y345286D01*
X228738Y345372D01*
X228947Y345469D01*
X229151Y345576D01*
X229251Y345635D01*
X229250Y345635D01*
X229346Y345691D01*
X229527Y345817D01*
X229699Y345957D01*
X229859Y346108D01*
X229934Y346190D01*
X229934Y346190D01*
X230091Y346367D01*
X230332Y346774D01*
X230489Y347220D01*
X230557Y347688D01*
X230546Y347925D01*
X230546Y347925D01*
X230550Y347961D01*
X230552Y348033D01*
X230550Y348105D01*
X230542Y348177D01*
X230536Y348213D01*
X230536D01*
X230530Y348253D01*
X230513Y348332D01*
X230493Y348410D01*
X230468Y348487D01*
X230454Y348525D01*
X230454D01*
X230435Y348575D01*
X230391Y348674D01*
X230342Y348769D01*
X230287Y348862D01*
X230258Y348907D01*
X230258Y348907D01*
Y348907D01*
X230219Y348964D01*
X230136Y349074D01*
X230046Y349179D01*
X229951Y349279D01*
X229900Y349326D01*
X229900Y349326D01*
X229835Y349386D01*
X229699Y349500D01*
X229558Y349606D01*
X229411Y349705D01*
X229335Y349751D01*
X229237Y349809D01*
X229037Y349918D01*
X228831Y350018D01*
X228622Y350109D01*
X228515Y350149D01*
X228515Y350149D01*
X228379Y350202D01*
X228101Y350296D01*
X227821Y350382D01*
X227537Y350457D01*
X227394Y350489D01*
X227394D01*
X227213Y350531D01*
X226847Y350603D01*
X226479Y350666D01*
X226110Y350718D01*
X225925Y350739D01*
X225925Y350739D01*
X225925Y350739D01*
X225693Y350765D01*
X225227Y350807D01*
X224761Y350839D01*
X224294Y350861D01*
X224060Y350866D01*
X224060Y350866D01*
X224060Y350866D01*
X223982Y350872D01*
X223825Y350880D01*
X223668Y350886D01*
X223511Y350888D01*
X223433Y350887D01*
X223433Y350887D01*
X223123Y350888D01*
X222505Y350852D01*
X221890Y350780D01*
X221281Y350670D01*
X220980Y350597D01*
X220980Y350597D01*
X220858Y350566D01*
X220617Y350497D01*
X220379Y350419D01*
X220144Y350333D01*
X220028Y350286D01*
X219909Y350237D01*
X219677Y350130D01*
X219450Y350012D01*
X219228Y349883D01*
X219121Y349814D01*
D01*
X219012Y349743D01*
X218803Y349589D01*
X218604Y349423D01*
X218415Y349244D01*
X218326Y349149D01*
X218132Y348938D01*
X217809Y348463D01*
X217559Y347946D01*
X217388Y347397D01*
X217344Y347113D01*
X217344D01*
X217333Y347038D01*
X217312Y346887D01*
X217291Y346737D01*
X217272Y346586D01*
X217263Y346510D01*
Y346510D01*
X217263D01*
X217253Y346424D01*
X217232Y346251D01*
X217213Y346078D01*
X217194Y345905D01*
X217185Y345818D01*
X217185D01*
Y345818D01*
X217144Y345427D01*
X217076Y344644D01*
X217023Y343859D01*
X216985Y343074D01*
X216973Y342681D01*
Y342681D01*
X216973Y342681D01*
X216969Y342523D01*
X216963Y342208D01*
X216959Y341893D01*
X216959Y341577D01*
X216960Y341420D01*
X216961Y341257D01*
X216967Y340932D01*
X216977Y340607D01*
X216991Y340282D01*
X217000Y340120D01*
Y340120D01*
X217008Y339957D01*
X217030Y339633D01*
X217057Y339308D01*
X217089Y338984D01*
X217107Y338823D01*
X217107Y338823D01*
X217107Y338823D01*
X217125Y338665D01*
X217166Y338351D01*
X217214Y338038D01*
X217267Y337726D01*
X217297Y337570D01*
X217297Y337570D01*
X217305Y337524D01*
X217324Y337431D01*
X217349Y337340D01*
X217378Y337250D01*
X217394Y337206D01*
X217394Y337206D01*
Y337206D01*
X217413Y337155D01*
X217453Y337056D01*
X217497Y336958D01*
X217544Y336862D01*
X217569Y336814D01*
X217569Y336814D01*
D02*
G37*
G36*
X236827Y339796D02*
X236823Y340205D01*
X236840Y341022D01*
X236882Y341839D01*
X236950Y342653D01*
X236996Y343060D01*
Y343060D01*
X237003Y343123D01*
X237018Y343250D01*
X237034Y343377D01*
X237050Y343504D01*
X237058Y343568D01*
X237066Y343623D01*
X237081Y343734D01*
X237097Y343844D01*
X237114Y343954D01*
X237123Y344010D01*
Y344010D01*
X237106Y344008D01*
X237074Y344005D01*
X237041Y344002D01*
X237008Y344000D01*
X236991Y343999D01*
X236881Y343992D01*
X236660Y343985D01*
X236439Y343984D01*
X236218Y343990D01*
X236107Y343996D01*
X236107Y343996D01*
X236027Y344000D01*
X235867Y344012D01*
X235707Y344028D01*
X235547Y344047D01*
X235468Y344059D01*
X235468D01*
Y344059D01*
X235380Y344071D01*
X235205Y344102D01*
X235031Y344137D01*
X234858Y344178D01*
X234772Y344201D01*
X234772Y344201D01*
X234683Y344225D01*
X234506Y344280D01*
X234332Y344342D01*
X234160Y344412D01*
X234076Y344450D01*
X234076Y344450D01*
X233991Y344489D01*
X233826Y344576D01*
X233665Y344672D01*
X233511Y344777D01*
X233437Y344834D01*
X233361Y344892D01*
X233220Y345019D01*
X233087Y345156D01*
X232966Y345302D01*
X232910Y345380D01*
Y345380D01*
X232784Y345565D01*
X232594Y345970D01*
X232470Y346399D01*
X232414Y346844D01*
X232421Y347067D01*
Y347067D01*
X232421D01*
X232405Y347425D01*
X232532Y348129D01*
X232811Y348787D01*
X233229Y349368D01*
X233498Y349605D01*
X233498D01*
X233678Y349755D01*
X234070Y350012D01*
X234490Y350222D01*
X234932Y350381D01*
X235161Y350434D01*
X235200Y350444D01*
X235279Y350461D01*
X235359Y350477D01*
X235439Y350490D01*
X235479Y350495D01*
Y350495D01*
X235662Y350533D01*
X236028Y350602D01*
X236396Y350664D01*
X236765Y350720D01*
X236950Y350745D01*
X236950Y350745D01*
X237130Y350769D01*
X237491Y350812D01*
X237852Y350849D01*
X238214Y350881D01*
X238395Y350894D01*
D01*
X238569Y350907D01*
X238916Y350927D01*
X239264Y350944D01*
X239612Y350956D01*
X239786Y350960D01*
Y350960D01*
X239786Y350960D01*
X240097Y350967D01*
X240720Y350967D01*
X241343Y350955D01*
X241966Y350931D01*
X242277Y350912D01*
X242277Y350912D01*
X242515Y350898D01*
X242991Y350863D01*
X243467Y350821D01*
X243942Y350771D01*
X244179Y350743D01*
X244179Y350743D01*
X244179D01*
X244261Y350733D01*
X244424Y350712D01*
X244588Y350690D01*
X244751Y350667D01*
X244833Y350656D01*
D01*
X244903Y350645D01*
X245043Y350624D01*
X245183Y350602D01*
X245322Y350578D01*
X245392Y350565D01*
D01*
X245392D01*
X245490Y350545D01*
X245683Y350495D01*
X245873Y350438D01*
X246061Y350372D01*
X246154Y350335D01*
X246514Y350204D01*
X247143Y349765D01*
X247638Y349179D01*
X247964Y348486D01*
X248032Y348109D01*
D01*
X248039Y348074D01*
X248050Y348005D01*
X248060Y347935D01*
X248067Y347865D01*
X248071Y347830D01*
X248071D01*
X248074Y347798D01*
X248078Y347735D01*
X248080Y347672D01*
X248080Y347609D01*
X248079Y347577D01*
X248079D01*
X248075Y347444D01*
X248052Y347179D01*
X248013Y346915D01*
X247959Y346654D01*
X247924Y346526D01*
X247924Y346526D01*
X247871Y346323D01*
X247709Y345938D01*
X247496Y345579D01*
X247234Y345253D01*
X247082Y345110D01*
X247015Y345048D01*
X246874Y344934D01*
X246727Y344827D01*
X246573Y344730D01*
X246494Y344686D01*
X246494Y344686D01*
X246418Y344644D01*
X246263Y344567D01*
X246105Y344498D01*
X245943Y344437D01*
X245861Y344410D01*
X245861Y344410D01*
X245861Y344410D01*
X245784Y344384D01*
X245628Y344339D01*
X245470Y344300D01*
X245312Y344266D01*
X245232Y344252D01*
X245102Y344229D01*
X244841Y344196D01*
X244579Y344175D01*
X244316Y344167D01*
X244184Y344169D01*
X244184Y344169D01*
X244130Y344170D01*
X244020Y344173D01*
X243911Y344180D01*
X243802Y344189D01*
X243747Y344196D01*
Y344196D01*
X243775Y344028D01*
X243828Y343694D01*
X243875Y343358D01*
X243919Y343022D01*
X243938Y342854D01*
D01*
X243972Y342567D01*
X244026Y341992D01*
X244065Y341416D01*
X244089Y340840D01*
X244094Y340551D01*
X244094Y340551D01*
X244094D01*
X244096Y340432D01*
X244098Y340194D01*
X244096Y339955D01*
X244091Y339717D01*
X244087Y339598D01*
X244087D01*
X244084Y339496D01*
X244075Y339291D01*
X244064Y339087D01*
X244051Y338883D01*
X244042Y338781D01*
X244042D01*
X244036Y338697D01*
X244021Y338527D01*
X244004Y338358D01*
X243985Y338189D01*
X243974Y338105D01*
X243966Y338038D01*
X243948Y337905D01*
X243928Y337772D01*
X243907Y337639D01*
X243896Y337573D01*
X243896Y337573D01*
X243888Y337525D01*
X243871Y337428D01*
X243852Y337332D01*
X243833Y337236D01*
X243823Y337188D01*
X243823D01*
X243823Y337188D01*
X243815Y337149D01*
X243797Y337071D01*
X243778Y336993D01*
X243758Y336915D01*
X243747Y336876D01*
X243747Y336876D01*
X243747Y336876D01*
X243727Y336776D01*
X243677Y336579D01*
X243618Y336384D01*
X243551Y336191D01*
X243513Y336097D01*
X243513Y336097D01*
X243357Y335690D01*
X242828Y334998D01*
X242123Y334485D01*
X241302Y334193D01*
X240867Y334170D01*
D01*
X240833Y334167D01*
X240766Y334164D01*
X240698Y334163D01*
X240631Y334165D01*
X240597Y334166D01*
D01*
X240597Y334166D01*
X240587Y334165D01*
X240567Y334164D01*
X240547Y334162D01*
X240527Y334161D01*
X240517Y334161D01*
X240397Y334156D01*
X240156Y334163D01*
X239916Y334187D01*
X239678Y334226D01*
X239561Y334253D01*
X239561Y334253D01*
X239288Y334311D01*
X238772Y334525D01*
X238303Y334829D01*
X237898Y335212D01*
X237733Y335438D01*
X237733D01*
X237733Y335438D01*
X237621Y335600D01*
X237430Y335944D01*
X237276Y336307D01*
X237161Y336683D01*
X237123Y336876D01*
X237098Y336995D01*
X237052Y337234D01*
X237011Y337474D01*
X236975Y337715D01*
X236960Y337836D01*
X236960Y337836D01*
X236944Y337958D01*
X236916Y338204D01*
X236893Y338449D01*
X236873Y338696D01*
X236865Y338819D01*
X236865Y338819D01*
Y338819D01*
X236857Y338941D01*
X236845Y339185D01*
X236835Y339429D01*
X236828Y339674D01*
X236827Y339796D01*
X236827D01*
D02*
G37*
G36*
X268788Y351030D02*
Y351030D01*
X269048Y351010D01*
X269303Y350978D01*
Y350978D01*
X269532Y350935D01*
X269755Y350880D01*
X270012Y350799D01*
X270137Y350753D01*
X270381Y350639D01*
X270615Y350505D01*
X270725Y350429D01*
D01*
X270831Y350355D01*
X271032Y350191D01*
X271220Y350013D01*
X271394Y349822D01*
X271474Y349720D01*
X271474D01*
X271555Y349616D01*
X271707Y349400D01*
X271846Y349176D01*
X271972Y348944D01*
X272029Y348826D01*
X272087Y348704D01*
X272195Y348455D01*
X272292Y348203D01*
X272379Y347947D01*
X272418Y347817D01*
D01*
X272457Y347688D01*
X272528Y347427D01*
X272590Y347164D01*
X272646Y346900D01*
X272670Y346767D01*
X272729Y346434D01*
X272814Y345765D01*
X272868Y345093D01*
X272890Y344419D01*
X272885Y344082D01*
X272884Y343997D01*
X272880Y343826D01*
X272875Y343683D01*
X272860Y343425D01*
X272859Y343400D01*
X272859D01*
D01*
X273142Y343380D01*
X273339Y343343D01*
X273641Y343225D01*
X273812Y343115D01*
X274030Y342939D01*
D01*
X274062Y342907D01*
X274123Y342841D01*
X274180Y342772D01*
X274233Y342699D01*
X274257Y342662D01*
X274280Y342626D01*
X274324Y342553D01*
X274365Y342478D01*
X274402Y342402D01*
X274419Y342363D01*
X274460Y342268D01*
X274527Y342073D01*
X274580Y341874D01*
X274617Y341671D01*
X274628Y341568D01*
X274631Y341543D01*
X274636Y341491D01*
X274640Y341439D01*
X274642Y341387D01*
X274642Y341361D01*
X274643Y341296D01*
X274637Y341168D01*
X274624Y341040D01*
X274605Y340912D01*
X274592Y340849D01*
X274565Y340704D01*
X274463Y340428D01*
X274315Y340172D01*
X274126Y339945D01*
X274014Y339849D01*
D01*
X273984Y339823D01*
X273920Y339773D01*
X273853Y339726D01*
X273785Y339682D01*
X273750Y339661D01*
X273750D01*
X273669Y339614D01*
X273497Y339533D01*
X273320Y339466D01*
X273137Y339414D01*
X273044Y339396D01*
X273044Y339396D01*
X272957Y339384D01*
X272859Y339369D01*
X272859Y339369D01*
X272859Y339369D01*
X272860Y339357D01*
X272890Y339120D01*
X272910Y338893D01*
X272921Y338666D01*
X272922Y338614D01*
X272924Y338323D01*
X272924Y338323D01*
X272915Y338042D01*
X272907Y337911D01*
X272894Y337747D01*
X272884Y337665D01*
X272884Y337665D01*
X272874Y337575D01*
X272849Y337394D01*
X272817Y337215D01*
X272757Y336949D01*
X272757Y336948D01*
X272684Y336687D01*
X272680Y336674D01*
X272618Y336495D01*
X272548Y336318D01*
X272508Y336232D01*
X272429Y336051D01*
X272220Y335714D01*
X271967Y335409D01*
X271673Y335143D01*
X271510Y335031D01*
D01*
X271298Y334900D01*
X270841Y334702D01*
X270360Y334574D01*
X269905Y334523D01*
X269616Y334528D01*
X269328Y334537D01*
X269238Y334542D01*
X268987Y334576D01*
X268740Y334628D01*
X268619Y334663D01*
X268517Y334693D01*
X268319Y334770D01*
X268128Y334862D01*
X267946Y334970D01*
X267859Y335031D01*
X267859Y335031D01*
X267780Y335088D01*
X267631Y335213D01*
X267492Y335349D01*
X267364Y335496D01*
X267306Y335574D01*
X267249Y335650D01*
X267144Y335809D01*
X267049Y335974D01*
X267042Y335988D01*
X266927Y336232D01*
D01*
X266828Y336482D01*
X266823Y336495D01*
X266764Y336675D01*
X266761Y336686D01*
X266692Y336948D01*
Y336948D01*
X266634Y337216D01*
X266604Y337394D01*
X266579Y337575D01*
X266569Y337665D01*
D01*
X266553Y337814D01*
X266533Y338115D01*
X266525Y338415D01*
X266527Y338579D01*
X266537Y338866D01*
X266537Y338866D01*
X266557Y339149D01*
X266582Y339369D01*
X266320Y339371D01*
X266289Y339371D01*
X266173Y339374D01*
X265885Y339383D01*
X265885Y339383D01*
D01*
X265597Y339397D01*
X265437Y339406D01*
X265140Y339429D01*
X264842Y339457D01*
X264694Y339474D01*
X264632Y339481D01*
X264509Y339497D01*
X264386Y339513D01*
X264263Y339531D01*
X264202Y339540D01*
D01*
X264149Y339548D01*
X264044Y339565D01*
X263939Y339583D01*
X263834Y339602D01*
X263782Y339612D01*
X263738Y339621D01*
X263736Y339621D01*
X263551Y339660D01*
X263551Y339660D01*
X263704Y339628D01*
X263537Y339663D01*
X263297Y339718D01*
X263272Y339724D01*
X263195Y339744D01*
X263130Y339761D01*
X263066Y339778D01*
X263048Y339783D01*
X263039Y339786D01*
X262878Y339832D01*
X262866Y339836D01*
X262826Y339849D01*
X262807Y339856D01*
X262685Y339886D01*
X262449Y339974D01*
X262225Y340087D01*
X262014Y340224D01*
X261917Y340303D01*
X261834Y340374D01*
X261684Y340534D01*
X261554Y340711D01*
X261524Y340761D01*
X261401Y341002D01*
X261401Y341002D01*
X261309Y341254D01*
X261286Y341322D01*
X261234Y341543D01*
X261200Y341768D01*
X261192Y341881D01*
X261184Y342004D01*
X261179Y342252D01*
X261187Y342500D01*
X261195Y342592D01*
X261225Y342870D01*
X261225Y342870D01*
X261267Y343144D01*
X261287Y343260D01*
X261339Y343517D01*
X261399Y343773D01*
X261434Y343900D01*
X261468Y344027D01*
X261542Y344279D01*
X261622Y344529D01*
X261707Y344777D01*
X261752Y344900D01*
X261829Y345108D01*
X261994Y345520D01*
X262170Y345928D01*
X262336Y346288D01*
X262455Y346530D01*
X262576Y346771D01*
X262582Y346782D01*
X262670Y346950D01*
X262676Y346960D01*
X262807Y347198D01*
X262942Y347433D01*
X263111Y347709D01*
X263331Y348039D01*
X263518Y348296D01*
X263688Y348517D01*
X263865Y348734D01*
X264014Y348906D01*
X264246Y349153D01*
X264404Y349307D01*
X264614Y349502D01*
X264829Y349686D01*
X264950Y349785D01*
X265186Y349959D01*
X265428Y350123D01*
X265553Y350200D01*
X265915Y350423D01*
X266696Y350755D01*
X267519Y350966D01*
X268364Y351052D01*
X268788Y351030D01*
D02*
G37*
G36*
X303124D02*
X303124Y351030D01*
X303384Y351010D01*
X303640Y350978D01*
X303640Y350978D01*
X303868Y350935D01*
X304091Y350880D01*
X304348Y350799D01*
X304473Y350753D01*
X304717Y350639D01*
X304951Y350505D01*
X305062Y350429D01*
D01*
X305168Y350355D01*
X305368Y350191D01*
X305556Y350013D01*
X305730Y349822D01*
X305810Y349720D01*
X305810Y349720D01*
X305891Y349616D01*
X306043Y349400D01*
X306182Y349176D01*
X306308Y348944D01*
X306365Y348826D01*
X306423Y348704D01*
X306531Y348455D01*
X306628Y348203D01*
X306716Y347947D01*
X306754Y347817D01*
X306754D01*
X306793Y347688D01*
X306864Y347427D01*
X306927Y347164D01*
X306982Y346900D01*
X307007Y346767D01*
X307065Y346434D01*
X307150Y345765D01*
X307204Y345093D01*
X307226Y344419D01*
X307221Y344082D01*
X307221Y343997D01*
X307217Y343826D01*
X307211Y343683D01*
X307196Y343425D01*
X307195Y343400D01*
X307195D01*
D01*
X307478Y343380D01*
X307675Y343343D01*
X307977Y343225D01*
X308149Y343115D01*
X308367Y342939D01*
D01*
X308399Y342907D01*
X308459Y342841D01*
X308516Y342772D01*
X308569Y342699D01*
X308593Y342662D01*
X308617Y342626D01*
X308660Y342553D01*
X308701Y342478D01*
X308738Y342402D01*
X308756Y342363D01*
X308796Y342268D01*
X308863Y342073D01*
X308916Y341874D01*
X308953Y341671D01*
X308964Y341568D01*
X308967Y341543D01*
X308972Y341491D01*
X308976Y341439D01*
X308978Y341387D01*
X308979Y341361D01*
X308979Y341296D01*
X308973Y341168D01*
X308961Y341039D01*
X308942Y340912D01*
X308929Y340849D01*
X308901Y340704D01*
X308799Y340428D01*
X308651Y340172D01*
X308463Y339945D01*
X308351Y339849D01*
D01*
X308320Y339823D01*
X308256Y339773D01*
X308190Y339726D01*
X308122Y339682D01*
X308087Y339661D01*
X308087D01*
X308005Y339614D01*
X307833Y339533D01*
X307656Y339466D01*
X307473Y339414D01*
X307380Y339396D01*
X307380Y339396D01*
X307293Y339384D01*
X307195Y339369D01*
X307195Y339369D01*
X307195Y339369D01*
X307196Y339357D01*
X307227Y339120D01*
X307246Y338893D01*
X307258Y338666D01*
X307259Y338614D01*
X307260Y338323D01*
Y338323D01*
X307252Y338042D01*
X307244Y337911D01*
X307230Y337747D01*
X307221Y337665D01*
X307221D01*
X307211Y337575D01*
X307185Y337394D01*
X307153Y337215D01*
X307093Y336949D01*
X307093Y336948D01*
X307021Y336687D01*
X307017Y336674D01*
X306954Y336495D01*
X306884Y336318D01*
X306844Y336232D01*
X306765Y336051D01*
X306556Y335714D01*
X306303Y335409D01*
X306010Y335143D01*
X305846Y335031D01*
D01*
X305634Y334900D01*
X305177Y334702D01*
X304696Y334574D01*
X304241Y334523D01*
X303952Y334528D01*
X303664Y334537D01*
X303574Y334542D01*
X303324Y334576D01*
X303077Y334628D01*
X302955Y334663D01*
X302853Y334693D01*
X302656Y334770D01*
X302465Y334862D01*
X302282Y334970D01*
X302196Y335031D01*
X302196D01*
X302116Y335088D01*
X301968Y335213D01*
X301829Y335349D01*
X301700Y335496D01*
X301642Y335574D01*
X301585Y335650D01*
X301480Y335809D01*
X301385Y335974D01*
X301378Y335988D01*
X301263Y336232D01*
D01*
X301164Y336482D01*
X301159Y336495D01*
X301100Y336675D01*
X301097Y336686D01*
X301028Y336948D01*
X301028Y336948D01*
X300971Y337216D01*
X300940Y337394D01*
X300915Y337575D01*
X300905Y337665D01*
X300905D01*
X300889Y337814D01*
X300869Y338115D01*
X300862Y338415D01*
X300864Y338579D01*
X300873Y338866D01*
X300873Y338866D01*
X300893Y339149D01*
X300918Y339369D01*
X300657Y339371D01*
X300625Y339371D01*
X300509Y339374D01*
X300221Y339383D01*
X300221Y339383D01*
D01*
X299934Y339397D01*
X299774Y339406D01*
X299476Y339429D01*
X299178Y339457D01*
X299030Y339474D01*
X298968Y339481D01*
X298845Y339497D01*
X298722Y339513D01*
X298600Y339531D01*
X298538Y339540D01*
X298538D01*
X298486Y339548D01*
X298380Y339565D01*
X298275Y339583D01*
X298171Y339602D01*
X298118Y339612D01*
X298075Y339621D01*
X298072Y339621D01*
X297887Y339660D01*
X297887Y339660D01*
X298040Y339628D01*
X297873Y339663D01*
X297633Y339718D01*
X297608Y339724D01*
X297531Y339744D01*
X297467Y339761D01*
X297402Y339778D01*
X297384Y339783D01*
X297375Y339786D01*
X297214Y339832D01*
X297202Y339836D01*
X297163Y339849D01*
X297143Y339856D01*
X297021Y339886D01*
X296785Y339974D01*
X296561Y340087D01*
X296351Y340224D01*
X296253Y340303D01*
X296170Y340374D01*
X296020Y340534D01*
X295890Y340711D01*
X295861Y340761D01*
X295737Y341002D01*
X295737Y341002D01*
X295645Y341254D01*
X295623Y341322D01*
X295570Y341543D01*
X295536Y341768D01*
X295529Y341881D01*
X295520Y342004D01*
X295515Y342252D01*
X295524Y342500D01*
X295531Y342592D01*
X295562Y342870D01*
D01*
X295603Y343144D01*
X295623Y343260D01*
X295675Y343517D01*
X295736Y343773D01*
X295770Y343900D01*
X295805Y344027D01*
X295879Y344279D01*
X295958Y344529D01*
X296043Y344777D01*
X296089Y344900D01*
X296165Y345108D01*
X296330Y345520D01*
X296506Y345928D01*
X296673Y346288D01*
X296791Y346530D01*
X296912Y346771D01*
X296918Y346782D01*
X297006Y346950D01*
X297012Y346960D01*
X297143Y347198D01*
X297278Y347433D01*
X297447Y347709D01*
X297668Y348039D01*
X297854Y348296D01*
X298024Y348517D01*
X298202Y348734D01*
X298350Y348906D01*
X298582Y349153D01*
X298740Y349307D01*
X298950Y349502D01*
X299165Y349686D01*
X299287Y349785D01*
X299522Y349959D01*
X299765Y350123D01*
X299889Y350200D01*
X300251Y350423D01*
X301032Y350755D01*
X301855Y350966D01*
X302700Y351052D01*
X303124Y351030D01*
D02*
G37*
%LPC*%
G36*
X266366Y344698D02*
X266234Y344696D01*
Y344696D01*
X266101Y344693D01*
X265845Y344615D01*
X265620Y344470D01*
X265444Y344269D01*
X265387Y344148D01*
X265363Y344099D01*
X265329Y343995D01*
X265309Y343887D01*
X265303Y343778D01*
X265308Y343723D01*
X265310Y343701D01*
X265314Y343655D01*
X265320Y343609D01*
X265320Y343609D01*
X265327Y343564D01*
X265327Y343564D01*
X265331Y343542D01*
X265331Y343542D01*
X265335Y343522D01*
X265335Y343522D01*
X265344Y343482D01*
X265344Y343482D01*
X265355Y343443D01*
X265355Y343443D01*
X265367Y343404D01*
X265373Y343385D01*
X265373Y343385D01*
X265393Y343321D01*
X265456Y343204D01*
X265457Y343204D01*
X265541Y343100D01*
X265643Y343014D01*
X265696Y342985D01*
X265701Y342982D01*
Y342982D01*
X265701Y342982D01*
X265715Y342974D01*
X265744Y342960D01*
X265773Y342947D01*
X265803Y342935D01*
X265834Y342924D01*
X265866Y342914D01*
X265898Y342905D01*
X265898Y342905D01*
X265930Y342897D01*
X265930Y342897D01*
X265947Y342894D01*
X265947Y342894D01*
X265982Y342887D01*
X266053Y342876D01*
X266054Y342876D01*
X266126Y342870D01*
X266126Y342870D01*
X266198Y342867D01*
X266198Y342867D01*
X266234Y342867D01*
X266234Y342867D01*
X266271Y342867D01*
X266344Y342871D01*
X266344Y342871D01*
X266417Y342881D01*
X266417D01*
X266488Y342895D01*
X266488D01*
X266524Y342905D01*
X266622Y342929D01*
X266801Y343025D01*
X266950Y343163D01*
X267060Y343334D01*
X267092Y343430D01*
X267104Y343465D01*
X267121Y343538D01*
X267132Y343612D01*
X267137Y343686D01*
X267137Y343723D01*
X267137Y343778D01*
X267126Y343886D01*
X267105Y343993D01*
X267073Y344098D01*
X267052Y344148D01*
X267052D01*
X267003Y344271D01*
X266838Y344476D01*
X266619Y344623D01*
X266366Y344698D01*
D02*
G37*
G36*
X300702D02*
X300571Y344696D01*
Y344696D01*
X300437Y344693D01*
X300181Y344615D01*
X299956Y344470D01*
X299780Y344269D01*
X299723Y344148D01*
X299699Y344099D01*
X299665Y343995D01*
X299645Y343887D01*
X299640Y343778D01*
X299644Y343723D01*
X299646Y343701D01*
X299650Y343655D01*
X299656Y343609D01*
X299656Y343609D01*
X299663Y343564D01*
X299663Y343564D01*
X299668Y343542D01*
X299668Y343542D01*
X299671Y343522D01*
X299671Y343522D01*
X299680Y343482D01*
X299680Y343482D01*
X299691Y343443D01*
X299691Y343443D01*
X299703Y343404D01*
X299709Y343385D01*
X299709Y343385D01*
X299729Y343321D01*
X299793Y343204D01*
X299793Y343204D01*
X299877Y343100D01*
X299979Y343014D01*
X300032Y342985D01*
X300038Y342982D01*
Y342982D01*
X300038Y342982D01*
X300052Y342974D01*
X300080Y342960D01*
X300110Y342947D01*
X300139Y342935D01*
X300170Y342924D01*
X300202Y342914D01*
X300234Y342905D01*
X300234Y342905D01*
X300267Y342897D01*
X300267Y342897D01*
X300283Y342894D01*
X300283Y342894D01*
X300318Y342887D01*
X300390Y342876D01*
X300390Y342876D01*
X300462Y342870D01*
X300462Y342870D01*
X300534Y342867D01*
X300534Y342867D01*
X300571Y342867D01*
X300571Y342867D01*
X300607Y342867D01*
X300680Y342871D01*
X300680Y342871D01*
X300753Y342881D01*
X300753D01*
X300824Y342895D01*
X300825D01*
X300860Y342905D01*
X300958Y342929D01*
X301137Y343025D01*
X301286Y343163D01*
X301396Y343334D01*
X301428Y343430D01*
X301440Y343465D01*
X301457Y343538D01*
X301468Y343612D01*
X301474Y343686D01*
X301473Y343723D01*
X301473Y343778D01*
X301463Y343886D01*
X301441Y343993D01*
X301409Y344098D01*
X301388Y344148D01*
X301388D01*
X301340Y344271D01*
X301174Y344476D01*
X300955Y344623D01*
X300702Y344698D01*
D02*
G37*
%LPD*%
D10*
X317145Y107306D02*
G03*
X312107Y107405I-2578J-2975D01*
G01*
X311988Y101356D02*
G03*
X317026Y101256I2578J2975D01*
G01*
X242342Y107306D02*
G03*
X237304Y107405I-2578J-2975D01*
G01*
X237185Y101356D02*
G03*
X242223Y101256I2578J2975D01*
G01*
X167539Y107306D02*
G03*
X162501Y107405I-2578J-2975D01*
G01*
X162382Y101356D02*
G03*
X167420Y101256I2578J2975D01*
G01*
X317145Y182109D02*
G03*
X312107Y182208I-2578J-2975D01*
G01*
X311988Y176159D02*
G03*
X317026Y176060I2578J2975D01*
G01*
X242342Y182109D02*
G03*
X237304Y182208I-2578J-2975D01*
G01*
X237185Y176159D02*
G03*
X242223Y176060I2578J2975D01*
G01*
X167539Y182109D02*
G03*
X162501Y182208I-2578J-2975D01*
G01*
X162382Y176159D02*
G03*
X167420Y176060I2578J2975D01*
G01*
X317145Y256912D02*
G03*
X312107Y257011I-2578J-2975D01*
G01*
X311988Y250962D02*
G03*
X317026Y250863I2578J2975D01*
G01*
X242342Y256912D02*
G03*
X237304Y257011I-2578J-2975D01*
G01*
X237185Y250962D02*
G03*
X242223Y250863I2578J2975D01*
G01*
X167539Y256912D02*
G03*
X162501Y257011I-2578J-2975D01*
G01*
X162382Y250962D02*
G03*
X167420Y250863I2578J2975D01*
G01*
D11*
X201842Y368727D02*
G03*
X206221Y366142I4378J2414D01*
G01*
X266220D02*
G03*
X270599Y368727I0J5000D01*
G01*
X206221Y446142D02*
G03*
X201220Y441142I0J-5000D01*
G01*
X271220D02*
G03*
X266220Y446142I-5000J0D01*
G01*
X150591Y411647D02*
X162423Y423479D01*
X150591Y411647D02*
X155741Y406497D01*
X162423Y423479D02*
X167573Y418328D01*
X155741Y406497D02*
X167573Y418328D01*
X140453Y352854D02*
Y369587D01*
X133169D02*
X140453D01*
X133169Y352854D02*
X140453D01*
X133169D02*
Y369587D01*
X96949Y389075D02*
X113681Y389075D01*
X113681Y396358D02*
X113681Y389075D01*
X96949Y389075D02*
X96949Y396358D01*
X113681Y396358D01*
X106049Y418328D02*
X117881Y406497D01*
X123031Y411647D01*
X106049Y418328D02*
X111199Y423479D01*
X123031Y411647D01*
X310018Y361955D02*
X321850Y373786D01*
X316700Y378936D02*
X321850Y373786D01*
X304868Y367105D02*
X310018Y361955D01*
X304868Y367105D02*
X316700Y378936D01*
X304868Y418328D02*
X316700Y406497D01*
X321850Y411647D01*
X304868Y418328D02*
X310018Y423479D01*
X321850Y411647D01*
X349410Y411647D02*
X361242Y423479D01*
X349410Y411647D02*
X354560Y406497D01*
X361242Y423479D02*
X366392Y418328D01*
X354560Y406497D02*
X366392Y418328D01*
X349410Y373786D02*
X361242Y361955D01*
X366392Y367105D01*
X349410Y373786D02*
X354560Y378936D01*
X366392Y367105D01*
X331988Y432579D02*
X331988Y415846D01*
X339272D01*
X331988Y432579D02*
X339272D01*
Y415846D02*
Y432579D01*
X228988Y365811D02*
Y366142D01*
X212453Y365811D02*
Y366142D01*
Y365811D02*
X216783D01*
Y361874D02*
Y365811D01*
Y361874D02*
X224658D01*
Y365811D01*
X228988D01*
X218622Y446270D02*
Y452608D01*
X253819Y446270D02*
Y452608D01*
X218622D02*
X253819D01*
X206221Y366142D02*
X232323Y366142D01*
X240118Y366142D02*
X266220Y366142D01*
X271220Y408740D02*
Y412362D01*
Y420000D02*
Y422362D01*
Y430000D02*
Y432362D01*
X201220Y439252D02*
Y441142D01*
X271220Y440079D02*
Y441142D01*
X206221Y446142D02*
X266220D01*
X331988Y352854D02*
Y369587D01*
Y352854D02*
X339272D01*
X331988Y369587D02*
X339272D01*
Y352854D02*
Y369587D01*
X295768Y396358D02*
X312500D01*
X295768Y389075D02*
X295768Y396358D01*
X312500Y389075D02*
X312500Y396358D01*
X295768Y389075D02*
X312500D01*
X106049Y367105D02*
X117881Y378936D01*
X106049Y367105D02*
X111199Y361955D01*
X117881Y378936D02*
X123031Y373786D01*
X111199Y361955D02*
X123031Y373786D01*
X150591Y373786D02*
X162423Y361955D01*
X167573Y367105D01*
X150591Y373786D02*
X155741Y378936D01*
X167573Y367105D01*
X159941Y389075D02*
X176673D01*
Y396358D01*
X159941Y389075D02*
Y396358D01*
X176673D01*
X140453Y415846D02*
Y432579D01*
X133169D02*
X140453D01*
X133169Y415846D02*
X140453D01*
X133169D02*
Y432579D01*
X358760Y389075D02*
X375492D01*
X375492Y396358D01*
X358760Y389075D02*
X358760Y396358D01*
X375492D01*
D12*
X271220Y440079D02*
D03*
D13*
X301181Y107874D02*
Y109252D01*
X320866D01*
Y107874D02*
Y109252D01*
Y99410D02*
Y100787D01*
X301181Y99410D02*
X320866D01*
X301181D02*
Y100787D01*
X226378Y107874D02*
Y109252D01*
X246063D01*
Y107874D02*
Y109252D01*
Y99410D02*
Y100787D01*
X226378Y99410D02*
X246063D01*
X226378D02*
Y100787D01*
X151575Y107874D02*
Y109252D01*
X171260D01*
Y107874D02*
Y109252D01*
Y99410D02*
Y100787D01*
X151575Y99410D02*
X171260D01*
X151575D02*
Y100787D01*
X301181Y182677D02*
Y184055D01*
X320866D01*
Y182677D02*
Y184055D01*
Y174213D02*
Y175591D01*
X301181Y174213D02*
X320866D01*
X301181D02*
Y175591D01*
X226378Y182677D02*
Y184055D01*
X246063D01*
Y182677D02*
Y184055D01*
Y174213D02*
Y175591D01*
X226378Y174213D02*
X246063D01*
X226378D02*
Y175591D01*
X151575Y182677D02*
Y184055D01*
X171260D01*
Y182677D02*
Y184055D01*
Y174213D02*
Y175591D01*
X151575Y174213D02*
X171260D01*
X151575D02*
Y175591D01*
X320866Y249016D02*
Y250394D01*
X301181Y249016D02*
X320866D01*
X301181D02*
Y250394D01*
X246063Y249016D02*
Y250394D01*
X226378Y249016D02*
X246063D01*
X226378D02*
Y250394D01*
X171260Y249016D02*
Y250394D01*
X151575Y249016D02*
X171260D01*
X151575D02*
Y250394D01*
X116142Y100394D02*
X131890D01*
X116142D02*
Y108268D01*
X131890D01*
Y100394D02*
Y108268D01*
X116142Y175197D02*
X131890D01*
X116142D02*
Y183071D01*
X131890D01*
Y175197D02*
Y183071D01*
X116142Y250000D02*
X131890D01*
X116142D02*
Y257874D01*
X131890D01*
Y250000D02*
Y257874D01*
X273228Y107480D02*
X274016D01*
X273228Y101181D02*
X274016D01*
X80499Y429127D02*
X82725Y426900D01*
X83839Y428014D01*
X83839Y428756D01*
X83468Y429127D01*
X82725Y429127D01*
X81612Y428014D01*
X82725Y429127D01*
Y429869D01*
X82354Y430240D01*
X81612D01*
X80499Y429127D01*
X83468Y430611D02*
X84952Y429127D01*
X84210Y429869D01*
Y430611D01*
Y431353D01*
X84581Y431724D01*
X88291Y432467D02*
X87549Y431724D01*
X86807D01*
X86065Y432467D01*
X86065Y433209D01*
X86807Y433951D01*
X87549D01*
X87920Y433580D01*
X86436Y432095D01*
X88291Y435435D02*
X89034Y436177D01*
X89776D01*
X90889Y435064D01*
X89776Y433951D01*
X89034D01*
X89034Y434693D01*
X90147Y435806D01*
X91631D02*
X89405Y438032D01*
X90889Y436548D02*
X91260Y438404D01*
X90889Y436548D02*
X92744Y436919D01*
X96455Y440630D02*
X94599Y442485D01*
X95342Y441743D01*
X94971Y441372D01*
X95713Y442114D01*
X95342Y441743D01*
X94599Y442485D01*
Y443227D01*
X98310Y442485D02*
X99052Y443227D01*
Y443969D01*
X98310Y444712D01*
X97568D01*
X96826Y443969D01*
Y443227D01*
X97568Y442485D01*
X98310D01*
X98681Y445825D02*
X100165Y444341D01*
X99423Y445083D01*
Y445825D01*
Y446567D01*
X99794Y446938D01*
X90481Y427308D02*
X88255Y429535D01*
X91965Y428793D01*
X89739Y431019D01*
X91594Y430648D02*
X93078Y432132D01*
X94934Y431761D02*
X92707Y433988D01*
X94192Y432503D02*
X94563Y434359D01*
X94192Y432503D02*
X96047Y432874D01*
X98273Y435101D02*
X97531Y434359D01*
X96789D01*
X96047Y435101D01*
X96047Y435843D01*
X96789Y436585D01*
X97531D01*
X97902Y436214D01*
X96418Y434730D01*
X97902Y437698D02*
X99015Y436585D01*
X99758D01*
X100871Y437698D01*
X101242Y437327D01*
Y436585D01*
X100871Y436214D01*
Y437698D02*
X99387Y439183D01*
X374009Y447060D02*
X371782Y444834D01*
X372896Y443720D01*
X373638Y443720D01*
X374009Y444091D01*
X374009Y444834D01*
X372896Y445947D01*
X374009Y444834D01*
X374751D01*
X375122Y445205D01*
Y445947D01*
X374009Y447060D01*
X375493Y444091D02*
X374009Y442607D01*
X374751Y443349D01*
X375493D01*
X376235D01*
X376606Y442978D01*
X377348Y439268D02*
X376606Y440010D01*
Y440752D01*
X377348Y441494D01*
X378091Y441494D01*
X378833Y440752D01*
Y440010D01*
X378462Y439639D01*
X376977Y441123D01*
X380317Y439268D02*
X381059Y438525D01*
Y437783D01*
X379946Y436670D01*
X378833Y437783D01*
Y438525D01*
X379575Y438525D01*
X380688Y437412D01*
Y435928D02*
X382914Y438154D01*
X381430Y436670D02*
X383285Y436299D01*
X381430Y436670D02*
X381801Y434815D01*
X385512Y431104D02*
X387367Y432960D01*
X386625Y432217D01*
X386254Y432588D01*
X386996Y431846D01*
X386625Y432217D01*
X387367Y432960D01*
X388109D01*
X387367Y429249D02*
X388109Y428507D01*
X388851D01*
X389594Y429249D01*
Y429991D01*
X388851Y430733D01*
X388109D01*
X387367Y429991D01*
Y429249D01*
X390707Y428878D02*
X389223Y427393D01*
X389965Y428136D01*
X390707D01*
X391449D01*
X391820Y427765D01*
X372190Y437078D02*
X374417Y439304D01*
X373675Y435594D01*
X375901Y437820D01*
X375530Y435965D02*
X377014Y434480D01*
X376643Y432625D02*
X378870Y434852D01*
X377385Y433367D02*
X379240Y432996D01*
X377385Y433367D02*
X377756Y431512D01*
X379983Y429286D02*
X379240Y430028D01*
Y430770D01*
X379983Y431512D01*
X380725Y431512D01*
X381467Y430770D01*
Y430028D01*
X381096Y429657D01*
X379612Y431141D01*
X382580Y429657D02*
X381467Y428544D01*
Y427801D01*
X382580Y426688D01*
X382209Y426317D01*
X381467D01*
X381096Y426688D01*
X382580D02*
X384064Y428172D01*
D14*
X163631Y419537D02*
D03*
X308810Y365897D02*
D03*
X362450Y419537D02*
D03*
X109991Y365897D02*
D03*
D15*
X136811Y354787D02*
D03*
X335630Y430646D02*
D03*
X335630Y354788D02*
D03*
X136811Y430646D02*
D03*
D16*
X98882Y392716D02*
D03*
X297701Y392716D02*
D03*
X174740Y392717D02*
D03*
X373559Y392717D02*
D03*
D17*
X109991Y419536D02*
D03*
X308810Y419536D02*
D03*
X362450Y365897D02*
D03*
X163631Y365897D02*
D03*
D18*
X393701Y400512D02*
G03*
X390165Y409047I-12071J0D01*
G01*
X353929Y445283D02*
G03*
X345394Y448819I-8535J-8535D01*
G01*
X389580Y416336D02*
G03*
X386228Y412984I-1676J-1676D01*
G01*
X389580Y416336D02*
G03*
X393626Y418012I1676J1676D01*
G01*
X362894Y448744D02*
G03*
X361218Y444698I0J-2370D01*
G01*
X357866Y441346D02*
G03*
X361218Y444698I1676J1676D01*
G01*
X393626Y429419D02*
G03*
X374301Y448744I-19325J0D01*
G01*
X98140D02*
G03*
X78815Y429419I0J-19325D01*
G01*
X111223Y444698D02*
G03*
X114575Y441346I1676J-1676D01*
G01*
X111223Y444698D02*
G03*
X109547Y448744I-1676J1676D01*
G01*
X78815Y418012D02*
G03*
X82861Y416336I2370J0D01*
G01*
X86213Y412984D02*
G03*
X82861Y416336I-1676J1676D01*
G01*
X127047Y448819D02*
G03*
X118512Y445283I0J-12071D01*
G01*
X82276Y409047D02*
G03*
X78740Y400512I8535J-8535D01*
G01*
X280256Y341006D02*
G03*
X278845Y337646I-19J-1968D01*
G01*
X279054Y348294D02*
G03*
X280465Y344934I1392J-1392D01*
G01*
X281629Y342378D02*
G03*
X281629Y343770I-696J696D01*
G01*
X283806Y348276D02*
G03*
X280446Y349686I-1968J19D01*
G01*
X280655Y335836D02*
G03*
X284015Y337247I1392J1392D01*
G01*
X284970Y347111D02*
G03*
X286362Y347111I696J696D01*
G01*
X286779Y338620D02*
G03*
X285387Y338620I-696J-696D01*
G01*
X291094Y349895D02*
G03*
X287734Y348484I-1392J-1392D01*
G01*
X287943Y337456D02*
G03*
X291303Y336045I1968J-19D01*
G01*
X290120Y343353D02*
G03*
X290120Y341961I696J-696D01*
G01*
X292695Y337437D02*
G03*
X291285Y340797I-1392J1392D01*
G01*
X291493Y344725D02*
G03*
X292904Y348085I19J1968D01*
G01*
X241142Y363189D02*
G03*
X244094Y360236I2953J0D01*
G01*
X228346D02*
G03*
X231299Y363189I0J2953D01*
G01*
X110807Y2210D02*
G03*
X116142Y0I5335J5335D01*
G01*
X105692Y7325D02*
G03*
X102911Y4544I-1460J-1320D01*
G01*
X95065Y7298D02*
G03*
X97849Y7298I1392J1392D01*
G01*
X102939Y12388D02*
G03*
X102939Y15171I-1392J1392D01*
G01*
X82784Y23718D02*
G03*
X80709Y23622I-989J-1085D01*
G01*
X98425Y-0D02*
G03*
X102032Y1494I0J5101D01*
G01*
X86038Y19109D02*
G03*
X86038Y16325I1392J-1392D01*
G01*
X82784Y23718D02*
G03*
X86518Y27453I1961J1773D01*
G01*
X93912Y24199D02*
G03*
X91128Y24199I-1392J-1392D01*
G01*
X103008Y2469D02*
G03*
X102911Y4544I-1085J989D01*
G01*
X80132Y23045D02*
G03*
X78740Y19685I3360J-3360D01*
G01*
X78740Y37402D02*
G03*
X80275Y33695I5241J0D01*
G01*
X78740Y19685D02*
G03*
X98425Y0I19685J0D01*
G01*
X391491Y32067D02*
G03*
X393701Y37402I-5335J5335D01*
G01*
X386376Y26952D02*
G03*
X389156Y24171I1320J-1460D01*
G01*
X386403Y16325D02*
G03*
X386403Y19108I-1392J1392D01*
G01*
X381313Y24199D02*
G03*
X378529Y24199I-1392J-1392D01*
G01*
X369983Y4043D02*
G03*
X370079Y1969I1085J-989D01*
G01*
X393701Y19685D02*
G03*
X392207Y23292I-5101J0D01*
G01*
X374592Y7298D02*
G03*
X377376Y7298I1392J1392D01*
G01*
X369983Y4043D02*
G03*
X366248Y7778I-1773J1961D01*
G01*
X369502Y15171D02*
G03*
X369502Y12388I1392J-1392D01*
G01*
X391231Y24268D02*
G03*
X389156Y24171I-989J-1085D01*
G01*
X370655Y1392D02*
G03*
X374016Y0I3360J3360D01*
G01*
X356299Y0D02*
G03*
X360005Y1535I0J5241D01*
G01*
X374016Y0D02*
G03*
X393701Y19685I0J19685D01*
G01*
X266811Y448819D02*
G03*
X261811Y443819I0J-5000D01*
G01*
X256811Y360236D02*
G03*
X261811Y365236I0J5000D01*
G01*
X210630D02*
G03*
X215630Y360236I5000J0D01*
G01*
X210630Y443819D02*
G03*
X205630Y448819I-5000J0D01*
G01*
X266811D02*
X345394D01*
X386228Y412984D02*
X390165Y409047D01*
X353929Y445283D02*
X357866Y441346D01*
X362894Y448744D02*
X374301D01*
X393626Y418012D02*
Y429419D01*
X78815Y418012D02*
Y429419D01*
X98140Y448744D02*
X109547D01*
X114575Y441346D02*
X118512Y445283D01*
X82276Y409047D02*
X86213Y412984D01*
X278845Y337646D02*
X279750Y336741D01*
X279124Y348364D02*
X279750Y348990D01*
X280376Y349617D01*
X279750Y336741D02*
X280655Y335836D01*
X280256Y341006D02*
X281629Y342378D01*
X280465Y344934D02*
X281629Y343770D01*
X283806Y348275D02*
X284970Y347111D01*
X284015Y337247D02*
X285387Y338620D01*
X286362Y347111D02*
X287735Y348484D01*
X286779Y338620D02*
X287943Y337456D01*
X290120Y341961D02*
X291284Y340797D01*
X290120Y343353D02*
X291493Y344726D01*
X291094Y349895D02*
X291999Y348990D01*
X291373Y336115D02*
X291999Y336741D01*
X292625Y337368D01*
X291999Y348990D02*
X292904Y348085D01*
X231299Y371063D02*
X241142D01*
X244094Y360236D02*
X256890D01*
X241142Y363189D02*
Y371063D01*
X231299Y363189D02*
Y371063D01*
X215630Y360236D02*
X228346D01*
X102032Y1494D02*
X103008Y2469D01*
X80132Y23045D02*
X80709Y23622D01*
X105692Y7325D02*
X110807Y2210D01*
X97849Y7298D02*
X102939Y12388D01*
X86029Y16333D02*
X95065Y7298D01*
X80275Y33695D02*
X86518Y27453D01*
X86029Y19100D02*
X91137Y24207D01*
X93903Y24207D02*
X102939Y15171D01*
X391231Y24268D02*
X392207Y23292D01*
X370079Y1969D02*
X370655Y1392D01*
X386376Y26952D02*
X391491Y32067D01*
X381313Y24199D02*
X386403Y19108D01*
X377367Y7289D02*
X386403Y16325D01*
X360005Y1535D02*
X366248Y7778D01*
X369493Y12397D02*
X374601Y7289D01*
X369493Y15163D02*
X378529Y24199D01*
X127047Y448819D02*
X204724Y448819D01*
X261811Y365236D02*
Y443819D01*
X210630Y365236D02*
Y366142D01*
Y443819D01*
X204724Y448819D02*
X205630D01*
X116142Y0D02*
X356299Y0D01*
X393701Y400512D02*
X393701Y37402D01*
X78740Y400512D02*
X78740Y37402D01*
M02*
