G04*
G04 #@! TF.GenerationSoftware,Altium Limited,Altium Designer,24.7.2 (38)*
G04*
G04 Layer_Color=16711935*
%FSLAX25Y25*%
%MOIN*%
G70*
G04*
G04 #@! TF.SameCoordinates,4FB6B1DA-FF44-45C5-9F46-3DC55F4CF08E*
G04*
G04*
G04 #@! TF.FilePolarity,Negative*
G04*
G01*
G75*
%ADD10C,0.00984*%
%ADD18C,0.00394*%
%ADD23C,0.07874*%
%ADD25R,0.06299X0.03543*%
%ADD26R,0.08268X0.06299*%
%ADD27R,0.06299X0.08268*%
%ADD28C,0.09843*%
%ADD29C,0.07900*%
%ADD30C,0.18200*%
%ADD31C,0.08700*%
G04:AMPARAMS|DCode=32|XSize=74.8mil|YSize=51.18mil|CornerRadius=0mil|HoleSize=0mil|Usage=FLASHONLY|Rotation=135.000|XOffset=0mil|YOffset=0mil|HoleType=Round|Shape=Round|*
%AMOVALD32*
21,1,0.02362,0.05118,0.00000,0.00000,135.0*
1,1,0.05118,0.00835,-0.00835*
1,1,0.05118,-0.00835,0.00835*
%
%ADD32OVALD32*%

G04:AMPARAMS|DCode=33|XSize=51.18mil|YSize=43.31mil|CornerRadius=0mil|HoleSize=0mil|Usage=FLASHONLY|Rotation=315.000|XOffset=0mil|YOffset=0mil|HoleType=Round|Shape=Round|*
%AMOVALD33*
21,1,0.00787,0.04331,0.00000,0.00000,315.0*
1,1,0.04331,-0.00278,0.00278*
1,1,0.04331,0.00278,-0.00278*
%
%ADD33OVALD33*%

%ADD34O,0.04331X0.05512*%
G04:AMPARAMS|DCode=35|XSize=43.31mil|YSize=55.12mil|CornerRadius=11.81mil|HoleSize=0mil|Usage=FLASHONLY|Rotation=0.000|XOffset=0mil|YOffset=0mil|HoleType=Round|Shape=RoundedRectangle|*
%AMROUNDEDRECTD35*
21,1,0.04331,0.03150,0,0,0.0*
21,1,0.01968,0.05512,0,0,0.0*
1,1,0.02362,0.00984,-0.01575*
1,1,0.02362,-0.00984,-0.01575*
1,1,0.02362,-0.00984,0.01575*
1,1,0.02362,0.00984,0.01575*
%
%ADD35ROUNDEDRECTD35*%
G04:AMPARAMS|DCode=36|XSize=86.61mil|YSize=43.31mil|CornerRadius=0mil|HoleSize=0mil|Usage=FLASHONLY|Rotation=315.000|XOffset=0mil|YOffset=0mil|HoleType=Round|Shape=Round|*
%AMOVALD36*
21,1,0.04331,0.04331,0.00000,0.00000,315.0*
1,1,0.04331,-0.01531,0.01531*
1,1,0.04331,0.01531,-0.01531*
%
%ADD36OVALD36*%

G04:AMPARAMS|DCode=37|XSize=86.61mil|YSize=43.31mil|CornerRadius=0mil|HoleSize=0mil|Usage=FLASHONLY|Rotation=45.000|XOffset=0mil|YOffset=0mil|HoleType=Round|Shape=Round|*
%AMOVALD37*
21,1,0.04331,0.04331,0.00000,0.00000,45.0*
1,1,0.04331,-0.01531,-0.01531*
1,1,0.04331,0.01531,0.01531*
%
%ADD37OVALD37*%

G04:AMPARAMS|DCode=38|XSize=43.31mil|YSize=43.31mil|CornerRadius=11.81mil|HoleSize=0mil|Usage=FLASHONLY|Rotation=180.000|XOffset=0mil|YOffset=0mil|HoleType=Round|Shape=RoundedRectangle|*
%AMROUNDEDRECTD38*
21,1,0.04331,0.01968,0,0,180.0*
21,1,0.01968,0.04331,0,0,180.0*
1,1,0.02362,-0.00984,0.00984*
1,1,0.02362,0.00984,0.00984*
1,1,0.02362,0.00984,-0.00984*
1,1,0.02362,-0.00984,-0.00984*
%
%ADD38ROUNDEDRECTD38*%
%ADD39R,0.04331X0.04331*%
%ADD40C,0.05709*%
%ADD41C,0.12205*%
%ADD42R,0.06693X0.06693*%
G04:AMPARAMS|DCode=43|XSize=66.93mil|YSize=66.93mil|CornerRadius=17.72mil|HoleSize=0mil|Usage=FLASHONLY|Rotation=270.000|XOffset=0mil|YOffset=0mil|HoleType=Round|Shape=RoundedRectangle|*
%AMROUNDEDRECTD43*
21,1,0.06693,0.03150,0,0,270.0*
21,1,0.03150,0.06693,0,0,270.0*
1,1,0.03543,-0.01575,-0.01575*
1,1,0.03543,-0.01575,0.01575*
1,1,0.03543,0.01575,0.01575*
1,1,0.03543,0.01575,-0.01575*
%
%ADD43ROUNDEDRECTD43*%
G04:AMPARAMS|DCode=44|XSize=122.05mil|YSize=240.16mil|CornerRadius=31.5mil|HoleSize=0mil|Usage=FLASHONLY|Rotation=90.000|XOffset=0mil|YOffset=0mil|HoleType=Round|Shape=RoundedRectangle|*
%AMROUNDEDRECTD44*
21,1,0.12205,0.17717,0,0,90.0*
21,1,0.05906,0.24016,0,0,90.0*
1,1,0.06299,0.08858,0.02953*
1,1,0.06299,0.08858,-0.02953*
1,1,0.06299,-0.08858,-0.02953*
1,1,0.06299,-0.08858,0.02953*
%
%ADD44ROUNDEDRECTD44*%
G04:AMPARAMS|DCode=45|XSize=122.05mil|YSize=279.53mil|CornerRadius=31.5mil|HoleSize=0mil|Usage=FLASHONLY|Rotation=270.000|XOffset=0mil|YOffset=0mil|HoleType=Round|Shape=RoundedRectangle|*
%AMROUNDEDRECTD45*
21,1,0.12205,0.21654,0,0,270.0*
21,1,0.05906,0.27953,0,0,270.0*
1,1,0.06299,-0.10827,-0.02953*
1,1,0.06299,-0.10827,0.02953*
1,1,0.06299,0.10827,0.02953*
1,1,0.06299,0.10827,-0.02953*
%
%ADD45ROUNDEDRECTD45*%
%ADD46C,0.14173*%
%ADD47R,0.10236X0.10236*%
%ADD48C,0.06299*%
%ADD49R,0.06299X0.06299*%
%ADD50C,0.24410*%
%ADD51C,0.01772*%
%ADD77R,0.10433X0.10236*%
%ADD78C,0.01575*%
G36*
X393701Y448819D02*
Y409449D01*
X386228Y416336D01*
X353745Y448819D01*
X393701D01*
X393701Y448819D01*
D02*
G37*
G36*
X111223Y441346D02*
X78740Y408863D01*
Y448819D01*
X78740Y448819D01*
X118110D01*
X111223Y441346D01*
D02*
G37*
G36*
X119683Y349932D02*
X119683Y349932D01*
X119683Y349932D01*
X119699Y349930D01*
X119717Y349928D01*
X119731Y349929D01*
X119751Y349931D01*
X119751D01*
X119751D01*
X119751D01*
X119820Y349930D01*
X119854Y349927D01*
X119878Y349929D01*
X119888Y349930D01*
X119888D01*
X119888D01*
X119957Y349929D01*
X119957D01*
X119957D01*
X119969Y349928D01*
X119991Y349925D01*
X120025Y349928D01*
X121189Y349918D01*
D01*
X121189D01*
X121193Y349918D01*
X121228Y349914D01*
X121253Y349906D01*
X121265Y349903D01*
X121283Y349892D01*
X121299Y349884D01*
X121329Y349859D01*
Y349859D01*
X121329D01*
X121353Y349829D01*
X121371Y349795D01*
X121379Y349768D01*
X121382Y349758D01*
X121385Y349719D01*
Y349719D01*
Y349719D01*
X121385Y349650D01*
X121384Y349642D01*
X121381Y349612D01*
X121369Y349575D01*
X121369Y349575D01*
D01*
X121351Y349541D01*
X121341Y349530D01*
X121326Y349511D01*
X121303Y349493D01*
X121295Y349487D01*
X121264Y349470D01*
X121261Y349469D01*
D01*
X121261Y349469D01*
X121246Y349464D01*
X121224Y349458D01*
X121185Y349454D01*
X121185D01*
D01*
D01*
X121128Y349455D01*
X121120Y349444D01*
X121119Y349444D01*
X121119Y349444D01*
X121112Y349438D01*
X121089Y349420D01*
X121089Y349420D01*
X121089Y349420D01*
X121079Y349414D01*
X121055Y349402D01*
X121055Y349402D01*
X121055Y349402D01*
X121043Y349398D01*
X121018Y349391D01*
X121018Y349391D01*
X121018Y349391D01*
X121000Y349390D01*
X120979Y349388D01*
X120979Y349388D01*
X120979Y349388D01*
X120922Y349388D01*
X120922Y349388D01*
X120914Y349378D01*
X120914Y349378D01*
X120914Y349378D01*
X120902Y349368D01*
X120883Y349353D01*
X120880Y349352D01*
X120874Y349348D01*
X120873Y349347D01*
X120869Y349340D01*
X120869Y349340D01*
X120869Y349340D01*
X120853Y349321D01*
X120844Y349310D01*
X120844Y349310D01*
X120844Y349310D01*
X120818Y349289D01*
X120814Y349286D01*
X120814D01*
X120814Y349285D01*
X120805Y349281D01*
X120800Y349272D01*
X120800Y349272D01*
X120800Y349272D01*
X120788Y349257D01*
X120775Y349242D01*
X120775Y349242D01*
X120775Y349242D01*
X120745Y349218D01*
X120713Y349201D01*
X120711Y349200D01*
D01*
X120711Y349200D01*
X120688Y349193D01*
X120681Y349170D01*
X120681Y349170D01*
Y349170D01*
X120671Y349153D01*
X120662Y349136D01*
X120662Y349136D01*
X120662Y349136D01*
X120652Y349124D01*
X120637Y349106D01*
X120607Y349082D01*
X120607Y349082D01*
X120607Y349082D01*
X120598Y349077D01*
X120598Y349077D01*
X120593Y349068D01*
X120568Y349038D01*
X120538Y349014D01*
X120529Y349009D01*
X120524Y349000D01*
X120499Y348970D01*
X120469Y348946D01*
X120460Y348941D01*
X120455Y348932D01*
X120430Y348903D01*
X120430Y348903D01*
X120430Y348903D01*
X120423Y348897D01*
X120419Y348894D01*
X120419Y348837D01*
X120415Y348798D01*
X120412Y348790D01*
X120403Y348761D01*
X120385Y348727D01*
X120360Y348698D01*
X120329Y348673D01*
X120320Y348669D01*
X120316Y348659D01*
X120291Y348630D01*
X120261Y348605D01*
X120251Y348601D01*
X120246Y348592D01*
X120246Y348592D01*
X120246Y348592D01*
X120233Y348575D01*
X120222Y348562D01*
X120221Y348562D01*
X120221Y348562D01*
X120211Y348553D01*
X120211Y348496D01*
X120211Y348496D01*
X120211Y348496D01*
X120209Y348481D01*
X120206Y348458D01*
X120206Y348458D01*
Y348458D01*
X120204Y348451D01*
X120195Y348421D01*
X120195Y348421D01*
X120195Y348421D01*
X120185Y348403D01*
X120176Y348387D01*
X120176Y348387D01*
X120176Y348387D01*
X120162Y348370D01*
X120151Y348357D01*
X120151Y348357D01*
X120151Y348357D01*
X120141Y348348D01*
X120140Y348292D01*
X120136Y348257D01*
X120140Y348223D01*
D01*
Y348223D01*
X120139Y348155D01*
X120137Y348135D01*
X120135Y348116D01*
X120135Y348116D01*
X120135Y348116D01*
X120127Y348091D01*
X120123Y348079D01*
X120123Y348079D01*
X120123Y348079D01*
X120111Y348057D01*
X120105Y348045D01*
X120105Y348045D01*
X120105Y348045D01*
X120091Y348029D01*
X120080Y348015D01*
X120080Y348015D01*
X120080Y348015D01*
X120069Y348007D01*
X120069Y347950D01*
Y347950D01*
Y347950D01*
X120065Y347911D01*
X120056Y347885D01*
X120053Y347874D01*
X120053Y347874D01*
D01*
X120051Y347871D01*
X120034Y347840D01*
X120010Y347810D01*
X120010Y347810D01*
X120010Y347810D01*
X119999Y347802D01*
X119999Y347745D01*
Y347745D01*
Y347745D01*
X119997Y347732D01*
X119995Y347710D01*
X119997Y347687D01*
X119998Y347676D01*
Y347676D01*
Y347676D01*
X119997Y347608D01*
Y347608D01*
Y347608D01*
X119996Y347596D01*
X119994Y347574D01*
X119995Y347557D01*
X119997Y347539D01*
Y347539D01*
D01*
D01*
X119996Y347471D01*
X119992Y347432D01*
X119984Y347406D01*
X119980Y347395D01*
X119980Y347395D01*
D01*
X119962Y347361D01*
X119945Y347341D01*
X119937Y347332D01*
X119937Y347332D01*
X119937Y347332D01*
X119926Y347323D01*
X119926Y347266D01*
D01*
X119925Y347198D01*
Y347198D01*
Y347198D01*
X119925Y347129D01*
Y347129D01*
Y347129D01*
X119924Y347061D01*
Y347061D01*
X119923Y346992D01*
Y346992D01*
Y346992D01*
X119921Y346974D01*
X119920Y346958D01*
X119921Y346946D01*
X119923Y346924D01*
Y346924D01*
Y346924D01*
X119922Y346855D01*
X119920Y346832D01*
X119919Y346821D01*
X119922Y346787D01*
Y346787D01*
D01*
D01*
X119921Y346718D01*
X119917Y346684D01*
X119919Y346671D01*
X119920Y346650D01*
X119920Y346581D01*
Y346581D01*
Y346581D01*
X119918Y346564D01*
X119916Y346547D01*
X119919Y346513D01*
X119919Y346445D01*
Y346444D01*
Y346444D01*
X119917Y346427D01*
X119915Y346410D01*
X119918Y346376D01*
X119917Y346307D01*
X119914Y346273D01*
X119917Y346239D01*
Y346239D01*
Y346239D01*
X119916Y346170D01*
X119914Y346146D01*
X119913Y346136D01*
X119916Y346102D01*
Y346102D01*
Y346102D01*
X119915Y346034D01*
Y346034D01*
Y346034D01*
X119914Y345965D01*
D01*
X119914Y345897D01*
D01*
X119913Y345828D01*
Y345828D01*
Y345828D01*
X119913Y345760D01*
X119913Y345760D01*
X119913Y345760D01*
X119912Y345691D01*
Y345691D01*
X119912Y345634D01*
X119922Y345625D01*
X119922Y345625D01*
X119922Y345625D01*
X119937Y345607D01*
X119946Y345595D01*
X119946Y345595D01*
X119946Y345595D01*
X119959Y345571D01*
X119964Y345561D01*
X119964Y345561D01*
X119964Y345561D01*
X119970Y345541D01*
X119975Y345524D01*
X119975Y345524D01*
X119975Y345524D01*
X119977Y345506D01*
X119979Y345485D01*
X119979Y345485D01*
X119979Y345485D01*
X119978Y345417D01*
X119977Y345405D01*
X119975Y345382D01*
X119977Y345348D01*
D01*
Y345348D01*
X119977Y345280D01*
Y345280D01*
Y345280D01*
X119974Y345255D01*
X119973Y345245D01*
X119975Y345230D01*
X119976Y345211D01*
Y345211D01*
Y345211D01*
Y345211D01*
X119976Y345143D01*
X119976Y345143D01*
X119976Y345143D01*
X119974Y345127D01*
X119972Y345108D01*
X119973Y345093D01*
X119975Y345074D01*
Y345074D01*
Y345074D01*
Y345074D01*
X119975Y345006D01*
Y345006D01*
Y345006D01*
X119974Y344937D01*
Y344937D01*
X119973Y344880D01*
X119984Y344872D01*
X119984Y344872D01*
X119984Y344872D01*
X119994Y344859D01*
X120008Y344842D01*
X120008Y344841D01*
X120008Y344841D01*
X120021Y344816D01*
X120026Y344807D01*
Y344807D01*
X120026Y344807D01*
X120037Y344770D01*
X120040Y344742D01*
X120041Y344731D01*
Y344731D01*
Y344731D01*
X120040Y344663D01*
Y344663D01*
Y344663D01*
X120037Y344638D01*
X120036Y344628D01*
X120038Y344612D01*
X120039Y344594D01*
Y344594D01*
D01*
D01*
X120039Y344526D01*
Y344526D01*
Y344526D01*
X120038Y344457D01*
D01*
Y344457D01*
X120038Y344400D01*
X120048Y344392D01*
X120048Y344392D01*
X120048Y344391D01*
X120061Y344376D01*
X120072Y344361D01*
X120073Y344361D01*
X120073Y344361D01*
X120082Y344342D01*
X120090Y344327D01*
X120090Y344327D01*
X120091Y344327D01*
X120097Y344306D01*
X120101Y344290D01*
X120101Y344290D01*
X120101Y344290D01*
X120103Y344270D01*
X120105Y344251D01*
Y344251D01*
Y344251D01*
Y344251D01*
X120104Y344183D01*
Y344183D01*
Y344183D01*
X120103Y344174D01*
X120101Y344148D01*
X120102Y344134D01*
X120104Y344114D01*
Y344114D01*
Y344114D01*
Y344114D01*
X120103Y344046D01*
X120103Y344046D01*
X120103Y344046D01*
X120103Y343977D01*
D01*
X120102Y343920D01*
X120112Y343912D01*
X120113Y343912D01*
X120113Y343912D01*
X120137Y343882D01*
X120154Y343849D01*
X120155Y343847D01*
D01*
X120155Y343847D01*
X120166Y343810D01*
X120168Y343781D01*
X120169Y343771D01*
Y343771D01*
D01*
D01*
X120169Y343714D01*
X120179Y343706D01*
X120203Y343675D01*
X120221Y343641D01*
X120232Y343604D01*
X120236Y343565D01*
D01*
Y343565D01*
X120235Y343497D01*
X120235Y343497D01*
X120235Y343497D01*
X120234Y343481D01*
X120232Y343463D01*
X120234Y343439D01*
X120235Y343428D01*
Y343428D01*
Y343428D01*
X120234Y343360D01*
X120230Y343326D01*
X120234Y343291D01*
X120233Y343234D01*
X120243Y343226D01*
X120268Y343196D01*
X120286Y343161D01*
X120297Y343124D01*
X120300Y343085D01*
X120300Y343028D01*
X120300Y343028D01*
X120310Y343020D01*
X120310Y343020D01*
X120310Y343020D01*
X120334Y342989D01*
X120346Y342968D01*
X120352Y342955D01*
X120352Y342955D01*
Y342955D01*
X120363Y342918D01*
X120366Y342892D01*
X120367Y342879D01*
Y342879D01*
Y342879D01*
X120366Y342811D01*
X120366Y342811D01*
X120366Y342811D01*
X120364Y342793D01*
X120363Y342776D01*
X120364Y342760D01*
X120366Y342742D01*
Y342742D01*
D01*
D01*
X120365Y342674D01*
X120365Y342674D01*
X120365Y342674D01*
X120363Y342659D01*
X120361Y342640D01*
X120363Y342626D01*
X120364Y342605D01*
Y342605D01*
Y342605D01*
X120364Y342548D01*
X120374Y342540D01*
X120375Y342540D01*
X120375Y342540D01*
X120398Y342511D01*
X120399Y342510D01*
D01*
X120399Y342510D01*
X120415Y342478D01*
X120417Y342475D01*
Y342475D01*
X120417Y342475D01*
X120423Y342452D01*
X120428Y342438D01*
Y342438D01*
X120428Y342438D01*
X120429Y342420D01*
X120431Y342399D01*
Y342399D01*
Y342399D01*
X120431Y342342D01*
X120441Y342334D01*
X120466Y342303D01*
X120484Y342269D01*
X120494Y342232D01*
X120498Y342193D01*
X120497Y342125D01*
X120495Y342107D01*
X120494Y342091D01*
X120495Y342075D01*
X120497Y342056D01*
Y342056D01*
Y342056D01*
Y342056D01*
X120496Y341988D01*
X120496Y341988D01*
X120496Y341988D01*
X120495Y341919D01*
Y341919D01*
X120495Y341851D01*
Y341851D01*
Y341851D01*
X120494Y341839D01*
X120491Y341812D01*
X120479Y341775D01*
Y341775D01*
X120479Y341775D01*
X120464Y341747D01*
X120461Y341741D01*
X120461Y341741D01*
X120461Y341741D01*
X120445Y341722D01*
X120436Y341712D01*
X120436Y341712D01*
X120436Y341711D01*
X120407Y341688D01*
X120406Y341687D01*
D01*
X120405Y341687D01*
X120374Y341671D01*
X120371Y341669D01*
X120371D01*
X120371Y341669D01*
X120348Y341663D01*
X120334Y341658D01*
X120334D01*
X120334Y341658D01*
X120318Y341657D01*
X120295Y341655D01*
X120295D01*
X120295D01*
X120227Y341655D01*
X120227D01*
X120227D01*
X120193Y341659D01*
X120177Y341658D01*
X120159Y341656D01*
X120159D01*
X120158D01*
X120090Y341657D01*
X120090D01*
X120090D01*
X120051Y341661D01*
X120025Y341669D01*
X120014Y341672D01*
X120014Y341672D01*
D01*
X120011Y341674D01*
X119980Y341691D01*
X119950Y341716D01*
X119950Y341716D01*
X119950Y341716D01*
X119945Y341722D01*
X119942Y341726D01*
X119885Y341727D01*
X119869Y341729D01*
X119851Y341731D01*
X119835Y341729D01*
X119817Y341727D01*
X119817D01*
D01*
D01*
X119748Y341728D01*
X119748D01*
X119748D01*
X119726Y341730D01*
X119710Y341732D01*
X119710Y341732D01*
X119710D01*
X119699Y341736D01*
X119673Y341744D01*
X119639Y341762D01*
X119639Y341762D01*
X119639Y341762D01*
X119628Y341771D01*
X119609Y341787D01*
X119609Y341787D01*
X119609Y341787D01*
X119600Y341798D01*
X119406Y341800D01*
X119372Y341803D01*
X119338Y341800D01*
D01*
X119338D01*
X119269Y341801D01*
X119231Y341805D01*
X119204Y341813D01*
X119194Y341816D01*
X119194Y341816D01*
D01*
X119187Y341820D01*
X119160Y341835D01*
X119160Y341835D01*
X119160Y341835D01*
X119142Y341850D01*
X119130Y341860D01*
X119130Y341860D01*
X119130Y341860D01*
X119125Y341866D01*
X119122Y341870D01*
X119064Y341871D01*
X119031Y341875D01*
X119026Y341875D01*
X119026D01*
X119026Y341875D01*
X118998Y341884D01*
X118989Y341887D01*
X118989Y341887D01*
X118989Y341887D01*
X118971Y341897D01*
X118955Y341905D01*
X118955Y341905D01*
X118955Y341905D01*
X118941Y341917D01*
X118925Y341930D01*
X118925Y341930D01*
X118925Y341930D01*
X118917Y341941D01*
X118723Y341943D01*
X118723D01*
X118723D01*
X118704Y341945D01*
X118684Y341947D01*
X118684Y341947D01*
X118684D01*
X118668Y341952D01*
X118647Y341958D01*
X118647Y341958D01*
X118647D01*
X118641Y341962D01*
X118613Y341977D01*
X118613Y341977D01*
X118613Y341977D01*
X118601Y341987D01*
X118583Y342002D01*
X118583Y342002D01*
X118583Y342002D01*
X118576Y342011D01*
X118575Y342012D01*
X118518Y342013D01*
X118479Y342017D01*
X118442Y342028D01*
X118424Y342039D01*
X118408Y342047D01*
X118378Y342072D01*
Y342072D01*
X118378D01*
X118370Y342083D01*
X118176Y342084D01*
D01*
X118176D01*
X118172Y342085D01*
X118138Y342088D01*
X118101Y342100D01*
X118101Y342100D01*
D01*
X118067Y342119D01*
X118043Y342139D01*
X118037Y342143D01*
Y342143D01*
X118037D01*
X118031Y342151D01*
X118028Y342154D01*
X117971Y342155D01*
X117953Y342157D01*
X117933Y342159D01*
X117933Y342159D01*
X117933D01*
X117903Y342168D01*
X117896Y342170D01*
X117896D01*
X117896Y342170D01*
X117870Y342184D01*
X117862Y342189D01*
X117862Y342189D01*
X117862Y342189D01*
X117844Y342203D01*
X117832Y342214D01*
X117832Y342214D01*
X117832Y342214D01*
X117823Y342224D01*
X117629Y342226D01*
X117591Y342230D01*
X117562Y342239D01*
X117554Y342242D01*
X117554Y342242D01*
X117554Y342242D01*
X117538Y342250D01*
X117520Y342260D01*
X117520Y342260D01*
X117520Y342260D01*
X117510Y342269D01*
X117490Y342285D01*
X117490Y342285D01*
X117490Y342285D01*
X117482Y342296D01*
X117425Y342296D01*
X117386Y342300D01*
X117349Y342312D01*
X117315Y342331D01*
X117285Y342355D01*
X117277Y342366D01*
X117220Y342367D01*
X117220D01*
X117220D01*
X117206Y342368D01*
X117181Y342371D01*
X117144Y342382D01*
X117144Y342382D01*
X117144D01*
X117138Y342386D01*
X117110Y342401D01*
X117110Y342401D01*
X117110D01*
X117105Y342405D01*
X117080Y342426D01*
X117080Y342426D01*
X117080Y342426D01*
X117072Y342436D01*
X117015Y342437D01*
X116991Y342439D01*
X116976Y342441D01*
X116976Y342441D01*
X116976Y342441D01*
X116950Y342449D01*
X116939Y342453D01*
X116939Y342453D01*
X116939Y342453D01*
X116912Y342467D01*
X116905Y342471D01*
X116905Y342471D01*
X116905Y342471D01*
X116886Y342487D01*
X116876Y342496D01*
X116876Y342496D01*
X116876Y342496D01*
X116867Y342507D01*
X116810Y342507D01*
X116810Y342507D01*
X116810Y342507D01*
X116795Y342509D01*
X116771Y342511D01*
X116771Y342511D01*
X116771D01*
X116769Y342512D01*
X116735Y342523D01*
X116734Y342523D01*
X116734Y342523D01*
X116724Y342528D01*
X116700Y342541D01*
X116700Y342541D01*
X116700Y342541D01*
X116683Y342555D01*
X116671Y342566D01*
X116671Y342566D01*
X116671Y342566D01*
X116662Y342577D01*
X116605Y342577D01*
X116593Y342579D01*
X116567Y342582D01*
X116530Y342593D01*
D01*
X116530Y342593D01*
X116496Y342612D01*
X116471Y342632D01*
X116466Y342636D01*
X116466Y342636D01*
X116466Y342636D01*
X116457Y342647D01*
X116400Y342648D01*
X116362Y342652D01*
X116327Y342663D01*
X116325Y342663D01*
D01*
X116325Y342663D01*
X116303Y342675D01*
X116291Y342682D01*
X116291Y342682D01*
X116291Y342682D01*
X116276Y342694D01*
X116261Y342707D01*
X116261Y342707D01*
X116261Y342707D01*
X116253Y342717D01*
X116195Y342718D01*
X116157Y342722D01*
X116120Y342734D01*
X116086Y342752D01*
X116056Y342777D01*
X116048Y342788D01*
X115991Y342788D01*
X115991Y342788D01*
X115991Y342788D01*
X115972Y342790D01*
X115952Y342792D01*
X115952Y342792D01*
X115952Y342792D01*
X115940Y342796D01*
X115915Y342804D01*
X115915Y342804D01*
X115915Y342804D01*
X115908Y342808D01*
X115881Y342823D01*
X115881Y342823D01*
X115881Y342823D01*
X115871Y342831D01*
X115851Y342847D01*
X115851Y342847D01*
X115851Y342847D01*
X115843Y342858D01*
X115827Y342878D01*
X115827Y342878D01*
X115827Y342878D01*
X115822Y342887D01*
X115813Y342892D01*
X115813Y342892D01*
X115813Y342892D01*
X115805Y342899D01*
X115784Y342916D01*
X115784Y342916D01*
X115784Y342916D01*
X115775Y342927D01*
X115718Y342928D01*
X115690Y342931D01*
X115680Y342932D01*
X115680D01*
X115680Y342932D01*
X115646Y342942D01*
X115642Y342943D01*
X115642D01*
X115642Y342943D01*
X115626Y342952D01*
X115609Y342962D01*
X115608Y342962D01*
X115608D01*
X115603Y342966D01*
X115579Y342987D01*
X115579Y342987D01*
X115579Y342987D01*
X115555Y343016D01*
X115554Y343017D01*
D01*
X115554Y343017D01*
X115550Y343026D01*
X115541Y343031D01*
X115541Y343031D01*
X115540Y343031D01*
X115521Y343047D01*
X115511Y343056D01*
X115511Y343056D01*
X115511Y343056D01*
X115502Y343066D01*
X115445Y343067D01*
D01*
X115445D01*
X115441Y343067D01*
X115407Y343071D01*
X115381Y343079D01*
X115370Y343083D01*
X115351Y343093D01*
X115336Y343101D01*
X115306Y343126D01*
Y343126D01*
X115306D01*
X115282Y343156D01*
X115277Y343165D01*
X115268Y343170D01*
X115268Y343170D01*
X115268Y343170D01*
X115254Y343182D01*
X115238Y343195D01*
X115238Y343195D01*
X115238Y343195D01*
X115233Y343201D01*
X115229Y343206D01*
X115173Y343206D01*
X115134Y343210D01*
X115097Y343222D01*
X115063Y343240D01*
X115033Y343265D01*
X115009Y343296D01*
X115004Y343305D01*
X114995Y343309D01*
X114995Y343310D01*
X114995Y343310D01*
X114976Y343325D01*
X114965Y343334D01*
X114965Y343334D01*
X114965Y343334D01*
X114954Y343348D01*
X114941Y343365D01*
X114941Y343365D01*
X114941Y343365D01*
X114936Y343374D01*
X114927Y343379D01*
X114927Y343379D01*
X114927D01*
X114921Y343384D01*
X114898Y343403D01*
X114898Y343403D01*
X114898Y343404D01*
X114887Y343416D01*
X114873Y343434D01*
X114873Y343434D01*
X114873Y343434D01*
X114868Y343443D01*
X114859Y343448D01*
X114859Y343448D01*
X114859Y343448D01*
X114851Y343455D01*
X114830Y343473D01*
X114830Y343473D01*
X114830Y343473D01*
X114821Y343483D01*
X114764Y343484D01*
X114764D01*
X114764D01*
X114743Y343486D01*
X114725Y343488D01*
X114725Y343488D01*
X114725D01*
X114710Y343493D01*
X114689Y343499D01*
X114689Y343499D01*
X114689D01*
X114682Y343503D01*
X114655Y343518D01*
X114654Y343518D01*
X114654Y343518D01*
X114642Y343528D01*
X114625Y343543D01*
X114625Y343543D01*
X114625Y343543D01*
X114617Y343553D01*
X114600Y343573D01*
X114596Y343582D01*
X114587Y343587D01*
X114587Y343587D01*
X114587Y343587D01*
X114569Y343602D01*
X114557Y343612D01*
X114557Y343612D01*
X114557Y343612D01*
X114545Y343626D01*
X114532Y343642D01*
X114532Y343642D01*
X114532Y343642D01*
X114528Y343651D01*
X114519Y343656D01*
X114519Y343656D01*
X114519Y343656D01*
X114505Y343668D01*
X114489Y343681D01*
X114489Y343681D01*
X114489Y343681D01*
X114473Y343701D01*
X114465Y343711D01*
X114465Y343711D01*
X114465Y343711D01*
X114460Y343720D01*
X114451Y343725D01*
X114451Y343725D01*
X114451Y343725D01*
X114442Y343733D01*
X114421Y343750D01*
X114421Y343750D01*
X114421Y343750D01*
X114417Y343756D01*
X114397Y343780D01*
X114397Y343780D01*
X114397Y343780D01*
X114394Y343786D01*
X114392Y343789D01*
X114383Y343794D01*
X114383Y343794D01*
X114383Y343794D01*
X114378Y343799D01*
X114353Y343819D01*
X114329Y343849D01*
X114324Y343859D01*
X114315Y343863D01*
X114315Y343863D01*
X114315Y343863D01*
X114296Y343879D01*
X114285Y343888D01*
X114285Y343888D01*
X114285Y343888D01*
X114262Y343917D01*
X114261Y343918D01*
D01*
X114261Y343918D01*
X114256Y343928D01*
X114247Y343933D01*
X114247Y343933D01*
X114247Y343933D01*
X114228Y343948D01*
X114217Y343957D01*
X114217Y343957D01*
X114217Y343957D01*
X114207Y343970D01*
X114193Y343987D01*
X114193Y343987D01*
X114193Y343987D01*
X114188Y343997D01*
X114179Y344002D01*
X114179Y344002D01*
X114179Y344002D01*
X114163Y344015D01*
X114150Y344026D01*
X114150Y344026D01*
X114149Y344026D01*
X114137Y344042D01*
X114125Y344057D01*
X114125Y344057D01*
X114125Y344057D01*
X114113Y344080D01*
X114107Y344091D01*
X114107Y344091D01*
X114107Y344091D01*
X114100Y344115D01*
X114096Y344128D01*
Y344128D01*
X114096Y344128D01*
X114094Y344150D01*
X114093Y344167D01*
Y344167D01*
Y344167D01*
Y344167D01*
X114093Y344224D01*
X114083Y344232D01*
X114083Y344233D01*
X114083Y344233D01*
X114073Y344244D01*
X114058Y344263D01*
X114054Y344272D01*
X114045Y344277D01*
X114045Y344277D01*
X114045Y344277D01*
X114029Y344290D01*
X114015Y344302D01*
X114015Y344302D01*
X114015Y344302D01*
X114000Y344320D01*
X113991Y344332D01*
X113991Y344332D01*
X113991Y344332D01*
X113978Y344356D01*
X113973Y344366D01*
X113973Y344366D01*
X113973Y344366D01*
X113967Y344386D01*
X113962Y344403D01*
X113962Y344403D01*
X113962Y344403D01*
X113960Y344421D01*
X113958Y344442D01*
X113958Y344442D01*
X113958Y344442D01*
X113959Y344499D01*
X113948Y344508D01*
X113924Y344538D01*
X113906Y344572D01*
X113895Y344609D01*
X113892Y344648D01*
X113892Y344716D01*
Y344716D01*
Y344717D01*
X113895Y344739D01*
X113896Y344750D01*
X113894Y344772D01*
X113893Y344785D01*
X113893Y344785D01*
X113893Y344785D01*
X113893Y344853D01*
X113896Y344878D01*
X113897Y344888D01*
X113895Y344913D01*
X113894Y344922D01*
Y344922D01*
D01*
D01*
X113895Y344990D01*
Y344990D01*
Y344990D01*
X113895Y345059D01*
Y345059D01*
Y345059D01*
X113896Y345127D01*
X113899Y345161D01*
X113898Y345175D01*
X113896Y345196D01*
Y345196D01*
Y345196D01*
X113897Y345264D01*
Y345264D01*
Y345264D01*
X113901Y345303D01*
X113909Y345329D01*
X113913Y345340D01*
X113913Y345340D01*
D01*
X113914Y345343D01*
X113931Y345374D01*
X113956Y345404D01*
X113956Y345404D01*
X113956Y345404D01*
X113967Y345412D01*
X113967Y345469D01*
X113971Y345508D01*
X113983Y345545D01*
X114002Y345579D01*
X114026Y345608D01*
X114037Y345617D01*
X114038Y345674D01*
Y345674D01*
Y345674D01*
X114040Y345692D01*
X114042Y345712D01*
X114042Y345712D01*
Y345712D01*
X114049Y345736D01*
X114053Y345749D01*
X114053Y345749D01*
X114053Y345749D01*
X114063Y345768D01*
X114072Y345783D01*
X114072Y345783D01*
X114072Y345784D01*
X114083Y345797D01*
X114097Y345813D01*
X114097Y345813D01*
X114097Y345813D01*
X114107Y345822D01*
X114108Y345879D01*
X114108Y345879D01*
X114108Y345879D01*
X114110Y345895D01*
X114112Y345917D01*
X114112Y345917D01*
Y345917D01*
X114114Y345926D01*
X114123Y345954D01*
X114123Y345954D01*
X114123Y345954D01*
X114131Y345968D01*
X114142Y345988D01*
X114142Y345988D01*
X114142Y345988D01*
X114151Y345999D01*
X114167Y346018D01*
X114167Y346018D01*
X114167Y346018D01*
X114175Y346025D01*
X114178Y346027D01*
X114178Y346083D01*
Y346084D01*
Y346084D01*
X114179Y346094D01*
X114182Y346122D01*
X114194Y346159D01*
X114194Y346159D01*
X114194Y346159D01*
X114207Y346184D01*
X114212Y346193D01*
X114212Y346193D01*
X114212Y346193D01*
X114228Y346212D01*
X114237Y346223D01*
X114237Y346223D01*
X114237Y346223D01*
X114249Y346233D01*
X114252Y346258D01*
X114263Y346295D01*
D01*
X114263Y346295D01*
X114282Y346330D01*
X114302Y346354D01*
X114307Y346359D01*
X114307Y346359D01*
X114307Y346359D01*
X114319Y346369D01*
X114320Y346379D01*
X114321Y346395D01*
X114322Y346395D01*
Y346395D01*
X114332Y346427D01*
X114333Y346432D01*
Y346432D01*
X114333Y346432D01*
X114348Y346460D01*
X114352Y346466D01*
X114352Y346466D01*
X114352Y346466D01*
X114368Y346485D01*
X114376Y346496D01*
X114376Y346496D01*
X114377Y346496D01*
X114387Y346504D01*
X114388Y346561D01*
X114390Y346585D01*
X114392Y346600D01*
X114392Y346600D01*
X114392Y346600D01*
X114400Y346624D01*
X114403Y346637D01*
X114403Y346637D01*
X114403Y346637D01*
X114414Y346656D01*
X114422Y346671D01*
X114422Y346671D01*
X114422Y346671D01*
X114435Y346687D01*
X114447Y346701D01*
X114447Y346701D01*
X114447Y346701D01*
X114457Y346709D01*
X114458Y346766D01*
X114459Y346777D01*
X114462Y346805D01*
X114474Y346842D01*
X114474Y346842D01*
D01*
X114492Y346876D01*
X114509Y346896D01*
X114517Y346905D01*
X114517Y346905D01*
X114517Y346905D01*
X114547Y346930D01*
X114556Y346935D01*
X114561Y346943D01*
X114586Y346973D01*
X114586Y346973D01*
X114586Y346973D01*
X114616Y346998D01*
X114625Y347002D01*
X114627Y347005D01*
X114630Y347011D01*
X114630Y347011D01*
X114630Y347011D01*
X114646Y347030D01*
X114655Y347041D01*
X114655Y347041D01*
X114655Y347041D01*
X114667Y347051D01*
X114668Y347057D01*
X114670Y347077D01*
X114670Y347077D01*
X114670Y347077D01*
X114677Y347099D01*
X114681Y347114D01*
X114681Y347114D01*
X114681Y347114D01*
X114691Y347131D01*
X114700Y347148D01*
X114700Y347148D01*
X114700Y347148D01*
X114710Y347160D01*
X114725Y347177D01*
X114725Y347178D01*
X114725Y347178D01*
X114737Y347187D01*
X114740Y347213D01*
X114751Y347250D01*
D01*
X114751Y347250D01*
X114759Y347264D01*
X114770Y347284D01*
X114795Y347314D01*
X114795Y347314D01*
X114795Y347314D01*
X114825Y347338D01*
X114834Y347343D01*
X114836Y347346D01*
X114839Y347352D01*
X114839Y347352D01*
X114839Y347352D01*
X114854Y347370D01*
X114864Y347382D01*
X114864Y347382D01*
X114864Y347382D01*
X114875Y347391D01*
X114894Y347406D01*
X114903Y347411D01*
X114908Y347420D01*
X114933Y347449D01*
X114945Y347459D01*
X114947Y347480D01*
X114947Y347485D01*
Y347485D01*
X114947Y347485D01*
X114956Y347513D01*
X114959Y347522D01*
X114959Y347522D01*
X114959Y347522D01*
X114969Y347540D01*
X114978Y347556D01*
X114978Y347556D01*
X114978Y347556D01*
X114989Y347570D01*
X115002Y347586D01*
X115003Y347586D01*
X115003Y347586D01*
X115014Y347596D01*
X115017Y347622D01*
X115029Y347659D01*
D01*
X115029Y347659D01*
X115047Y347693D01*
X115064Y347713D01*
X115072Y347722D01*
X115072Y347722D01*
X115072Y347722D01*
X115102Y347747D01*
X115111Y347751D01*
X115116Y347761D01*
X115116Y347761D01*
X115116Y347761D01*
X115123Y347769D01*
X115141Y347790D01*
X115171Y347815D01*
X115171Y347815D01*
X115171Y347815D01*
X115181Y347819D01*
X115185Y347828D01*
X115185Y347828D01*
X115185Y347828D01*
X115199Y347845D01*
X115210Y347858D01*
X115210Y347858D01*
X115210Y347858D01*
X115223Y347868D01*
X115240Y347882D01*
X115241Y347882D01*
X115241Y347883D01*
X115250Y347887D01*
X115254Y347896D01*
X115279Y347926D01*
X115310Y347950D01*
X115319Y347955D01*
X115320Y347958D01*
X115323Y347964D01*
X115323Y347964D01*
X115323Y347964D01*
X115339Y347983D01*
X115348Y347994D01*
X115348Y347994D01*
X115348Y347994D01*
X115377Y348017D01*
X115378Y348018D01*
D01*
X115379Y348018D01*
X115388Y348023D01*
X115393Y348032D01*
X115418Y348062D01*
X115448Y348086D01*
X115449Y348087D01*
X115457Y348091D01*
X115462Y348100D01*
X115482Y348124D01*
X115487Y348130D01*
X115487Y348130D01*
X115487Y348130D01*
X115517Y348154D01*
X115526Y348159D01*
X115531Y348168D01*
X115547Y348188D01*
X115556Y348197D01*
X115556Y348198D01*
X115556Y348198D01*
X115567Y348207D01*
X115586Y348222D01*
X115589Y348224D01*
X115595Y348227D01*
X115600Y348236D01*
X115600Y348236D01*
Y348236D01*
X115605Y348242D01*
X115625Y348265D01*
X115625Y348265D01*
X115625Y348265D01*
X115638Y348276D01*
X115655Y348290D01*
X115655Y348290D01*
X115655Y348290D01*
X115664Y348294D01*
X115667Y348300D01*
X115669Y348304D01*
X115669Y348304D01*
X115669Y348304D01*
X115685Y348323D01*
X115694Y348333D01*
X115694Y348333D01*
X115694Y348333D01*
X115713Y348349D01*
X115724Y348358D01*
X115724Y348358D01*
X115724Y348358D01*
X115733Y348362D01*
X115738Y348371D01*
X115738Y348371D01*
X115738Y348371D01*
X115746Y348381D01*
X115763Y348401D01*
X115763Y348401D01*
X115763Y348401D01*
X115786Y348420D01*
X115793Y348425D01*
X115793D01*
X115793Y348425D01*
X115802Y348430D01*
X115807Y348439D01*
X115807Y348439D01*
X115807Y348439D01*
X115819Y348453D01*
X115832Y348469D01*
X115832Y348469D01*
X115832Y348469D01*
X115845Y348479D01*
X115862Y348493D01*
X115862Y348493D01*
X115862Y348493D01*
X115871Y348498D01*
X115876Y348507D01*
X115876Y348507D01*
Y348507D01*
X115879Y348510D01*
X115901Y348537D01*
X115931Y348561D01*
X115931Y348561D01*
X115931Y348561D01*
X115940Y348566D01*
X115940Y348566D01*
X115945Y348575D01*
X115945Y348575D01*
Y348575D01*
X115950Y348581D01*
X115970Y348605D01*
X115970Y348605D01*
X115970Y348605D01*
X115983Y348615D01*
X116000Y348629D01*
X116000Y348629D01*
X116000Y348629D01*
X116009Y348634D01*
X116014Y348643D01*
X116014Y348643D01*
X116014Y348643D01*
X116023Y348653D01*
X116039Y348673D01*
X116039Y348673D01*
X116039Y348673D01*
X116063Y348692D01*
X116069Y348697D01*
X116069D01*
X116069Y348697D01*
X116078Y348702D01*
X116079Y348703D01*
X116083Y348711D01*
X116083Y348711D01*
X116083Y348711D01*
X116099Y348730D01*
X116108Y348741D01*
X116108Y348741D01*
X116108Y348741D01*
X116126Y348755D01*
X116138Y348765D01*
X116138Y348765D01*
X116138Y348765D01*
X116147Y348770D01*
X116152Y348779D01*
X116153Y348779D01*
X116153Y348779D01*
X116167Y348797D01*
X116177Y348808D01*
X116177Y348808D01*
X116177Y348808D01*
X116208Y348833D01*
X116240Y348850D01*
X116242Y348851D01*
D01*
X116242Y348851D01*
X116254Y348854D01*
X116279Y348862D01*
X116318Y348865D01*
X116318D01*
X116318D01*
X116375Y348865D01*
X116379Y348870D01*
X116383Y348875D01*
X116383Y348875D01*
X116383Y348875D01*
X116398Y348887D01*
X116413Y348899D01*
X116413Y348899D01*
X116414Y348899D01*
X116423Y348904D01*
X116428Y348913D01*
X116437Y348924D01*
X116452Y348943D01*
X116475Y348961D01*
X116483Y348967D01*
X116514Y348984D01*
X116517Y348985D01*
D01*
X116517Y348985D01*
X116532Y348990D01*
X116554Y348996D01*
X116593Y349000D01*
X116593D01*
D01*
D01*
X116650Y348999D01*
X116658Y349010D01*
X116658Y349010D01*
X116658Y349010D01*
X116671Y349020D01*
X116689Y349034D01*
X116689Y349034D01*
X116689Y349034D01*
X116698Y349039D01*
X116703Y349048D01*
X116719Y349068D01*
X116728Y349078D01*
X116728Y349078D01*
X116728Y349078D01*
X116758Y349102D01*
X116767Y349107D01*
X116772Y349116D01*
X116792Y349140D01*
X116797Y349146D01*
X116797D01*
Y349146D01*
X116827Y349170D01*
X116843Y349178D01*
X116861Y349188D01*
X116898Y349199D01*
X116937Y349202D01*
X116937D01*
X116937D01*
X116994Y349202D01*
X117003Y349212D01*
X117033Y349236D01*
X117042Y349241D01*
X117047Y349250D01*
X117056Y349261D01*
X117072Y349280D01*
X117095Y349299D01*
X117102Y349304D01*
X117133Y349321D01*
X117136Y349322D01*
D01*
X117136Y349322D01*
X117152Y349327D01*
X117174Y349333D01*
X117212Y349337D01*
X117212D01*
D01*
D01*
X117269Y349336D01*
X117278Y349347D01*
X117278Y349347D01*
X117278Y349347D01*
X117295Y349361D01*
X117308Y349371D01*
X117308Y349371D01*
X117308Y349371D01*
X117323Y349379D01*
X117342Y349389D01*
X117342Y349389D01*
X117342D01*
X117346Y349390D01*
X117379Y349400D01*
X117418Y349403D01*
X117418D01*
X117418D01*
X117475Y349403D01*
X117484Y349413D01*
X117484Y349413D01*
X117484Y349413D01*
X117513Y349437D01*
X117514Y349438D01*
D01*
X117514Y349438D01*
X117523Y349443D01*
X117528Y349452D01*
X117545Y349471D01*
X117553Y349481D01*
X117553Y349481D01*
X117553Y349481D01*
X117583Y349506D01*
X117605Y349517D01*
X117617Y349524D01*
X117617Y349524D01*
X117617D01*
X117622Y349525D01*
X117655Y349535D01*
X117693Y349538D01*
X117693D01*
D01*
D01*
X117762Y349537D01*
X117786Y349535D01*
X117796Y349534D01*
X117827Y349536D01*
X117830Y349537D01*
X117830D01*
D01*
D01*
X117887Y349536D01*
X117896Y349547D01*
X117896Y349547D01*
X117896Y349547D01*
X117909Y349557D01*
X117926Y349571D01*
X117926Y349571D01*
X117926Y349571D01*
X117935Y349576D01*
X117940Y349585D01*
X117940Y349585D01*
X117940Y349585D01*
X117952Y349599D01*
X117965Y349615D01*
X117965Y349615D01*
X117965Y349615D01*
X117979Y349626D01*
X117995Y349639D01*
X117995Y349639D01*
X117995Y349639D01*
X118009Y349646D01*
X118029Y349657D01*
X118029Y349657D01*
X118030Y349657D01*
X118040Y349660D01*
X118067Y349668D01*
X118067Y349668D01*
X118067D01*
X118074Y349669D01*
X118105Y349671D01*
X118105D01*
X118105D01*
X118174Y349671D01*
X118208Y349667D01*
X118221Y349668D01*
X118242Y349670D01*
X118242D01*
X118242D01*
X118299Y349670D01*
X118308Y349680D01*
X118308Y349680D01*
X118308Y349680D01*
X118327Y349696D01*
X118338Y349704D01*
X118338Y349704D01*
X118338Y349705D01*
X118372Y349722D01*
X118404Y349732D01*
X118410Y349733D01*
X118410D01*
X118410Y349733D01*
X118434Y349736D01*
X118448Y349737D01*
X118448D01*
X118448D01*
X118448D01*
X118505Y349736D01*
X118514Y349747D01*
X118544Y349771D01*
X118579Y349789D01*
X118579Y349789D01*
X118579Y349789D01*
X118594Y349794D01*
X118616Y349800D01*
X118616D01*
X118616Y349800D01*
X118634Y349802D01*
X118654Y349804D01*
X118655D01*
X118655D01*
X118723Y349803D01*
X118742Y349801D01*
X118757Y349799D01*
X118791Y349802D01*
D01*
X118791D01*
X119122Y349799D01*
X119131Y349810D01*
X119161Y349834D01*
X119195Y349852D01*
X119233Y349863D01*
X119271Y349867D01*
D01*
X119271D01*
X119340Y349866D01*
X119352Y349865D01*
X119374Y349862D01*
X119408Y349866D01*
X119465Y349865D01*
X119474Y349875D01*
X119504Y349900D01*
X119538Y349918D01*
X119576Y349929D01*
X119614Y349932D01*
X119683Y349932D01*
D02*
G37*
G36*
X122215Y349704D02*
X122249Y349700D01*
X122283Y349703D01*
X122283D01*
X122283D01*
X122352Y349703D01*
X122352D01*
X122352D01*
X122390Y349699D01*
X122417Y349690D01*
X122427Y349687D01*
X122427Y349687D01*
D01*
X122430Y349685D01*
X122461Y349669D01*
X122491Y349644D01*
X122491Y349644D01*
X122491Y349644D01*
X122500Y349633D01*
X122694Y349631D01*
X122694D01*
X122694D01*
X122728Y349628D01*
X122741Y349629D01*
X122762Y349631D01*
X122762D01*
X122762D01*
X122830Y349630D01*
X122854Y349627D01*
X122869Y349626D01*
X122869Y349626D01*
X122869Y349626D01*
X122894Y349618D01*
X122906Y349614D01*
X122906Y349614D01*
X122906Y349614D01*
X122931Y349601D01*
X122940Y349596D01*
X122940Y349596D01*
X122940Y349596D01*
X122959Y349580D01*
X122970Y349571D01*
X122970Y349571D01*
X122970Y349571D01*
X122978Y349560D01*
X123035Y349560D01*
X123052Y349558D01*
X123074Y349556D01*
X123074Y349556D01*
X123074D01*
X123111Y349544D01*
X123145Y349525D01*
X123167Y349507D01*
X123175Y349501D01*
X123175Y349501D01*
X123175Y349501D01*
X123183Y349490D01*
X123240Y349490D01*
X123255Y349488D01*
X123274Y349486D01*
X123298Y349488D01*
X123309Y349489D01*
X123309D01*
X123309D01*
X123377Y349488D01*
X123416Y349484D01*
X123442Y349476D01*
X123453Y349473D01*
X123453Y349473D01*
D01*
X123456Y349471D01*
X123487Y349454D01*
X123516Y349429D01*
X123516Y349429D01*
X123516Y349429D01*
X123525Y349419D01*
X123582Y349418D01*
X123582Y349418D01*
X123582Y349418D01*
X123597Y349416D01*
X123620Y349414D01*
X123620Y349414D01*
X123620D01*
X123629Y349411D01*
X123657Y349402D01*
X123658Y349402D01*
X123658Y349402D01*
X123674Y349394D01*
X123691Y349384D01*
X123691Y349384D01*
X123692Y349384D01*
X123707Y349371D01*
X123721Y349359D01*
X123721Y349359D01*
X123721Y349359D01*
X123730Y349348D01*
X123787Y349348D01*
X123825Y349344D01*
X123862Y349332D01*
X123888Y349318D01*
X123896Y349314D01*
X123896Y349314D01*
X123896Y349313D01*
X123911Y349301D01*
X123926Y349289D01*
X123926Y349289D01*
X123926Y349289D01*
X123950Y349258D01*
X123955Y349249D01*
X123964Y349244D01*
X123964Y349244D01*
X123964Y349244D01*
X123978Y349233D01*
X123994Y349220D01*
X123994Y349220D01*
X123994Y349220D01*
X124003Y349209D01*
X124059Y349208D01*
X124059D01*
X124059D01*
X124084Y349206D01*
X124098Y349204D01*
X124098Y349204D01*
X124098D01*
X124123Y349197D01*
X124135Y349193D01*
X124135Y349193D01*
X124135Y349193D01*
X124147Y349186D01*
X124169Y349174D01*
X124169Y349174D01*
X124169D01*
X124175Y349169D01*
X124199Y349149D01*
X124199Y349149D01*
X124199Y349149D01*
X124207Y349139D01*
X124264Y349138D01*
X124264D01*
X124264D01*
X124285Y349136D01*
X124303Y349134D01*
X124303Y349134D01*
X124303D01*
X124319Y349129D01*
X124340Y349123D01*
X124340Y349123D01*
X124340D01*
X124346Y349119D01*
X124374Y349104D01*
X124374Y349104D01*
X124374Y349104D01*
X124386Y349094D01*
X124404Y349079D01*
X124404Y349079D01*
X124404Y349079D01*
X124411Y349069D01*
X124428Y349049D01*
X124433Y349040D01*
X124442Y349035D01*
X124442Y349035D01*
X124442Y349035D01*
X124452Y349026D01*
X124471Y349010D01*
X124472Y349010D01*
X124472Y349010D01*
X124480Y348999D01*
X124537Y348999D01*
X124576Y348995D01*
X124584Y348992D01*
X124613Y348983D01*
X124635Y348971D01*
X124647Y348965D01*
X124671Y348944D01*
X124676Y348940D01*
Y348940D01*
X124676D01*
X124685Y348929D01*
X124742Y348929D01*
X124742D01*
X124742D01*
X124767Y348926D01*
X124780Y348924D01*
X124780Y348924D01*
X124780D01*
X124795Y348920D01*
X124818Y348913D01*
X124852Y348894D01*
X124852Y348894D01*
X124852D01*
X124854Y348892D01*
X124881Y348869D01*
X124906Y348839D01*
X124910Y348830D01*
X124919Y348825D01*
X124919Y348825D01*
X124919Y348825D01*
X124939Y348809D01*
X124949Y348800D01*
X124949Y348800D01*
X124949Y348800D01*
X124965Y348781D01*
X124973Y348770D01*
X124973Y348770D01*
X124973Y348770D01*
X124978Y348761D01*
X124987Y348756D01*
X125012Y348736D01*
X125017Y348731D01*
X125017Y348731D01*
X125017Y348731D01*
X125025Y348721D01*
X125082Y348720D01*
X125111Y348717D01*
X125121Y348716D01*
X125121D01*
X125121Y348716D01*
X125158Y348705D01*
X125188Y348688D01*
X125192Y348686D01*
X125192Y348686D01*
X125192Y348686D01*
X125209Y348671D01*
X125222Y348661D01*
X125222Y348661D01*
X125222Y348661D01*
X125245Y348632D01*
X125246Y348631D01*
D01*
X125246Y348631D01*
X125251Y348622D01*
X125260Y348617D01*
X125280Y348600D01*
X125290Y348592D01*
X125290Y348592D01*
X125290Y348592D01*
X125314Y348562D01*
X125319Y348553D01*
X125328Y348548D01*
X125328Y348548D01*
X125328Y348548D01*
X125344Y348534D01*
X125357Y348523D01*
X125357Y348523D01*
X125358Y348523D01*
X125366Y348512D01*
X125423Y348512D01*
X125441Y348510D01*
X125461Y348508D01*
X125462Y348508D01*
X125462D01*
X125485Y348500D01*
X125498Y348496D01*
X125499Y348496D01*
X125499Y348496D01*
X125522Y348483D01*
X125533Y348478D01*
X125533Y348478D01*
X125533Y348477D01*
X125551Y348462D01*
X125562Y348453D01*
X125562Y348453D01*
X125562Y348453D01*
X125573Y348439D01*
X125587Y348423D01*
X125587Y348422D01*
X125587Y348422D01*
X125592Y348413D01*
X125601Y348408D01*
X125630Y348384D01*
X125655Y348353D01*
X125659Y348344D01*
X125668Y348339D01*
X125668Y348339D01*
X125669Y348339D01*
X125681Y348328D01*
X125698Y348314D01*
X125698Y348314D01*
X125698Y348314D01*
X125708Y348302D01*
X125723Y348284D01*
X125723Y348284D01*
X125723Y348284D01*
X125727Y348275D01*
X125736Y348270D01*
X125736Y348270D01*
X125736Y348270D01*
X125745Y348263D01*
X125766Y348245D01*
X125775Y348235D01*
X125831Y348234D01*
X125859Y348231D01*
X125870Y348230D01*
X125870D01*
X125870Y348230D01*
X125904Y348220D01*
X125907Y348218D01*
X125907D01*
X125907Y348218D01*
X125935Y348203D01*
X125941Y348200D01*
X125941Y348200D01*
X125941Y348200D01*
X125959Y348185D01*
X125971Y348175D01*
X125971Y348175D01*
X125971Y348175D01*
X125983Y348161D01*
X125995Y348145D01*
X125995Y348145D01*
X125995Y348145D01*
X126000Y348136D01*
X126003Y348134D01*
X126009Y348131D01*
X126009Y348131D01*
X126009Y348131D01*
X126039Y348106D01*
X126055Y348086D01*
X126063Y348076D01*
X126068Y348067D01*
X126077Y348062D01*
X126107Y348037D01*
X126131Y348007D01*
X126136Y347998D01*
X126145Y347993D01*
X126174Y347968D01*
X126174Y347968D01*
X126174Y347968D01*
X126199Y347938D01*
X126204Y347929D01*
X126206Y347927D01*
X126213Y347924D01*
X126213Y347924D01*
X126213Y347924D01*
X126232Y347908D01*
X126242Y347899D01*
X126242Y347899D01*
X126242Y347899D01*
X126253Y347886D01*
X126267Y347869D01*
X126267Y347868D01*
X126267Y347868D01*
X126271Y347860D01*
X126275Y347858D01*
X126280Y347855D01*
X126280Y347855D01*
X126281Y347855D01*
X126300Y347839D01*
X126310Y347830D01*
X126310Y347830D01*
X126310Y347830D01*
X126320Y347818D01*
X126327Y347817D01*
X126346Y347815D01*
X126346Y347815D01*
X126346Y347815D01*
X126365Y347809D01*
X126383Y347803D01*
X126383Y347803D01*
X126383Y347803D01*
X126401Y347794D01*
X126417Y347785D01*
X126417Y347785D01*
X126417Y347785D01*
X126430Y347774D01*
X126447Y347760D01*
X126447Y347760D01*
X126447Y347760D01*
X126459Y347745D01*
X126471Y347730D01*
X126471Y347730D01*
X126471Y347730D01*
X126481Y347711D01*
X126489Y347696D01*
X126489Y347695D01*
X126489Y347695D01*
X126493Y347681D01*
X126512Y347680D01*
X126535Y347678D01*
X126550Y347676D01*
X126550Y347676D01*
X126550D01*
X126575Y347669D01*
X126587Y347665D01*
X126587Y347665D01*
X126587Y347665D01*
X126612Y347651D01*
X126621Y347646D01*
X126621Y347646D01*
X126621Y347646D01*
X126640Y347630D01*
X126651Y347621D01*
X126651Y347621D01*
X126651Y347621D01*
X126661Y347608D01*
X126675Y347591D01*
X126675Y347591D01*
X126675Y347591D01*
X126693Y347557D01*
X126700Y347534D01*
X126709Y347531D01*
X126723Y347527D01*
X126723Y347527D01*
X126723Y347527D01*
X126741Y347517D01*
X126757Y347508D01*
X126757Y347508D01*
X126757Y347508D01*
X126771Y347497D01*
X126787Y347483D01*
X126787Y347483D01*
X126787Y347483D01*
X126802Y347464D01*
X126811Y347453D01*
X126811Y347453D01*
X126811Y347453D01*
X126829Y347419D01*
X126836Y347396D01*
X126846Y347392D01*
X126859Y347388D01*
X126859Y347388D01*
X126859Y347388D01*
X126871Y347382D01*
X126893Y347370D01*
X126893Y347370D01*
X126893D01*
X126899Y347365D01*
X126922Y347345D01*
X126923Y347345D01*
X126923Y347345D01*
X126933Y347332D01*
X126947Y347315D01*
X126947Y347315D01*
X126947Y347315D01*
X126954Y347302D01*
X126965Y347280D01*
X126965Y347280D01*
X126965Y347280D01*
X126969Y347265D01*
X126971Y347257D01*
X126994Y347250D01*
X127029Y347232D01*
X127029Y347232D01*
X127029Y347232D01*
X127039Y347223D01*
X127058Y347207D01*
X127058Y347207D01*
X127058Y347207D01*
X127069Y347194D01*
X127083Y347177D01*
X127083Y347177D01*
X127083Y347177D01*
X127087Y347168D01*
X127101Y347142D01*
X127101Y347142D01*
X127101Y347142D01*
X127103Y347133D01*
X127107Y347119D01*
X127130Y347112D01*
X127130Y347112D01*
X127130D01*
X127136Y347109D01*
X127164Y347094D01*
X127164Y347094D01*
X127164Y347094D01*
X127176Y347083D01*
X127194Y347069D01*
X127194Y347069D01*
X127194Y347069D01*
X127212Y347047D01*
X127218Y347039D01*
Y347039D01*
X127218Y347039D01*
X127229Y347018D01*
X127236Y347004D01*
X127236Y347004D01*
X127236Y347004D01*
X127243Y346981D01*
X127266Y346974D01*
X127300Y346955D01*
X127330Y346931D01*
Y346931D01*
X127330D01*
X127354Y346900D01*
X127370Y346869D01*
X127372Y346866D01*
D01*
X127372Y346866D01*
X127383Y346829D01*
X127385Y346803D01*
X127391Y346798D01*
X127397Y346793D01*
X127421Y346763D01*
X127439Y346728D01*
X127450Y346691D01*
X127453Y346665D01*
X127464Y346656D01*
X127464Y346655D01*
X127464Y346655D01*
X127477Y346640D01*
X127489Y346625D01*
X127489Y346625D01*
X127489Y346625D01*
X127493Y346616D01*
X127502Y346611D01*
X127532Y346586D01*
X127557Y346556D01*
X127561Y346547D01*
X127570Y346542D01*
X127600Y346517D01*
X127624Y346487D01*
X127629Y346478D01*
X127638Y346473D01*
X127658Y346456D01*
X127668Y346448D01*
X127668Y346448D01*
X127668Y346448D01*
X127692Y346418D01*
X127697Y346409D01*
X127706Y346404D01*
X127706Y346404D01*
X127706Y346404D01*
X127723Y346389D01*
X127736Y346379D01*
X127736Y346379D01*
X127736Y346379D01*
X127748Y346364D01*
X127760Y346349D01*
X127760Y346349D01*
X127760Y346349D01*
X127765Y346340D01*
X127774Y346335D01*
X127804Y346310D01*
X127828Y346280D01*
X127846Y346246D01*
X127857Y346208D01*
X127860Y346170D01*
X127860Y346113D01*
X127870Y346104D01*
X127870Y346104D01*
X127870Y346104D01*
X127882Y346089D01*
X127895Y346074D01*
X127895Y346074D01*
X127895Y346074D01*
X127900Y346065D01*
X127909Y346060D01*
X127938Y346035D01*
X127963Y346005D01*
X127967Y345996D01*
X127976Y345991D01*
X128006Y345966D01*
X128006Y345966D01*
X128006Y345966D01*
X128011Y345959D01*
X128030Y345936D01*
X128035Y345926D01*
X128044Y345922D01*
X128060Y345908D01*
X128074Y345897D01*
X128098Y345866D01*
X128098Y345866D01*
X128098Y345866D01*
X128103Y345857D01*
X128106Y345856D01*
X128112Y345852D01*
X128112Y345852D01*
X128112Y345852D01*
X128130Y345837D01*
X128142Y345828D01*
X128142Y345828D01*
X128142Y345828D01*
X128152Y345816D01*
X128166Y345797D01*
X128184Y345763D01*
D01*
X128184Y345763D01*
X128195Y345726D01*
X128198Y345700D01*
X128209Y345690D01*
X128209Y345690D01*
X128209Y345690D01*
X128224Y345672D01*
X128234Y345660D01*
X128234Y345660D01*
X128234Y345660D01*
X128246Y345636D01*
X128252Y345626D01*
X128252Y345626D01*
X128252Y345625D01*
X128257Y345606D01*
X128262Y345588D01*
X128262Y345588D01*
X128262Y345588D01*
X128264Y345570D01*
X128265Y345562D01*
X128266Y345561D01*
X128277Y345552D01*
X128277Y345552D01*
X128277Y345552D01*
X128287Y345539D01*
X128301Y345522D01*
X128301Y345522D01*
X128301Y345522D01*
X128306Y345513D01*
X128315Y345508D01*
X128315Y345508D01*
X128315D01*
X128321Y345503D01*
X128344Y345483D01*
X128344Y345483D01*
X128344Y345483D01*
X128355Y345470D01*
X128369Y345453D01*
X128369Y345453D01*
X128369Y345453D01*
X128376Y345440D01*
X128387Y345419D01*
X128387Y345419D01*
X128387Y345419D01*
X128391Y345404D01*
X128398Y345382D01*
Y345382D01*
X128398Y345382D01*
X128399Y345364D01*
X128401Y345343D01*
Y345343D01*
Y345343D01*
X128401Y345286D01*
X128411Y345278D01*
X128435Y345247D01*
X128440Y345238D01*
X128449Y345233D01*
X128449Y345233D01*
X128449Y345233D01*
X128458Y345226D01*
X128479Y345208D01*
X128479Y345208D01*
X128479Y345208D01*
X128488Y345197D01*
X128503Y345178D01*
X128503Y345178D01*
X128503Y345178D01*
X128508Y345169D01*
X128517Y345164D01*
X128517Y345164D01*
X128517Y345164D01*
X128536Y345148D01*
X128547Y345139D01*
X128547Y345139D01*
X128547Y345139D01*
X128557Y345126D01*
X128571Y345109D01*
X128571Y345109D01*
X128571Y345109D01*
X128589Y345075D01*
X128597Y345046D01*
X128600Y345038D01*
Y345038D01*
X128600Y345038D01*
X128602Y345016D01*
X128603Y344999D01*
Y344999D01*
D01*
D01*
X128603Y344942D01*
X128603Y344942D01*
X128613Y344933D01*
X128638Y344903D01*
X128643Y344894D01*
X128652Y344889D01*
X128681Y344864D01*
X128681Y344864D01*
X128681Y344864D01*
X128691Y344852D01*
X128706Y344834D01*
X128708Y344831D01*
X128724Y344800D01*
X128733Y344767D01*
X128735Y344762D01*
Y344762D01*
X128735Y344762D01*
X128737Y344735D01*
X128738Y344724D01*
Y344724D01*
Y344724D01*
X128738Y344667D01*
X128748Y344658D01*
X128748Y344658D01*
X128748Y344658D01*
X128761Y344641D01*
X128772Y344628D01*
X128772Y344628D01*
X128772Y344628D01*
X128777Y344619D01*
X128786Y344614D01*
X128816Y344589D01*
X128840Y344559D01*
X128858Y344525D01*
X128869Y344487D01*
X128873Y344449D01*
D01*
Y344449D01*
X128872Y344392D01*
X128883Y344383D01*
X128883Y344383D01*
X128883Y344383D01*
X128892Y344371D01*
X128907Y344353D01*
X128912Y344344D01*
X128921Y344339D01*
X128951Y344314D01*
X128951Y344314D01*
X128951Y344314D01*
X128956Y344307D01*
X128975Y344284D01*
X128993Y344249D01*
X128993Y344249D01*
Y344249D01*
X129004Y344212D01*
X129006Y344184D01*
X129007Y344174D01*
Y344174D01*
Y344174D01*
X129007Y344117D01*
X129017Y344108D01*
X129017Y344108D01*
X129017Y344108D01*
X129027Y344096D01*
X129042Y344078D01*
X129042Y344078D01*
X129042Y344078D01*
X129046Y344069D01*
X129055Y344064D01*
X129080Y344043D01*
X129085Y344039D01*
X129085Y344039D01*
X129085Y344039D01*
X129097Y344024D01*
X129109Y344009D01*
X129109Y344009D01*
X129109Y344009D01*
X129126Y343978D01*
X129127Y343974D01*
D01*
X129127Y343974D01*
X129132Y343959D01*
X129138Y343937D01*
X129142Y343899D01*
Y343899D01*
D01*
D01*
X129141Y343842D01*
X129152Y343833D01*
X129176Y343803D01*
X129194Y343768D01*
X129205Y343731D01*
X129209Y343692D01*
D01*
Y343692D01*
X129208Y343624D01*
D01*
Y343624D01*
X129207Y343556D01*
X129207Y343555D01*
X129203Y343517D01*
X129192Y343480D01*
X129182Y343461D01*
X129173Y343446D01*
X129148Y343416D01*
X129148D01*
Y343416D01*
X129118Y343392D01*
X129102Y343383D01*
X129084Y343374D01*
X129046Y343363D01*
X129008Y343359D01*
D01*
X129008D01*
X128936Y343360D01*
X128942Y343355D01*
X128942Y343355D01*
X128942Y343355D01*
X128967Y343325D01*
X128978Y343303D01*
X128984Y343291D01*
X128984Y343291D01*
Y343291D01*
X128986Y343286D01*
X128995Y343253D01*
X128999Y343215D01*
Y343215D01*
D01*
D01*
X128998Y343158D01*
X129009Y343149D01*
X129009Y343149D01*
X129009Y343149D01*
X129032Y343120D01*
X129033Y343119D01*
D01*
X129033Y343119D01*
X129038Y343110D01*
X129047Y343105D01*
X129077Y343080D01*
X129101Y343050D01*
X129119Y343016D01*
X129130Y342978D01*
X129133Y342940D01*
D01*
Y342940D01*
X129133Y342883D01*
X129144Y342874D01*
X129168Y342844D01*
X129168Y342844D01*
X129168Y342844D01*
X129173Y342835D01*
X129182Y342830D01*
X129182Y342830D01*
X129182Y342830D01*
X129211Y342805D01*
X129230Y342782D01*
X129236Y342775D01*
X129236Y342775D01*
X129236Y342775D01*
X129245Y342756D01*
X129254Y342740D01*
X129254Y342740D01*
X129254Y342740D01*
X129261Y342716D01*
X129265Y342703D01*
Y342703D01*
X129265Y342703D01*
X129267Y342679D01*
X129268Y342665D01*
Y342665D01*
Y342665D01*
Y342665D01*
X129268Y342608D01*
X129268Y342608D01*
X129278Y342599D01*
X129278Y342599D01*
X129278Y342599D01*
X129294Y342579D01*
X129302Y342569D01*
X129302Y342569D01*
X129302Y342569D01*
X129312Y342551D01*
X129320Y342534D01*
X129320Y342534D01*
X129320Y342534D01*
X129324Y342522D01*
X129331Y342497D01*
X129331Y342497D01*
Y342497D01*
X129332Y342486D01*
X129335Y342459D01*
Y342459D01*
Y342459D01*
Y342459D01*
X129334Y342402D01*
X129345Y342393D01*
X129369Y342363D01*
X129387Y342328D01*
X129387Y342328D01*
X129387Y342328D01*
X129390Y342319D01*
X129398Y342291D01*
Y342291D01*
X129398Y342291D01*
X129400Y342273D01*
X129401Y342253D01*
Y342252D01*
Y342252D01*
X129401Y342196D01*
X129411Y342187D01*
X129411Y342187D01*
X129411Y342187D01*
X129435Y342158D01*
X129436Y342157D01*
D01*
X129436Y342157D01*
X129452Y342126D01*
X129454Y342122D01*
Y342122D01*
X129454Y342122D01*
X129460Y342099D01*
X129465Y342085D01*
Y342085D01*
X129465Y342085D01*
X129466Y342069D01*
X129468Y342047D01*
Y342047D01*
Y342046D01*
X129468Y341990D01*
X129478Y341981D01*
X129478Y341981D01*
X129478Y341981D01*
X129489Y341968D01*
X129502Y341951D01*
X129502Y341951D01*
X129502Y341951D01*
X129509Y341937D01*
X129520Y341916D01*
X129520Y341916D01*
X129520Y341916D01*
X129526Y341897D01*
X129531Y341879D01*
Y341879D01*
X129531Y341879D01*
X129533Y341858D01*
X129535Y341841D01*
Y341841D01*
D01*
D01*
X129534Y341784D01*
X129545Y341775D01*
X129545Y341775D01*
X129545Y341775D01*
X129555Y341762D01*
X129569Y341745D01*
X129569Y341745D01*
X129569Y341745D01*
X129576Y341732D01*
X129587Y341710D01*
X129587Y341710D01*
X129587Y341710D01*
X129593Y341690D01*
X129598Y341673D01*
Y341673D01*
X129598Y341673D01*
X129600Y341652D01*
X129601Y341634D01*
Y341634D01*
D01*
D01*
X129601Y341566D01*
X129597Y341532D01*
X129598Y341516D01*
X129600Y341498D01*
Y341497D01*
Y341497D01*
Y341497D01*
X129600Y341429D01*
X129599Y341361D01*
Y341361D01*
Y341360D01*
X129599Y341304D01*
X129609Y341295D01*
X129609Y341295D01*
X129609Y341295D01*
X129620Y341282D01*
X129633Y341265D01*
X129633Y341265D01*
X129633Y341265D01*
X129640Y341251D01*
X129651Y341230D01*
X129651Y341230D01*
X129651Y341230D01*
X129656Y341215D01*
X129662Y341193D01*
Y341193D01*
X129662Y341193D01*
X129664Y341177D01*
X129666Y341155D01*
Y341155D01*
Y341155D01*
X129665Y341086D01*
X129662Y341052D01*
X129665Y341018D01*
X129664Y340949D01*
X129660Y340915D01*
X129662Y340901D01*
X129663Y340881D01*
Y340881D01*
Y340881D01*
X129663Y340812D01*
D01*
X129662Y340744D01*
D01*
Y340744D01*
X129662Y340675D01*
Y340675D01*
Y340675D01*
X129658Y340641D01*
X129660Y340614D01*
X129661Y340607D01*
Y340607D01*
D01*
D01*
X129660Y340538D01*
D01*
Y340538D01*
X129660Y340470D01*
D01*
X129659Y340401D01*
Y340401D01*
Y340401D01*
X129657Y340383D01*
X129656Y340367D01*
X129656Y340364D01*
X129659Y340333D01*
Y340333D01*
Y340333D01*
X129658Y340264D01*
X129656Y340245D01*
X129654Y340230D01*
X129656Y340212D01*
X129657Y340196D01*
Y340196D01*
Y340196D01*
Y340196D01*
X129657Y340127D01*
Y340127D01*
Y340127D01*
X129656Y340116D01*
X129653Y340093D01*
X129655Y340078D01*
X129656Y340059D01*
Y340059D01*
D01*
D01*
X129656Y339990D01*
X129654Y339975D01*
X129651Y339952D01*
X129651Y339952D01*
Y339952D01*
X129645Y339931D01*
X129640Y339915D01*
X129640Y339915D01*
X129640Y339915D01*
X129625Y339888D01*
X129621Y339881D01*
X129621Y339881D01*
X129621Y339881D01*
X129605Y339862D01*
X129596Y339851D01*
X129596Y339851D01*
X129596Y339851D01*
X129586Y339842D01*
X129585Y339786D01*
D01*
X129585Y339717D01*
Y339717D01*
Y339717D01*
X129584Y339649D01*
X129580Y339612D01*
X129580Y339610D01*
D01*
X129580Y339610D01*
X129572Y339584D01*
X129568Y339573D01*
X129568Y339573D01*
X129568Y339573D01*
X129561Y339559D01*
X129550Y339539D01*
X129550Y339539D01*
X129550Y339539D01*
X129538Y339525D01*
X129525Y339509D01*
X129525Y339509D01*
X129525Y339509D01*
X129514Y339501D01*
X129514Y339444D01*
X129514Y339444D01*
X129514Y339444D01*
X129513Y339375D01*
Y339375D01*
X129513Y339307D01*
X129509Y339273D01*
X129512Y339238D01*
Y339238D01*
D01*
D01*
X129511Y339170D01*
X129507Y339131D01*
X129496Y339094D01*
X129477Y339060D01*
X129452Y339031D01*
X129442Y339022D01*
X129441Y338965D01*
X129437Y338926D01*
X129429Y338900D01*
X129426Y338889D01*
X129426Y338889D01*
D01*
X129424Y338886D01*
X129407Y338855D01*
X129382Y338826D01*
X129382Y338826D01*
X129382Y338826D01*
X129371Y338817D01*
X129371Y338760D01*
Y338760D01*
Y338760D01*
X129369Y338742D01*
X129367Y338726D01*
X129370Y338692D01*
D01*
Y338692D01*
X129370Y338623D01*
X129367Y338598D01*
X129366Y338585D01*
X129366Y338585D01*
Y338585D01*
X129355Y338552D01*
X129354Y338548D01*
Y338548D01*
X129354Y338548D01*
X129339Y338520D01*
X129335Y338514D01*
X129335Y338514D01*
X129335Y338514D01*
X129320Y338495D01*
X129311Y338484D01*
X129311Y338484D01*
X129311Y338484D01*
X129299Y338474D01*
X129298Y338471D01*
X129296Y338448D01*
X129296Y338448D01*
Y338448D01*
X129293Y338440D01*
X129284Y338411D01*
X129284Y338411D01*
X129284Y338411D01*
X129275Y338395D01*
X129266Y338377D01*
X129266Y338377D01*
X129266Y338377D01*
X129253Y338361D01*
X129241Y338348D01*
X129241Y338347D01*
X129241Y338347D01*
X129229Y338338D01*
X129228Y338326D01*
X129227Y338316D01*
X129227Y338310D01*
X129230Y338282D01*
Y338282D01*
Y338282D01*
Y338282D01*
X129229Y338213D01*
X129225Y338175D01*
X129214Y338138D01*
X129195Y338104D01*
X129170Y338074D01*
X129158Y338065D01*
X129157Y338058D01*
X129155Y338039D01*
X129155Y338038D01*
Y338038D01*
X129148Y338016D01*
X129144Y338002D01*
X129144Y338002D01*
X129144Y338001D01*
X129127Y337971D01*
X129125Y337968D01*
X129125Y337967D01*
X129125Y337967D01*
X129109Y337948D01*
X129100Y337938D01*
X129100Y337938D01*
X129100Y337938D01*
X129088Y337928D01*
X129086Y337907D01*
X129089Y337880D01*
X129089Y337872D01*
Y337872D01*
D01*
D01*
X129089Y337804D01*
Y337804D01*
Y337804D01*
X129085Y337765D01*
X129076Y337739D01*
X129073Y337728D01*
X129073Y337728D01*
D01*
X129071Y337725D01*
X129054Y337694D01*
X129030Y337664D01*
X129030Y337664D01*
X129030Y337664D01*
X129023Y337659D01*
X128999Y337640D01*
X128990Y337635D01*
X128985Y337626D01*
X128985Y337626D01*
X128985Y337626D01*
X128976Y337615D01*
X128960Y337597D01*
X128960Y337597D01*
X128960Y337597D01*
X128952Y337590D01*
X128950Y337588D01*
X128949Y337531D01*
X128949Y337531D01*
X128949Y337531D01*
X128948Y337516D01*
X128945Y337493D01*
X128945Y337492D01*
Y337492D01*
X128943Y337485D01*
X128934Y337456D01*
X128934Y337456D01*
X128934Y337455D01*
X128924Y337437D01*
X128915Y337421D01*
X128915Y337421D01*
X128915Y337421D01*
X128904Y337409D01*
X128890Y337392D01*
X128890Y337392D01*
X128890Y337392D01*
X128878Y337382D01*
X128860Y337367D01*
X128860Y337367D01*
X128860Y337367D01*
X128851Y337363D01*
X128846Y337354D01*
X128846Y337354D01*
X128846Y337353D01*
X128830Y337334D01*
X128821Y337324D01*
X128821Y337324D01*
X128821Y337324D01*
X128810Y337315D01*
X128810Y337258D01*
Y337258D01*
Y337258D01*
X128809Y337247D01*
X128806Y337220D01*
X128794Y337183D01*
X128779Y337156D01*
X128776Y337149D01*
X128759Y337129D01*
X128751Y337119D01*
X128751Y337119D01*
X128751Y337119D01*
X128736Y337107D01*
X128720Y337095D01*
X128720Y337095D01*
X128720Y337095D01*
X128711Y337090D01*
X128707Y337081D01*
X128682Y337051D01*
X128682Y337051D01*
X128682Y337051D01*
X128675Y337046D01*
X128671Y337043D01*
X128671Y336986D01*
X128666Y336947D01*
X128655Y336910D01*
X128636Y336876D01*
X128612Y336846D01*
X128581Y336822D01*
X128572Y336817D01*
X128569Y336812D01*
X128567Y336808D01*
X128567Y336808D01*
X128567Y336808D01*
X128551Y336789D01*
X128542Y336778D01*
X128542Y336778D01*
X128542Y336778D01*
X128523Y336763D01*
X128512Y336754D01*
X128512Y336754D01*
X128512Y336754D01*
X128503Y336749D01*
X128498Y336740D01*
X128473Y336711D01*
X128473Y336711D01*
X128473Y336711D01*
X128461Y336701D01*
X128461Y336696D01*
X128459Y336675D01*
X128459Y336675D01*
X128459Y336675D01*
X128454Y336660D01*
X128447Y336638D01*
X128447Y336638D01*
X128447Y336638D01*
X128438Y336621D01*
X128428Y336604D01*
X128428Y336604D01*
X128428Y336604D01*
X128417Y336590D01*
X128404Y336574D01*
X128404Y336574D01*
X128403Y336574D01*
X128394Y336566D01*
X128392Y336565D01*
X128389Y336539D01*
X128381Y336512D01*
X128377Y336502D01*
X128377Y336502D01*
D01*
X128359Y336468D01*
X128342Y336448D01*
X128334Y336438D01*
X128334Y336438D01*
X128334Y336438D01*
X128304Y336414D01*
X128295Y336409D01*
X128290Y336400D01*
X128265Y336370D01*
X128265Y336370D01*
X128265Y336370D01*
X128253Y336360D01*
X128235Y336346D01*
X128226Y336341D01*
X128221Y336332D01*
X128221Y336332D01*
X128221Y336332D01*
X128207Y336315D01*
X128196Y336302D01*
X128196Y336302D01*
X128196Y336302D01*
X128182Y336291D01*
X128166Y336278D01*
X128166Y336278D01*
X128165Y336278D01*
X128156Y336273D01*
X128152Y336264D01*
X128152Y336264D01*
X128151Y336264D01*
X128138Y336247D01*
X128127Y336234D01*
X128127Y336234D01*
X128127Y336234D01*
X128116Y336226D01*
X128116Y336169D01*
X128116Y336169D01*
X128111Y336130D01*
X128100Y336093D01*
X128081Y336059D01*
X128063Y336037D01*
X128056Y336029D01*
X128056Y336029D01*
X128056Y336029D01*
X128039Y336015D01*
X128026Y336005D01*
X128026Y336005D01*
X128026Y336005D01*
X128012Y335997D01*
X127992Y335987D01*
X127992Y335987D01*
X127992D01*
X127989Y335986D01*
X127969Y335980D01*
X127962Y335957D01*
Y335957D01*
X127962Y335957D01*
X127946Y335929D01*
X127943Y335923D01*
X127943Y335923D01*
X127943Y335923D01*
X127927Y335904D01*
X127918Y335894D01*
X127918Y335894D01*
X127918Y335894D01*
X127889Y335870D01*
X127888Y335869D01*
D01*
X127888Y335869D01*
X127879Y335864D01*
X127874Y335856D01*
X127874Y335856D01*
X127874Y335855D01*
X127863Y335842D01*
X127849Y335826D01*
X127849Y335826D01*
X127849Y335826D01*
X127836Y335815D01*
X127819Y335801D01*
X127819Y335801D01*
X127819Y335801D01*
X127810Y335797D01*
X127805Y335788D01*
X127780Y335758D01*
X127780Y335758D01*
X127780Y335758D01*
X127750Y335734D01*
X127741Y335729D01*
X127740Y335727D01*
X127736Y335720D01*
X127736Y335720D01*
X127736Y335720D01*
X127720Y335701D01*
X127711Y335690D01*
X127711Y335690D01*
X127711Y335690D01*
X127693Y335676D01*
X127681Y335666D01*
X127681Y335666D01*
X127681Y335666D01*
X127672Y335661D01*
X127667Y335652D01*
X127667Y335652D01*
X127667Y335652D01*
X127657Y335641D01*
X127642Y335622D01*
X127642Y335622D01*
X127642Y335622D01*
X127626Y335609D01*
X127612Y335598D01*
X127612Y335598D01*
X127612Y335598D01*
X127603Y335593D01*
X127602Y335591D01*
X127598Y335584D01*
X127598Y335584D01*
X127598Y335584D01*
X127582Y335565D01*
X127573Y335554D01*
X127573Y335554D01*
X127573Y335554D01*
X127560Y335544D01*
X127543Y335530D01*
X127543Y335530D01*
X127543Y335530D01*
X127534Y335525D01*
X127532Y335522D01*
X127529Y335516D01*
X127504Y335486D01*
X127474Y335462D01*
X127464Y335457D01*
X127460Y335448D01*
X127460Y335448D01*
X127460Y335448D01*
X127444Y335429D01*
X127435Y335418D01*
X127435Y335418D01*
X127435Y335418D01*
X127411Y335400D01*
X127405Y335394D01*
X127404D01*
X127404Y335394D01*
X127395Y335389D01*
X127394Y335386D01*
X127391Y335380D01*
X127391Y335380D01*
X127391Y335380D01*
X127375Y335361D01*
X127366Y335351D01*
X127366Y335351D01*
X127366Y335350D01*
X127337Y335327D01*
X127336Y335326D01*
D01*
X127336Y335326D01*
X127326Y335321D01*
X127322Y335312D01*
X127321Y335312D01*
X127321Y335312D01*
X127310Y335299D01*
X127297Y335283D01*
X127297Y335283D01*
X127297Y335283D01*
X127284Y335273D01*
X127266Y335258D01*
X127266Y335258D01*
X127266Y335258D01*
X127257Y335254D01*
X127252Y335244D01*
X127252Y335244D01*
X127252Y335244D01*
X127244Y335234D01*
X127227Y335215D01*
X127227Y335215D01*
X127227Y335215D01*
X127204Y335196D01*
X127197Y335190D01*
X127197D01*
X127197Y335190D01*
X127188Y335186D01*
X127183Y335177D01*
X127183Y335177D01*
X127183Y335177D01*
X127168Y335159D01*
X127158Y335147D01*
X127158Y335147D01*
X127158Y335147D01*
X127144Y335135D01*
X127128Y335122D01*
X127128Y335122D01*
X127128Y335122D01*
X127119Y335118D01*
X127114Y335109D01*
X127114Y335109D01*
X127114Y335109D01*
X127101Y335092D01*
X127089Y335079D01*
X127089Y335079D01*
X127089Y335079D01*
X127073Y335066D01*
X127059Y335055D01*
X127059Y335055D01*
X127059Y335055D01*
X127030Y335039D01*
X127025Y335037D01*
X127025D01*
X127025Y335037D01*
X127002Y335030D01*
X126995Y335007D01*
D01*
X126995Y335007D01*
X126983Y334985D01*
X126976Y334973D01*
X126976Y334973D01*
X126976Y334973D01*
X126963Y334958D01*
X126951Y334943D01*
X126951Y334943D01*
X126951Y334943D01*
X126934Y334929D01*
X126921Y334919D01*
X126921Y334919D01*
X126921Y334919D01*
X126893Y334904D01*
X126887Y334901D01*
D01*
X126887Y334901D01*
X126856Y334892D01*
X126849Y334890D01*
X126849D01*
X126849Y334890D01*
X126825Y334888D01*
X126811Y334887D01*
X126811D01*
D01*
D01*
X126754Y334887D01*
X126745Y334877D01*
X126745Y334876D01*
X126745Y334876D01*
X126730Y334864D01*
X126715Y334852D01*
X126715Y334852D01*
X126715Y334852D01*
X126706Y334847D01*
X126701Y334838D01*
X126701Y334838D01*
X126701Y334838D01*
X126686Y334820D01*
X126676Y334809D01*
X126676Y334809D01*
X126676Y334809D01*
X126662Y334797D01*
X126646Y334784D01*
X126646Y334784D01*
X126646Y334784D01*
X126637Y334780D01*
X126632Y334770D01*
X126607Y334741D01*
X126577Y334716D01*
X126568Y334712D01*
X126563Y334703D01*
X126563Y334703D01*
X126563Y334703D01*
X126551Y334689D01*
X126538Y334673D01*
X126538Y334673D01*
X126538Y334673D01*
X126518Y334657D01*
X126508Y334649D01*
X126508Y334648D01*
X126508Y334648D01*
X126493Y334641D01*
X126473Y334631D01*
X126473Y334630D01*
X126473Y334630D01*
X126467Y334629D01*
X126436Y334620D01*
X126436Y334620D01*
X126436D01*
X126429Y334619D01*
X126398Y334616D01*
X126398D01*
X126398D01*
X126398D01*
X126341Y334617D01*
X126337Y334612D01*
X126332Y334606D01*
X126332Y334606D01*
X126332Y334606D01*
X126302Y334582D01*
X126293Y334577D01*
X126288Y334568D01*
X126288Y334568D01*
X126288Y334568D01*
X126270Y334547D01*
X126263Y334538D01*
X126263Y334538D01*
X126263Y334538D01*
X126247Y334525D01*
X126233Y334514D01*
X126233Y334514D01*
X126233Y334514D01*
X126213Y334504D01*
X126198Y334496D01*
X126198Y334496D01*
X126198Y334496D01*
X126183Y334491D01*
X126161Y334485D01*
X126161Y334485D01*
X126161D01*
X126150Y334484D01*
X126135Y334483D01*
X126125Y334471D01*
X126125Y334471D01*
X126125Y334471D01*
X126119Y334466D01*
X126095Y334447D01*
X126061Y334429D01*
X126061Y334429D01*
X126061D01*
X126023Y334418D01*
X125997Y334415D01*
X125988Y334404D01*
X125958Y334379D01*
X125948Y334375D01*
X125944Y334366D01*
X125944Y334366D01*
X125944Y334366D01*
X125930Y334350D01*
X125919Y334336D01*
X125919Y334336D01*
X125919Y334336D01*
X125901Y334321D01*
X125889Y334312D01*
X125888Y334312D01*
X125888Y334312D01*
X125864Y334299D01*
X125854Y334294D01*
X125854Y334294D01*
X125854Y334294D01*
X125834Y334288D01*
X125817Y334283D01*
X125817Y334283D01*
X125817Y334283D01*
X125799Y334281D01*
X125778Y334279D01*
X125778Y334279D01*
X125778Y334279D01*
X125721Y334280D01*
X125713Y334269D01*
X125713Y334269D01*
X125713Y334269D01*
X125698Y334257D01*
X125682Y334245D01*
X125682Y334245D01*
X125682Y334245D01*
X125664Y334235D01*
X125648Y334227D01*
X125648Y334227D01*
X125648Y334227D01*
X125626Y334220D01*
X125611Y334216D01*
X125611D01*
X125611Y334216D01*
X125590Y334214D01*
X125572Y334212D01*
X125572D01*
X125572D01*
X125572D01*
X125515Y334213D01*
X125506Y334203D01*
X125476Y334178D01*
X125467Y334173D01*
X125462Y334164D01*
X125462Y334164D01*
X125462Y334164D01*
X125452Y334152D01*
X125437Y334135D01*
X125437Y334135D01*
X125437Y334135D01*
X125428Y334127D01*
X125407Y334110D01*
X125373Y334092D01*
D01*
X125373Y334092D01*
X125349Y334085D01*
X125336Y334081D01*
X125336D01*
X125336Y334081D01*
X125314Y334079D01*
X125297Y334078D01*
X125297D01*
D01*
D01*
X125160Y334079D01*
X125160D01*
X125160D01*
X125142Y334081D01*
X125122Y334083D01*
X125122Y334083D01*
X125121D01*
X125101Y334090D01*
X125085Y334095D01*
X125085Y334095D01*
X125084Y334095D01*
X125068Y334104D01*
X125050Y334113D01*
X125050Y334113D01*
X125050Y334113D01*
X125038Y334123D01*
X125021Y334138D01*
X125021Y334138D01*
X125021Y334138D01*
X125013Y334148D01*
X124996Y334168D01*
X124978Y334203D01*
D01*
X124978Y334203D01*
X124969Y334233D01*
X124968Y334240D01*
Y334240D01*
X124968Y334240D01*
X124966Y334263D01*
X124964Y334279D01*
Y334279D01*
Y334279D01*
X124965Y334347D01*
X124969Y334384D01*
X124969Y334386D01*
D01*
X124969Y334386D01*
X124979Y334419D01*
X124980Y334423D01*
Y334423D01*
X124980Y334423D01*
X124992Y334444D01*
X124999Y334457D01*
X124999Y334457D01*
X124999Y334457D01*
X125010Y334470D01*
X125024Y334486D01*
X125024Y334486D01*
X125024Y334486D01*
X125043Y334502D01*
X125054Y334511D01*
X125054Y334511D01*
X125054Y334511D01*
X125088Y334529D01*
X125111Y334536D01*
X125119Y334558D01*
X125119Y334558D01*
X125119Y334559D01*
X125127Y334575D01*
X125137Y334592D01*
X125137Y334592D01*
X125137Y334593D01*
X125147Y334604D01*
X125162Y334622D01*
X125162Y334622D01*
X125162Y334622D01*
X125174Y334632D01*
X125174Y334638D01*
X125177Y334658D01*
X125177Y334658D01*
Y334658D01*
X125184Y334681D01*
X125188Y334695D01*
X125188Y334695D01*
X125188Y334695D01*
X125207Y334729D01*
X125225Y334751D01*
X125232Y334758D01*
X125232Y334758D01*
X125232Y334759D01*
X125251Y334774D01*
X125262Y334783D01*
X125262Y334783D01*
X125262Y334783D01*
X125271Y334788D01*
X125276Y334797D01*
X125276Y334797D01*
X125276Y334797D01*
X125284Y334807D01*
X125301Y334826D01*
X125301Y334826D01*
X125301Y334826D01*
X125310Y334834D01*
X125331Y334851D01*
X125340Y334856D01*
X125345Y334865D01*
X125370Y334894D01*
X125400Y334919D01*
X125409Y334923D01*
X125414Y334932D01*
X125431Y334952D01*
X125439Y334962D01*
X125439Y334962D01*
X125439Y334962D01*
X125450Y334971D01*
X125450Y335028D01*
X125454Y335066D01*
X125462Y335093D01*
X125466Y335103D01*
X125466Y335103D01*
D01*
X125468Y335106D01*
X125484Y335137D01*
X125509Y335167D01*
X125509Y335167D01*
X125509Y335167D01*
X125521Y335176D01*
X125539Y335191D01*
X125549Y335196D01*
X125553Y335205D01*
X125553Y335205D01*
X125553Y335205D01*
X125567Y335221D01*
X125578Y335235D01*
X125578Y335235D01*
X125578Y335235D01*
X125604Y335256D01*
X125608Y335259D01*
X125608D01*
X125609Y335259D01*
X125618Y335264D01*
X125622Y335273D01*
X125647Y335303D01*
X125678Y335327D01*
X125687Y335332D01*
X125691Y335341D01*
X125692Y335341D01*
X125692Y335341D01*
X125704Y335356D01*
X125716Y335371D01*
X125716Y335371D01*
X125716Y335371D01*
X125727Y335379D01*
X125727Y335436D01*
X125732Y335475D01*
X125743Y335512D01*
X125762Y335546D01*
X125787Y335576D01*
X125817Y335600D01*
X125826Y335605D01*
X125831Y335614D01*
X125842Y335627D01*
X125856Y335643D01*
X125866Y335652D01*
X125867Y335709D01*
Y335709D01*
Y335709D01*
X125870Y335734D01*
X125871Y335747D01*
X125871Y335747D01*
Y335748D01*
X125879Y335772D01*
X125883Y335784D01*
X125883Y335785D01*
X125883Y335785D01*
X125889Y335797D01*
X125901Y335819D01*
X125901Y335819D01*
Y335819D01*
X125906Y335825D01*
X125926Y335848D01*
X125926Y335848D01*
X125926Y335848D01*
X125939Y335859D01*
X125956Y335873D01*
X125956Y335873D01*
X125956Y335873D01*
X125965Y335877D01*
X125967Y335880D01*
X125970Y335886D01*
X125970Y335886D01*
X125970Y335886D01*
X125986Y335905D01*
X125995Y335916D01*
X125995Y335916D01*
X125995Y335916D01*
X126024Y335940D01*
X126025Y335940D01*
D01*
X126025Y335941D01*
X126034Y335945D01*
X126039Y335954D01*
X126039Y335954D01*
X126039Y335954D01*
X126051Y335968D01*
X126064Y335984D01*
X126064Y335984D01*
X126064Y335984D01*
X126076Y335994D01*
X126077Y336005D01*
X126079Y336019D01*
X126079Y336019D01*
X126079Y336020D01*
X126087Y336044D01*
X126090Y336056D01*
X126090Y336057D01*
X126090Y336057D01*
X126098Y336070D01*
X126109Y336091D01*
X126109Y336091D01*
X126109Y336091D01*
X126116Y336099D01*
X126134Y336120D01*
X126134Y336120D01*
X126134Y336120D01*
X126146Y336130D01*
X126148Y336156D01*
X126160Y336193D01*
X126175Y336220D01*
X126179Y336227D01*
X126195Y336247D01*
X126204Y336257D01*
X126204Y336257D01*
X126204Y336257D01*
X126214Y336265D01*
X126215Y336322D01*
X126217Y336347D01*
X126219Y336361D01*
X126219Y336361D01*
Y336361D01*
X126229Y336393D01*
X126230Y336398D01*
Y336398D01*
X126230Y336398D01*
X126246Y336426D01*
X126249Y336432D01*
X126249Y336432D01*
X126249Y336432D01*
X126265Y336451D01*
X126274Y336461D01*
X126274Y336462D01*
X126274Y336462D01*
X126284Y336470D01*
X126285Y336527D01*
X126289Y336565D01*
X126301Y336603D01*
X126319Y336637D01*
X126344Y336666D01*
X126374Y336691D01*
X126383Y336696D01*
X126388Y336704D01*
X126388Y336705D01*
X126388Y336705D01*
X126400Y336718D01*
X126413Y336734D01*
X126413Y336734D01*
X126413Y336734D01*
X126424Y336743D01*
X126424Y336800D01*
Y336800D01*
Y336800D01*
X126426Y336818D01*
X126428Y336838D01*
X126428Y336838D01*
Y336838D01*
X126436Y336861D01*
X126440Y336875D01*
X126440Y336875D01*
X126440Y336875D01*
X126450Y336894D01*
X126459Y336909D01*
X126459Y336909D01*
X126459Y336909D01*
X126470Y336923D01*
X126483Y336939D01*
X126483Y336939D01*
X126483Y336939D01*
X126495Y336949D01*
X126496Y336955D01*
X126498Y336975D01*
X126498Y336975D01*
Y336975D01*
X126505Y336998D01*
X126510Y337012D01*
X126510Y337012D01*
X126510Y337012D01*
X126520Y337030D01*
X126528Y337046D01*
X126528Y337046D01*
X126528Y337046D01*
X126540Y337059D01*
X126553Y337075D01*
X126553Y337075D01*
X126553Y337075D01*
X126565Y337085D01*
X126567Y337107D01*
X126564Y337141D01*
D01*
Y337141D01*
X126565Y337209D01*
X126567Y337226D01*
X126569Y337248D01*
X126569Y337248D01*
Y337248D01*
X126575Y337266D01*
X126581Y337285D01*
X126581Y337285D01*
X126581Y337285D01*
X126597Y337315D01*
X126599Y337319D01*
X126599Y337319D01*
X126599Y337319D01*
X126615Y337338D01*
X126624Y337349D01*
X126624Y337349D01*
X126624Y337349D01*
X126643Y337364D01*
X126654Y337373D01*
X126654Y337373D01*
X126654Y337373D01*
X126663Y337378D01*
X126668Y337387D01*
X126668Y337387D01*
X126668Y337387D01*
X126682Y337404D01*
X126693Y337417D01*
X126693Y337417D01*
X126693Y337417D01*
X126704Y337425D01*
X126704Y337482D01*
X126708Y337516D01*
X126705Y337543D01*
X126705Y337551D01*
Y337551D01*
D01*
D01*
X126705Y337619D01*
Y337619D01*
Y337619D01*
X126709Y337658D01*
X126720Y337692D01*
X126721Y337695D01*
D01*
X126721Y337695D01*
X126729Y337709D01*
X126740Y337729D01*
X126765Y337758D01*
X126765Y337758D01*
X126765Y337758D01*
X126776Y337768D01*
X126795Y337783D01*
X126804Y337788D01*
X126809Y337797D01*
X126809Y337797D01*
Y337797D01*
X126811Y337800D01*
X126834Y337826D01*
X126844Y337835D01*
X126845Y337892D01*
X126846Y337904D01*
X126848Y337926D01*
X126846Y337948D01*
X126845Y337960D01*
Y337960D01*
Y337960D01*
X126846Y338029D01*
X126850Y338067D01*
X126861Y338102D01*
X126862Y338104D01*
D01*
X126862Y338104D01*
X126869Y338118D01*
X126880Y338138D01*
X126905Y338168D01*
X126905Y338168D01*
X126905Y338168D01*
X126916Y338177D01*
X126916Y338234D01*
X126920Y338268D01*
X126917Y338302D01*
D01*
Y338302D01*
X126917Y338371D01*
X126920Y338395D01*
X126921Y338409D01*
X126921Y338409D01*
Y338409D01*
X126932Y338442D01*
X126933Y338446D01*
Y338446D01*
X126933Y338446D01*
X126948Y338474D01*
X126952Y338480D01*
X126952Y338480D01*
X126952Y338480D01*
X126968Y338499D01*
X126977Y338510D01*
X126977Y338510D01*
X126977Y338510D01*
X126987Y338519D01*
X126988Y338576D01*
Y338576D01*
Y338576D01*
X126989Y338587D01*
X126991Y338610D01*
X126990Y338625D01*
X126988Y338644D01*
Y338644D01*
Y338644D01*
Y338644D01*
X126989Y338712D01*
Y338712D01*
Y338713D01*
X126991Y338731D01*
X126993Y338751D01*
X126993Y338751D01*
Y338751D01*
X127000Y338774D01*
X127005Y338788D01*
X127005Y338788D01*
X127005Y338788D01*
X127015Y338806D01*
X127023Y338822D01*
X127023Y338822D01*
X127023Y338822D01*
X127034Y338836D01*
X127048Y338852D01*
X127048Y338852D01*
X127048Y338852D01*
X127059Y338860D01*
X127059Y338917D01*
Y338917D01*
X127060Y338986D01*
Y338986D01*
Y338986D01*
X127060Y339054D01*
X127060Y339054D01*
X127060Y339054D01*
X127062Y339070D01*
X127064Y339093D01*
X127064Y339093D01*
Y339093D01*
X127067Y339101D01*
X127076Y339130D01*
X127076Y339130D01*
X127076Y339130D01*
X127083Y339143D01*
X127095Y339164D01*
X127095Y339164D01*
X127095Y339164D01*
X127104Y339175D01*
X127119Y339194D01*
X127120Y339194D01*
X127120Y339194D01*
X127128Y339200D01*
X127130Y339202D01*
X127131Y339259D01*
Y339259D01*
X127131Y339328D01*
X127131Y339328D01*
X127131Y339328D01*
X127132Y339396D01*
X127135Y339430D01*
X127134Y339448D01*
X127132Y339464D01*
Y339465D01*
Y339465D01*
Y339465D01*
X127133Y339533D01*
Y339533D01*
Y339533D01*
X127134Y339542D01*
X127137Y339567D01*
X127134Y339601D01*
D01*
Y339601D01*
X127134Y339670D01*
X127137Y339693D01*
X127138Y339704D01*
X127136Y339726D01*
X127135Y339738D01*
Y339738D01*
Y339738D01*
Y339738D01*
X127135Y339807D01*
Y339807D01*
Y339807D01*
X127137Y339824D01*
X127139Y339841D01*
X127136Y339875D01*
D01*
Y339875D01*
X127137Y339944D01*
Y339944D01*
Y339944D01*
X127138Y339962D01*
X127141Y339982D01*
X127141Y339983D01*
Y339983D01*
X127144Y339992D01*
X127152Y340019D01*
X127152Y340019D01*
Y340019D01*
X127157Y340027D01*
X127167Y340046D01*
X127153Y340073D01*
X127143Y340106D01*
X127142Y340111D01*
Y340111D01*
X127142Y340111D01*
X127140Y340135D01*
X127138Y340149D01*
Y340149D01*
Y340149D01*
X127139Y340218D01*
Y340218D01*
Y340218D01*
X127141Y340235D01*
X127143Y340256D01*
X127143Y340256D01*
Y340256D01*
X127146Y340266D01*
X127155Y340293D01*
X127155Y340293D01*
Y340293D01*
X127159Y340301D01*
X127173Y340327D01*
X127173Y340327D01*
X127173Y340327D01*
X127185Y340341D01*
X127198Y340357D01*
X127198Y340357D01*
X127198Y340357D01*
X127209Y340366D01*
X127209Y340423D01*
D01*
X127210Y340491D01*
D01*
Y340491D01*
X127210Y340548D01*
X127200Y340557D01*
X127200Y340557D01*
X127200Y340557D01*
X127188Y340571D01*
X127175Y340587D01*
X127175Y340587D01*
X127175Y340587D01*
X127168Y340602D01*
X127157Y340621D01*
X127157Y340621D01*
Y340621D01*
X127156Y340626D01*
X127147Y340658D01*
X127143Y340697D01*
Y340697D01*
Y340697D01*
X127144Y340766D01*
X127145Y340782D01*
X127147Y340800D01*
X127146Y340820D01*
X127144Y340834D01*
Y340834D01*
Y340834D01*
Y340834D01*
X127145Y340902D01*
Y340902D01*
Y340903D01*
X127146Y340914D01*
X127149Y340937D01*
X127146Y340961D01*
X127146Y340971D01*
Y340971D01*
Y340971D01*
X127146Y341040D01*
X127150Y341074D01*
X127148Y341094D01*
X127147Y341108D01*
Y341108D01*
Y341108D01*
X127147Y341177D01*
Y341177D01*
Y341177D01*
X127149Y341194D01*
X127151Y341211D01*
X127149Y341234D01*
X127148Y341245D01*
Y341245D01*
Y341245D01*
X127148Y341313D01*
X127152Y341348D01*
X127150Y341374D01*
X127149Y341382D01*
Y341382D01*
D01*
D01*
X127150Y341450D01*
D01*
Y341450D01*
X127150Y341519D01*
D01*
Y341519D01*
X127151Y341576D01*
X127140Y341584D01*
X127140Y341584D01*
X127140Y341585D01*
X127130Y341598D01*
X127116Y341615D01*
X127116Y341615D01*
X127116Y341615D01*
X127109Y341628D01*
X127098Y341649D01*
X127098Y341649D01*
X127098Y341649D01*
X127094Y341664D01*
X127087Y341686D01*
Y341686D01*
X127087Y341686D01*
X127085Y341704D01*
X127084Y341725D01*
Y341725D01*
Y341725D01*
X127084Y341782D01*
X127074Y341791D01*
X127074Y341791D01*
X127074Y341791D01*
X127050Y341820D01*
X127049Y341821D01*
D01*
X127049Y341821D01*
X127031Y341855D01*
X127023Y341884D01*
X127020Y341892D01*
Y341892D01*
X127020Y341892D01*
X127018Y341914D01*
X127017Y341931D01*
Y341931D01*
D01*
D01*
X127017Y341999D01*
Y341999D01*
Y342000D01*
X127019Y342012D01*
X127021Y342034D01*
X127020Y342047D01*
X127018Y342068D01*
Y342068D01*
Y342068D01*
X127019Y342136D01*
X127022Y342171D01*
X127021Y342189D01*
X127019Y342205D01*
Y342205D01*
Y342205D01*
X127020Y342262D01*
X127009Y342270D01*
X127009Y342271D01*
X127009Y342271D01*
X126988Y342297D01*
X126985Y342301D01*
Y342301D01*
X126985Y342301D01*
X126971Y342327D01*
X126967Y342335D01*
X126967Y342335D01*
X126967Y342335D01*
X126961Y342357D01*
X126956Y342372D01*
X126956Y342372D01*
X126956Y342372D01*
X126954Y342392D01*
X126953Y342411D01*
Y342411D01*
Y342411D01*
Y342411D01*
X126953Y342468D01*
X126943Y342477D01*
X126943Y342477D01*
X126943Y342477D01*
X126927Y342496D01*
X126918Y342507D01*
X126918Y342507D01*
X126918Y342507D01*
X126902Y342537D01*
X126900Y342541D01*
Y342541D01*
X126900Y342541D01*
X126892Y342568D01*
X126889Y342578D01*
Y342578D01*
X126889Y342578D01*
X126887Y342601D01*
X126886Y342617D01*
Y342617D01*
Y342617D01*
X126886Y342685D01*
X126890Y342720D01*
X126889Y342738D01*
X126887Y342754D01*
Y342754D01*
Y342754D01*
Y342754D01*
X126888Y342811D01*
X126877Y342819D01*
X126877Y342819D01*
X126877Y342819D01*
X126865Y342834D01*
X126853Y342850D01*
X126853Y342850D01*
X126853Y342850D01*
X126837Y342881D01*
X126835Y342884D01*
D01*
X126835Y342884D01*
X126824Y342921D01*
X126821Y342949D01*
X126821Y342960D01*
Y342960D01*
D01*
D01*
X126821Y343017D01*
X126811Y343026D01*
X126811Y343026D01*
X126811Y343026D01*
X126800Y343039D01*
X126786Y343056D01*
X126786Y343056D01*
X126786Y343056D01*
X126768Y343090D01*
X126759Y343122D01*
X126757Y343127D01*
Y343127D01*
X126757Y343127D01*
X126755Y343152D01*
X126754Y343166D01*
Y343166D01*
Y343166D01*
Y343166D01*
X126754Y343234D01*
X126754Y343234D01*
X126754Y343234D01*
X126756Y343254D01*
X126758Y343269D01*
X126756Y343296D01*
X126755Y343303D01*
Y343303D01*
D01*
D01*
X126755Y343360D01*
X126745Y343369D01*
X126745Y343369D01*
X126745Y343369D01*
X126735Y343381D01*
X126721Y343399D01*
X126721Y343399D01*
X126721Y343399D01*
X126716Y343408D01*
X126707Y343413D01*
X126707Y343413D01*
X126707Y343413D01*
X126693Y343424D01*
X126677Y343438D01*
X126677Y343438D01*
X126677Y343438D01*
X126666Y343451D01*
X126653Y343468D01*
X126653Y343468D01*
X126653Y343468D01*
X126645Y343482D01*
X126635Y343502D01*
X126635Y343502D01*
X126635Y343502D01*
X126632Y343513D01*
X126624Y343539D01*
X126624Y343540D01*
Y343540D01*
X126623Y343547D01*
X126620Y343578D01*
Y343578D01*
Y343578D01*
X126621Y343635D01*
X126610Y343644D01*
X126610Y343644D01*
X126610Y343644D01*
X126586Y343674D01*
X126568Y343708D01*
X126560Y343737D01*
X126557Y343745D01*
Y343745D01*
X126557Y343745D01*
X126555Y343767D01*
X126554Y343784D01*
Y343784D01*
D01*
D01*
X126554Y343841D01*
X126544Y343850D01*
X126544Y343850D01*
X126544Y343850D01*
X126539Y343856D01*
X126519Y343880D01*
X126519Y343880D01*
X126519Y343880D01*
X126512Y343894D01*
X126501Y343914D01*
X126501Y343914D01*
X126501Y343914D01*
X126496Y343933D01*
X126490Y343952D01*
Y343952D01*
X126490Y343952D01*
X126488Y343975D01*
X126487Y343990D01*
Y343990D01*
Y343990D01*
X126488Y344047D01*
X126477Y344056D01*
X126453Y344086D01*
X126448Y344095D01*
X126439Y344100D01*
X126439Y344100D01*
X126439Y344100D01*
X126423Y344113D01*
X126409Y344125D01*
X126409Y344125D01*
X126409Y344125D01*
X126395Y344143D01*
X126385Y344155D01*
X126385Y344155D01*
X126385Y344155D01*
X126372Y344179D01*
X126367Y344189D01*
X126367Y344189D01*
X126367Y344190D01*
X126361Y344209D01*
X126356Y344227D01*
X126356Y344227D01*
X126356Y344227D01*
X126354Y344245D01*
X126352Y344265D01*
X126352Y344265D01*
X126352Y344265D01*
X126353Y344322D01*
X126342Y344331D01*
X126342Y344331D01*
X126342Y344331D01*
X126331Y344345D01*
X126318Y344361D01*
X126318Y344361D01*
X126318Y344361D01*
X126310Y344376D01*
X126300Y344395D01*
X126300Y344395D01*
Y344395D01*
X126299Y344400D01*
X126289Y344433D01*
X126286Y344471D01*
Y344471D01*
Y344471D01*
X126286Y344528D01*
X126286Y344528D01*
X126276Y344537D01*
X126251Y344567D01*
X126248Y344573D01*
X126247Y344576D01*
X126238Y344581D01*
X126238Y344581D01*
X126238Y344581D01*
X126219Y344597D01*
X126208Y344606D01*
X126208Y344606D01*
X126208Y344606D01*
X126197Y344619D01*
X126184Y344636D01*
X126183Y344636D01*
X126183Y344636D01*
X126179Y344645D01*
X126170Y344650D01*
X126170Y344650D01*
X126170Y344650D01*
X126156Y344662D01*
X126140Y344675D01*
X126140Y344675D01*
X126140Y344675D01*
X126130Y344688D01*
X126116Y344705D01*
X126116Y344705D01*
X126116Y344705D01*
X126110Y344717D01*
X126098Y344740D01*
X126098Y344740D01*
X126098Y344740D01*
X126091Y344762D01*
X126087Y344777D01*
Y344777D01*
X126087Y344777D01*
X126085Y344801D01*
X126083Y344815D01*
Y344816D01*
Y344816D01*
Y344816D01*
X126084Y344872D01*
X126073Y344881D01*
X126073Y344881D01*
X126073Y344881D01*
X126058Y344901D01*
X126049Y344911D01*
X126049Y344911D01*
X126049Y344911D01*
X126033Y344941D01*
X126031Y344946D01*
Y344946D01*
X126031Y344946D01*
X126022Y344976D01*
X126020Y344983D01*
Y344983D01*
X126020Y344983D01*
X126018Y345008D01*
X126017Y345022D01*
Y345022D01*
Y345022D01*
Y345022D01*
X126017Y345078D01*
X126007Y345087D01*
X126006Y345087D01*
X126006Y345087D01*
X125998Y345098D01*
X125982Y345117D01*
X125982Y345117D01*
X125982Y345117D01*
X125978Y345127D01*
X125969Y345131D01*
X125939Y345156D01*
X125914Y345186D01*
X125910Y345196D01*
X125901Y345200D01*
X125881Y345217D01*
X125871Y345225D01*
X125871Y345225D01*
X125871Y345225D01*
X125847Y345255D01*
X125829Y345290D01*
X125818Y345327D01*
X125815Y345359D01*
X125814Y345366D01*
Y345366D01*
D01*
D01*
X125815Y345434D01*
Y345434D01*
Y345434D01*
X125817Y345452D01*
X125818Y345468D01*
X125815Y345503D01*
D01*
Y345503D01*
X125816Y345571D01*
D01*
Y345571D01*
X125820Y345610D01*
X125832Y345647D01*
X125850Y345681D01*
X125875Y345710D01*
X125875D01*
Y345710D01*
X125881Y345715D01*
X125905Y345735D01*
X125940Y345753D01*
X125977Y345764D01*
X126015Y345767D01*
D01*
X126015D01*
X126221Y345765D01*
X126260Y345761D01*
X126296Y345750D01*
X126330Y345731D01*
X126360Y345706D01*
Y345706D01*
X126360D01*
X126385Y345676D01*
X126389Y345667D01*
X126398Y345662D01*
X126428Y345637D01*
X126428Y345637D01*
X126428Y345637D01*
X126440Y345622D01*
X126453Y345607D01*
X126453Y345607D01*
X126453Y345607D01*
X126457Y345598D01*
X126466Y345593D01*
X126466Y345593D01*
X126466Y345593D01*
X126485Y345577D01*
X126496Y345568D01*
X126496Y345568D01*
X126496Y345568D01*
X126505Y345557D01*
X126561Y345557D01*
X126561D01*
X126561D01*
X126571Y345556D01*
X126600Y345553D01*
X126637Y345541D01*
D01*
X126637Y345541D01*
X126670Y345523D01*
X126666Y345531D01*
X126657Y345536D01*
X126627Y345561D01*
X126627Y345561D01*
X126627Y345561D01*
X126618Y345573D01*
X126603Y345591D01*
X126598Y345600D01*
X126589Y345605D01*
X126565Y345626D01*
X126559Y345630D01*
X126559Y345630D01*
X126559Y345630D01*
X126535Y345660D01*
X126530Y345670D01*
X126521Y345674D01*
X126521Y345674D01*
X126521Y345674D01*
X126503Y345689D01*
X126491Y345699D01*
X126491Y345699D01*
X126491Y345699D01*
X126483Y345710D01*
X126426Y345710D01*
X126387Y345715D01*
X126364Y345722D01*
X126350Y345726D01*
X126350Y345726D01*
D01*
X126316Y345745D01*
X126289Y345767D01*
X126287Y345770D01*
Y345770D01*
X126287D01*
X126281Y345777D01*
X126262Y345800D01*
X126257Y345809D01*
X126248Y345814D01*
X126248Y345814D01*
X126248Y345814D01*
X126238Y345822D01*
X126219Y345839D01*
X126219Y345839D01*
X126219Y345839D01*
X126200Y345862D01*
X126194Y345869D01*
Y345869D01*
X126194Y345869D01*
X126190Y345878D01*
X126181Y345883D01*
X126156Y345903D01*
X126151Y345908D01*
X126151Y345908D01*
X126151Y345908D01*
X126139Y345922D01*
X126126Y345938D01*
X126126Y345938D01*
X126126Y345938D01*
X126122Y345947D01*
X126119Y345949D01*
X126113Y345952D01*
X126083Y345977D01*
X126074Y345987D01*
X126017Y345988D01*
X125994Y345990D01*
X125979Y345992D01*
X125979Y345992D01*
X125979D01*
X125954Y346000D01*
X125942Y346004D01*
X125942Y346004D01*
X125942Y346004D01*
X125917Y346017D01*
X125908Y346022D01*
X125908Y346022D01*
X125908Y346022D01*
X125889Y346038D01*
X125878Y346047D01*
X125878Y346047D01*
X125878Y346047D01*
X125868Y346060D01*
X125854Y346077D01*
X125854Y346077D01*
X125854Y346077D01*
X125849Y346086D01*
X125840Y346091D01*
X125840Y346091D01*
X125840Y346091D01*
X125826Y346103D01*
X125810Y346116D01*
X125810Y346116D01*
X125810Y346116D01*
X125802Y346127D01*
X125745Y346127D01*
X125745Y346127D01*
X125745Y346127D01*
X125730Y346129D01*
X125706Y346131D01*
X125706Y346131D01*
X125706D01*
X125704Y346132D01*
X125669Y346143D01*
X125669Y346143D01*
X125669Y346143D01*
X125659Y346148D01*
X125635Y346162D01*
X125635Y346162D01*
X125635Y346162D01*
X125623Y346172D01*
X125605Y346186D01*
X125605Y346186D01*
X125605Y346186D01*
X125601Y346192D01*
X125581Y346217D01*
X125581Y346217D01*
X125581Y346217D01*
X125577Y346223D01*
X125576Y346226D01*
X125567Y346231D01*
X125567Y346231D01*
X125567Y346231D01*
X125551Y346244D01*
X125537Y346255D01*
X125537Y346256D01*
X125537Y346256D01*
X125529Y346266D01*
X125472Y346267D01*
X125455Y346268D01*
X125433Y346271D01*
X125433Y346271D01*
X125433D01*
X125396Y346282D01*
X125362Y346301D01*
X125340Y346320D01*
X125333Y346326D01*
X125333Y346326D01*
X125333Y346326D01*
X125324Y346336D01*
X125267Y346337D01*
X125267Y346337D01*
X125267Y346337D01*
X125248Y346339D01*
X125229Y346341D01*
X125229Y346341D01*
X125229Y346341D01*
X125213Y346346D01*
X125192Y346353D01*
X125192Y346353D01*
X125191Y346353D01*
X125177Y346361D01*
X125158Y346371D01*
X125157Y346371D01*
X125157Y346371D01*
X125141Y346385D01*
X125128Y346396D01*
X125128Y346396D01*
X125128Y346396D01*
X125117Y346409D01*
X125103Y346426D01*
X125103Y346426D01*
X125103Y346426D01*
X125099Y346435D01*
X125090Y346440D01*
X125090Y346440D01*
X125090Y346440D01*
X125072Y346455D01*
X125060Y346465D01*
X125060Y346465D01*
X125060Y346465D01*
X125055Y346472D01*
X125051Y346476D01*
X124995Y346476D01*
X124995D01*
X124994D01*
X124978Y346478D01*
X124956Y346480D01*
X124956Y346480D01*
X124956D01*
X124937Y346486D01*
X124919Y346492D01*
X124919Y346492D01*
X124919Y346492D01*
X124906Y346499D01*
X124885Y346511D01*
X124855Y346535D01*
X124855Y346535D01*
X124855Y346535D01*
X124846Y346546D01*
X124790Y346547D01*
X124777Y346548D01*
X124751Y346551D01*
X124714Y346562D01*
D01*
X124714Y346562D01*
X124680Y346581D01*
X124655Y346601D01*
X124650Y346606D01*
X124650Y346606D01*
X124650Y346606D01*
X124638Y346620D01*
X124626Y346636D01*
X124626Y346636D01*
X124626Y346636D01*
X124621Y346645D01*
X124612Y346650D01*
X124612Y346650D01*
X124612Y346650D01*
X124594Y346665D01*
X124582Y346675D01*
X124582Y346675D01*
X124582Y346675D01*
X124574Y346685D01*
X124517Y346686D01*
X124517D01*
X124517D01*
X124492Y346689D01*
X124478Y346690D01*
X124478Y346690D01*
X124478D01*
X124464Y346694D01*
X124441Y346702D01*
X124407Y346720D01*
X124407Y346720D01*
X124407Y346720D01*
X124402Y346724D01*
X124378Y346745D01*
X124369Y346756D01*
X124312Y346756D01*
X124273Y346760D01*
X124236Y346772D01*
X124202Y346791D01*
X124173Y346815D01*
X124164Y346826D01*
X124107Y346826D01*
X124069Y346831D01*
X124047Y346837D01*
X124032Y346842D01*
X124032Y346842D01*
X124032D01*
X124019Y346849D01*
X123998Y346861D01*
X123998Y346861D01*
X123997Y346861D01*
X123980Y346876D01*
X123968Y346886D01*
X123968Y346886D01*
X123968Y346886D01*
X123959Y346896D01*
X123902Y346897D01*
X123864Y346901D01*
X123841Y346908D01*
X123827Y346912D01*
X123827Y346912D01*
D01*
X123793Y346931D01*
X123766Y346954D01*
X123763Y346956D01*
Y346956D01*
X123763D01*
X123757Y346963D01*
X123754Y346967D01*
X123697Y346967D01*
X123697D01*
X123697D01*
X123689Y346968D01*
X123659Y346971D01*
X123622Y346983D01*
X123622Y346983D01*
D01*
X123588Y347001D01*
X123564Y347021D01*
X123558Y347026D01*
Y347026D01*
X123558D01*
X123552Y347033D01*
X123550Y347037D01*
X123493Y347037D01*
X123454Y347041D01*
X123417Y347053D01*
X123398Y347063D01*
X123383Y347072D01*
X123353Y347096D01*
Y347096D01*
X123353D01*
X123345Y347107D01*
X123288Y347108D01*
X123288D01*
X123288D01*
X123271Y347109D01*
X123254Y347111D01*
X123219Y347108D01*
X123219D01*
D01*
D01*
X123151Y347109D01*
X123114Y347113D01*
X123112Y347113D01*
D01*
X123112Y347113D01*
X123083Y347122D01*
X123075Y347124D01*
X123075Y347124D01*
X123075Y347124D01*
X123057Y347134D01*
X123041Y347143D01*
X123041Y347143D01*
X123041Y347143D01*
X123028Y347154D01*
X123012Y347168D01*
X123012Y347168D01*
X123012Y347168D01*
X123003Y347179D01*
X122946Y347179D01*
X122946D01*
X122946D01*
X122907Y347183D01*
X122881Y347191D01*
X122870Y347195D01*
X122870Y347195D01*
D01*
X122867Y347196D01*
X122836Y347213D01*
X122807Y347238D01*
X122807Y347238D01*
X122807Y347238D01*
X122801Y347245D01*
X122798Y347249D01*
X122604Y347250D01*
X122570Y347254D01*
X122553Y347253D01*
X122536Y347251D01*
X122536D01*
D01*
D01*
X122467Y347252D01*
X122429Y347256D01*
X122392Y347267D01*
X122358Y347286D01*
X122328Y347311D01*
X122319Y347321D01*
X122262Y347322D01*
X122262D01*
X122262D01*
X122250Y347323D01*
X122228Y347326D01*
X122215Y347324D01*
X122194Y347323D01*
X122194D01*
X122194D01*
X122125Y347323D01*
X122114Y347324D01*
X122091Y347327D01*
X122078Y347326D01*
X122057Y347324D01*
X122057D01*
X122057D01*
D01*
X121989Y347324D01*
X121988Y347324D01*
X121988Y347324D01*
X121970Y347326D01*
X121954Y347328D01*
X121920Y347325D01*
X121920D01*
X121920D01*
X121852Y347325D01*
X121839Y347327D01*
X121817Y347329D01*
X121793Y347327D01*
X121783Y347326D01*
X121783D01*
X121783D01*
X121715Y347327D01*
X121715D01*
X121714D01*
X121702Y347328D01*
X121680Y347330D01*
X121646Y347327D01*
D01*
X121646D01*
X121589Y347328D01*
X121581Y347317D01*
X121581Y347317D01*
X121581Y347317D01*
X121574Y347312D01*
X121550Y347293D01*
X121516Y347275D01*
X121516Y347275D01*
X121516D01*
X121479Y347264D01*
X121450Y347262D01*
X121440Y347261D01*
X121440D01*
X121440D01*
X121372Y347261D01*
X121372D01*
X121371D01*
X121353Y347263D01*
X121337Y347265D01*
X121303Y347262D01*
X121303D01*
X121303D01*
X121246Y347262D01*
X121237Y347252D01*
X121207Y347228D01*
X121198Y347223D01*
X121193Y347214D01*
X121177Y347194D01*
X121168Y347184D01*
X121168Y347184D01*
X121168Y347184D01*
X121138Y347160D01*
X121129Y347155D01*
X121124Y347146D01*
X121124Y347146D01*
X121124Y347146D01*
X121113Y347132D01*
X121099Y347116D01*
X121099Y347116D01*
X121099Y347116D01*
X121086Y347105D01*
X121069Y347092D01*
X121069Y347092D01*
X121069Y347092D01*
X121060Y347087D01*
X121055Y347078D01*
X121055Y347078D01*
X121055Y347078D01*
X121039Y347059D01*
X121030Y347048D01*
X121030Y347048D01*
X121030Y347048D01*
X121017Y347038D01*
X121000Y347024D01*
X121000Y347024D01*
X121000Y347024D01*
X120987Y347017D01*
X120966Y347006D01*
X120966Y347006D01*
X120966Y347006D01*
X120946Y347000D01*
X120928Y346995D01*
X120928D01*
X120928Y346995D01*
X120907Y346993D01*
X120890Y346991D01*
X120890D01*
D01*
D01*
X120821Y346992D01*
X120821D01*
X120821D01*
X120803Y346994D01*
X120783Y346996D01*
X120783Y346996D01*
X120783D01*
X120770Y347000D01*
X120746Y347008D01*
X120746Y347008D01*
X120746D01*
X120738Y347012D01*
X120712Y347026D01*
X120712Y347026D01*
X120712Y347026D01*
X120703Y347034D01*
X120682Y347051D01*
X120682Y347051D01*
X120682Y347051D01*
X120677Y347057D01*
X120658Y347081D01*
X120658Y347081D01*
X120658Y347081D01*
X120650Y347095D01*
X120640Y347116D01*
X120640Y347116D01*
X120640Y347116D01*
X120637Y347126D01*
X120629Y347153D01*
X120629Y347153D01*
Y347153D01*
X120628Y347161D01*
X120625Y347192D01*
Y347192D01*
Y347192D01*
X120626Y347260D01*
Y347260D01*
X120626Y347328D01*
X120626Y347328D01*
X120626Y347329D01*
X120627Y347397D01*
Y347397D01*
X120628Y347465D01*
X120628Y347465D01*
X120628Y347466D01*
X120628Y347534D01*
X120632Y347568D01*
X120629Y347603D01*
X120630Y347671D01*
X120631Y347682D01*
X120633Y347705D01*
X120632Y347721D01*
X120630Y347740D01*
Y347740D01*
D01*
D01*
X120631Y347808D01*
X120633Y347833D01*
X120635Y347846D01*
X120635Y347846D01*
Y347847D01*
X120645Y347879D01*
X120646Y347883D01*
Y347883D01*
X120646Y347884D01*
X120662Y347912D01*
X120665Y347918D01*
X120665Y347918D01*
X120665Y347918D01*
X120681Y347937D01*
X120690Y347947D01*
X120690Y347947D01*
X120690Y347947D01*
X120700Y347956D01*
X120701Y348013D01*
Y348013D01*
Y348013D01*
X120703Y348030D01*
X120705Y348051D01*
X120705Y348051D01*
Y348051D01*
X120708Y348061D01*
X120717Y348088D01*
X120717Y348088D01*
Y348088D01*
X120721Y348096D01*
X120735Y348122D01*
X120735Y348122D01*
X120735Y348122D01*
X120747Y348136D01*
X120760Y348152D01*
X120760Y348152D01*
X120760Y348152D01*
X120771Y348161D01*
X120771Y348218D01*
X120772Y348229D01*
X120775Y348252D01*
X120774Y348265D01*
X120772Y348286D01*
X120772Y348286D01*
X120772Y348286D01*
X120772Y348355D01*
X120777Y348393D01*
X120786Y348423D01*
X120788Y348430D01*
X120788Y348430D01*
X120788Y348430D01*
X120802Y348455D01*
X120807Y348464D01*
X120807Y348464D01*
X120807Y348464D01*
X120832Y348494D01*
X120843Y348503D01*
X120846Y348529D01*
X120858Y348566D01*
D01*
X120858Y348567D01*
X120870Y348588D01*
X120876Y348601D01*
X120876Y348601D01*
X120876Y348601D01*
X120891Y348619D01*
X120901Y348630D01*
X120901Y348630D01*
X120901Y348630D01*
X120913Y348640D01*
X120914Y348646D01*
X120916Y348666D01*
X120916Y348666D01*
Y348666D01*
X120923Y348689D01*
X120927Y348703D01*
X120928Y348703D01*
X120928Y348703D01*
X120946Y348737D01*
X120964Y348759D01*
X120971Y348767D01*
X120971Y348767D01*
X120971Y348767D01*
X120982Y348775D01*
X120982Y348832D01*
X120986Y348871D01*
X120998Y348908D01*
X121016Y348942D01*
X121041Y348971D01*
X121071Y348996D01*
X121080Y349001D01*
X121085Y349009D01*
X121085Y349010D01*
X121085Y349010D01*
X121097Y349023D01*
X121110Y349039D01*
X121110Y349039D01*
X121110Y349039D01*
X121122Y349049D01*
X121125Y349074D01*
X121125Y349075D01*
D01*
X121125Y349075D01*
X121135Y349109D01*
X121136Y349112D01*
Y349112D01*
X121136Y349112D01*
X121148Y349133D01*
X121155Y349146D01*
X121155Y349146D01*
X121155Y349146D01*
X121167Y349160D01*
X121180Y349176D01*
X121180Y349176D01*
X121180Y349176D01*
X121199Y349191D01*
X121210Y349200D01*
X121210Y349200D01*
X121210Y349200D01*
X121245Y349218D01*
X121267Y349225D01*
X121275Y349248D01*
X121293Y349282D01*
X121318Y349311D01*
X121344Y349332D01*
X121348Y349336D01*
X121348D01*
X121348Y349336D01*
X121383Y349354D01*
X121406Y349360D01*
X121413Y349383D01*
X121431Y349417D01*
X121456Y349447D01*
X121456D01*
Y349447D01*
X121464Y349453D01*
X121486Y349472D01*
X121521Y349489D01*
D01*
X121521Y349490D01*
X121558Y349500D01*
X121584Y349503D01*
X121585Y349504D01*
X121594Y349515D01*
X121594Y349515D01*
X121594Y349515D01*
X121607Y349525D01*
X121624Y349539D01*
X121624Y349539D01*
X121624Y349539D01*
X121633Y349544D01*
X121638Y349553D01*
X121638Y349553D01*
X121638Y349553D01*
X121643Y349558D01*
X121663Y349582D01*
X121693Y349607D01*
X121693D01*
X121693Y349607D01*
X121713Y349617D01*
X121727Y349625D01*
X121727Y349625D01*
X121727Y349625D01*
X121747Y349630D01*
X121765Y349636D01*
X121765D01*
X121765Y349636D01*
X121788Y349638D01*
X121803Y349639D01*
X121803D01*
X121803D01*
X121997Y349637D01*
X122006Y349648D01*
X122036Y349672D01*
X122036Y349672D01*
X122036Y349672D01*
X122045Y349677D01*
X122071Y349690D01*
X122071Y349690D01*
X122071Y349690D01*
X122079Y349693D01*
X122108Y349701D01*
X122108D01*
X122108Y349701D01*
X122126Y349703D01*
X122146Y349705D01*
X122146D01*
X122146D01*
X122215Y349704D01*
D02*
G37*
G36*
X113805Y343408D02*
X113873Y343408D01*
X113873Y343408D01*
X113873Y343408D01*
X113897Y343405D01*
X113912Y343404D01*
X113912Y343404D01*
X113912Y343404D01*
X113936Y343396D01*
X113949Y343392D01*
X113949Y343392D01*
X113949Y343392D01*
X113963Y343384D01*
X113983Y343373D01*
X113983Y343373D01*
X113983Y343373D01*
X113991Y343367D01*
X114012Y343349D01*
X114012Y343349D01*
X114013Y343349D01*
X114023Y343336D01*
X114037Y343318D01*
X114037Y343318D01*
X114037Y343318D01*
X114042Y343309D01*
X114050Y343304D01*
X114051Y343304D01*
X114051Y343304D01*
X114064Y343293D01*
X114080Y343280D01*
X114080Y343280D01*
X114080Y343279D01*
X114091Y343267D01*
X114105Y343249D01*
X114105Y343249D01*
X114105Y343249D01*
X114109Y343242D01*
X114109Y343240D01*
X114119Y343235D01*
X114119Y343235D01*
X114119Y343235D01*
X114132Y343224D01*
X114148Y343210D01*
X114148Y343210D01*
X114148Y343210D01*
X114158Y343198D01*
X114173Y343180D01*
X114173Y343180D01*
X114173Y343180D01*
X114179Y343169D01*
X114191Y343146D01*
X114191Y343146D01*
X114191Y343146D01*
X114197Y343124D01*
X114201Y343109D01*
Y343109D01*
X114201Y343109D01*
X114204Y343084D01*
X114204Y343083D01*
X114205Y343082D01*
X114216Y343073D01*
X114216Y343073D01*
X114216Y343073D01*
X114239Y343044D01*
X114240Y343043D01*
D01*
X114240Y343043D01*
X114256Y343011D01*
X114258Y343008D01*
Y343008D01*
X114258Y343008D01*
X114265Y342985D01*
X114269Y342971D01*
Y342971D01*
X114269Y342971D01*
X114270Y342955D01*
X114271Y342945D01*
X114283Y342935D01*
X114307Y342905D01*
X114312Y342896D01*
X114321Y342891D01*
X114321Y342891D01*
X114321Y342891D01*
X114334Y342880D01*
X114351Y342866D01*
X114351Y342866D01*
X114351Y342866D01*
X114366Y342847D01*
X114375Y342836D01*
X114375Y342836D01*
X114375Y342836D01*
X114380Y342827D01*
X114389Y342822D01*
X114419Y342797D01*
X114443Y342767D01*
X114448Y342758D01*
X114457Y342753D01*
X114486Y342728D01*
X114486Y342728D01*
X114486Y342728D01*
X114511Y342698D01*
X114516Y342689D01*
X114524Y342684D01*
X114544Y342667D01*
X114554Y342659D01*
X114554Y342659D01*
X114554Y342659D01*
X114579Y342629D01*
X114583Y342620D01*
X114593Y342615D01*
X114593Y342615D01*
X114593Y342615D01*
X114598Y342611D01*
X114622Y342590D01*
X114647Y342560D01*
X114651Y342551D01*
X114660Y342546D01*
X114690Y342521D01*
X114714Y342491D01*
X114719Y342481D01*
X114728Y342477D01*
X114758Y342452D01*
X114758Y342452D01*
X114758Y342452D01*
X114767Y342441D01*
X114823Y342441D01*
X114862Y342437D01*
X114885Y342429D01*
X114899Y342425D01*
X114899Y342425D01*
D01*
X114933Y342406D01*
X114960Y342384D01*
X114963Y342382D01*
Y342382D01*
X114963D01*
X114969Y342374D01*
X114987Y342351D01*
X115005Y342317D01*
X115012Y342294D01*
X115023Y342291D01*
X115035Y342287D01*
X115035Y342287D01*
X115035Y342287D01*
X115047Y342280D01*
X115069Y342268D01*
X115069Y342268D01*
X115069D01*
X115075Y342263D01*
X115099Y342243D01*
X115099Y342243D01*
X115099Y342243D01*
X115109Y342230D01*
X115123Y342213D01*
X115123Y342213D01*
X115123Y342213D01*
X115128Y342204D01*
X115137Y342199D01*
X115166Y342174D01*
X115176Y342162D01*
X115202Y342160D01*
X115239Y342148D01*
D01*
X115239Y342148D01*
X115273Y342129D01*
X115297Y342109D01*
X115303Y342105D01*
X115303Y342105D01*
X115303Y342105D01*
X115312Y342093D01*
X115320Y342092D01*
X115338Y342090D01*
X115338Y342090D01*
X115338D01*
X115348Y342087D01*
X115375Y342078D01*
X115409Y342060D01*
X115409Y342060D01*
X115410Y342060D01*
X115420Y342051D01*
X115439Y342035D01*
X115439Y342035D01*
X115439Y342035D01*
X115452Y342019D01*
X115463Y342005D01*
X115463Y342005D01*
X115464Y342005D01*
X115468Y341996D01*
X115470Y341995D01*
X115477Y341991D01*
X115477Y341991D01*
X115477Y341991D01*
X115496Y341975D01*
X115507Y341966D01*
X115507Y341966D01*
X115507Y341966D01*
X115517Y341954D01*
X115543Y341951D01*
X115580Y341940D01*
D01*
X115580Y341940D01*
X115614Y341921D01*
X115638Y341901D01*
X115643Y341896D01*
X115643Y341896D01*
X115643Y341896D01*
X115653Y341884D01*
X115679Y341881D01*
X115716Y341870D01*
D01*
X115716Y341870D01*
X115738Y341858D01*
X115750Y341851D01*
X115750Y341851D01*
X115750Y341851D01*
X115768Y341836D01*
X115780Y341827D01*
X115780Y341827D01*
X115780Y341827D01*
X115791Y341812D01*
X115804Y341796D01*
X115804Y341796D01*
X115804Y341796D01*
X115809Y341787D01*
X115818Y341782D01*
X115848Y341757D01*
X115856Y341747D01*
X115913Y341746D01*
X115913Y341746D01*
X115913Y341746D01*
X115928Y341745D01*
X115952Y341742D01*
X115952Y341742D01*
X115952D01*
X115954Y341741D01*
X115989Y341731D01*
X115989Y341730D01*
X115989Y341730D01*
X115999Y341725D01*
X116023Y341712D01*
X116023Y341712D01*
X116023Y341712D01*
X116035Y341702D01*
X116052Y341687D01*
X116053Y341687D01*
X116053Y341687D01*
X116057Y341681D01*
X116077Y341657D01*
X116077Y341657D01*
X116077Y341657D01*
X116080Y341650D01*
X116082Y341648D01*
X116091Y341643D01*
X116091Y341643D01*
X116091Y341643D01*
X116102Y341634D01*
X116120Y341618D01*
X116120Y341618D01*
X116120Y341618D01*
X116129Y341607D01*
X116186Y341607D01*
X116186D01*
X116186D01*
X116198Y341606D01*
X116224Y341603D01*
X116261Y341591D01*
D01*
X116261Y341591D01*
X116283Y341579D01*
X116295Y341573D01*
X116296Y341573D01*
X116296Y341573D01*
X116313Y341558D01*
X116325Y341548D01*
X116325Y341548D01*
X116325Y341548D01*
X116334Y341537D01*
X116391Y341537D01*
X116391D01*
X116391D01*
X116399Y341536D01*
X116429Y341532D01*
X116466Y341521D01*
X116466Y341521D01*
D01*
X116500Y341502D01*
X116524Y341482D01*
X116530Y341477D01*
Y341477D01*
X116530D01*
X116536Y341470D01*
X116539Y341467D01*
X116595Y341466D01*
X116634Y341462D01*
X116671Y341451D01*
X116705Y341432D01*
X116730Y341411D01*
X116735Y341407D01*
Y341407D01*
X116735D01*
X116744Y341397D01*
X116800Y341396D01*
X116839Y341392D01*
X116876Y341380D01*
X116910Y341362D01*
X116940Y341337D01*
X116948Y341326D01*
X117005Y341326D01*
X117025Y341324D01*
X117044Y341322D01*
X117044Y341322D01*
X117044Y341322D01*
X117076Y341312D01*
X117081Y341310D01*
X117081D01*
X117081Y341310D01*
X117106Y341296D01*
X117115Y341292D01*
X117115Y341292D01*
X117115Y341291D01*
X117132Y341277D01*
X117145Y341267D01*
X117145Y341267D01*
X117145Y341267D01*
X117156Y341252D01*
X117169Y341237D01*
X117169Y341236D01*
X117169Y341236D01*
X117174Y341227D01*
X117183Y341223D01*
X117203Y341206D01*
X117212Y341198D01*
X117212Y341198D01*
X117212Y341198D01*
X117221Y341187D01*
X117415Y341185D01*
X117415D01*
X117415D01*
X117430Y341184D01*
X117454Y341181D01*
X117454Y341181D01*
X117454D01*
X117462Y341179D01*
X117490Y341170D01*
X117525Y341151D01*
X117525Y341151D01*
X117525Y341151D01*
X117540Y341139D01*
X117554Y341126D01*
X117554Y341126D01*
X117554D01*
X117557Y341123D01*
X117563Y341115D01*
X117620Y341115D01*
X117642Y341113D01*
X117658Y341111D01*
X117658Y341111D01*
X117658Y341111D01*
X117681Y341104D01*
X117695Y341099D01*
X117695Y341099D01*
X117695Y341099D01*
X117715Y341089D01*
X117729Y341081D01*
X117729Y341081D01*
X117729Y341081D01*
X117745Y341067D01*
X117759Y341056D01*
X117759Y341056D01*
X117759Y341056D01*
X117768Y341045D01*
X117825Y341045D01*
D01*
X117825D01*
X117863Y341041D01*
X117900Y341029D01*
X117934Y341010D01*
X117964Y340986D01*
Y340986D01*
X117964D01*
X117969Y340980D01*
X117973Y340975D01*
X118029Y340974D01*
X118029D01*
X118029D01*
X118050Y340972D01*
X118068Y340970D01*
X118068Y340970D01*
X118068D01*
X118084Y340965D01*
X118105Y340959D01*
X118105Y340959D01*
X118105D01*
X118111Y340955D01*
X118139Y340940D01*
X118139Y340940D01*
X118139Y340940D01*
X118151Y340930D01*
X118169Y340915D01*
X118169Y340915D01*
X118169Y340915D01*
X118177Y340906D01*
X118177Y340905D01*
X118371Y340903D01*
X118380Y340902D01*
X118410Y340899D01*
X118447Y340887D01*
D01*
X118447Y340887D01*
X118481Y340869D01*
X118505Y340848D01*
X118511Y340844D01*
X118511Y340844D01*
X118511Y340844D01*
X118519Y340833D01*
X118576Y340833D01*
X118608Y340829D01*
X118615Y340829D01*
X118615D01*
X118615Y340829D01*
X118639Y340821D01*
X118652Y340817D01*
X118652Y340817D01*
X118652Y340817D01*
X118670Y340807D01*
X118686Y340798D01*
X118686Y340798D01*
X118686Y340798D01*
X118702Y340785D01*
X118715Y340774D01*
X118715Y340774D01*
X118716Y340774D01*
X118724Y340763D01*
X118918Y340761D01*
X118943Y340759D01*
X118956Y340757D01*
X118956Y340757D01*
X118956D01*
X118981Y340749D01*
X118993Y340746D01*
X118993Y340746D01*
X118993Y340745D01*
X119018Y340732D01*
X119027Y340727D01*
X119027Y340727D01*
X119027Y340727D01*
X119040Y340717D01*
X119057Y340702D01*
X119066Y340691D01*
X119123Y340691D01*
X119157Y340687D01*
X119174Y340689D01*
X119191Y340690D01*
X119191D01*
D01*
D01*
X119260Y340690D01*
X119260D01*
X119260D01*
X119272Y340688D01*
X119298Y340686D01*
X119335Y340674D01*
D01*
X119335Y340674D01*
X119357Y340662D01*
X119369Y340655D01*
X119369Y340655D01*
X119369Y340655D01*
X119387Y340640D01*
X119399Y340631D01*
X119399Y340631D01*
X119399Y340631D01*
X119408Y340620D01*
X119602Y340618D01*
X119602D01*
X119602D01*
X119618Y340617D01*
X119636Y340615D01*
X119653Y340616D01*
X119670Y340618D01*
X119670D01*
D01*
D01*
X119738Y340617D01*
X119738Y340617D01*
X119738Y340617D01*
X119754Y340615D01*
X119777Y340613D01*
X119777Y340613D01*
X119777D01*
X119785Y340610D01*
X119814Y340601D01*
X119814Y340601D01*
X119814Y340601D01*
X119830Y340593D01*
X119848Y340583D01*
X119848Y340583D01*
X119848Y340583D01*
X119864Y340570D01*
X119878Y340558D01*
X119878Y340558D01*
X119878Y340558D01*
X119886Y340547D01*
X119943Y340547D01*
X119977Y340543D01*
X119998Y340545D01*
X120012Y340546D01*
X120012D01*
X120012D01*
X120012D01*
X120080Y340546D01*
X120080Y340546D01*
X120080Y340546D01*
X120096Y340544D01*
X120119Y340542D01*
X120119Y340542D01*
X120119D01*
X120127Y340539D01*
X120156Y340530D01*
X120156Y340530D01*
X120156Y340530D01*
X120172Y340521D01*
X120190Y340511D01*
X120190Y340511D01*
X120190Y340511D01*
X120206Y340498D01*
X120220Y340487D01*
X120220Y340487D01*
X120220Y340487D01*
X120228Y340476D01*
X120285Y340475D01*
X120285D01*
X120285D01*
X120302Y340474D01*
X120319Y340472D01*
X120338Y340474D01*
X120353Y340475D01*
X120353D01*
X120353D01*
X120422Y340474D01*
X120456Y340471D01*
X120472Y340472D01*
X120491Y340474D01*
X120491D01*
D01*
D01*
X120559Y340473D01*
X120559D01*
X120559D01*
X120577Y340471D01*
X120598Y340469D01*
X120598Y340469D01*
X120598D01*
X120607Y340466D01*
X120634Y340457D01*
X120635Y340457D01*
X120635D01*
X120643Y340453D01*
X120669Y340439D01*
X120669Y340439D01*
X120669Y340439D01*
X120682Y340427D01*
X120698Y340414D01*
X120698Y340414D01*
X120698Y340414D01*
X120707Y340403D01*
X120764Y340403D01*
X120782Y340401D01*
X120802Y340399D01*
X120802Y340399D01*
X120802D01*
X120821Y340393D01*
X120839Y340387D01*
X120839Y340387D01*
X120840Y340387D01*
X120870Y340371D01*
X120873Y340368D01*
X120873Y340368D01*
X120873Y340368D01*
X120893Y340352D01*
X120903Y340344D01*
X120903Y340344D01*
X120903Y340343D01*
X120912Y340333D01*
X121380Y340329D01*
X121414Y340325D01*
X121434Y340327D01*
X121448Y340328D01*
X121448D01*
X121448D01*
X121448D01*
X121517Y340328D01*
X121517D01*
X121517D01*
X121529Y340326D01*
X121555Y340324D01*
X121592Y340312D01*
X121592D01*
X121592Y340312D01*
X121620Y340297D01*
X121626Y340293D01*
X121626Y340293D01*
X121626Y340293D01*
X121645Y340278D01*
X121656Y340269D01*
X121656Y340269D01*
X121656Y340269D01*
X121665Y340258D01*
X121721Y340257D01*
X121756Y340254D01*
X121759Y340254D01*
X121790Y340257D01*
X121790D01*
X121790D01*
X121858Y340256D01*
X121881Y340254D01*
X121892Y340253D01*
X121906Y340254D01*
X121927Y340256D01*
X121927Y340256D01*
X121927Y340256D01*
X121995Y340255D01*
X122034Y340251D01*
X122043Y340248D01*
X122071Y340239D01*
X122105Y340221D01*
X122135Y340196D01*
X122143Y340185D01*
X122337Y340184D01*
X122371Y340180D01*
X122406Y340183D01*
X122474Y340182D01*
X122513Y340178D01*
X122539Y340170D01*
X122550Y340167D01*
X122550Y340167D01*
D01*
X122553Y340165D01*
X122584Y340148D01*
X122613Y340123D01*
X122613Y340123D01*
X122613Y340123D01*
X122622Y340113D01*
X122679Y340112D01*
X122713Y340108D01*
X122747Y340111D01*
X122816Y340111D01*
X122841Y340108D01*
X122850Y340107D01*
X122867Y340109D01*
X122884Y340110D01*
X122884D01*
D01*
D01*
X122953Y340110D01*
X122953D01*
X122953D01*
X122965Y340108D01*
X122991Y340106D01*
X123028Y340094D01*
X123028D01*
X123028Y340094D01*
X123056Y340079D01*
X123062Y340075D01*
X123062Y340075D01*
X123062Y340075D01*
X123081Y340059D01*
X123092Y340051D01*
X123092Y340051D01*
X123092Y340051D01*
X123101Y340040D01*
X123432Y340037D01*
X123466Y340033D01*
X123500Y340036D01*
X123500D01*
D01*
D01*
X123568Y340036D01*
X123568D01*
X123568D01*
X123581Y340035D01*
X123607Y340032D01*
X123644Y340020D01*
D01*
X123644Y340020D01*
X123666Y340008D01*
X123678Y340002D01*
X123678Y340002D01*
X123678Y340002D01*
X123696Y339986D01*
X123708Y339977D01*
X123708Y339977D01*
X123708Y339977D01*
X123716Y339966D01*
X123773Y339966D01*
X123808Y339962D01*
X123842Y339965D01*
X123910Y339964D01*
X123934Y339962D01*
X123944Y339961D01*
X123971Y339963D01*
X123979Y339964D01*
X123979D01*
D01*
D01*
X124047Y339963D01*
X124065Y339961D01*
X124081Y339960D01*
X124095Y339961D01*
X124116Y339963D01*
X124116Y339963D01*
X124116Y339963D01*
X124184Y339962D01*
X124209Y339959D01*
X124223Y339958D01*
X124223Y339958D01*
X124223D01*
X124248Y339950D01*
X124260Y339946D01*
X124260Y339946D01*
X124260Y339946D01*
X124276Y339937D01*
X124287Y339932D01*
X124314Y339946D01*
X124351Y339957D01*
X124390Y339960D01*
D01*
X124390D01*
X124458Y339960D01*
X124481Y339957D01*
X124497Y339955D01*
X124497Y339955D01*
X124497D01*
X124521Y339948D01*
X124534Y339944D01*
X124534Y339944D01*
X124534Y339944D01*
X124550Y339935D01*
X124568Y339925D01*
X124568Y339925D01*
X124568Y339925D01*
X124578Y339917D01*
X124597Y339900D01*
X124598Y339900D01*
X124598Y339900D01*
X124606Y339890D01*
X124788Y339888D01*
X124797Y339899D01*
X124797Y339899D01*
X124797Y339899D01*
X124815Y339913D01*
X124827Y339923D01*
X124827Y339923D01*
X124827Y339923D01*
X124851Y339936D01*
X124862Y339941D01*
X124862Y339941D01*
X124862Y339941D01*
X124882Y339947D01*
X124899Y339952D01*
X124899Y339952D01*
X124899Y339952D01*
X124917Y339954D01*
X124937Y339955D01*
X124937Y339955D01*
X124938Y339955D01*
X125006Y339955D01*
X125029Y339952D01*
X125040Y339951D01*
X125058Y339953D01*
X125074Y339954D01*
X125075Y339954D01*
X125075Y339954D01*
X125143Y339954D01*
X125172Y339950D01*
X125177Y339950D01*
X125196Y339952D01*
X125211Y339953D01*
X125211D01*
X125211D01*
X125268Y339952D01*
X125277Y339963D01*
X125300Y339982D01*
X125307Y339987D01*
X125307Y339987D01*
X125307Y339987D01*
X125342Y340005D01*
X125374Y340015D01*
X125379Y340016D01*
X125379D01*
X125379Y340016D01*
X125404Y340018D01*
X125417Y340020D01*
X125417D01*
D01*
D01*
X125611Y340018D01*
X125620Y340029D01*
X125650Y340053D01*
X125659Y340058D01*
X125662Y340062D01*
X125664Y340067D01*
X125664Y340067D01*
X125664Y340067D01*
X125679Y340084D01*
X125689Y340096D01*
X125689Y340096D01*
X125689Y340096D01*
X125718Y340120D01*
X125719Y340121D01*
D01*
X125719Y340121D01*
X125751Y340137D01*
X125754Y340139D01*
X125754D01*
X125754Y340139D01*
X125774Y340145D01*
X125791Y340150D01*
X125791D01*
X125791Y340150D01*
X125805Y340151D01*
X125830Y340153D01*
X125830D01*
X125830D01*
X125886Y340153D01*
X125895Y340163D01*
X125925Y340187D01*
X125926Y340188D01*
X125926Y340188D01*
X125935Y340192D01*
X125939Y340201D01*
X125958Y340223D01*
X125964Y340231D01*
X125964Y340231D01*
X125964Y340231D01*
X125984Y340247D01*
X125994Y340255D01*
X125994Y340255D01*
X125995Y340255D01*
X126024Y340271D01*
X126029Y340273D01*
X126029D01*
X126029Y340273D01*
X126052Y340280D01*
X126059Y340303D01*
X126073Y340329D01*
X126077Y340337D01*
X126077Y340337D01*
X126077Y340337D01*
X126090Y340352D01*
X126102Y340367D01*
X126102Y340367D01*
X126102Y340367D01*
X126133Y340391D01*
X126165Y340408D01*
X126167Y340409D01*
D01*
X126167Y340409D01*
X126190Y340416D01*
X126190Y340416D01*
X126197Y340439D01*
X126216Y340473D01*
X126216Y340473D01*
Y340473D01*
X126218Y340476D01*
X126241Y340503D01*
X126271Y340527D01*
X126271Y340527D01*
X126271Y340527D01*
X126280Y340532D01*
X126285Y340541D01*
X126285Y340541D01*
X126285Y340541D01*
X126296Y340554D01*
X126310Y340570D01*
X126310Y340570D01*
X126310Y340570D01*
X126323Y340581D01*
X126340Y340595D01*
X126340Y340595D01*
X126340Y340595D01*
X126349Y340599D01*
X126354Y340608D01*
X126354Y340609D01*
X126354Y340609D01*
X126367Y340624D01*
X126379Y340638D01*
X126379Y340638D01*
X126379Y340638D01*
X126389Y340647D01*
X126390Y340704D01*
Y340704D01*
Y340704D01*
X126391Y340713D01*
X126394Y340742D01*
X126406Y340779D01*
X126406Y340779D01*
D01*
X126407Y340782D01*
X126424Y340813D01*
X126449Y340843D01*
X126449Y340843D01*
X126449Y340843D01*
X126455Y340848D01*
X126479Y340867D01*
X126488Y340872D01*
X126493Y340881D01*
X126518Y340911D01*
X126548Y340935D01*
X126583Y340953D01*
X126620Y340964D01*
X126658Y340968D01*
D01*
X126658D01*
X126727Y340967D01*
X126764Y340963D01*
X126765Y340963D01*
D01*
X126766Y340963D01*
X126795Y340954D01*
X126802Y340951D01*
X126802Y340951D01*
X126803Y340951D01*
X126821Y340941D01*
X126837Y340933D01*
X126837Y340933D01*
X126837Y340933D01*
X126850Y340921D01*
X126866Y340908D01*
X126866Y340908D01*
X126866Y340908D01*
X126876Y340895D01*
X126891Y340878D01*
X126891Y340878D01*
X126891Y340878D01*
X126902Y340856D01*
X126909Y340843D01*
Y340843D01*
X126909Y340843D01*
X126918Y340813D01*
X126919Y340806D01*
Y340806D01*
X126919Y340806D01*
X126922Y340781D01*
X126923Y340768D01*
Y340768D01*
Y340768D01*
Y340768D01*
X126922Y340699D01*
X126919Y340665D01*
X126920Y340651D01*
X126922Y340631D01*
X126922Y340631D01*
X126922Y340630D01*
X126921Y340562D01*
X126919Y340538D01*
X126918Y340528D01*
X126918Y340525D01*
X126921Y340494D01*
Y340494D01*
Y340494D01*
X126920Y340425D01*
Y340425D01*
Y340425D01*
X126917Y340400D01*
X126916Y340391D01*
X126919Y340357D01*
D01*
Y340357D01*
X126919Y340288D01*
Y340288D01*
Y340288D01*
X126918Y340276D01*
X126915Y340250D01*
X126903Y340213D01*
Y340213D01*
X126903Y340213D01*
X126888Y340185D01*
X126884Y340179D01*
X126884Y340179D01*
X126884Y340179D01*
X126869Y340160D01*
X126860Y340149D01*
X126860Y340149D01*
X126860Y340149D01*
X126849Y340140D01*
X126848Y340083D01*
Y340083D01*
X126848Y340015D01*
D01*
X126847Y339946D01*
Y339946D01*
Y339946D01*
X126847Y339878D01*
D01*
X126846Y339809D01*
Y339809D01*
Y339809D01*
X126846Y339741D01*
Y339741D01*
X126845Y339673D01*
Y339672D01*
Y339672D01*
X126842Y339649D01*
X126841Y339634D01*
X126841Y339634D01*
Y339634D01*
X126833Y339609D01*
X126829Y339597D01*
X126829Y339597D01*
X126829Y339597D01*
X126824Y339587D01*
X126811Y339563D01*
X126786Y339533D01*
X126786Y339533D01*
X126786Y339533D01*
X126775Y339525D01*
X126775Y339468D01*
X126775Y339468D01*
X126775Y339468D01*
X126774Y339399D01*
Y339399D01*
X126774Y339331D01*
Y339331D01*
Y339331D01*
X126773Y339262D01*
D01*
X126772Y339194D01*
Y339194D01*
Y339194D01*
X126770Y339169D01*
X126769Y339159D01*
X126770Y339146D01*
X126772Y339125D01*
Y339125D01*
Y339125D01*
X126771Y339057D01*
X126769Y339034D01*
X126767Y339023D01*
X126769Y339009D01*
X126770Y338988D01*
Y338988D01*
Y338988D01*
X126770Y338920D01*
X126766Y338881D01*
X126754Y338844D01*
X126736Y338810D01*
X126711Y338780D01*
X126700Y338772D01*
X126700Y338715D01*
Y338715D01*
Y338715D01*
X126699Y338646D01*
Y338646D01*
X126698Y338578D01*
X126698Y338578D01*
X126698Y338578D01*
X126696Y338554D01*
X126694Y338540D01*
X126694Y338540D01*
X126694Y338539D01*
X126687Y338515D01*
X126683Y338503D01*
X126683Y338503D01*
X126683Y338502D01*
X126675Y338489D01*
X126664Y338469D01*
X126664Y338468D01*
X126664Y338468D01*
X126657Y338460D01*
X126639Y338439D01*
X126639Y338439D01*
X126639Y338439D01*
X126629Y338430D01*
X126628Y338373D01*
Y338373D01*
Y338373D01*
X126628Y338305D01*
D01*
X126627Y338236D01*
X126625Y338213D01*
X126623Y338202D01*
X126625Y338182D01*
X126626Y338168D01*
Y338168D01*
Y338168D01*
Y338168D01*
X126626Y338099D01*
Y338099D01*
Y338099D01*
X126623Y338076D01*
X126622Y338061D01*
X126622Y338061D01*
Y338061D01*
X126614Y338036D01*
X126610Y338024D01*
X126610Y338024D01*
X126610Y338024D01*
X126605Y338014D01*
X126592Y337990D01*
X126567Y337960D01*
X126567Y337960D01*
X126567Y337960D01*
X126556Y337951D01*
X126556Y337894D01*
X126551Y337856D01*
X126541Y337821D01*
X126540Y337819D01*
D01*
X126540Y337819D01*
X126521Y337785D01*
X126505Y337765D01*
X126496Y337755D01*
X126496Y337755D01*
X126496Y337755D01*
X126486Y337747D01*
X126485Y337690D01*
X126481Y337655D01*
X126484Y337629D01*
X126485Y337621D01*
Y337621D01*
D01*
D01*
X126484Y337553D01*
Y337553D01*
Y337552D01*
X126481Y337528D01*
X126480Y337514D01*
X126480Y337514D01*
Y337514D01*
X126476Y337500D01*
X126468Y337477D01*
X126450Y337443D01*
X126450Y337443D01*
X126450Y337443D01*
X126445Y337438D01*
X126425Y337413D01*
X126414Y337405D01*
X126414Y337348D01*
X126411Y337323D01*
X126410Y337309D01*
X126410Y337309D01*
Y337309D01*
X126402Y337284D01*
X126398Y337272D01*
X126398Y337272D01*
X126398Y337272D01*
X126384Y337247D01*
X126379Y337238D01*
X126379Y337238D01*
X126379Y337238D01*
X126364Y337219D01*
X126355Y337208D01*
X126355Y337208D01*
X126355Y337208D01*
X126344Y337200D01*
X126344Y337143D01*
X126340Y337109D01*
X126341Y337093D01*
X126343Y337074D01*
Y337074D01*
D01*
D01*
X126342Y337006D01*
Y337006D01*
Y337006D01*
X126340Y336981D01*
X126338Y336967D01*
X126338Y336967D01*
Y336967D01*
X126334Y336953D01*
X126327Y336930D01*
X126308Y336896D01*
X126308Y336896D01*
X126308Y336896D01*
X126304Y336891D01*
X126283Y336867D01*
X126253Y336842D01*
X126244Y336838D01*
X126239Y336828D01*
X126214Y336799D01*
X126204Y336790D01*
X126203Y336790D01*
X126203Y336733D01*
X126201Y336714D01*
X126199Y336695D01*
X126199Y336695D01*
X126199Y336695D01*
X126193Y336677D01*
X126187Y336658D01*
X126187Y336658D01*
X126187Y336658D01*
X126177Y336639D01*
X126169Y336624D01*
X126169Y336624D01*
X126169Y336624D01*
X126154Y336606D01*
X126144Y336594D01*
X126144Y336594D01*
X126144Y336594D01*
X126133Y336585D01*
X126133Y336528D01*
X126128Y336490D01*
X126117Y336453D01*
X126098Y336419D01*
X126074Y336389D01*
X126063Y336381D01*
X126062Y336323D01*
Y336323D01*
Y336323D01*
X126061Y336312D01*
X126058Y336285D01*
X126047Y336248D01*
X126032Y336221D01*
X126028Y336214D01*
X126011Y336194D01*
X126003Y336184D01*
X126003Y336184D01*
X126003Y336184D01*
X125989Y336172D01*
X125973Y336160D01*
X125973Y336160D01*
X125973Y336160D01*
X125964Y336155D01*
X125959Y336146D01*
X125959Y336146D01*
X125959Y336146D01*
X125946Y336130D01*
X125934Y336116D01*
X125934Y336116D01*
X125934Y336116D01*
X125924Y336108D01*
X125923Y336051D01*
X125919Y336012D01*
X125907Y335975D01*
X125889Y335941D01*
X125864Y335911D01*
X125834Y335887D01*
X125825Y335882D01*
X125820Y335873D01*
X125799Y335849D01*
X125795Y335844D01*
X125795Y335844D01*
X125795Y335844D01*
X125784Y335835D01*
X125784Y335778D01*
Y335778D01*
Y335778D01*
X125783Y335769D01*
X125780Y335740D01*
X125768Y335703D01*
X125768Y335703D01*
D01*
X125766Y335700D01*
X125749Y335669D01*
X125725Y335639D01*
X125725Y335639D01*
X125725Y335639D01*
X125694Y335614D01*
X125685Y335610D01*
X125680Y335601D01*
X125655Y335571D01*
X125655Y335571D01*
X125655Y335571D01*
X125644Y335561D01*
X125625Y335546D01*
X125616Y335542D01*
X125611Y335533D01*
X125611Y335533D01*
X125611Y335533D01*
X125603Y335523D01*
X125586Y335503D01*
X125586Y335503D01*
X125586Y335503D01*
X125575Y335493D01*
X125572Y335467D01*
X125560Y335430D01*
X125542Y335396D01*
X125517Y335367D01*
X125517Y335367D01*
X125517Y335367D01*
X125505Y335357D01*
X125504Y335347D01*
X125502Y335331D01*
X125502Y335331D01*
Y335331D01*
X125494Y335306D01*
X125490Y335294D01*
X125490Y335294D01*
X125490Y335294D01*
X125477Y335269D01*
X125472Y335260D01*
X125472Y335260D01*
X125472Y335260D01*
X125456Y335241D01*
X125447Y335230D01*
X125447Y335230D01*
X125447Y335230D01*
X125418Y335207D01*
X125417Y335206D01*
D01*
X125417Y335206D01*
X125408Y335201D01*
X125403Y335192D01*
X125378Y335162D01*
X125348Y335138D01*
X125339Y335133D01*
X125334Y335124D01*
X125334Y335124D01*
X125334Y335124D01*
X125318Y335105D01*
X125309Y335094D01*
X125309Y335094D01*
X125309Y335094D01*
X125297Y335085D01*
X125294Y335059D01*
X125283Y335022D01*
X125264Y334988D01*
X125239Y334958D01*
X125239D01*
Y334958D01*
X125233Y334953D01*
X125209Y334934D01*
X125175Y334916D01*
D01*
X125175Y334916D01*
X125153Y334910D01*
X125152Y334909D01*
X125144Y334886D01*
X125132Y334864D01*
X125126Y334852D01*
X125115Y334839D01*
X125101Y334822D01*
X125089Y334813D01*
X125088Y334805D01*
X125086Y334787D01*
X125086Y334787D01*
X125086Y334787D01*
X125076Y334755D01*
X125075Y334750D01*
Y334750D01*
X125075Y334750D01*
X125061Y334724D01*
X125056Y334716D01*
X125056Y334716D01*
X125056Y334716D01*
X125033Y334688D01*
X125031Y334686D01*
D01*
X125031Y334686D01*
X125006Y334666D01*
X125001Y334662D01*
X125001Y334662D01*
X125001Y334662D01*
X124976Y334649D01*
X124967Y334644D01*
X124967Y334644D01*
X124967Y334644D01*
X124945Y334637D01*
X124944Y334637D01*
X124938Y334619D01*
X124937Y334614D01*
Y334614D01*
X124937Y334614D01*
X124918Y334580D01*
X124899Y334557D01*
X124893Y334550D01*
X124893Y334550D01*
X124893Y334550D01*
X124863Y334526D01*
X124829Y334508D01*
X124806Y334501D01*
X124804Y334496D01*
X124799Y334478D01*
X124799Y334478D01*
X124799Y334478D01*
X124791Y334465D01*
X124780Y334444D01*
X124780Y334444D01*
X124780Y334444D01*
X124767Y334429D01*
X124755Y334415D01*
X124755Y334415D01*
X124755Y334415D01*
X124729Y334394D01*
X124725Y334390D01*
X124725D01*
X124725Y334390D01*
X124694Y334374D01*
X124691Y334372D01*
X124691D01*
X124690Y334372D01*
X124667Y334365D01*
X124653Y334361D01*
X124653Y334361D01*
X124653Y334361D01*
X124634Y334360D01*
X124615Y334358D01*
X124615Y334358D01*
X124615Y334358D01*
X124558Y334358D01*
X124549Y334348D01*
X124549Y334348D01*
X124549Y334348D01*
X124525Y334329D01*
X124519Y334324D01*
X124519D01*
X124519Y334323D01*
X124510Y334319D01*
X124505Y334310D01*
X124480Y334280D01*
X124480Y334280D01*
X124480Y334280D01*
X124468Y334270D01*
X124450Y334256D01*
X124441Y334251D01*
X124436Y334242D01*
X124411Y334212D01*
X124411Y334212D01*
X124411Y334212D01*
X124399Y334203D01*
X124381Y334188D01*
X124372Y334183D01*
X124367Y334174D01*
X124367Y334174D01*
X124367Y334174D01*
X124352Y334156D01*
X124342Y334144D01*
X124342Y334144D01*
X124342Y334144D01*
X124327Y334132D01*
X124312Y334120D01*
X124312Y334120D01*
X124312Y334120D01*
X124297Y334112D01*
X124277Y334102D01*
X124277Y334102D01*
X124277D01*
X124273Y334101D01*
X124240Y334091D01*
X124202Y334087D01*
X124201D01*
D01*
D01*
X124144Y334088D01*
X124136Y334078D01*
X124136Y334078D01*
X124136Y334078D01*
X124123Y334067D01*
X124106Y334053D01*
X124106Y334053D01*
X124106Y334053D01*
X124097Y334048D01*
X124092Y334039D01*
X124073Y334018D01*
X124067Y334010D01*
X124067Y334010D01*
X124067Y334010D01*
X124037Y333985D01*
X124004Y333968D01*
X124002Y333967D01*
D01*
X124002Y333967D01*
X123978Y333960D01*
X123965Y333956D01*
X123965D01*
X123965Y333956D01*
X123942Y333954D01*
X123926Y333953D01*
X123926D01*
X123926D01*
X123869Y333953D01*
X123861Y333943D01*
X123861Y333943D01*
X123861Y333943D01*
X123852Y333936D01*
X123830Y333918D01*
X123821Y333914D01*
X123817Y333905D01*
X123816Y333905D01*
Y333905D01*
X123814Y333902D01*
X123792Y333875D01*
X123761Y333851D01*
D01*
X123761Y333851D01*
X123730Y333834D01*
X123727Y333833D01*
X123727D01*
X123727Y333833D01*
X123707Y333827D01*
X123690Y333822D01*
X123690D01*
X123690Y333822D01*
X123676Y333821D01*
X123651Y333818D01*
X123651D01*
X123651D01*
X123457Y333820D01*
X123449Y333809D01*
X123449Y333809D01*
X123449Y333809D01*
X123433Y333797D01*
X123418Y333785D01*
X123418Y333785D01*
X123418Y333785D01*
X123401Y333776D01*
X123384Y333767D01*
X123384Y333767D01*
X123384Y333767D01*
X123364Y333761D01*
X123347Y333756D01*
X123347D01*
X123347Y333756D01*
X123326Y333754D01*
X123308Y333753D01*
X123308D01*
X123308D01*
X123308D01*
X123251Y333753D01*
X123243Y333743D01*
X123242Y333743D01*
X123242Y333743D01*
X123233Y333736D01*
X123212Y333718D01*
X123178Y333700D01*
X123178Y333700D01*
X123178Y333700D01*
X123169Y333698D01*
X123141Y333690D01*
X123141D01*
X123141Y333690D01*
X123123Y333688D01*
X123102Y333686D01*
X123102D01*
X123102D01*
X123034Y333687D01*
X123011Y333689D01*
X123000Y333690D01*
X122979Y333689D01*
X122965Y333687D01*
X122965D01*
D01*
D01*
X122497Y333691D01*
X122489Y333681D01*
X122489Y333681D01*
X122489Y333681D01*
X122479Y333673D01*
X122459Y333657D01*
X122459Y333657D01*
X122458Y333657D01*
X122442Y333648D01*
X122424Y333639D01*
X122424Y333639D01*
X122424Y333639D01*
X122401Y333632D01*
X122387Y333628D01*
X122387D01*
X122387Y333628D01*
X122364Y333626D01*
X122348Y333624D01*
X122348Y333624D01*
X122348Y333624D01*
X122280Y333625D01*
X122256Y333627D01*
X122246Y333629D01*
X122225Y333627D01*
X122211Y333625D01*
X122211D01*
X122211D01*
X122211D01*
X122143Y333626D01*
X122109Y333630D01*
X122074Y333627D01*
X122006Y333627D01*
X122006D01*
X122006D01*
X121995Y333628D01*
X121967Y333631D01*
X121930Y333643D01*
X121903Y333658D01*
X121896Y333662D01*
X121876Y333678D01*
X121867Y333686D01*
X121867Y333686D01*
X121867Y333686D01*
X121858Y333697D01*
X121116Y333703D01*
X121116D01*
X121116D01*
X121103Y333705D01*
X121082Y333707D01*
X121068Y333706D01*
X121048Y333704D01*
X121048D01*
X121048D01*
X121048D01*
X120979Y333705D01*
X120979D01*
X120979D01*
X120968Y333706D01*
X120941Y333709D01*
X120904Y333720D01*
X120877Y333735D01*
X120870Y333739D01*
X120850Y333756D01*
X120840Y333764D01*
X120840Y333764D01*
X120840Y333764D01*
X120831Y333774D01*
X120774Y333775D01*
X120774D01*
X120774D01*
X120758Y333777D01*
X120740Y333779D01*
X120723Y333777D01*
X120706Y333775D01*
X120706D01*
D01*
D01*
X120638Y333776D01*
X120638D01*
X120638D01*
X120625Y333777D01*
X120599Y333780D01*
X120562Y333792D01*
D01*
X120562Y333792D01*
X120540Y333804D01*
X120528Y333810D01*
X120528Y333810D01*
X120528Y333810D01*
X120510Y333825D01*
X120498Y333835D01*
X120498Y333835D01*
X120498Y333835D01*
X120490Y333846D01*
X120433Y333846D01*
X120405Y333849D01*
X120399Y333850D01*
X120364Y333847D01*
X120364D01*
X120364D01*
X120296Y333848D01*
X120277Y333850D01*
X120257Y333852D01*
X120257Y333852D01*
X120257D01*
X120234Y333859D01*
X120220Y333863D01*
X120220Y333863D01*
X120220Y333863D01*
X120190Y333880D01*
X120186Y333882D01*
X120186Y333882D01*
X120186Y333882D01*
X120167Y333898D01*
X120156Y333907D01*
X120156Y333907D01*
X120156Y333907D01*
X120148Y333917D01*
X120091Y333918D01*
X120091D01*
X120091D01*
X120068Y333920D01*
X120052Y333922D01*
X120052Y333922D01*
X120052D01*
X120042Y333925D01*
X120015Y333934D01*
X119981Y333952D01*
X119981Y333952D01*
X119981Y333952D01*
X119971Y333961D01*
X119951Y333977D01*
X119951Y333977D01*
X119951Y333977D01*
X119944Y333986D01*
X119943Y333988D01*
X119886Y333988D01*
X119848Y333992D01*
X119813Y334003D01*
X119810Y334004D01*
D01*
X119810Y334004D01*
X119776Y334022D01*
X119756Y334039D01*
X119747Y334047D01*
X119747Y334047D01*
X119747Y334047D01*
X119738Y334058D01*
X119681Y334058D01*
X119643Y334063D01*
X119620Y334070D01*
X119606Y334074D01*
X119606Y334074D01*
D01*
X119572Y334093D01*
X119545Y334115D01*
X119542Y334118D01*
Y334118D01*
X119542D01*
X119536Y334125D01*
X119533Y334128D01*
X119476Y334129D01*
X119476D01*
X119476D01*
X119464Y334130D01*
X119438Y334133D01*
X119401Y334144D01*
D01*
X119401Y334144D01*
X119379Y334156D01*
X119367Y334163D01*
X119367Y334163D01*
X119367Y334163D01*
X119349Y334178D01*
X119337Y334188D01*
X119337Y334188D01*
X119337Y334188D01*
X119328Y334198D01*
X119272Y334199D01*
X119233Y334203D01*
X119196Y334215D01*
X119162Y334233D01*
X119137Y334254D01*
X119132Y334258D01*
Y334258D01*
X119132D01*
X119124Y334269D01*
X119067Y334269D01*
X119028Y334273D01*
X119005Y334281D01*
X118991Y334285D01*
X118991Y334285D01*
D01*
X118957Y334303D01*
X118930Y334326D01*
X118927Y334328D01*
Y334328D01*
X118927D01*
X118921Y334336D01*
X118903Y334359D01*
X118898Y334368D01*
X118889Y334373D01*
X118889Y334373D01*
X118889Y334373D01*
X118876Y334384D01*
X118860Y334397D01*
X118860Y334397D01*
X118859Y334398D01*
X118851Y334408D01*
X118794Y334409D01*
X118794D01*
X118794D01*
X118777Y334410D01*
X118755Y334413D01*
X118755Y334413D01*
X118755D01*
X118726Y334422D01*
X118718Y334424D01*
D01*
X118718Y334424D01*
X118708Y334430D01*
X118684Y334443D01*
X118655Y334468D01*
X118655Y334468D01*
X118655Y334468D01*
X118640Y334485D01*
X118630Y334498D01*
X118630Y334498D01*
X118630Y334498D01*
X118625Y334507D01*
X118616Y334512D01*
X118616Y334512D01*
X118616Y334512D01*
X118598Y334527D01*
X118587Y334537D01*
X118587Y334537D01*
X118587Y334537D01*
X118578Y334547D01*
X118521Y334548D01*
X118509Y334549D01*
X118483Y334552D01*
X118446Y334564D01*
D01*
X118446Y334564D01*
X118412Y334582D01*
X118387Y334603D01*
X118382Y334607D01*
X118382Y334607D01*
X118382Y334607D01*
X118370Y334622D01*
X118358Y334637D01*
X118358Y334637D01*
X118358Y334637D01*
X118353Y334646D01*
X118344Y334651D01*
X118344Y334651D01*
X118344D01*
X118338Y334657D01*
X118314Y334676D01*
X118314Y334676D01*
X118314Y334676D01*
X118305Y334687D01*
X118248Y334687D01*
X118236Y334689D01*
X118210Y334691D01*
X118173Y334703D01*
D01*
X118173Y334703D01*
X118139Y334722D01*
X118114Y334742D01*
X118109Y334746D01*
X118109Y334746D01*
X118109Y334746D01*
X118097Y334761D01*
X118085Y334777D01*
X118085Y334777D01*
X118085Y334777D01*
X118080Y334786D01*
X118071Y334791D01*
X118041Y334816D01*
X118041Y334816D01*
X118041Y334816D01*
X118033Y334826D01*
X117976Y334827D01*
X117943Y334830D01*
X117937Y334831D01*
X117937D01*
X117937Y334831D01*
X117909Y334840D01*
X117900Y334842D01*
X117900Y334842D01*
X117900Y334842D01*
X117878Y334855D01*
X117866Y334861D01*
X117866Y334861D01*
X117866Y334861D01*
X117850Y334875D01*
X117836Y334886D01*
X117836Y334886D01*
X117836Y334886D01*
X117812Y334916D01*
X117807Y334925D01*
X117804Y334927D01*
X117798Y334930D01*
X117798Y334930D01*
X117798Y334930D01*
X117779Y334946D01*
X117769Y334955D01*
X117769Y334955D01*
X117769Y334955D01*
X117745Y334984D01*
X117744Y334985D01*
D01*
X117744Y334985D01*
X117739Y334994D01*
X117730Y334999D01*
X117730Y334999D01*
X117730Y334999D01*
X117720Y335008D01*
X117701Y335024D01*
X117701Y335024D01*
X117701Y335024D01*
X117682Y335047D01*
X117676Y335054D01*
Y335054D01*
X117676Y335054D01*
X117672Y335063D01*
X117663Y335068D01*
X117633Y335093D01*
X117623Y335105D01*
X117597Y335108D01*
X117571Y335116D01*
X117560Y335119D01*
X117560Y335119D01*
D01*
X117557Y335121D01*
X117526Y335138D01*
X117496Y335163D01*
X117496Y335163D01*
X117496Y335163D01*
X117487Y335174D01*
X117487Y335175D01*
X117461Y335177D01*
X117424Y335189D01*
X117405Y335199D01*
X117390Y335208D01*
X117360Y335232D01*
Y335232D01*
X117360D01*
X117336Y335263D01*
X117331Y335272D01*
X117322Y335277D01*
X117322Y335277D01*
X117322Y335277D01*
X117308Y335288D01*
X117292Y335301D01*
X117292Y335301D01*
X117292Y335301D01*
X117277Y335321D01*
X117268Y335332D01*
X117268Y335332D01*
X117268Y335332D01*
X117263Y335341D01*
X117254Y335346D01*
X117254Y335346D01*
X117254Y335346D01*
X117241Y335356D01*
X117224Y335370D01*
X117224Y335370D01*
X117224Y335371D01*
X117214Y335383D01*
X117200Y335401D01*
X117200Y335401D01*
X117200Y335401D01*
X117195Y335410D01*
X117186Y335415D01*
X117156Y335439D01*
X117132Y335470D01*
X117127Y335479D01*
X117118Y335484D01*
X117118Y335484D01*
X117118Y335484D01*
X117099Y335500D01*
X117088Y335509D01*
X117088Y335509D01*
X117088Y335509D01*
X117080Y335519D01*
X117023Y335520D01*
X117023D01*
X117023D01*
X117005Y335522D01*
X116984Y335524D01*
X116984Y335524D01*
X116984D01*
X116975Y335527D01*
X116947Y335536D01*
X116947Y335536D01*
X116947D01*
X116939Y335540D01*
X116913Y335554D01*
X116913Y335554D01*
X116913Y335554D01*
X116900Y335565D01*
X116884Y335579D01*
X116884Y335579D01*
X116884Y335579D01*
X116873Y335593D01*
X116859Y335609D01*
X116859Y335609D01*
X116859Y335609D01*
X116852Y335623D01*
X116841Y335644D01*
X116841Y335644D01*
X116841Y335644D01*
X116838Y335654D01*
X116835Y335666D01*
X116812Y335674D01*
X116778Y335692D01*
X116755Y335711D01*
X116748Y335717D01*
X116748Y335717D01*
X116748Y335717D01*
X116734Y335735D01*
X116724Y335747D01*
X116724Y335747D01*
X116724Y335747D01*
X116719Y335756D01*
X116710Y335761D01*
X116694Y335774D01*
X116680Y335786D01*
X116656Y335816D01*
X116656Y335816D01*
X116656Y335816D01*
X116651Y335825D01*
X116642Y335830D01*
X116642Y335830D01*
X116642Y335830D01*
X116623Y335846D01*
X116612Y335855D01*
X116612Y335855D01*
X116612Y335855D01*
X116602Y335868D01*
X116588Y335886D01*
X116588Y335886D01*
X116588Y335886D01*
X116583Y335894D01*
X116574Y335899D01*
X116544Y335924D01*
X116520Y335954D01*
X116515Y335964D01*
X116506Y335968D01*
X116477Y335993D01*
X116476Y335993D01*
X116476Y335993D01*
X116471Y336000D01*
X116452Y336023D01*
X116447Y336033D01*
X116438Y336038D01*
X116438Y336038D01*
X116438Y336038D01*
X116420Y336053D01*
X116409Y336062D01*
X116409Y336063D01*
X116409Y336063D01*
X116397Y336077D01*
X116384Y336093D01*
X116384Y336093D01*
X116384Y336093D01*
X116379Y336102D01*
X116370Y336107D01*
X116370Y336107D01*
X116370Y336107D01*
X116362Y336114D01*
X116341Y336132D01*
X116341Y336132D01*
X116341Y336132D01*
X116330Y336144D01*
X116316Y336162D01*
X116316Y336162D01*
X116316Y336162D01*
X116312Y336171D01*
X116308Y336173D01*
X116303Y336176D01*
X116303Y336176D01*
X116303Y336176D01*
X116284Y336192D01*
X116273Y336201D01*
X116273Y336201D01*
X116273Y336201D01*
X116249Y336230D01*
X116249Y336231D01*
D01*
X116248Y336231D01*
X116244Y336240D01*
X116235Y336245D01*
X116235Y336245D01*
X116235Y336245D01*
X116216Y336261D01*
X116205Y336270D01*
X116205Y336270D01*
X116205Y336270D01*
X116181Y336299D01*
X116181Y336300D01*
D01*
X116181Y336300D01*
X116176Y336309D01*
X116167Y336314D01*
X116153Y336325D01*
X116137Y336339D01*
X116113Y336369D01*
X116108Y336378D01*
X116099Y336383D01*
X116069Y336408D01*
X116069Y336408D01*
X116069Y336408D01*
X116064Y336414D01*
X116045Y336438D01*
X116040Y336447D01*
X116031Y336452D01*
X116031Y336452D01*
X116031Y336452D01*
X116021Y336461D01*
X116001Y336477D01*
X116001Y336477D01*
X116001Y336477D01*
X115982Y336501D01*
X115977Y336507D01*
Y336507D01*
X115977Y336507D01*
X115972Y336516D01*
X115963Y336521D01*
X115963Y336521D01*
X115963Y336521D01*
X115952Y336530D01*
X115933Y336546D01*
X115933Y336546D01*
X115933Y336546D01*
X115927Y336554D01*
X115909Y336576D01*
X115909Y336576D01*
X115909Y336576D01*
X115904Y336585D01*
X115895Y336590D01*
X115895Y336590D01*
X115895Y336590D01*
X115879Y336604D01*
X115866Y336615D01*
X115866Y336615D01*
X115865Y336615D01*
X115855Y336628D01*
X115841Y336645D01*
X115841Y336645D01*
X115841Y336645D01*
X115836Y336654D01*
X115827Y336659D01*
X115797Y336684D01*
X115773Y336714D01*
X115755Y336749D01*
X115744Y336786D01*
X115742Y336812D01*
X115730Y336822D01*
X115730Y336822D01*
X115730Y336822D01*
X115722Y336831D01*
X115706Y336852D01*
X115688Y336886D01*
D01*
X115688Y336886D01*
X115679Y336917D01*
X115677Y336924D01*
Y336924D01*
X115677Y336924D01*
X115675Y336948D01*
X115675Y336949D01*
X115673Y336951D01*
X115663Y336959D01*
X115663Y336959D01*
X115663Y336959D01*
X115639Y336989D01*
X115634Y336999D01*
X115632Y337000D01*
X115625Y337003D01*
X115625Y337003D01*
X115625Y337004D01*
X115606Y337019D01*
X115595Y337028D01*
X115595Y337028D01*
X115595Y337028D01*
X115585Y337041D01*
X115571Y337058D01*
X115571Y337059D01*
X115571Y337059D01*
X115566Y337068D01*
X115557Y337072D01*
X115527Y337097D01*
X115527Y337097D01*
X115527Y337097D01*
X115503Y337128D01*
X115498Y337137D01*
X115489Y337142D01*
X115489Y337142D01*
X115489Y337142D01*
X115473Y337155D01*
X115459Y337167D01*
X115459Y337167D01*
X115459Y337167D01*
X115438Y337193D01*
X115435Y337197D01*
Y337197D01*
X115435Y337197D01*
X115430Y337206D01*
X115421Y337211D01*
X115421Y337211D01*
X115421Y337211D01*
X115402Y337227D01*
X115392Y337236D01*
X115392Y337236D01*
X115392Y337236D01*
X115368Y337265D01*
X115367Y337266D01*
D01*
X115367Y337266D01*
X115362Y337275D01*
X115353Y337280D01*
X115353Y337280D01*
X115353Y337280D01*
X115335Y337295D01*
X115324Y337305D01*
X115324Y337305D01*
X115324Y337305D01*
X115312Y337319D01*
X115299Y337335D01*
X115299Y337335D01*
X115299Y337335D01*
X115292Y337350D01*
X115281Y337369D01*
X115281Y337369D01*
Y337369D01*
X115280Y337374D01*
X115270Y337406D01*
X115267Y337445D01*
Y337445D01*
Y337445D01*
X115267Y337502D01*
X115257Y337511D01*
X115257Y337511D01*
X115257Y337511D01*
X115246Y337524D01*
X115233Y337541D01*
X115233Y337541D01*
X115233Y337541D01*
X115228Y337550D01*
X115219Y337555D01*
X115189Y337580D01*
X115165Y337610D01*
X115160Y337619D01*
X115151Y337624D01*
X115151Y337624D01*
X115151Y337624D01*
X115132Y337640D01*
X115121Y337649D01*
X115121Y337649D01*
X115121Y337649D01*
X115111Y337662D01*
X115097Y337679D01*
X115097Y337679D01*
X115097Y337679D01*
X115079Y337713D01*
X115070Y337742D01*
X115068Y337751D01*
Y337751D01*
X115068Y337751D01*
X115066Y337772D01*
X115066Y337777D01*
X115054Y337786D01*
X115054Y337786D01*
X115054Y337786D01*
X115038Y337806D01*
X115030Y337817D01*
X115030Y337817D01*
X115030Y337817D01*
X115014Y337847D01*
X115012Y337851D01*
Y337851D01*
X115012Y337851D01*
X115004Y337878D01*
X115001Y337888D01*
Y337888D01*
X115001Y337888D01*
X114998Y337911D01*
X114998Y337914D01*
X114997Y337915D01*
X114987Y337924D01*
X114987Y337924D01*
X114987Y337924D01*
X114963Y337953D01*
X114962Y337954D01*
D01*
X114962Y337954D01*
X114957Y337963D01*
X114948Y337968D01*
X114928Y337985D01*
X114919Y337993D01*
X114919Y337993D01*
X114919Y337993D01*
X114894Y338023D01*
X114890Y338032D01*
X114881Y338037D01*
X114851Y338062D01*
X114826Y338092D01*
X114808Y338127D01*
X114797Y338164D01*
X114794Y338203D01*
X114795Y338259D01*
X114784Y338268D01*
X114784Y338268D01*
X114784Y338268D01*
X114774Y338281D01*
X114760Y338298D01*
X114760Y338298D01*
X114760Y338298D01*
X114755Y338307D01*
X114746Y338312D01*
X114746Y338312D01*
X114746Y338312D01*
X114736Y338321D01*
X114716Y338337D01*
X114716Y338337D01*
X114716Y338337D01*
X114709Y338346D01*
X114692Y338367D01*
X114674Y338402D01*
X114674Y338402D01*
X114674Y338402D01*
X114671Y338411D01*
X114663Y338439D01*
Y338439D01*
X114663Y338439D01*
X114661Y338457D01*
X114660Y338478D01*
Y338478D01*
Y338478D01*
X114660Y338534D01*
X114659Y338535D01*
X114649Y338543D01*
X114649Y338543D01*
X114649Y338543D01*
X114625Y338574D01*
X114620Y338583D01*
X114618Y338584D01*
X114611Y338587D01*
X114611Y338587D01*
X114611Y338587D01*
X114592Y338603D01*
X114582Y338612D01*
X114582Y338612D01*
X114582Y338612D01*
X114558Y338641D01*
X114557Y338643D01*
D01*
X114557Y338643D01*
X114541Y338674D01*
X114539Y338677D01*
Y338677D01*
X114539Y338677D01*
X114533Y338700D01*
X114528Y338714D01*
Y338714D01*
X114528Y338714D01*
X114527Y338730D01*
X114525Y338753D01*
Y338753D01*
Y338753D01*
X114525Y338810D01*
X114515Y338818D01*
X114515Y338818D01*
X114515Y338818D01*
X114505Y338831D01*
X114491Y338848D01*
X114491Y338849D01*
X114491Y338849D01*
X114486Y338858D01*
X114477Y338863D01*
X114477Y338863D01*
X114477Y338863D01*
X114463Y338874D01*
X114447Y338887D01*
X114447Y338887D01*
X114447Y338888D01*
X114431Y338907D01*
X114423Y338918D01*
X114423Y338918D01*
X114423Y338918D01*
X114407Y338948D01*
X114405Y338952D01*
Y338952D01*
X114405Y338952D01*
X114396Y338983D01*
X114394Y338989D01*
Y338989D01*
X114394Y338989D01*
X114392Y339014D01*
X114390Y339028D01*
Y339028D01*
Y339028D01*
Y339028D01*
X114391Y339085D01*
X114381Y339093D01*
X114381Y339093D01*
X114381Y339093D01*
X114375Y339100D01*
X114356Y339124D01*
X114338Y339158D01*
X114338Y339158D01*
Y339158D01*
X114327Y339195D01*
X114325Y339223D01*
X114324Y339234D01*
Y339234D01*
Y339234D01*
X114324Y339291D01*
X114314Y339300D01*
X114289Y339330D01*
X114271Y339364D01*
X114271Y339364D01*
X114271Y339364D01*
X114269Y339373D01*
X114260Y339401D01*
Y339401D01*
X114260Y339401D01*
X114259Y339419D01*
X114257Y339440D01*
Y339440D01*
Y339440D01*
X114258Y339497D01*
X114247Y339506D01*
X114223Y339536D01*
X114218Y339545D01*
X114209Y339550D01*
X114209Y339550D01*
X114209Y339550D01*
X114199Y339558D01*
X114179Y339575D01*
X114179Y339575D01*
X114179Y339575D01*
X114169Y339587D01*
X114155Y339605D01*
X114155Y339605D01*
X114155Y339605D01*
X114142Y339630D01*
X114137Y339639D01*
Y339639D01*
X114137Y339639D01*
X114126Y339676D01*
X114123Y339705D01*
X114122Y339715D01*
Y339715D01*
Y339715D01*
X114123Y339784D01*
X114127Y339818D01*
X114125Y339835D01*
X114124Y339852D01*
X114124Y339852D01*
X114124Y339852D01*
X114124Y339909D01*
X114114Y339918D01*
X114089Y339948D01*
X114085Y339957D01*
X114076Y339962D01*
X114076Y339962D01*
X114076Y339962D01*
X114058Y339977D01*
X114046Y339987D01*
X114046Y339987D01*
X114046Y339987D01*
X114034Y340001D01*
X114022Y340017D01*
X114022Y340017D01*
X114022Y340017D01*
X114014Y340032D01*
X114004Y340051D01*
X114004Y340051D01*
Y340051D01*
X114002Y340056D01*
X113993Y340089D01*
X113989Y340127D01*
Y340127D01*
Y340127D01*
X113990Y340196D01*
Y340196D01*
Y340196D01*
X113993Y340230D01*
X113992Y340247D01*
X113990Y340264D01*
Y340264D01*
D01*
D01*
X113991Y340321D01*
X113990Y340322D01*
X113980Y340330D01*
X113980Y340330D01*
X113980Y340330D01*
X113969Y340344D01*
X113956Y340360D01*
X113956Y340360D01*
X113956Y340360D01*
X113948Y340375D01*
X113938Y340394D01*
X113938Y340394D01*
Y340394D01*
X113937Y340399D01*
X113927Y340431D01*
X113924Y340470D01*
Y340470D01*
Y340470D01*
X113924Y340527D01*
X113914Y340536D01*
X113914Y340536D01*
X113914Y340536D01*
X113903Y340549D01*
X113889Y340566D01*
X113889Y340566D01*
X113889Y340566D01*
X113882Y340579D01*
X113871Y340600D01*
X113871Y340600D01*
X113871Y340600D01*
X113865Y340620D01*
X113860Y340637D01*
Y340637D01*
X113860Y340637D01*
X113858Y340659D01*
X113857Y340676D01*
Y340676D01*
D01*
D01*
X113857Y340745D01*
Y340745D01*
Y340745D01*
X113860Y340769D01*
X113861Y340779D01*
X113859Y340800D01*
X113858Y340813D01*
Y340813D01*
Y340813D01*
Y340813D01*
X113859Y340870D01*
X113848Y340879D01*
X113848Y340879D01*
X113848Y340879D01*
X113824Y340909D01*
X113806Y340943D01*
X113796Y340975D01*
X113795Y340980D01*
Y340980D01*
X113795Y340981D01*
X113793Y341005D01*
X113791Y341019D01*
Y341019D01*
Y341019D01*
X113792Y341076D01*
X113781Y341085D01*
X113781Y341085D01*
X113781Y341085D01*
X113766Y341104D01*
X113757Y341115D01*
X113757Y341115D01*
X113757Y341115D01*
X113741Y341145D01*
X113739Y341149D01*
Y341149D01*
X113739Y341149D01*
X113731Y341176D01*
X113728Y341186D01*
Y341186D01*
X113728Y341187D01*
X113726Y341210D01*
X113725Y341225D01*
Y341225D01*
Y341225D01*
X113725Y341294D01*
X113729Y341328D01*
X113727Y341348D01*
X113726Y341362D01*
Y341362D01*
Y341362D01*
Y341362D01*
X113726Y341430D01*
X113730Y341465D01*
X113729Y341478D01*
X113727Y341499D01*
Y341499D01*
Y341499D01*
X113728Y341556D01*
X113717Y341565D01*
X113717Y341565D01*
X113717Y341565D01*
X113712Y341571D01*
X113693Y341595D01*
X113693Y341595D01*
X113693Y341595D01*
X113686Y341609D01*
X113675Y341629D01*
X113675Y341629D01*
X113675Y341629D01*
X113672Y341640D01*
X113664Y341667D01*
X113664Y341667D01*
Y341667D01*
X113663Y341674D01*
X113660Y341705D01*
Y341705D01*
Y341705D01*
X113661Y341774D01*
X113663Y341792D01*
X113665Y341808D01*
X113662Y341842D01*
Y341842D01*
D01*
D01*
X113662Y341911D01*
D01*
X113663Y341979D01*
D01*
Y341979D01*
X113663Y342036D01*
X113653Y342045D01*
X113628Y342075D01*
X113610Y342109D01*
X113600Y342146D01*
X113596Y342185D01*
D01*
Y342185D01*
X113597Y342253D01*
X113600Y342288D01*
X113597Y342322D01*
Y342322D01*
D01*
D01*
X113598Y342390D01*
X113600Y342408D01*
X113602Y342425D01*
X113600Y342440D01*
X113599Y342459D01*
Y342459D01*
Y342459D01*
Y342459D01*
X113599Y342527D01*
Y342528D01*
Y342528D01*
X113602Y342552D01*
X113603Y342562D01*
X113600Y342596D01*
D01*
Y342596D01*
X113600Y342664D01*
X113603Y342688D01*
X113604Y342698D01*
X113601Y342733D01*
D01*
Y342733D01*
X113602Y342801D01*
Y342801D01*
Y342801D01*
X113602Y342870D01*
Y342870D01*
X113603Y342938D01*
Y342938D01*
Y342938D01*
X113603Y343007D01*
X113604Y343075D01*
Y343075D01*
X113604Y343144D01*
X113604Y343144D01*
X113604Y343144D01*
X113605Y343212D01*
X113608Y343236D01*
X113609Y343251D01*
X113609Y343251D01*
X113609Y343251D01*
X113618Y343279D01*
X113621Y343288D01*
X113621Y343288D01*
X113621Y343288D01*
X113630Y343304D01*
X113639Y343322D01*
X113639Y343322D01*
X113639Y343322D01*
X113646Y343330D01*
X113664Y343352D01*
X113664Y343352D01*
X113664Y343352D01*
X113681Y343365D01*
X113694Y343376D01*
X113694Y343376D01*
X113695Y343376D01*
X113724Y343391D01*
X113729Y343394D01*
X113729D01*
X113729Y343394D01*
X113762Y343404D01*
X113766Y343405D01*
X113766D01*
X113766Y343405D01*
X113792Y343407D01*
X113804Y343408D01*
X113805D01*
X113805D01*
X113805D01*
D02*
G37*
G36*
X392717Y25591D02*
X394685Y23622D01*
Y-984D01*
X368110D01*
Y5906D01*
X389764Y27559D01*
X392717Y25591D01*
D02*
G37*
G36*
X104331Y5906D02*
Y-984D01*
X77756D01*
Y23622D01*
X79724Y25591D01*
X82677Y27559D01*
X104331Y5906D01*
D02*
G37*
%LPC*%
G36*
X126726Y345467D02*
X126730Y345459D01*
X126739Y345454D01*
X126739Y345454D01*
X126739Y345454D01*
X126748Y345446D01*
X126769Y345429D01*
X126769Y345429D01*
X126769Y345429D01*
X126772Y345425D01*
X126793Y345398D01*
X126798Y345390D01*
X126807Y345385D01*
X126807Y345385D01*
X126807Y345385D01*
X126821Y345373D01*
X126837Y345360D01*
X126837Y345360D01*
X126837Y345360D01*
X126845Y345349D01*
X126902Y345349D01*
X126941Y345344D01*
X126967Y345336D01*
X126978Y345333D01*
X126978Y345333D01*
D01*
X126981Y345331D01*
X127011Y345315D01*
X127006Y345323D01*
X126997Y345328D01*
X126997Y345328D01*
X126997D01*
X126991Y345333D01*
X126968Y345353D01*
X126968Y345353D01*
X126968Y345353D01*
X126957Y345366D01*
X126943Y345383D01*
X126943Y345383D01*
X126943Y345383D01*
X126939Y345392D01*
X126930Y345397D01*
X126930Y345397D01*
X126930Y345397D01*
X126914Y345410D01*
X126900Y345422D01*
X126900Y345422D01*
X126900Y345422D01*
X126891Y345432D01*
X126834Y345433D01*
X126796Y345437D01*
X126773Y345444D01*
X126759Y345449D01*
X126759Y345449D01*
D01*
X126726Y345467D01*
D02*
G37*
G36*
X127066Y345258D02*
X127071Y345250D01*
X127079Y345246D01*
X127074Y345254D01*
X127066Y345258D01*
D02*
G37*
G36*
X127134Y345189D02*
X127138Y345181D01*
X127147Y345177D01*
X127142Y345185D01*
X127134Y345189D01*
D02*
G37*
G36*
X127202Y345120D02*
X127206Y345112D01*
X127215Y345108D01*
X127210Y345116D01*
X127202Y345120D01*
D02*
G37*
G36*
X127270Y345051D02*
X127274Y345043D01*
X127283Y345038D01*
X127313Y345013D01*
X127313Y345013D01*
X127313Y345013D01*
X127329Y344994D01*
X127337Y344983D01*
X127337Y344983D01*
X127337Y344983D01*
X127342Y344974D01*
X127351Y344969D01*
X127351Y344969D01*
X127351Y344969D01*
X127360Y344961D01*
X127381Y344944D01*
X127381Y344944D01*
X127381Y344944D01*
X127384Y344940D01*
X127390Y344933D01*
X127446Y344933D01*
X127450Y344933D01*
X127444Y344938D01*
X127444Y344938D01*
X127444Y344938D01*
X127419Y344968D01*
X127414Y344977D01*
X127411Y344979D01*
X127405Y344982D01*
X127405Y344982D01*
X127405Y344982D01*
X127386Y344998D01*
X127376Y345007D01*
X127376Y345007D01*
X127376Y345007D01*
X127366Y345019D01*
X127340Y345021D01*
X127303Y345033D01*
X127270Y345051D01*
D02*
G37*
G36*
X127746Y344705D02*
X127751Y344696D01*
X127759Y344692D01*
X127754Y344700D01*
X127746Y344705D01*
D02*
G37*
%LPD*%
D10*
X368558Y441040D02*
G03*
X370292Y438559I2505J-95D01*
G01*
X369672Y443031D02*
G03*
X368558Y441040I1391J-2086D01*
G01*
X373570Y440945D02*
G03*
X369672Y443031I-2507J0D01*
G01*
X370292Y438559D02*
G03*
X371866Y438570I771J2386D01*
G01*
D02*
G03*
X373570Y440945I-803J2375D01*
G01*
X384566Y431271D02*
G03*
X384566Y431271I-2507J0D01*
G01*
D18*
X393701Y400512D02*
G03*
X390165Y409047I-12071J0D01*
G01*
X353929Y445283D02*
G03*
X345394Y448819I-8535J-8535D01*
G01*
X389580Y416336D02*
G03*
X386228Y412984I-1676J-1676D01*
G01*
X389580Y416336D02*
G03*
X393626Y418012I1676J1676D01*
G01*
X362894Y448744D02*
G03*
X361218Y444698I0J-2370D01*
G01*
X357866Y441346D02*
G03*
X361218Y444698I1676J1676D01*
G01*
X393626Y429419D02*
G03*
X374301Y448744I-19325J0D01*
G01*
X98140D02*
G03*
X78815Y429419I0J-19325D01*
G01*
X111223Y444698D02*
G03*
X114575Y441346I1676J-1676D01*
G01*
X111223Y444698D02*
G03*
X109547Y448744I-1676J1676D01*
G01*
X78815Y418012D02*
G03*
X82861Y416336I2370J0D01*
G01*
X86213Y412984D02*
G03*
X82861Y416336I-1676J1676D01*
G01*
X127047Y448819D02*
G03*
X118512Y445283I0J-12071D01*
G01*
X82276Y409047D02*
G03*
X78740Y400512I8535J-8535D01*
G01*
X280256Y341006D02*
G03*
X278845Y337646I-19J-1968D01*
G01*
X279054Y348294D02*
G03*
X280465Y344934I1392J-1392D01*
G01*
X281629Y342378D02*
G03*
X281629Y343770I-696J696D01*
G01*
X283806Y348276D02*
G03*
X280446Y349686I-1968J19D01*
G01*
X280655Y335836D02*
G03*
X284015Y337247I1392J1392D01*
G01*
X284970Y347111D02*
G03*
X286362Y347111I696J696D01*
G01*
X286779Y338620D02*
G03*
X285387Y338620I-696J-696D01*
G01*
X291094Y349895D02*
G03*
X287734Y348484I-1392J-1392D01*
G01*
X287943Y337456D02*
G03*
X291303Y336045I1968J-19D01*
G01*
X290120Y343353D02*
G03*
X290120Y341961I696J-696D01*
G01*
X292695Y337437D02*
G03*
X291285Y340797I-1392J1392D01*
G01*
X291493Y344725D02*
G03*
X292904Y348085I19J1968D01*
G01*
X241142Y363189D02*
G03*
X244094Y360236I2953J0D01*
G01*
X228346D02*
G03*
X231299Y363189I0J2953D01*
G01*
X110807Y2210D02*
G03*
X116142Y0I5335J5335D01*
G01*
X105692Y7325D02*
G03*
X102911Y4544I-1460J-1320D01*
G01*
X95065Y7298D02*
G03*
X97849Y7298I1392J1392D01*
G01*
X102939Y12388D02*
G03*
X102939Y15171I-1392J1392D01*
G01*
X82784Y23718D02*
G03*
X80709Y23622I-989J-1085D01*
G01*
X98425Y-0D02*
G03*
X102032Y1494I0J5101D01*
G01*
X86038Y19109D02*
G03*
X86038Y16325I1392J-1392D01*
G01*
X82784Y23718D02*
G03*
X86518Y27453I1961J1773D01*
G01*
X93912Y24199D02*
G03*
X91128Y24199I-1392J-1392D01*
G01*
X103008Y2469D02*
G03*
X102911Y4544I-1085J989D01*
G01*
X80132Y23045D02*
G03*
X78740Y19685I3360J-3360D01*
G01*
X78740Y37402D02*
G03*
X80275Y33695I5241J0D01*
G01*
X78740Y19685D02*
G03*
X98425Y0I19685J0D01*
G01*
X391491Y32067D02*
G03*
X393701Y37402I-5335J5335D01*
G01*
X386376Y26952D02*
G03*
X389156Y24171I1320J-1460D01*
G01*
X386403Y16325D02*
G03*
X386403Y19108I-1392J1392D01*
G01*
X381313Y24199D02*
G03*
X378529Y24199I-1392J-1392D01*
G01*
X369983Y4043D02*
G03*
X370079Y1969I1085J-989D01*
G01*
X393701Y19685D02*
G03*
X392207Y23292I-5101J0D01*
G01*
X374592Y7298D02*
G03*
X377376Y7298I1392J1392D01*
G01*
X369983Y4043D02*
G03*
X366248Y7778I-1773J1961D01*
G01*
X369502Y15171D02*
G03*
X369502Y12388I1392J-1392D01*
G01*
X391231Y24268D02*
G03*
X389156Y24171I-989J-1085D01*
G01*
X370655Y1392D02*
G03*
X374016Y0I3360J3360D01*
G01*
X356299Y0D02*
G03*
X360005Y1535I0J5241D01*
G01*
X374016Y0D02*
G03*
X393701Y19685I0J19685D01*
G01*
X266811Y448819D02*
G03*
X261811Y443819I0J-5000D01*
G01*
X256811Y360236D02*
G03*
X261811Y365236I0J5000D01*
G01*
X210630D02*
G03*
X215630Y360236I5000J0D01*
G01*
X210630Y443819D02*
G03*
X205630Y448819I-5000J0D01*
G01*
X266811D02*
X345394D01*
X386228Y412984D02*
X390165Y409047D01*
X353929Y445283D02*
X357866Y441346D01*
X362894Y448744D02*
X374301D01*
X393626Y418012D02*
Y429419D01*
X78815Y418012D02*
Y429419D01*
X98140Y448744D02*
X109547D01*
X114575Y441346D02*
X118512Y445283D01*
X82276Y409047D02*
X86213Y412984D01*
X278845Y337646D02*
X279750Y336741D01*
X279124Y348364D02*
X279750Y348990D01*
X280376Y349617D01*
X279750Y336741D02*
X280655Y335836D01*
X280256Y341006D02*
X281629Y342378D01*
X280465Y344934D02*
X281629Y343770D01*
X283806Y348275D02*
X284970Y347111D01*
X284015Y337247D02*
X285387Y338620D01*
X286362Y347111D02*
X287735Y348484D01*
X286779Y338620D02*
X287943Y337456D01*
X290120Y341961D02*
X291284Y340797D01*
X290120Y343353D02*
X291493Y344726D01*
X291094Y349895D02*
X291999Y348990D01*
X291373Y336115D02*
X291999Y336741D01*
X292625Y337368D01*
X291999Y348990D02*
X292904Y348085D01*
X231299Y371063D02*
X241142D01*
X244094Y360236D02*
X256890D01*
X241142Y363189D02*
Y371063D01*
X231299Y363189D02*
Y371063D01*
X215630Y360236D02*
X228346D01*
X102032Y1494D02*
X103008Y2469D01*
X80132Y23045D02*
X80709Y23622D01*
X105692Y7325D02*
X110807Y2210D01*
X97849Y7298D02*
X102939Y12388D01*
X86029Y16333D02*
X95065Y7298D01*
X80275Y33695D02*
X86518Y27453D01*
X86029Y19100D02*
X91137Y24207D01*
X93903Y24207D02*
X102939Y15171D01*
X391231Y24268D02*
X392207Y23292D01*
X370079Y1969D02*
X370655Y1392D01*
X386376Y26952D02*
X391491Y32067D01*
X381313Y24199D02*
X386403Y19108D01*
X377367Y7289D02*
X386403Y16325D01*
X360005Y1535D02*
X366248Y7778D01*
X369493Y12397D02*
X374601Y7289D01*
X369493Y15163D02*
X378529Y24199D01*
X127047Y448819D02*
X204724Y448819D01*
X261811Y365236D02*
Y443819D01*
X210630Y365236D02*
Y366142D01*
Y443819D01*
X204724Y448819D02*
X205630D01*
X116142Y0D02*
X356299Y0D01*
X393701Y400512D02*
X393701Y37402D01*
X78740Y400512D02*
X78740Y37402D01*
D23*
X86038Y19108D02*
G03*
X86038Y16325I1392J-1392D01*
G01*
X93912Y24198D02*
G03*
X91128Y24198I-1392J-1392D01*
G01*
X95065Y7297D02*
G03*
X97849Y7297I1392J1392D01*
G01*
X102939Y12387D02*
G03*
X102939Y15171I-1392J1392D01*
G01*
X369502D02*
G03*
X369502Y12387I1392J-1392D01*
G01*
X374592Y7297D02*
G03*
X377376Y7297I1392J1392D01*
G01*
X381313Y24198D02*
G03*
X378529Y24198I-1392J-1392D01*
G01*
X386403Y16325D02*
G03*
X386403Y19108I-1392J1392D01*
G01*
X86038Y19108D02*
X91128Y24198D01*
X86038Y16325D02*
X95074Y7288D01*
X97840D02*
X102948Y12396D01*
X93912Y24198D02*
X102948Y15163D01*
X369493D02*
X378529Y24198D01*
X369493Y12396D02*
X374601Y7288D01*
X377367D02*
X386403Y16325D01*
X381313Y24198D02*
X386403Y19108D01*
D25*
X271614Y376142D02*
D03*
Y396142D02*
D03*
X200827Y376142D02*
D03*
Y386142D02*
D03*
Y396142D02*
D03*
Y406142D02*
D03*
Y416142D02*
D03*
Y426142D02*
D03*
Y436142D02*
D03*
X271614Y406142D02*
D03*
Y386142D02*
D03*
D26*
X271220Y436142D02*
D03*
Y426142D02*
D03*
Y416142D02*
D03*
D27*
X236221Y366142D02*
D03*
D28*
X134016Y311339D02*
D03*
X358425D02*
D03*
D29*
X109016Y301339D02*
D03*
Y76929D02*
D03*
X134016Y86929D02*
D03*
X183819Y76929D02*
D03*
X208819Y86929D02*
D03*
X109016Y151732D02*
D03*
X134016Y161732D02*
D03*
X109016Y226535D02*
D03*
X134016Y236535D02*
D03*
X183819Y151732D02*
D03*
X208819Y161732D02*
D03*
X258622Y76929D02*
D03*
X283622Y86929D02*
D03*
X183819Y226535D02*
D03*
X208819Y236535D02*
D03*
X258622Y151732D02*
D03*
X283622Y161732D02*
D03*
X258622Y226535D02*
D03*
X283622Y236535D02*
D03*
X183819Y301339D02*
D03*
X208819Y311339D02*
D03*
X258622Y301181D02*
D03*
X283622Y311181D02*
D03*
X333425Y76929D02*
D03*
X358425Y86929D02*
D03*
X333425Y151732D02*
D03*
X358425Y161732D02*
D03*
X333425Y226535D02*
D03*
X358425Y236535D02*
D03*
X333425Y301339D02*
D03*
D30*
X124016Y291339D02*
D03*
Y66929D02*
D03*
D03*
X198819D02*
D03*
D03*
X124016Y141732D02*
D03*
Y216535D02*
D03*
Y141732D02*
D03*
Y216535D02*
D03*
X198819D02*
D03*
Y141732D02*
D03*
Y141732D02*
D03*
X273622Y66929D02*
D03*
X273622D02*
D03*
X198819Y216535D02*
D03*
X273622Y141732D02*
D03*
Y216535D02*
D03*
D03*
X273622Y141732D02*
D03*
X198819Y291339D02*
D03*
X124016Y291339D02*
D03*
X198819Y291339D02*
D03*
X273622D02*
D03*
Y291181D02*
D03*
X348425Y66929D02*
D03*
D03*
Y141732D02*
D03*
D03*
Y216535D02*
D03*
D03*
Y291339D02*
D03*
Y291339D02*
D03*
D31*
X104016D02*
D03*
X144016D02*
D03*
Y66929D02*
D03*
X104016D02*
D03*
X144016D02*
D03*
X104016D02*
D03*
X218819D02*
D03*
X178819D02*
D03*
D03*
X218819D02*
D03*
X144016Y141732D02*
D03*
X104016D02*
D03*
X144016Y216535D02*
D03*
X104016D02*
D03*
X144016Y141732D02*
D03*
X104016D02*
D03*
X144016Y216535D02*
D03*
X104016D02*
D03*
X178819D02*
D03*
X218819D02*
D03*
Y141732D02*
D03*
X178819D02*
D03*
Y141732D02*
D03*
X218819D02*
D03*
X293622Y66929D02*
D03*
X253622D02*
D03*
X293622D02*
D03*
X253622D02*
D03*
X218819Y216535D02*
D03*
X178819D02*
D03*
X293622Y141732D02*
D03*
X253622D02*
D03*
X293622Y216535D02*
D03*
X253622D02*
D03*
X293622D02*
D03*
X253622D02*
D03*
X293622Y141732D02*
D03*
X253622D02*
D03*
X218819Y291339D02*
D03*
X178819D02*
D03*
X144016Y291339D02*
D03*
X104016D02*
D03*
X218819Y291339D02*
D03*
X178819D02*
D03*
X253622D02*
D03*
X293622D02*
D03*
Y291181D02*
D03*
X253622D02*
D03*
X368425Y66929D02*
D03*
X328425D02*
D03*
D03*
X368425D02*
D03*
X328425Y141732D02*
D03*
X368425D02*
D03*
D03*
X328425D02*
D03*
X368425Y216535D02*
D03*
X328425D02*
D03*
D03*
X368425D02*
D03*
X328425Y291339D02*
D03*
X368425D02*
D03*
X328425Y291339D02*
D03*
X368425D02*
D03*
D32*
X105350Y437442D02*
D03*
X90117Y422209D02*
D03*
D33*
X381339Y421225D02*
D03*
X366107Y436457D02*
D03*
D34*
X307480Y104331D02*
D03*
X321654D02*
D03*
X300394D02*
D03*
X232677D02*
D03*
X246850D02*
D03*
X225590D02*
D03*
X157874D02*
D03*
X172047D02*
D03*
X150787D02*
D03*
X307480Y179134D02*
D03*
X321654D02*
D03*
X300394D02*
D03*
X232677D02*
D03*
X246850D02*
D03*
X225590D02*
D03*
X157874D02*
D03*
X172047D02*
D03*
X150787D02*
D03*
X307480Y253937D02*
D03*
X321654D02*
D03*
X300394D02*
D03*
X232677D02*
D03*
X246850D02*
D03*
X225590D02*
D03*
X157874D02*
D03*
X172047D02*
D03*
X150787D02*
D03*
D35*
X314567Y104331D02*
D03*
X239764D02*
D03*
X164961D02*
D03*
X314567Y179134D02*
D03*
X239764D02*
D03*
X164961D02*
D03*
X314567Y253937D02*
D03*
X239764D02*
D03*
X164961D02*
D03*
D36*
X373723Y428841D02*
D03*
D37*
X98718D02*
D03*
D38*
X114016Y104331D02*
D03*
Y179134D02*
D03*
Y253937D02*
D03*
D39*
X134016Y104331D02*
D03*
X134016Y179134D02*
D03*
Y253937D02*
D03*
D40*
X149338Y405244D02*
D03*
X168826Y424731D02*
D03*
X136811Y375000D02*
D03*
Y347441D02*
D03*
X119095Y392717D02*
D03*
X91535Y392717D02*
D03*
X124284Y405244D02*
D03*
X104796Y424731D02*
D03*
X323102Y380189D02*
D03*
X303615Y360702D02*
D03*
X323102Y405244D02*
D03*
X303615Y424731D02*
D03*
X348157Y405244D02*
D03*
X367645Y424731D02*
D03*
X367645Y360702D02*
D03*
X348157Y380189D02*
D03*
X335630Y410433D02*
D03*
X335630Y437992D02*
D03*
X335630Y347441D02*
D03*
Y375000D02*
D03*
X290354Y392717D02*
D03*
X317913D02*
D03*
X104796Y360702D02*
D03*
X124284Y380189D02*
D03*
X168826Y360702D02*
D03*
X149338Y380189D02*
D03*
X182087Y392717D02*
D03*
X154528Y392717D02*
D03*
X136811Y437992D02*
D03*
X136811Y410433D02*
D03*
X380906Y392717D02*
D03*
X353346D02*
D03*
D41*
X114016Y46929D02*
D03*
X139016Y56929D02*
D03*
X213819D02*
D03*
X188819Y46929D02*
D03*
X114016Y196535D02*
D03*
X139016Y206535D02*
D03*
X114016Y121732D02*
D03*
X139016Y131732D02*
D03*
X213819Y206535D02*
D03*
X188819Y196535D02*
D03*
X213819Y131732D02*
D03*
X188819Y121732D02*
D03*
X263622Y46929D02*
D03*
X288622Y56929D02*
D03*
X263622Y196535D02*
D03*
X288622Y206535D02*
D03*
X263622Y121732D02*
D03*
X288622Y131732D02*
D03*
X188819Y271339D02*
D03*
X213819Y281339D02*
D03*
X139016Y281339D02*
D03*
X288622Y281339D02*
D03*
X263622Y271339D02*
D03*
X363425Y56929D02*
D03*
X338425Y46929D02*
D03*
X363425Y131732D02*
D03*
X338425Y121732D02*
D03*
X363425Y206535D02*
D03*
X338425Y196535D02*
D03*
X363425Y281339D02*
D03*
X338425Y271339D02*
D03*
D42*
X151575Y301181D02*
D03*
D43*
Y281496D02*
D03*
X94488Y291339D02*
D03*
Y281496D02*
D03*
Y301181D02*
D03*
D44*
X124016Y313779D02*
D03*
D45*
X120079Y268898D02*
D03*
D46*
X114016Y271339D02*
D03*
D47*
X131936Y312529D02*
D03*
D48*
X281968Y426142D02*
D03*
Y436142D02*
D03*
Y416142D02*
D03*
Y406142D02*
D03*
Y396142D02*
D03*
Y386142D02*
D03*
X190472Y426142D02*
D03*
Y436142D02*
D03*
Y416142D02*
D03*
Y406142D02*
D03*
Y396142D02*
D03*
Y386142D02*
D03*
X266220D02*
D03*
Y396142D02*
D03*
Y406142D02*
D03*
Y416142D02*
D03*
Y436142D02*
D03*
Y426142D02*
D03*
X206221Y386142D02*
D03*
Y396142D02*
D03*
Y406142D02*
D03*
X206221Y416142D02*
D03*
X206221Y436142D02*
D03*
X206221Y426142D02*
D03*
D49*
X281968Y376142D02*
D03*
X190472D02*
D03*
X266220D02*
D03*
X206221D02*
D03*
D50*
X136811Y392717D02*
D03*
X335630D02*
D03*
X311024Y24606D02*
D03*
X161417D02*
D03*
D51*
X236221Y360236D02*
D03*
D77*
X100039Y46929D02*
D03*
X152992Y56929D02*
D03*
X227795D02*
D03*
X174843Y46929D02*
D03*
X100039Y196535D02*
D03*
X152992Y206535D02*
D03*
X100039Y121732D02*
D03*
X152992Y131732D02*
D03*
X227795Y206535D02*
D03*
X174843Y196535D02*
D03*
X227795Y131732D02*
D03*
X174843Y121732D02*
D03*
X249646Y46929D02*
D03*
X302598Y56929D02*
D03*
X249646Y196535D02*
D03*
X302598Y206535D02*
D03*
X249646Y121732D02*
D03*
X302598Y131732D02*
D03*
X174843Y271339D02*
D03*
X227795Y281339D02*
D03*
X100039Y271339D02*
D03*
X152992Y281339D02*
D03*
X302598Y281339D02*
D03*
X249646Y271339D02*
D03*
X377402Y56929D02*
D03*
X324449Y46929D02*
D03*
X377402Y131732D02*
D03*
X324449Y121732D02*
D03*
X377402Y206535D02*
D03*
X324449Y196535D02*
D03*
X377402Y281339D02*
D03*
X324449Y271339D02*
D03*
D78*
X375000Y375000D02*
D03*
X379921Y365158D02*
D03*
Y376969D02*
D03*
X163386Y403543D02*
D03*
X165354Y389764D02*
D03*
X161417Y386142D02*
D03*
X263779Y104331D02*
D03*
M02*
