G04*
G04 #@! TF.GenerationSoftware,Altium Limited,Altium Designer,24.7.2 (38)*
G04*
G04 Layer_Color=128*
%FSLAX25Y25*%
%MOIN*%
G70*
G04*
G04 #@! TF.SameCoordinates,4FB6B1DA-FF44-45C5-9F46-3DC55F4CF08E*
G04*
G04*
G04 #@! TF.FilePolarity,Positive*
G04*
G01*
G75*
%ADD18C,0.00394*%
%ADD81C,0.00200*%
D18*
X393701Y400512D02*
G03*
X390165Y409047I-12071J0D01*
G01*
X353929Y445283D02*
G03*
X345394Y448819I-8535J-8535D01*
G01*
X389580Y416336D02*
G03*
X386228Y412984I-1676J-1676D01*
G01*
X389580Y416336D02*
G03*
X393626Y418012I1676J1676D01*
G01*
X362894Y448744D02*
G03*
X361218Y444698I0J-2370D01*
G01*
X357866Y441346D02*
G03*
X361218Y444698I1676J1676D01*
G01*
X393626Y429419D02*
G03*
X374301Y448744I-19325J0D01*
G01*
X98140D02*
G03*
X78815Y429419I0J-19325D01*
G01*
X111223Y444698D02*
G03*
X114575Y441346I1676J-1676D01*
G01*
X111223Y444698D02*
G03*
X109547Y448744I-1676J1676D01*
G01*
X78815Y418012D02*
G03*
X82861Y416336I2370J0D01*
G01*
X86213Y412984D02*
G03*
X82861Y416336I-1676J1676D01*
G01*
X127047Y448819D02*
G03*
X118512Y445283I0J-12071D01*
G01*
X82276Y409047D02*
G03*
X78740Y400512I8535J-8535D01*
G01*
X280256Y341006D02*
G03*
X278845Y337646I-19J-1968D01*
G01*
X279054Y348294D02*
G03*
X280465Y344934I1392J-1392D01*
G01*
X281629Y342378D02*
G03*
X281629Y343770I-696J696D01*
G01*
X283806Y348276D02*
G03*
X280446Y349686I-1968J19D01*
G01*
X280655Y335836D02*
G03*
X284015Y337247I1392J1392D01*
G01*
X284970Y347111D02*
G03*
X286362Y347111I696J696D01*
G01*
X286779Y338620D02*
G03*
X285387Y338620I-696J-696D01*
G01*
X291094Y349895D02*
G03*
X287734Y348484I-1392J-1392D01*
G01*
X287943Y337456D02*
G03*
X291303Y336045I1968J-19D01*
G01*
X290120Y343353D02*
G03*
X290120Y341961I696J-696D01*
G01*
X292695Y337437D02*
G03*
X291285Y340797I-1392J1392D01*
G01*
X291493Y344725D02*
G03*
X292904Y348085I19J1968D01*
G01*
X241142Y363189D02*
G03*
X244094Y360236I2953J0D01*
G01*
X228346D02*
G03*
X231299Y363189I0J2953D01*
G01*
X110807Y2210D02*
G03*
X116142Y0I5335J5335D01*
G01*
X105692Y7325D02*
G03*
X102911Y4544I-1460J-1320D01*
G01*
X95065Y7298D02*
G03*
X97849Y7298I1392J1392D01*
G01*
X102939Y12388D02*
G03*
X102939Y15171I-1392J1392D01*
G01*
X82784Y23718D02*
G03*
X80709Y23622I-989J-1085D01*
G01*
X98425Y-0D02*
G03*
X102032Y1494I0J5101D01*
G01*
X86038Y19109D02*
G03*
X86038Y16325I1392J-1392D01*
G01*
X82784Y23718D02*
G03*
X86518Y27453I1961J1773D01*
G01*
X93912Y24199D02*
G03*
X91128Y24199I-1392J-1392D01*
G01*
X103008Y2469D02*
G03*
X102911Y4544I-1085J989D01*
G01*
X80132Y23045D02*
G03*
X78740Y19685I3360J-3360D01*
G01*
X78740Y37402D02*
G03*
X80275Y33695I5241J0D01*
G01*
X78740Y19685D02*
G03*
X98425Y0I19685J0D01*
G01*
X391491Y32067D02*
G03*
X393701Y37402I-5335J5335D01*
G01*
X386376Y26952D02*
G03*
X389156Y24171I1320J-1460D01*
G01*
X386403Y16325D02*
G03*
X386403Y19108I-1392J1392D01*
G01*
X381313Y24199D02*
G03*
X378529Y24199I-1392J-1392D01*
G01*
X369983Y4043D02*
G03*
X370079Y1969I1085J-989D01*
G01*
X393701Y19685D02*
G03*
X392207Y23292I-5101J0D01*
G01*
X374592Y7298D02*
G03*
X377376Y7298I1392J1392D01*
G01*
X369983Y4043D02*
G03*
X366248Y7778I-1773J1961D01*
G01*
X369502Y15171D02*
G03*
X369502Y12388I1392J-1392D01*
G01*
X391231Y24268D02*
G03*
X389156Y24171I-989J-1085D01*
G01*
X370655Y1392D02*
G03*
X374016Y0I3360J3360D01*
G01*
X356299Y0D02*
G03*
X360005Y1535I0J5241D01*
G01*
X374016Y0D02*
G03*
X393701Y19685I0J19685D01*
G01*
X266811Y448819D02*
G03*
X261811Y443819I0J-5000D01*
G01*
X256811Y360236D02*
G03*
X261811Y365236I0J5000D01*
G01*
X210630D02*
G03*
X215630Y360236I5000J0D01*
G01*
X210630Y443819D02*
G03*
X205630Y448819I-5000J0D01*
G01*
X266811D02*
X345394D01*
X386228Y412984D02*
X390165Y409047D01*
X353929Y445283D02*
X357866Y441346D01*
X362894Y448744D02*
X374301D01*
X393626Y418012D02*
Y429419D01*
X78815Y418012D02*
Y429419D01*
X98140Y448744D02*
X109547D01*
X114575Y441346D02*
X118512Y445283D01*
X82276Y409047D02*
X86213Y412984D01*
X278845Y337646D02*
X279750Y336741D01*
X279124Y348364D02*
X279750Y348990D01*
X280376Y349617D01*
X279750Y336741D02*
X280655Y335836D01*
X280256Y341006D02*
X281629Y342378D01*
X280465Y344934D02*
X281629Y343770D01*
X283806Y348275D02*
X284970Y347111D01*
X284015Y337247D02*
X285387Y338620D01*
X286362Y347111D02*
X287735Y348484D01*
X286779Y338620D02*
X287943Y337456D01*
X290120Y341961D02*
X291284Y340797D01*
X290120Y343353D02*
X291493Y344726D01*
X291094Y349895D02*
X291999Y348990D01*
X291373Y336115D02*
X291999Y336741D01*
X292625Y337368D01*
X291999Y348990D02*
X292904Y348085D01*
X231299Y371063D02*
X241142D01*
X244094Y360236D02*
X256890D01*
X241142Y363189D02*
Y371063D01*
X231299Y363189D02*
Y371063D01*
X215630Y360236D02*
X228346D01*
X102032Y1494D02*
X103008Y2469D01*
X80132Y23045D02*
X80709Y23622D01*
X105692Y7325D02*
X110807Y2210D01*
X97849Y7298D02*
X102939Y12388D01*
X86029Y16333D02*
X95065Y7298D01*
X80275Y33695D02*
X86518Y27453D01*
X86029Y19100D02*
X91137Y24207D01*
X93903Y24207D02*
X102939Y15171D01*
X391231Y24268D02*
X392207Y23292D01*
X370079Y1969D02*
X370655Y1392D01*
X386376Y26952D02*
X391491Y32067D01*
X381313Y24199D02*
X386403Y19108D01*
X377367Y7289D02*
X386403Y16325D01*
X360005Y1535D02*
X366248Y7778D01*
X369493Y12397D02*
X374601Y7289D01*
X369493Y15163D02*
X378529Y24199D01*
X127047Y448819D02*
X204724Y448819D01*
X261811Y365236D02*
Y443819D01*
X210630Y365236D02*
Y366142D01*
Y443819D01*
X204724Y448819D02*
X205630D01*
X116142Y0D02*
X356299Y0D01*
X393701Y400512D02*
X393701Y37402D01*
X78740Y400512D02*
X78740Y37402D01*
D81*
X131066Y311339D02*
X136966D01*
X134016Y308389D02*
Y314289D01*
X106066Y301339D02*
X111966D01*
X109016Y298389D02*
Y304289D01*
X115416Y291339D02*
X132616D01*
X124016Y282739D02*
Y299939D01*
X100166Y291339D02*
X107866D01*
X104016Y287489D02*
Y295189D01*
X140166Y291339D02*
X147866D01*
X144016Y287489D02*
Y295189D01*
X102988Y437442D02*
X107712D01*
X105350Y435079D02*
Y439804D01*
X379371Y421225D02*
X383308D01*
X381339Y419256D02*
Y423194D01*
X364139Y436457D02*
X368075D01*
X366107Y434489D02*
Y438426D01*
X306102Y104331D02*
X308858D01*
X307480Y102953D02*
Y105709D01*
X320276Y104331D02*
X323031D01*
X321654Y102953D02*
Y105709D01*
X299016Y104331D02*
X301772D01*
X300394Y102953D02*
Y105709D01*
X313189Y104331D02*
X315945D01*
X314567Y102953D02*
Y105709D01*
X231299Y104331D02*
X234055D01*
X232677Y102953D02*
Y105709D01*
X245472Y104331D02*
X248228D01*
X246850Y102953D02*
Y105709D01*
X224213Y104331D02*
X226969D01*
X225590Y102953D02*
Y105709D01*
X238386Y104331D02*
X241142D01*
X239764Y102953D02*
Y105709D01*
X156496Y104331D02*
X159252D01*
X157874Y102953D02*
Y105709D01*
X170669Y104331D02*
X173425D01*
X172047Y102953D02*
Y105709D01*
X149409Y104331D02*
X152165D01*
X150787Y102953D02*
Y105709D01*
X163583Y104331D02*
X166339D01*
X164961Y102953D02*
Y105709D01*
X306102Y179134D02*
X308858D01*
X307480Y177756D02*
Y180512D01*
X320276Y179134D02*
X323031D01*
X321654Y177756D02*
Y180512D01*
X299016Y179134D02*
X301772D01*
X300394Y177756D02*
Y180512D01*
X313189Y179134D02*
X315945D01*
X314567Y177756D02*
Y180512D01*
X231299Y179134D02*
X234055D01*
X232677Y177756D02*
Y180512D01*
X245472Y179134D02*
X248228D01*
X246850Y177756D02*
Y180512D01*
X224213Y179134D02*
X226969D01*
X225590Y177756D02*
Y180512D01*
X238386Y179134D02*
X241142D01*
X239764Y177756D02*
Y180512D01*
X156496Y179134D02*
X159252D01*
X157874Y177756D02*
Y180512D01*
X170669Y179134D02*
X173425D01*
X172047Y177756D02*
Y180512D01*
X149409Y179134D02*
X152165D01*
X150787Y177756D02*
Y180512D01*
X163583Y179134D02*
X166339D01*
X164961Y177756D02*
Y180512D01*
X306102Y253937D02*
X308858D01*
X307480Y252559D02*
Y255315D01*
X320276Y253937D02*
X323031D01*
X321654Y252559D02*
Y255315D01*
X299016Y253937D02*
X301772D01*
X300394Y252559D02*
Y255315D01*
X313189Y253937D02*
X315945D01*
X314567Y252559D02*
Y255315D01*
X231299Y253937D02*
X234055D01*
X232677Y252559D02*
Y255315D01*
X245472Y253937D02*
X248228D01*
X246850Y252559D02*
Y255315D01*
X224213Y253937D02*
X226969D01*
X225590Y252559D02*
Y255315D01*
X238386Y253937D02*
X241142D01*
X239764Y252559D02*
Y255315D01*
X156496Y253937D02*
X159252D01*
X157874Y252559D02*
Y255315D01*
X170669Y253937D02*
X173425D01*
X172047Y252559D02*
Y255315D01*
X149409Y253937D02*
X152165D01*
X150787Y252559D02*
Y255315D01*
X163583Y253937D02*
X166339D01*
X164961Y252559D02*
Y255315D01*
X371755Y428841D02*
X375692D01*
X373723Y426873D02*
Y430810D01*
X96749Y428841D02*
X100686D01*
X98718Y426873D02*
Y430810D01*
X87755Y422209D02*
X92480D01*
X90117Y419847D02*
Y424572D01*
X112736Y104331D02*
X115295D01*
X114016Y103051D02*
Y105610D01*
X132736Y104331D02*
X135295D01*
X134016Y103051D02*
Y105610D01*
X112736Y179134D02*
X115295D01*
X114016Y177854D02*
Y180413D01*
X132736Y179134D02*
X135295D01*
X134016Y177854D02*
Y180413D01*
X112736Y253937D02*
X115295D01*
X114016Y252658D02*
Y255217D01*
X132736Y253937D02*
X135295D01*
X134016Y252658D02*
Y255217D01*
X147665Y405244D02*
X151012D01*
X149338Y403571D02*
Y406917D01*
X167152Y424731D02*
X170499D01*
X168826Y423058D02*
Y426404D01*
X135138Y375000D02*
X138484D01*
X136811Y373327D02*
Y376673D01*
X135138Y347441D02*
X138484D01*
X136811Y345768D02*
Y349114D01*
X117421Y392717D02*
X120768D01*
X119095Y391043D02*
Y394390D01*
X89862Y392717D02*
X93209D01*
X91535Y391043D02*
Y394390D01*
X122610Y405244D02*
X125957D01*
X124284Y403571D02*
Y406917D01*
X103123Y424731D02*
X106470D01*
X104796Y423058D02*
Y426404D01*
X321429Y380189D02*
X324776D01*
X323102Y378516D02*
Y381862D01*
X301942Y360702D02*
X305289D01*
X303615Y359029D02*
Y362375D01*
X321429Y405244D02*
X324776D01*
X323102Y403571D02*
Y406917D01*
X301942Y424731D02*
X305289D01*
X303615Y423058D02*
Y426404D01*
X346484Y405244D02*
X349831D01*
X348157Y403571D02*
Y406917D01*
X365971Y424731D02*
X369318D01*
X367645Y423058D02*
Y426404D01*
X365971Y360702D02*
X369318D01*
X367645Y359029D02*
Y362375D01*
X346484Y380189D02*
X349831D01*
X348157Y378516D02*
Y381862D01*
X115416Y66929D02*
X132616D01*
X124016Y58329D02*
Y75529D01*
X140166Y66929D02*
X147866D01*
X144016Y63079D02*
Y70779D01*
X100166Y66929D02*
X107866D01*
X104016Y63079D02*
Y70779D01*
X108110Y46929D02*
X119921D01*
X114016Y41024D02*
Y52835D01*
X133110Y56929D02*
X144921D01*
X139016Y51024D02*
Y62835D01*
X140166Y66929D02*
X147866D01*
X144016Y63079D02*
Y70779D01*
X100166Y66929D02*
X107866D01*
X104016Y63079D02*
Y70779D01*
X115416Y66929D02*
X132616D01*
X124016Y58329D02*
Y75529D01*
X106066Y76929D02*
X111966D01*
X109016Y73979D02*
Y79879D01*
X131066Y86929D02*
X136966D01*
X134016Y83979D02*
Y89879D01*
X214969Y66929D02*
X222669D01*
X218819Y63079D02*
Y70779D01*
X174969Y66929D02*
X182669D01*
X178819Y63079D02*
Y70779D01*
X190219Y66929D02*
X207419D01*
X198819Y58329D02*
Y75529D01*
X180869Y76929D02*
X186769D01*
X183819Y73979D02*
Y79879D01*
X205869Y86929D02*
X211769D01*
X208819Y83979D02*
Y89879D01*
X207913Y56929D02*
X219724D01*
X213819Y51024D02*
Y62835D01*
X182913Y46929D02*
X194724D01*
X188819Y41024D02*
Y52835D01*
X174969Y66929D02*
X182669D01*
X178819Y63079D02*
Y70779D01*
X214969Y66929D02*
X222669D01*
X218819Y63079D02*
Y70779D01*
X190219Y66929D02*
X207419D01*
X198819Y58329D02*
Y75529D01*
X140166Y141732D02*
X147866D01*
X144016Y137882D02*
Y145582D01*
X100166Y141732D02*
X107866D01*
X104016Y137882D02*
Y145582D01*
X115416Y141732D02*
X132616D01*
X124016Y133132D02*
Y150332D01*
X106066Y151732D02*
X111966D01*
X109016Y148782D02*
Y154682D01*
X131066Y161732D02*
X136966D01*
X134016Y158782D02*
Y164682D01*
X115416Y216535D02*
X132616D01*
X124016Y207935D02*
Y225135D01*
X140166Y216535D02*
X147866D01*
X144016Y212685D02*
Y220385D01*
X100166Y216535D02*
X107866D01*
X104016Y212685D02*
Y220385D01*
X108110Y196535D02*
X119921D01*
X114016Y190630D02*
Y202441D01*
X133110Y206535D02*
X144921D01*
X139016Y200630D02*
Y212441D01*
X115416Y141732D02*
X132616D01*
X124016Y133132D02*
Y150332D01*
X140166Y141732D02*
X147866D01*
X144016Y137882D02*
Y145582D01*
X100166Y141732D02*
X107866D01*
X104016Y137882D02*
Y145582D01*
X108110Y121732D02*
X119921D01*
X114016Y115827D02*
Y127638D01*
X133110Y131732D02*
X144921D01*
X139016Y125827D02*
Y137638D01*
X140166Y216535D02*
X147866D01*
X144016Y212685D02*
Y220385D01*
X100166Y216535D02*
X107866D01*
X104016Y212685D02*
Y220385D01*
X115416Y216535D02*
X132616D01*
X124016Y207935D02*
Y225135D01*
X106066Y226535D02*
X111966D01*
X109016Y223585D02*
Y229485D01*
X131066Y236535D02*
X136966D01*
X134016Y233585D02*
Y239485D01*
X207913Y206535D02*
X219724D01*
X213819Y200630D02*
Y212441D01*
X182913Y196535D02*
X194724D01*
X188819Y190630D02*
Y202441D01*
X174969Y216535D02*
X182669D01*
X178819Y212685D02*
Y220385D01*
X214969Y216535D02*
X222669D01*
X218819Y212685D02*
Y220385D01*
X190219Y216535D02*
X207419D01*
X198819Y207935D02*
Y225135D01*
X214969Y141732D02*
X222669D01*
X218819Y137882D02*
Y145582D01*
X174969Y141732D02*
X182669D01*
X178819Y137882D02*
Y145582D01*
X190219Y141732D02*
X207419D01*
X198819Y133132D02*
Y150332D01*
X180869Y151732D02*
X186769D01*
X183819Y148782D02*
Y154682D01*
X205869Y161732D02*
X211769D01*
X208819Y158782D02*
Y164682D01*
X207913Y131732D02*
X219724D01*
X213819Y125827D02*
Y137638D01*
X182913Y121732D02*
X194724D01*
X188819Y115827D02*
Y127638D01*
X174969Y141732D02*
X182669D01*
X178819Y137882D02*
Y145582D01*
X214969Y141732D02*
X222669D01*
X218819Y137882D02*
Y145582D01*
X190219Y141732D02*
X207419D01*
X198819Y133132D02*
Y150332D01*
X265022Y66929D02*
X282222D01*
X273622Y58329D02*
Y75529D01*
X289772Y66929D02*
X297472D01*
X293622Y63079D02*
Y70779D01*
X249772Y66929D02*
X257472D01*
X253622Y63079D02*
Y70779D01*
X257717Y46929D02*
X269528D01*
X263622Y41024D02*
Y52835D01*
X282717Y56929D02*
X294528D01*
X288622Y51024D02*
Y62835D01*
X289772Y66929D02*
X297472D01*
X293622Y63079D02*
Y70779D01*
X249772Y66929D02*
X257472D01*
X253622Y63079D02*
Y70779D01*
X265022Y66929D02*
X282222D01*
X273622Y58329D02*
Y75529D01*
X255672Y76929D02*
X261572D01*
X258622Y73979D02*
Y79879D01*
X280672Y86929D02*
X286572D01*
X283622Y83979D02*
Y89879D01*
X214969Y216535D02*
X222669D01*
X218819Y212685D02*
Y220385D01*
X174969Y216535D02*
X182669D01*
X178819Y212685D02*
Y220385D01*
X190219Y216535D02*
X207419D01*
X198819Y207935D02*
Y225135D01*
X180869Y226535D02*
X186769D01*
X183819Y223585D02*
Y229485D01*
X205869Y236535D02*
X211769D01*
X208819Y233585D02*
Y239485D01*
X289772Y141732D02*
X297472D01*
X293622Y137882D02*
Y145582D01*
X249772Y141732D02*
X257472D01*
X253622Y137882D02*
Y145582D01*
X265022Y141732D02*
X282222D01*
X273622Y133132D02*
Y150332D01*
X255672Y151732D02*
X261572D01*
X258622Y148782D02*
Y154682D01*
X280672Y161732D02*
X286572D01*
X283622Y158782D02*
Y164682D01*
X265022Y216535D02*
X282222D01*
X273622Y207935D02*
Y225135D01*
X289772Y216535D02*
X297472D01*
X293622Y212685D02*
Y220385D01*
X249772Y216535D02*
X257472D01*
X253622Y212685D02*
Y220385D01*
X257716Y196535D02*
X269528D01*
X263622Y190630D02*
Y202441D01*
X282716Y206535D02*
X294528D01*
X288622Y200630D02*
Y212441D01*
X289772Y216535D02*
X297472D01*
X293622Y212685D02*
Y220385D01*
X249772Y216535D02*
X257472D01*
X253622Y212685D02*
Y220385D01*
X265022Y216535D02*
X282222D01*
X273622Y207935D02*
Y225135D01*
X255672Y226535D02*
X261572D01*
X258622Y223585D02*
Y229485D01*
X280672Y236535D02*
X286572D01*
X283622Y233585D02*
Y239485D01*
X265022Y141732D02*
X282222D01*
X273622Y133132D02*
Y150332D01*
X289772Y141732D02*
X297472D01*
X293622Y137882D02*
Y145582D01*
X249772Y141732D02*
X257472D01*
X253622Y137882D02*
Y145582D01*
X257717Y121732D02*
X269528D01*
X263622Y115827D02*
Y127638D01*
X282717Y131732D02*
X294528D01*
X288622Y125827D02*
Y137638D01*
X149606Y301181D02*
X153543D01*
X151575Y299213D02*
Y303150D01*
X149606Y281496D02*
X153543D01*
X151575Y279528D02*
Y283465D01*
X92520Y291339D02*
X96457D01*
X94488Y289370D02*
Y293307D01*
X92520Y281496D02*
X96457D01*
X94488Y279528D02*
Y283465D01*
X92520Y301181D02*
X96457D01*
X94488Y299213D02*
Y303150D01*
X120473Y313779D02*
X127559D01*
X124016Y310236D02*
Y317323D01*
X116535Y268898D02*
X123622D01*
X120079Y265354D02*
Y272441D01*
X190219Y291339D02*
X207419D01*
X198819Y282739D02*
Y299939D01*
X214969Y291339D02*
X222669D01*
X218819Y287489D02*
Y295189D01*
X174969Y291339D02*
X182669D01*
X178819Y287489D02*
Y295189D01*
X182913Y271339D02*
X194724D01*
X188819Y265433D02*
Y277244D01*
X207913Y281339D02*
X219724D01*
X213819Y275433D02*
Y287244D01*
X115416Y291339D02*
X132616D01*
X124016Y282739D02*
Y299939D01*
X140166Y291339D02*
X147866D01*
X144016Y287489D02*
Y295189D01*
X100166Y291339D02*
X107866D01*
X104016Y287489D02*
Y295189D01*
X108110Y271339D02*
X119921D01*
X114016Y265433D02*
Y277244D01*
X133110Y281339D02*
X144921D01*
X139016Y275433D02*
Y287244D01*
X128393Y312529D02*
X135479D01*
X131936Y308986D02*
Y316073D01*
X214969Y291339D02*
X222669D01*
X218819Y287489D02*
Y295189D01*
X174969Y291339D02*
X182669D01*
X178819Y287489D02*
Y295189D01*
X190219Y291339D02*
X207419D01*
X198819Y282739D02*
Y299939D01*
X180869Y301339D02*
X186769D01*
X183819Y298389D02*
Y304289D01*
X205869Y311339D02*
X211769D01*
X208819Y308389D02*
Y314289D01*
X282716Y281339D02*
X294528D01*
X288622Y275433D02*
Y287244D01*
X257716Y271339D02*
X269528D01*
X263622Y265433D02*
Y277244D01*
X249772Y291339D02*
X257472D01*
X253622Y287489D02*
Y295189D01*
X289772Y291339D02*
X297472D01*
X293622Y287489D02*
Y295189D01*
X265022Y291339D02*
X282222D01*
X273622Y282739D02*
Y299939D01*
X289772Y291181D02*
X297472D01*
X293622Y287331D02*
Y295031D01*
X249772Y291181D02*
X257472D01*
X253622Y287331D02*
Y295031D01*
X265022Y291181D02*
X282222D01*
X273622Y282581D02*
Y299781D01*
X255672Y301181D02*
X261572D01*
X258622Y298231D02*
Y304131D01*
X280672Y311181D02*
X286572D01*
X283622Y308231D02*
Y314131D01*
X364575Y66929D02*
X372275D01*
X368425Y63079D02*
Y70779D01*
X324575Y66929D02*
X332275D01*
X328425Y63079D02*
Y70779D01*
X339825Y66929D02*
X357025D01*
X348425Y58329D02*
Y75529D01*
X330475Y76929D02*
X336375D01*
X333425Y73979D02*
Y79879D01*
X355475Y86929D02*
X361375D01*
X358425Y83979D02*
Y89879D01*
X357520Y56929D02*
X369331D01*
X363425Y51024D02*
Y62835D01*
X332520Y46929D02*
X344331D01*
X338425Y41024D02*
Y52835D01*
X324575Y66929D02*
X332275D01*
X328425Y63079D02*
Y70779D01*
X364575Y66929D02*
X372275D01*
X368425Y63079D02*
Y70779D01*
X339825Y66929D02*
X357025D01*
X348425Y58329D02*
Y75529D01*
X357520Y131732D02*
X369331D01*
X363425Y125827D02*
Y137638D01*
X332520Y121732D02*
X344331D01*
X338425Y115827D02*
Y127638D01*
X324575Y141732D02*
X332275D01*
X328425Y137882D02*
Y145582D01*
X364575Y141732D02*
X372275D01*
X368425Y137882D02*
Y145582D01*
X339825Y141732D02*
X357025D01*
X348425Y133132D02*
Y150332D01*
X364575Y141732D02*
X372275D01*
X368425Y137882D02*
Y145582D01*
X324575Y141732D02*
X332275D01*
X328425Y137882D02*
Y145582D01*
X339825Y141732D02*
X357025D01*
X348425Y133132D02*
Y150332D01*
X330475Y151732D02*
X336375D01*
X333425Y148782D02*
Y154682D01*
X355475Y161732D02*
X361375D01*
X358425Y158782D02*
Y164682D01*
X364575Y216535D02*
X372275D01*
X368425Y212685D02*
Y220385D01*
X324575Y216535D02*
X332275D01*
X328425Y212685D02*
Y220385D01*
X339825Y216535D02*
X357025D01*
X348425Y207935D02*
Y225135D01*
X330475Y226535D02*
X336375D01*
X333425Y223585D02*
Y229485D01*
X355475Y236535D02*
X361375D01*
X358425Y233585D02*
Y239485D01*
X357520Y206535D02*
X369331D01*
X363425Y200630D02*
Y212441D01*
X332520Y196535D02*
X344331D01*
X338425Y190630D02*
Y202441D01*
X324575Y216535D02*
X332275D01*
X328425Y212685D02*
Y220385D01*
X364575Y216535D02*
X372275D01*
X368425Y212685D02*
Y220385D01*
X339825Y216535D02*
X357025D01*
X348425Y207935D02*
Y225135D01*
X357520Y281339D02*
X369331D01*
X363425Y275433D02*
Y287244D01*
X332520Y271339D02*
X344331D01*
X338425Y265433D02*
Y277244D01*
X324575Y291339D02*
X332275D01*
X328425Y287489D02*
Y295189D01*
X364575Y291339D02*
X372275D01*
X368425Y287489D02*
Y295189D01*
X339825Y291339D02*
X357025D01*
X348425Y282739D02*
Y299939D01*
X354882Y311339D02*
X361968D01*
X358425Y307795D02*
Y314882D01*
X330475Y301339D02*
X336375D01*
X333425Y298389D02*
Y304289D01*
X339825Y291339D02*
X357025D01*
X348425Y282739D02*
Y299939D01*
X324575Y291339D02*
X332275D01*
X328425Y287489D02*
Y295189D01*
X364575Y291339D02*
X372275D01*
X368425Y287489D02*
Y295189D01*
X280197Y426142D02*
X283740D01*
X281968Y424370D02*
Y427913D01*
X280197Y436142D02*
X283740D01*
X281968Y434370D02*
Y437913D01*
X280197Y416142D02*
X283740D01*
X281968Y414370D02*
Y417913D01*
X280197Y406142D02*
X283740D01*
X281968Y404370D02*
Y407913D01*
X280197Y396142D02*
X283740D01*
X281968Y394370D02*
Y397913D01*
X280197Y386142D02*
X283740D01*
X281968Y384370D02*
Y387913D01*
X280197Y376142D02*
X283740D01*
X281968Y374370D02*
Y377913D01*
X188701Y426142D02*
X192244D01*
X190472Y424370D02*
Y427913D01*
X188701Y436142D02*
X192244D01*
X190472Y434370D02*
Y437913D01*
X188701Y416142D02*
X192244D01*
X190472Y414370D02*
Y417913D01*
X188701Y406142D02*
X192244D01*
X190472Y404370D02*
Y407913D01*
X188701Y396142D02*
X192244D01*
X190472Y394370D02*
Y397913D01*
X188701Y386142D02*
X192244D01*
X190472Y384370D02*
Y387913D01*
X188701Y376142D02*
X192244D01*
X190472Y374370D02*
Y377913D01*
X333957Y410433D02*
X337303D01*
X335630Y408760D02*
Y412106D01*
X333957Y437992D02*
X337303D01*
X335630Y436319D02*
Y439665D01*
X264449Y376142D02*
X267992D01*
X266220Y374370D02*
Y377913D01*
X264449Y386142D02*
X267992D01*
X266220Y384370D02*
Y387913D01*
X264449Y396142D02*
X267992D01*
X266220Y394370D02*
Y397913D01*
X264449Y406142D02*
X267992D01*
X266220Y404370D02*
Y407913D01*
X264449Y416142D02*
X267992D01*
X266220Y414370D02*
Y417913D01*
X264449Y436142D02*
X267992D01*
X266220Y434370D02*
Y437913D01*
X264449Y426142D02*
X267992D01*
X266220Y424370D02*
Y427913D01*
X204449Y376142D02*
X207992D01*
X206221Y374370D02*
Y377913D01*
X204449Y386142D02*
X207992D01*
X206221Y384370D02*
Y387913D01*
X204449Y396142D02*
X207992D01*
X206221Y394370D02*
Y397913D01*
X204449Y406142D02*
X207992D01*
X206221Y404370D02*
Y407913D01*
X204449Y416142D02*
X207992D01*
X206221Y414370D02*
Y417913D01*
X204449Y436142D02*
X207992D01*
X206221Y434370D02*
Y437913D01*
X204449Y426142D02*
X207992D01*
X206221Y424370D02*
Y427913D01*
X333957Y347441D02*
X337303D01*
X335630Y345768D02*
Y349114D01*
X333957Y375000D02*
X337303D01*
X335630Y373327D02*
Y376673D01*
X288681Y392717D02*
X292028D01*
X290354Y391043D02*
Y394390D01*
X316240Y392717D02*
X319587D01*
X317913Y391043D02*
Y394390D01*
X103123Y360702D02*
X106470D01*
X104796Y359029D02*
Y362375D01*
X122610Y380189D02*
X125957D01*
X124284Y378516D02*
Y381862D01*
X167152Y360702D02*
X170499D01*
X168826Y359029D02*
Y362375D01*
X147665Y380189D02*
X151012D01*
X149338Y378516D02*
Y381862D01*
X180413Y392717D02*
X183760D01*
X182087Y391043D02*
Y394390D01*
X152854Y392717D02*
X156201D01*
X154528Y391043D02*
Y394390D01*
X135138Y437992D02*
X138484D01*
X136811Y436319D02*
Y439665D01*
X135138Y410433D02*
X138484D01*
X136811Y408760D02*
Y412106D01*
X379232Y392717D02*
X382579D01*
X380906Y391043D02*
Y394390D01*
X351673Y392717D02*
X355020D01*
X353346Y391043D02*
Y394390D01*
X130512Y392717D02*
X143110D01*
X136811Y386417D02*
Y399016D01*
X329331Y392717D02*
X341929D01*
X335630Y386417D02*
Y399016D01*
X304724Y24606D02*
X317323D01*
X311024Y18307D02*
Y30906D01*
X155118Y24606D02*
X167717D01*
X161417Y18307D02*
Y30906D01*
X374508Y375000D02*
X375492D01*
X375000Y374508D02*
Y375492D01*
X379429Y365158D02*
X380413D01*
X379921Y364665D02*
Y365650D01*
X379429Y376969D02*
X380413D01*
X379921Y376476D02*
Y377461D01*
X162894Y403543D02*
X163878D01*
X163386Y403051D02*
Y404035D01*
X164862Y389764D02*
X165847D01*
X165354Y389272D02*
Y390256D01*
X160925Y386142D02*
X161909D01*
X161417Y385650D02*
Y386634D01*
X235728Y360236D02*
X236713D01*
X236221Y359744D02*
Y360728D01*
X263287Y104331D02*
X264272D01*
X263779Y103839D02*
Y104823D01*
M02*
