G04*
G04 #@! TF.GenerationSoftware,Altium Limited,Altium Designer,24.7.2 (38)*
G04*
G04 Layer_Color=8388736*
%FSLAX25Y25*%
%MOIN*%
G70*
G04*
G04 #@! TF.SameCoordinates,4FB6B1DA-FF44-45C5-9F46-3DC55F4CF08E*
G04*
G04*
G04 #@! TF.FilePolarity,Positive*
G04*
G01*
G75*
%ADD10C,0.00984*%
%ADD18C,0.00394*%
%ADD53C,0.01000*%
%ADD80C,0.00600*%
D10*
X-122047Y-62992D02*
X-120079D01*
X-121063D01*
Y-57089D01*
X-122047Y-58073D01*
X-117128Y-62992D02*
Y-62008D01*
X-116144D01*
Y-62992D01*
X-117128D01*
X-108272Y-57089D02*
X-110240Y-58073D01*
X-112208Y-60040D01*
Y-62008D01*
X-111224Y-62992D01*
X-109256D01*
X-108272Y-62008D01*
Y-61024D01*
X-109256Y-60040D01*
X-112208D01*
X-106304Y-62992D02*
Y-59056D01*
X-105320D01*
X-104336Y-60040D01*
Y-62992D01*
Y-60040D01*
X-103352Y-59056D01*
X-102369Y-60040D01*
Y-62992D01*
X-100401D02*
Y-59056D01*
X-99417D01*
X-98433Y-60040D01*
Y-62992D01*
Y-60040D01*
X-97449Y-59056D01*
X-96465Y-60040D01*
Y-62992D01*
X-88594Y-57089D02*
X-84658D01*
X-86626D01*
Y-62992D01*
X-82690Y-57089D02*
Y-62992D01*
Y-60040D01*
X-81706Y-59056D01*
X-79738D01*
X-78754Y-60040D01*
Y-62992D01*
X-76786D02*
X-74818D01*
X-75802D01*
Y-59056D01*
X-76786D01*
X-67931D02*
X-70883D01*
X-71867Y-60040D01*
Y-62008D01*
X-70883Y-62992D01*
X-67931D01*
X-65963D02*
Y-57089D01*
Y-61024D02*
X-63011Y-59056D01*
X-65963Y-61024D02*
X-63011Y-62992D01*
X-60059D02*
Y-59056D01*
X-57108D01*
X-56124Y-60040D01*
Y-62992D01*
X-51204D02*
X-53172D01*
X-54156Y-62008D01*
Y-60040D01*
X-53172Y-59056D01*
X-51204D01*
X-50220Y-60040D01*
Y-61024D01*
X-54156D01*
X-48252Y-62992D02*
X-45300D01*
X-44317Y-62008D01*
X-45300Y-61024D01*
X-47268D01*
X-48252Y-60040D01*
X-47268Y-59056D01*
X-44317D01*
X-42349Y-62992D02*
X-39397D01*
X-38413Y-62008D01*
X-39397Y-61024D01*
X-41365D01*
X-42349Y-60040D01*
X-41365Y-59056D01*
X-38413D01*
X-122047Y-33467D02*
Y-39370D01*
X-120079Y-37402D01*
X-118112Y-39370D01*
Y-33467D01*
X-116144D02*
Y-39370D01*
Y-36418D01*
X-115160Y-35434D01*
X-113192D01*
X-112208Y-36418D01*
Y-39370D01*
X-110240D02*
X-108272D01*
X-109256D01*
Y-35434D01*
X-110240D01*
X-104336Y-34450D02*
Y-35434D01*
X-105320D01*
X-103352D01*
X-104336D01*
Y-38386D01*
X-103352Y-39370D01*
X-97449D02*
X-99417D01*
X-100401Y-38386D01*
Y-36418D01*
X-99417Y-35434D01*
X-97449D01*
X-96465Y-36418D01*
Y-37402D01*
X-100401D01*
X-84658Y-34450D02*
X-85642Y-33467D01*
X-87610D01*
X-88594Y-34450D01*
Y-35434D01*
X-87610Y-36418D01*
X-85642D01*
X-84658Y-37402D01*
Y-38386D01*
X-85642Y-39370D01*
X-87610D01*
X-88594Y-38386D01*
X-82690Y-39370D02*
X-80722D01*
X-81706D01*
Y-35434D01*
X-82690D01*
X-77770Y-39370D02*
X-75802D01*
X-76786D01*
Y-33467D01*
X-77770D01*
X-72851Y-39370D02*
Y-33467D01*
Y-37402D02*
X-69899Y-35434D01*
X-72851Y-37402D02*
X-69899Y-39370D01*
X-66947D02*
X-63995D01*
X-63011Y-38386D01*
X-63995Y-37402D01*
X-65963D01*
X-66947Y-36418D01*
X-65963Y-35434D01*
X-63011D01*
X-57108D02*
X-60059D01*
X-61043Y-36418D01*
Y-38386D01*
X-60059Y-39370D01*
X-57108D01*
X-55140Y-35434D02*
Y-39370D01*
Y-37402D01*
X-54156Y-36418D01*
X-53172Y-35434D01*
X-52188D01*
X-46284Y-39370D02*
X-48252D01*
X-49236Y-38386D01*
Y-36418D01*
X-48252Y-35434D01*
X-46284D01*
X-45300Y-36418D01*
Y-37402D01*
X-49236D01*
X-40381Y-39370D02*
X-42349D01*
X-43333Y-38386D01*
Y-36418D01*
X-42349Y-35434D01*
X-40381D01*
X-39397Y-36418D01*
Y-37402D01*
X-43333D01*
X-37429Y-39370D02*
Y-35434D01*
X-34477D01*
X-33493Y-36418D01*
Y-39370D01*
X-122047Y-27559D02*
Y-21655D01*
X-119096D01*
X-118112Y-22639D01*
Y-24607D01*
X-119096Y-25591D01*
X-122047D01*
X-116144Y-27559D02*
X-114176D01*
X-115160D01*
Y-23623D01*
X-116144D01*
X-111224Y-27559D02*
Y-23623D01*
X-108272D01*
X-107288Y-24607D01*
Y-27559D01*
X-105320D02*
Y-21655D01*
Y-25591D02*
X-102369Y-23623D01*
X-105320Y-25591D02*
X-102369Y-27559D01*
X-93513D02*
Y-21655D01*
X-91545Y-23623D01*
X-89577Y-21655D01*
Y-27559D01*
X-86626Y-23623D02*
X-84658D01*
X-83674Y-24607D01*
Y-27559D01*
X-86626D01*
X-87610Y-26575D01*
X-86626Y-25591D01*
X-83674D01*
X-81706Y-27559D02*
X-78754D01*
X-77770Y-26575D01*
X-78754Y-25591D01*
X-80722D01*
X-81706Y-24607D01*
X-80722Y-23623D01*
X-77770D01*
X-75802Y-27559D02*
Y-21655D01*
Y-25591D02*
X-72851Y-23623D01*
X-75802Y-25591D02*
X-72851Y-27559D01*
D18*
X393701Y400512D02*
G03*
X390165Y409047I-12071J0D01*
G01*
X353929Y445283D02*
G03*
X345394Y448819I-8535J-8535D01*
G01*
X389580Y416336D02*
G03*
X386228Y412984I-1676J-1676D01*
G01*
X389580Y416336D02*
G03*
X393626Y418012I1676J1676D01*
G01*
X362894Y448744D02*
G03*
X361218Y444698I0J-2370D01*
G01*
X357866Y441346D02*
G03*
X361218Y444698I1676J1676D01*
G01*
X393626Y429419D02*
G03*
X374301Y448744I-19325J0D01*
G01*
X98140D02*
G03*
X78815Y429419I0J-19325D01*
G01*
X111223Y444698D02*
G03*
X114575Y441346I1676J-1676D01*
G01*
X111223Y444698D02*
G03*
X109547Y448744I-1676J1676D01*
G01*
X78815Y418012D02*
G03*
X82861Y416336I2370J0D01*
G01*
X86213Y412984D02*
G03*
X82861Y416336I-1676J1676D01*
G01*
X127047Y448819D02*
G03*
X118512Y445283I0J-12071D01*
G01*
X82276Y409047D02*
G03*
X78740Y400512I8535J-8535D01*
G01*
X280256Y341006D02*
G03*
X278845Y337646I-19J-1968D01*
G01*
X279054Y348294D02*
G03*
X280465Y344934I1392J-1392D01*
G01*
X281629Y342378D02*
G03*
X281629Y343770I-696J696D01*
G01*
X283806Y348276D02*
G03*
X280446Y349686I-1968J19D01*
G01*
X280655Y335836D02*
G03*
X284015Y337247I1392J1392D01*
G01*
X284970Y347111D02*
G03*
X286362Y347111I696J696D01*
G01*
X286779Y338620D02*
G03*
X285387Y338620I-696J-696D01*
G01*
X291094Y349895D02*
G03*
X287734Y348484I-1392J-1392D01*
G01*
X287943Y337456D02*
G03*
X291303Y336045I1968J-19D01*
G01*
X290120Y343353D02*
G03*
X290120Y341961I696J-696D01*
G01*
X292695Y337437D02*
G03*
X291285Y340797I-1392J1392D01*
G01*
X291493Y344725D02*
G03*
X292904Y348085I19J1968D01*
G01*
X241142Y363189D02*
G03*
X244094Y360236I2953J0D01*
G01*
X228346D02*
G03*
X231299Y363189I0J2953D01*
G01*
X110807Y2210D02*
G03*
X116142Y0I5335J5335D01*
G01*
X105692Y7325D02*
G03*
X102911Y4544I-1460J-1320D01*
G01*
X95065Y7298D02*
G03*
X97849Y7298I1392J1392D01*
G01*
X102939Y12388D02*
G03*
X102939Y15171I-1392J1392D01*
G01*
X82784Y23718D02*
G03*
X80709Y23622I-989J-1085D01*
G01*
X98425Y-0D02*
G03*
X102032Y1494I0J5101D01*
G01*
X86038Y19109D02*
G03*
X86038Y16325I1392J-1392D01*
G01*
X82784Y23718D02*
G03*
X86518Y27453I1961J1773D01*
G01*
X93912Y24199D02*
G03*
X91128Y24199I-1392J-1392D01*
G01*
X103008Y2469D02*
G03*
X102911Y4544I-1085J989D01*
G01*
X80132Y23045D02*
G03*
X78740Y19685I3360J-3360D01*
G01*
X78740Y37402D02*
G03*
X80275Y33695I5241J0D01*
G01*
X78740Y19685D02*
G03*
X98425Y0I19685J0D01*
G01*
X391491Y32067D02*
G03*
X393701Y37402I-5335J5335D01*
G01*
X386376Y26952D02*
G03*
X389156Y24171I1320J-1460D01*
G01*
X386403Y16325D02*
G03*
X386403Y19108I-1392J1392D01*
G01*
X381313Y24199D02*
G03*
X378529Y24199I-1392J-1392D01*
G01*
X369983Y4043D02*
G03*
X370079Y1969I1085J-989D01*
G01*
X393701Y19685D02*
G03*
X392207Y23292I-5101J0D01*
G01*
X374592Y7298D02*
G03*
X377376Y7298I1392J1392D01*
G01*
X369983Y4043D02*
G03*
X366248Y7778I-1773J1961D01*
G01*
X369502Y15171D02*
G03*
X369502Y12388I1392J-1392D01*
G01*
X391231Y24268D02*
G03*
X389156Y24171I-989J-1085D01*
G01*
X370655Y1392D02*
G03*
X374016Y0I3360J3360D01*
G01*
X356299Y0D02*
G03*
X360005Y1535I0J5241D01*
G01*
X374016Y0D02*
G03*
X393701Y19685I0J19685D01*
G01*
X266811Y448819D02*
G03*
X261811Y443819I0J-5000D01*
G01*
X256811Y360236D02*
G03*
X261811Y365236I0J5000D01*
G01*
X210630D02*
G03*
X215630Y360236I5000J0D01*
G01*
X210630Y443819D02*
G03*
X205630Y448819I-5000J0D01*
G01*
X266811D02*
X345394D01*
X386228Y412984D02*
X390165Y409047D01*
X353929Y445283D02*
X357866Y441346D01*
X362894Y448744D02*
X374301D01*
X393626Y418012D02*
Y429419D01*
X78815Y418012D02*
Y429419D01*
X98140Y448744D02*
X109547D01*
X114575Y441346D02*
X118512Y445283D01*
X82276Y409047D02*
X86213Y412984D01*
X278845Y337646D02*
X279750Y336741D01*
X279124Y348364D02*
X279750Y348990D01*
X280376Y349617D01*
X279750Y336741D02*
X280655Y335836D01*
X280256Y341006D02*
X281629Y342378D01*
X280465Y344934D02*
X281629Y343770D01*
X283806Y348275D02*
X284970Y347111D01*
X284015Y337247D02*
X285387Y338620D01*
X286362Y347111D02*
X287735Y348484D01*
X286779Y338620D02*
X287943Y337456D01*
X290120Y341961D02*
X291284Y340797D01*
X290120Y343353D02*
X291493Y344726D01*
X291094Y349895D02*
X291999Y348990D01*
X291373Y336115D02*
X291999Y336741D01*
X292625Y337368D01*
X291999Y348990D02*
X292904Y348085D01*
X231299Y371063D02*
X241142D01*
X244094Y360236D02*
X256890D01*
X241142Y363189D02*
Y371063D01*
X231299Y363189D02*
Y371063D01*
X215630Y360236D02*
X228346D01*
X102032Y1494D02*
X103008Y2469D01*
X80132Y23045D02*
X80709Y23622D01*
X105692Y7325D02*
X110807Y2210D01*
X97849Y7298D02*
X102939Y12388D01*
X86029Y16333D02*
X95065Y7298D01*
X80275Y33695D02*
X86518Y27453D01*
X86029Y19100D02*
X91137Y24207D01*
X93903Y24207D02*
X102939Y15171D01*
X391231Y24268D02*
X392207Y23292D01*
X370079Y1969D02*
X370655Y1392D01*
X386376Y26952D02*
X391491Y32067D01*
X381313Y24199D02*
X386403Y19108D01*
X377367Y7289D02*
X386403Y16325D01*
X360005Y1535D02*
X366248Y7778D01*
X369493Y12397D02*
X374601Y7289D01*
X369493Y15163D02*
X378529Y24199D01*
X127047Y448819D02*
X204724Y448819D01*
X261811Y365236D02*
Y443819D01*
X210630Y365236D02*
Y366142D01*
Y443819D01*
X204724Y448819D02*
X205630D01*
X116142Y0D02*
X356299Y0D01*
X393701Y400512D02*
X393701Y37402D01*
X78740Y400512D02*
X78740Y37402D01*
D53*
X387701Y-13811D02*
X393701Y-11811D01*
X387701Y-9811D02*
X393701Y-11811D01*
X78740D02*
X84740Y-9811D01*
X78740Y-11811D02*
X84740Y-13811D01*
X250216Y-11811D02*
X393701D01*
X78740D02*
X219025D01*
X393701Y-12811D02*
Y21457D01*
X78740Y-12811D02*
Y21457D01*
X61024Y448819D02*
X63024Y442819D01*
X59024D02*
X61024Y448819D01*
X59024Y6000D02*
X61024Y0D01*
X63024Y6000D01*
X61024Y240404D02*
Y448819D01*
Y0D02*
Y205215D01*
X60024Y448819D02*
X192717D01*
X60024Y0D02*
X104134D01*
D80*
X220625Y-11411D02*
X221625Y-10412D01*
X223624D01*
X224624Y-11411D01*
Y-12411D01*
X223624Y-13411D01*
X224624Y-14410D01*
Y-15410D01*
X223624Y-16410D01*
X221625D01*
X220625Y-15410D01*
Y-14410D01*
X221625Y-13411D01*
X220625Y-12411D01*
Y-11411D01*
X221625Y-13411D02*
X223624D01*
X226623Y-11411D02*
X227623Y-10412D01*
X229622D01*
X230622Y-11411D01*
Y-15410D01*
X229622Y-16410D01*
X227623D01*
X226623Y-15410D01*
Y-11411D01*
X233621Y-17409D02*
X234620Y-16410D01*
Y-15410D01*
X233621D01*
Y-16410D01*
X234620D01*
X233621Y-17409D01*
X232621Y-18409D01*
X238619Y-11411D02*
X239619Y-10412D01*
X241618D01*
X242618Y-11411D01*
Y-15410D01*
X241618Y-16410D01*
X239619D01*
X238619Y-15410D01*
Y-11411D01*
X244617D02*
X245617Y-10412D01*
X247616D01*
X248616Y-11411D01*
Y-15410D01*
X247616Y-16410D01*
X245617D01*
X244617Y-15410D01*
Y-11411D01*
X65622Y206815D02*
Y208814D01*
Y207814D01*
X59624D01*
X60624Y206815D01*
X65622Y211813D02*
Y213812D01*
Y212813D01*
X59624D01*
X60624Y211813D01*
X65622Y219810D02*
X59624D01*
X62623Y216811D01*
Y220810D01*
X66622Y223809D02*
X65622Y224809D01*
X64623D01*
Y223809D01*
X65622D01*
Y224809D01*
X66622Y223809D01*
X67622Y222810D01*
X60624Y228807D02*
X59624Y229807D01*
Y231806D01*
X60624Y232806D01*
X64623D01*
X65622Y231806D01*
Y229807D01*
X64623Y228807D01*
X60624D01*
Y234806D02*
X59624Y235805D01*
Y237805D01*
X60624Y238804D01*
X64623D01*
X65622Y237805D01*
Y235805D01*
X64623Y234806D01*
X60624D01*
M02*
