M48
;Layer_Color=9474304
;FILE_FORMAT=2:5
INCH,LZ
;TYPE=PLATED
T01F00S00C0.00984
T02F00S00C0.02559
T03F00S00C0.02756
T04F00S00C0.03346
T05F00S00C0.03543
T06F00S00C0.03937
T07F00S00C0.05900
T08F00S00C0.07087
T10F00S00C0.11811
;TYPE=NON_PLATED
T13F00S00C0.07700
T14F00S00C0.11811
T15F00S00C0.12598
T16F00S00C0.17200
%
T01
X0263779Y0104331
X0379921Y0365158
X0236221Y0360236
X0165354Y0389764
X0161417Y0386142
X0163386Y0403543
X0375Y0375
X0379921Y0376969
T02
X0114016Y0104331
Y0179134
X0134016
X0134016Y0104331
X0134016Y0253937
X0114016
T03
X0150787Y0104331
X0157874
X0164961
X0172047
X022559
X0232677
X0239764
X024685
Y0179134
X0239764
X0232677
X022559
X0172047
X0164961
X0157874
X0150787
X0300394
X030748
X0314567
X0321654
Y0104331
X0314567
X030748
X0300394
Y0253937
X030748
X0314567
X0321654
X024685
X0239764
X0232677
X022559
X0172047
X0164961
X0157874
X0150787
T04
X0303615Y0360702
X033563Y0347441
X0367645Y0360702
X0168826
X0136811Y0347441
X0104796Y0360702
X0124284Y0380189
X0119095Y0392717
X0124284Y0405244
X0104796Y0424731
X0091535Y0392717
X0136811Y0410433
X0149338Y0405244
X0154528Y0392717
X0149338Y0380189
X0136811Y0375
X0182087Y0392717
X0168826Y0424731
X0136811Y0437992
X0303615Y0424731
X0323102Y0405244
X033563Y0410433
X0348157Y0405244
X0353346Y0392717
X0348157Y0380189
X033563Y0375
X0323102Y0380189
X0317913Y0392717
X0290354
X033563Y0437992
X0367645Y0424731
X0380906Y0392717
T05
X0190472Y0376142
Y0386142
Y0396142
Y0406142
Y0416142
Y0426142
Y0436142
X0206221
X0206221Y0426142
Y0416142
X0206221Y0406142
Y0396142
Y0386142
X0206221Y0376142
X026622
Y0386142
Y0396142
Y0406142
Y0416142
Y0426142
Y0436142
X0281968
Y0426142
Y0416142
Y0406142
Y0396142
Y0386142
Y0376142
T06
X0151575Y0281496
Y0301181
X0094488
Y0291339
Y0281496
T07
X0109016Y0076929
Y0151732
X0134016Y0161732
X0183819Y0151732
X0208819Y0161732
X0258622Y0151732
X0283622Y0161732
Y0086929
X0258622Y0076929
X0208819Y0086929
X0183819Y0076929
X0134016Y0086929
X0333425Y0076929
X0358425Y0086929
Y0161732
X0333425Y0151732
Y0226535
X0358425Y0236535
X0333425Y0301339
X0283622Y0311181
X0258622Y0301181
X0208819Y0311339
X0183819Y0301339
Y0226535
X0208819Y0236535
X0258622Y0226535
X0283622Y0236535
X0134016
X0109016Y0226535
Y0301339
T08
X0358425Y0311339
T10
X0114016Y0271339
T13
X0104016Y0066929
Y0141732
Y0216535
X0144016
X0178819
X0218819
X0253622
Y0141732
X0253622Y0141732
X0218819
Y0141732
X0178819
Y0141732
X0144016Y0141732
Y0066929
X0178819
X0218819
X0253622
X0253622
X0293622
X0293622
X0328425
X0368425
Y0141732
X0328425
X0293622
X0293622Y0141732
X0293622Y0216535
X0328425
X0368425
Y0291339
Y0291339
X0328425
Y0291339
X0293622
Y0291181
X0253622
Y0291339
X0218819
X0178819
X0144016
X0144016Y0291339
X0104016
X0104016Y0291339
T14
X0288622Y0056929
X0338425Y0046929
X0363425Y0056929
X0263622Y0046929
X0213819Y0056929
X0188819Y0046929
X0139016Y0056929
X0114016Y0046929
Y0121732
Y0196535
X0139016Y0206535
X0188819Y0196535
X0213819Y0206535
X0263622Y0196535
X0263622Y0121732
X0213819Y0131732
X0188819Y0121732
X0139016Y0131732
X0288622Y0131732
X0338425Y0121732
X0363425Y0131732
Y0206535
X0338425Y0196535
X0288622Y0206535
Y0281339
X0338425Y0271339
X0363425Y0281339
X0263622Y0271339
X0213819Y0281339
X0188819Y0271339
X0139016Y0281339
T15
X0311024Y0024606
X0161417
X0136811Y0392717
X033563
T16
X0124016Y0066929
Y0141732
Y0216535
X0198819
X0273622
Y0141732
X0273622Y0141732
X0198819
Y0141732
Y0066929
X0273622
X0273622
X0348425
Y0141732
Y0216535
Y0291339
Y0291339
X0273622Y0291339
Y0291181
X0198819Y0291339
X0124016
X0124016Y0291339
M30
