M48
;Layer_Color=9474304
;FILE_FORMAT=2:5
INCH,LZ
;TYPE=PLATED
T1F00S00C0.00984
T3F00S00C0.03346
T4F00S00C0.03543
T5F00S00C0.03937
T6F00S00C0.04331
T7F00S00C0.05900
T8F00S00C0.07087
;TYPE=NON_PLATED
T10F00S00C0.06299
T11F00S00C0.07700
T12F00S00C0.11811
T13F00S00C0.12598
T14F00S00C0.17200
%
T01
X009941Y0093504
X0176646Y009941
X0225571Y0083661
X0225569Y0074016
X0250557Y009941
X0250699Y0173228
X0176633Y0174213
X0325787Y0169291
X0330406Y0104134
X0326772Y009252
X032874Y0088583
X0304724Y022849
X032185Y025374
X0310039Y0283061
X0318733Y0339534
X0433071Y0272441
X0439764Y0269685
X0249227Y025374
X0208819Y0287244
X020872Y0321654
X0218721Y0321654
X0198721
X017872
X0173721Y0314173
X0163721Y0321654
X0135103Y032185
X013118Y0315434
Y0328346
X0175443Y025
X0160433Y0228346
X0268504Y0335433
X008563Y0238189
T03
X0446751Y0033564
X0427264Y0053051
X0419192
X0399705Y0033564
X0236221Y0037402
X0072735Y0033564
X0053248Y0053051
X0045176Y0053051
X0025689Y0033564
X0045176Y0061123
X0053248
X0072735Y008061
X0025689
X0236221Y0076772
X0399705Y008061
X0419192Y0061123
X0427264
X0446751Y008061
X0446751Y0257973
Y030502
X0427264Y0285532
X0419192
Y0277461
X0427264
X0399705Y0257973
Y030502
X0310039Y0301181
Y0261811
X008563
X0072735Y0257973
X0053248Y0277461
X0053249Y0285532
X0045177Y0285532
X0045187Y027745
X00257Y0257963
X002569Y0305019
X0072736Y0305019
X008563Y0301181
T04
X0393701Y0109291
X0403701
X0413701
X0423701
X0433701
Y0119291
Y0129291
Y0139291
Y0149291
Y0159291
X0423701
X0413701
X0403701
Y0149291
X0413701
X0423701
Y0139291
X0413701
X0403701
Y0129291
X0413701
X0423701
Y0119291
X0413701
X0403701
X0393701
Y0129291
Y0139291
Y0149291
Y0159291
Y0169291
X0403701
X0413701
X0423701
X0433701
Y0179291
X0423701
X0413701
X0403701
Y0189291
X0413701
X0423701
X0433701
Y0199291
X0423701
X0413701
X0403701
Y0209291
X0413701
X0423701
X0433701
X0393701
Y0199291
Y0189291
Y0179291
X0443701
X0453701
Y0189291
Y0199291
Y0209291
X0463701
Y0199291
Y0189291
Y0179291
Y0169291
X0453701
Y0159291
Y0149291
Y0139291
Y0129291
Y0119291
Y0109291
X0443701
Y0119291
Y0129291
Y0139291
Y0149291
Y0159291
Y0169291
Y0189291
Y0199291
Y0209291
X0463701Y0159291
Y0149291
Y0139291
Y0129291
Y0119291
Y0109291
Y0219291
Y0229291
X0453701
X0443701
Y0219291
X0453701
X0453209Y030002
Y031002
Y032002
Y033002
Y034002
Y035002
Y036002
X0393209
X0393209Y035002
Y034002
X0393209Y033002
Y032002
Y031002
X0393209Y030002
X0393701Y0229291
X0403701
X0413701
X0423701
X0433701
Y0219291
X0423701
X0413701
X0403701
X0393701
T05
X0318898Y0271654
Y0281496
Y0291339
X0375984
Y0271654
X0151575
Y0291339
X0094488
Y0281496
Y0271654
T06
X0342126Y0343701
X0130315
T07
X0109016Y0067087
Y014189
Y0216693
X0183819
X0258622
Y014189
X0283622Y015189
Y0077087
X0258622Y0067087
X0208819Y0077087
X0183819Y0067087
X0134016Y0077087
Y015189
X0183819Y014189
X0208819Y015189
X0333425Y014189
X0358425Y015189
Y0077087
X0333425Y0067087
Y0216693
X0358425Y0226693
X0333425Y0291496
X0283622Y0301339
X0258622Y0291339
X0208819Y0301496
X0183819Y0291496
X0134016Y0301496
Y0226693
X0208819
X0283622
X0109016Y0291496
T08
X0358425Y0301496
T10
X0287402Y0355315
X0185039
T11
X0293622Y0057087
X0293622
X0328425
X0368425
X0253622
X0253622
X0218819
X0178819
X0144016
X0104016
Y013189
Y0206693
X0144016
X0178819
X0218819
X0253622
X0253622Y013189
X0253622Y013189
X0218819
Y013189
X0178819
Y013189
X0144016
X0293622
X0293622Y013189
X0328425Y013189
X0368425
Y0206693
X0328425
X0293622
Y0281339
Y0281496
X0328425
Y0281496
X0368425
Y0281496
X0253622
Y0281339
X0218819Y0281496
X0178819
X0144016Y0281496
X0144016Y0281496
X0104016Y0281496
X0104016Y0281496
T12
X0288622Y0047087
X0338425Y0037087
X0363425Y0047087
X0263622Y0037087
X0213819Y0047087
X0188819Y0037087
X0139016Y0047087
X0114016Y0037087
Y011189
Y0186693
X0139016Y0196693
X0188819Y0186693
X0213819Y0196693
X0263622Y0186693
X0263622Y011189
X0213819Y012189
X0188819Y011189
X0139016Y012189
X0288622Y012189
X0338425Y011189
X0363425Y012189
Y0196693
X0338425Y0186693
X0288622Y0196693
X05Y0074803
Y0299213
X0363425Y0271496
X0338425Y0261496
X0288622Y0271496
X0263622Y0261496
X0213819Y0271496
X0188819Y0261496
X0139016Y0271496
X0114016Y0261496
T13
X0423227Y0031496
X0049213
X0423228Y0307088
X0049213Y0307088
T14
X0348425Y0057087
X0273622
X0273622
X0198819
X0124016
Y013189
Y0206693
X0198819
X0273622
X0273622Y013189
X0273622Y013189
X0198819
Y013189
X0348425Y013189
Y0206693
Y0281496
Y0281496
X0273622Y0281496
Y0281339
X0198819Y0281496
X0124016Y0281496
X0124016Y0281496
M30
