G04*
G04 #@! TF.GenerationSoftware,Altium Limited,Altium Designer,22.6.0 (29)*
G04*
G04 Layer_Color=128*
%FSLAX25Y25*%
%MOIN*%
G70*
G04*
G04 #@! TF.SameCoordinates,49C09CC0-90A6-4759-90E3-BA1AF69BA4C5*
G04*
G04*
G04 #@! TF.FilePolarity,Positive*
G04*
G01*
G75*
%ADD12C,0.00787*%
%ADD14C,0.00394*%
%ADD16C,0.00984*%
%ADD17C,0.01575*%
%ADD71C,0.00200*%
G36*
X872201Y-141778D02*
X873919D01*
Y-142065D01*
X874778D01*
Y-142351D01*
X875637D01*
Y-142637D01*
X876496D01*
Y-142924D01*
X877069D01*
Y-143210D01*
X877355D01*
Y-143496D01*
X877928D01*
Y-143783D01*
X878214D01*
Y-144069D01*
X878786D01*
Y-144355D01*
X879073D01*
Y-144641D01*
X879359D01*
Y-144928D01*
X879646D01*
Y-145214D01*
X879932D01*
Y-145501D01*
X880218D01*
Y-145787D01*
X880504D01*
Y-146073D01*
Y-146359D01*
X880791D01*
Y-146646D01*
X881077D01*
Y-146932D01*
Y-147218D01*
X881363D01*
Y-147505D01*
X881650D01*
Y-147791D01*
Y-148077D01*
X881936D01*
Y-148364D01*
Y-148650D01*
Y-148936D01*
X882222D01*
Y-149223D01*
Y-149509D01*
Y-149795D01*
X882509D01*
Y-150082D01*
Y-150368D01*
Y-150654D01*
Y-150940D01*
X882795D01*
Y-151227D01*
Y-151513D01*
Y-151799D01*
Y-152086D01*
Y-152372D01*
X883081D01*
Y-152658D01*
Y-152945D01*
Y-153231D01*
Y-153517D01*
Y-153804D01*
Y-154090D01*
Y-154376D01*
Y-154663D01*
Y-154949D01*
Y-155235D01*
Y-155521D01*
Y-155808D01*
Y-156094D01*
Y-156380D01*
Y-156667D01*
Y-156953D01*
Y-157239D01*
Y-157526D01*
Y-157812D01*
Y-158098D01*
X882795D01*
Y-158385D01*
Y-158671D01*
Y-158957D01*
Y-159244D01*
Y-159530D01*
Y-159816D01*
Y-160102D01*
X882509D01*
Y-160389D01*
Y-160675D01*
Y-160961D01*
Y-161248D01*
Y-161534D01*
X882222D01*
Y-161820D01*
Y-162107D01*
Y-162393D01*
Y-162679D01*
Y-162966D01*
X881936D01*
Y-163252D01*
Y-163538D01*
Y-163824D01*
X881650D01*
Y-164111D01*
Y-164397D01*
Y-164683D01*
Y-164970D01*
X881363D01*
Y-165256D01*
Y-165542D01*
Y-165829D01*
X881077D01*
Y-166115D01*
Y-166401D01*
X880791D01*
Y-166688D01*
Y-166974D01*
Y-167260D01*
X880504D01*
Y-167547D01*
Y-167833D01*
X880218D01*
Y-168119D01*
Y-168405D01*
X879932D01*
Y-168692D01*
Y-168978D01*
X879646D01*
Y-169264D01*
X879359D01*
Y-169551D01*
Y-169837D01*
X879073D01*
Y-170123D01*
X878786D01*
Y-170410D01*
X878500D01*
Y-170696D01*
Y-170982D01*
X878214D01*
Y-171269D01*
X877928D01*
Y-171555D01*
X877641D01*
Y-171841D01*
X877355D01*
Y-172127D01*
X877069D01*
Y-172414D01*
X876496D01*
Y-172700D01*
X876210D01*
Y-172986D01*
X875637D01*
Y-173273D01*
X875351D01*
Y-173559D01*
X874778D01*
Y-173845D01*
X873919D01*
Y-174132D01*
X873060D01*
Y-174418D01*
X872201D01*
Y-174704D01*
X870483D01*
Y-174991D01*
X865330D01*
Y-174704D01*
X862753D01*
Y-174418D01*
X860749D01*
Y-174132D01*
X859317D01*
Y-173845D01*
X857886D01*
Y-173559D01*
X856454D01*
Y-173845D01*
Y-174132D01*
Y-174418D01*
Y-174704D01*
Y-174991D01*
Y-175277D01*
Y-175563D01*
X856168D01*
Y-175850D01*
Y-176136D01*
Y-176422D01*
Y-176709D01*
Y-176995D01*
Y-177281D01*
X855882D01*
Y-177568D01*
Y-177854D01*
Y-178140D01*
Y-178426D01*
Y-178713D01*
Y-178999D01*
X855595D01*
Y-179285D01*
Y-179572D01*
Y-179858D01*
Y-180144D01*
Y-180431D01*
Y-180717D01*
Y-181003D01*
X855309D01*
Y-181290D01*
Y-181576D01*
Y-181862D01*
Y-182149D01*
Y-182435D01*
Y-182721D01*
X855023D01*
Y-183007D01*
Y-183294D01*
Y-183580D01*
Y-183866D01*
Y-184153D01*
Y-184439D01*
X854736D01*
Y-184725D01*
Y-185012D01*
Y-185298D01*
Y-185584D01*
Y-185871D01*
Y-186157D01*
Y-186443D01*
X854450D01*
Y-186730D01*
Y-187016D01*
Y-187302D01*
Y-187588D01*
Y-187875D01*
Y-188161D01*
X854164D01*
Y-188447D01*
Y-188734D01*
Y-189020D01*
Y-189306D01*
Y-189593D01*
Y-189879D01*
X853877D01*
Y-190165D01*
Y-190452D01*
Y-190738D01*
Y-191024D01*
Y-191311D01*
Y-191597D01*
Y-191883D01*
X840421D01*
Y-191597D01*
X840707D01*
Y-191311D01*
Y-191024D01*
Y-190738D01*
Y-190452D01*
Y-190165D01*
X840993D01*
Y-189879D01*
Y-189593D01*
Y-189306D01*
Y-189020D01*
Y-188734D01*
Y-188447D01*
Y-188161D01*
X841280D01*
Y-187875D01*
Y-187588D01*
Y-187302D01*
Y-187016D01*
Y-186730D01*
Y-186443D01*
X841566D01*
Y-186157D01*
Y-185871D01*
Y-185584D01*
Y-185298D01*
Y-185012D01*
Y-184725D01*
X841852D01*
Y-184439D01*
Y-184153D01*
Y-183866D01*
Y-183580D01*
Y-183294D01*
Y-183007D01*
Y-182721D01*
X842138D01*
Y-182435D01*
Y-182149D01*
Y-181862D01*
Y-181576D01*
Y-181290D01*
Y-181003D01*
X842425D01*
Y-180717D01*
Y-180431D01*
Y-180144D01*
Y-179858D01*
Y-179572D01*
Y-179285D01*
X842711D01*
Y-178999D01*
Y-178713D01*
Y-178426D01*
Y-178140D01*
Y-177854D01*
Y-177568D01*
X842997D01*
Y-177281D01*
Y-176995D01*
Y-176709D01*
Y-176422D01*
Y-176136D01*
Y-175850D01*
Y-175563D01*
X843284D01*
Y-175277D01*
Y-174991D01*
Y-174704D01*
Y-174418D01*
Y-174132D01*
Y-173845D01*
X843570D01*
Y-173559D01*
Y-173273D01*
Y-172986D01*
Y-172700D01*
Y-172414D01*
Y-172127D01*
X843856D01*
Y-171841D01*
Y-171555D01*
Y-171269D01*
Y-170982D01*
Y-170696D01*
Y-170410D01*
X844143D01*
Y-170123D01*
Y-169837D01*
Y-169551D01*
Y-169264D01*
Y-168978D01*
Y-168692D01*
Y-168405D01*
X844429D01*
Y-168119D01*
Y-167833D01*
Y-167547D01*
Y-167260D01*
Y-166974D01*
Y-166688D01*
X844715D01*
Y-166401D01*
Y-166115D01*
Y-165829D01*
Y-165542D01*
Y-165256D01*
Y-164970D01*
X845002D01*
Y-164683D01*
Y-164397D01*
Y-164111D01*
Y-163824D01*
Y-163538D01*
Y-163252D01*
Y-162966D01*
X845288D01*
Y-162679D01*
Y-162393D01*
Y-162107D01*
Y-161820D01*
Y-161534D01*
Y-161248D01*
X845574D01*
Y-160961D01*
Y-160675D01*
Y-160389D01*
Y-160102D01*
Y-159816D01*
Y-159530D01*
X845861D01*
Y-159244D01*
Y-158957D01*
Y-158671D01*
Y-158385D01*
Y-158098D01*
Y-157812D01*
X846147D01*
Y-157526D01*
Y-157239D01*
Y-156953D01*
Y-156667D01*
Y-156380D01*
Y-156094D01*
Y-155808D01*
X846433D01*
Y-155521D01*
Y-155235D01*
Y-154949D01*
Y-154663D01*
Y-154376D01*
Y-154090D01*
X846719D01*
Y-153804D01*
Y-153517D01*
Y-153231D01*
Y-152945D01*
Y-152658D01*
Y-152372D01*
X847006D01*
Y-152086D01*
Y-151799D01*
Y-151513D01*
Y-151227D01*
Y-150940D01*
Y-150654D01*
Y-150368D01*
X847292D01*
Y-150082D01*
Y-149795D01*
Y-149509D01*
Y-149223D01*
Y-148936D01*
Y-148650D01*
X847578D01*
Y-148364D01*
Y-148077D01*
Y-147791D01*
Y-147505D01*
Y-147218D01*
Y-146932D01*
X847865D01*
Y-146646D01*
Y-146359D01*
Y-146073D01*
Y-145787D01*
Y-145501D01*
Y-145214D01*
Y-144928D01*
X848151D01*
Y-144641D01*
Y-144355D01*
Y-144069D01*
Y-143783D01*
Y-143496D01*
Y-143210D01*
X848437D01*
Y-142924D01*
Y-142637D01*
Y-142351D01*
Y-142065D01*
Y-141778D01*
Y-141492D01*
X872201D01*
Y-141778D01*
D02*
G37*
G36*
X903409Y-138343D02*
Y-138629D01*
X903123D01*
Y-138915D01*
Y-139202D01*
Y-139488D01*
Y-139774D01*
Y-140060D01*
Y-140347D01*
X902837D01*
Y-140633D01*
Y-140919D01*
Y-141206D01*
Y-141492D01*
Y-141778D01*
Y-142065D01*
X902551D01*
Y-142351D01*
Y-142637D01*
Y-142924D01*
Y-143210D01*
Y-143496D01*
Y-143783D01*
Y-144069D01*
X902264D01*
Y-144355D01*
Y-144641D01*
Y-144928D01*
Y-145214D01*
Y-145501D01*
Y-145787D01*
X901978D01*
Y-146073D01*
Y-146359D01*
Y-146646D01*
Y-146932D01*
Y-147218D01*
Y-147505D01*
X901692D01*
Y-147791D01*
Y-148077D01*
Y-148364D01*
Y-148650D01*
Y-148936D01*
Y-149223D01*
Y-149509D01*
X901405D01*
Y-149795D01*
Y-150082D01*
Y-150368D01*
Y-150654D01*
Y-150940D01*
Y-151227D01*
X901119D01*
Y-151513D01*
Y-151799D01*
Y-152086D01*
Y-152372D01*
Y-152658D01*
Y-152945D01*
X900833D01*
Y-153231D01*
Y-153517D01*
Y-153804D01*
Y-154090D01*
Y-154376D01*
Y-154663D01*
X900546D01*
Y-154949D01*
Y-155235D01*
Y-155521D01*
Y-155808D01*
Y-156094D01*
Y-156380D01*
Y-156667D01*
X900260D01*
Y-156953D01*
Y-157239D01*
Y-157526D01*
Y-157812D01*
Y-158098D01*
Y-158385D01*
X899974D01*
Y-158671D01*
Y-158957D01*
X900546D01*
Y-158671D01*
X900833D01*
Y-158385D01*
X901119D01*
Y-158098D01*
X901692D01*
Y-157812D01*
X901978D01*
Y-157526D01*
X902264D01*
Y-157239D01*
X902837D01*
Y-156953D01*
X903409D01*
Y-156667D01*
X903696D01*
Y-156380D01*
X904268D01*
Y-156094D01*
X905127D01*
Y-155808D01*
X905700D01*
Y-155521D01*
X906559D01*
Y-155235D01*
X907990D01*
Y-154949D01*
X914289D01*
Y-155235D01*
X915435D01*
Y-155521D01*
X916294D01*
Y-155808D01*
X916866D01*
Y-156094D01*
X917153D01*
Y-156380D01*
X917725D01*
Y-156667D01*
X918011D01*
Y-156953D01*
X918298D01*
Y-157239D01*
X918584D01*
Y-157526D01*
X918870D01*
Y-157812D01*
Y-158098D01*
X919157D01*
Y-158385D01*
Y-158671D01*
X919443D01*
Y-158957D01*
Y-159244D01*
Y-159530D01*
X919729D01*
Y-159816D01*
Y-160102D01*
Y-160389D01*
Y-160675D01*
X920016D01*
Y-160961D01*
Y-161248D01*
Y-161534D01*
Y-161820D01*
Y-162107D01*
Y-162393D01*
Y-162679D01*
Y-162966D01*
Y-163252D01*
Y-163538D01*
Y-163824D01*
Y-164111D01*
Y-164397D01*
Y-164683D01*
Y-164970D01*
Y-165256D01*
Y-165542D01*
Y-165829D01*
X919729D01*
Y-166115D01*
Y-166401D01*
Y-166688D01*
Y-166974D01*
Y-167260D01*
Y-167547D01*
Y-167833D01*
X919443D01*
Y-168119D01*
Y-168405D01*
Y-168692D01*
Y-168978D01*
Y-169264D01*
Y-169551D01*
Y-169837D01*
X919157D01*
Y-170123D01*
Y-170410D01*
Y-170696D01*
Y-170982D01*
Y-171269D01*
Y-171555D01*
X918870D01*
Y-171841D01*
Y-172127D01*
Y-172414D01*
Y-172700D01*
Y-172986D01*
Y-173273D01*
X918584D01*
Y-173559D01*
Y-173845D01*
Y-174132D01*
Y-174418D01*
Y-174704D01*
Y-174991D01*
X918298D01*
Y-175277D01*
Y-175563D01*
Y-175850D01*
Y-176136D01*
Y-176422D01*
Y-176709D01*
Y-176995D01*
X918011D01*
Y-177281D01*
Y-177568D01*
Y-177854D01*
Y-178140D01*
Y-178426D01*
Y-178713D01*
X917725D01*
Y-178999D01*
Y-179285D01*
Y-179572D01*
Y-179858D01*
Y-180144D01*
Y-180431D01*
X917439D01*
Y-180717D01*
Y-181003D01*
Y-181290D01*
Y-181576D01*
Y-181862D01*
Y-182149D01*
Y-182435D01*
X917153D01*
Y-182721D01*
Y-183007D01*
Y-183294D01*
Y-183580D01*
Y-183866D01*
Y-184153D01*
X916866D01*
Y-184439D01*
Y-184725D01*
Y-185012D01*
Y-185298D01*
Y-185584D01*
Y-185871D01*
X916580D01*
Y-186157D01*
Y-186443D01*
Y-186730D01*
Y-187016D01*
Y-187302D01*
Y-187588D01*
X916294D01*
Y-187875D01*
Y-188161D01*
Y-188447D01*
Y-188734D01*
Y-189020D01*
Y-189306D01*
Y-189593D01*
X916007D01*
Y-189879D01*
Y-190165D01*
Y-190452D01*
Y-190738D01*
Y-191024D01*
Y-191311D01*
X915721D01*
Y-191597D01*
Y-191883D01*
X902551D01*
Y-191597D01*
Y-191311D01*
X902837D01*
Y-191024D01*
Y-190738D01*
Y-190452D01*
Y-190165D01*
Y-189879D01*
Y-189593D01*
X903123D01*
Y-189306D01*
Y-189020D01*
Y-188734D01*
Y-188447D01*
Y-188161D01*
Y-187875D01*
Y-187588D01*
X903409D01*
Y-187302D01*
Y-187016D01*
Y-186730D01*
Y-186443D01*
Y-186157D01*
Y-185871D01*
X903696D01*
Y-185584D01*
Y-185298D01*
Y-185012D01*
Y-184725D01*
Y-184439D01*
Y-184153D01*
X903982D01*
Y-183866D01*
Y-183580D01*
Y-183294D01*
Y-183007D01*
Y-182721D01*
Y-182435D01*
Y-182149D01*
X904268D01*
Y-181862D01*
Y-181576D01*
Y-181290D01*
Y-181003D01*
Y-180717D01*
Y-180431D01*
X904555D01*
Y-180144D01*
Y-179858D01*
Y-179572D01*
Y-179285D01*
Y-178999D01*
Y-178713D01*
Y-178426D01*
X904841D01*
Y-178140D01*
Y-177854D01*
Y-177568D01*
Y-177281D01*
Y-176995D01*
Y-176709D01*
X905127D01*
Y-176422D01*
Y-176136D01*
Y-175850D01*
Y-175563D01*
Y-175277D01*
Y-174991D01*
X905414D01*
Y-174704D01*
Y-174418D01*
Y-174132D01*
Y-173845D01*
Y-173559D01*
Y-173273D01*
X905700D01*
Y-172986D01*
Y-172700D01*
Y-172414D01*
Y-172127D01*
Y-171841D01*
Y-171555D01*
Y-171269D01*
X905986D01*
Y-170982D01*
Y-170696D01*
Y-170410D01*
Y-170123D01*
Y-169837D01*
Y-169551D01*
X906273D01*
Y-169264D01*
Y-168978D01*
Y-168692D01*
Y-168405D01*
Y-168119D01*
Y-167833D01*
Y-167547D01*
X906559D01*
Y-167260D01*
Y-166974D01*
Y-166688D01*
Y-166401D01*
Y-166115D01*
Y-165829D01*
X906273D01*
Y-165542D01*
Y-165256D01*
X905986D01*
Y-164970D01*
X905700D01*
Y-164683D01*
X905127D01*
Y-164397D01*
X903409D01*
Y-164683D01*
X901978D01*
Y-164970D01*
X901119D01*
Y-165256D01*
X900546D01*
Y-165542D01*
X900260D01*
Y-165829D01*
X899687D01*
Y-166115D01*
X899401D01*
Y-166401D01*
X899115D01*
Y-166688D01*
Y-166974D01*
X898828D01*
Y-167260D01*
Y-167547D01*
Y-167833D01*
X898542D01*
Y-168119D01*
Y-168405D01*
Y-168692D01*
Y-168978D01*
Y-169264D01*
Y-169551D01*
X898256D01*
Y-169837D01*
Y-170123D01*
Y-170410D01*
Y-170696D01*
Y-170982D01*
Y-171269D01*
Y-171555D01*
X897970D01*
Y-171841D01*
Y-172127D01*
Y-172414D01*
Y-172700D01*
Y-172986D01*
Y-173273D01*
X897683D01*
Y-173559D01*
Y-173845D01*
Y-174132D01*
Y-174418D01*
Y-174704D01*
Y-174991D01*
X897397D01*
Y-175277D01*
Y-175563D01*
Y-175850D01*
Y-176136D01*
Y-176422D01*
Y-176709D01*
X897111D01*
Y-176995D01*
Y-177281D01*
Y-177568D01*
Y-177854D01*
Y-178140D01*
Y-178426D01*
Y-178713D01*
X896824D01*
Y-178999D01*
Y-179285D01*
Y-179572D01*
Y-179858D01*
Y-180144D01*
Y-180431D01*
X896538D01*
Y-180717D01*
Y-181003D01*
Y-181290D01*
Y-181576D01*
Y-181862D01*
Y-182149D01*
X896252D01*
Y-182435D01*
Y-182721D01*
Y-183007D01*
Y-183294D01*
Y-183580D01*
Y-183866D01*
Y-184153D01*
X895965D01*
Y-184439D01*
Y-184725D01*
Y-185012D01*
Y-185298D01*
Y-185584D01*
Y-185871D01*
X895679D01*
Y-186157D01*
Y-186443D01*
Y-186730D01*
Y-187016D01*
Y-187302D01*
Y-187588D01*
X895393D01*
Y-187875D01*
Y-188161D01*
Y-188447D01*
Y-188734D01*
Y-189020D01*
Y-189306D01*
X895106D01*
Y-189593D01*
Y-189879D01*
Y-190165D01*
Y-190452D01*
Y-190738D01*
Y-191024D01*
Y-191311D01*
X894820D01*
Y-191597D01*
Y-191883D01*
X881650D01*
Y-191597D01*
Y-191311D01*
X881936D01*
Y-191024D01*
Y-190738D01*
Y-190452D01*
Y-190165D01*
Y-189879D01*
Y-189593D01*
Y-189306D01*
X882222D01*
Y-189020D01*
Y-188734D01*
Y-188447D01*
Y-188161D01*
Y-187875D01*
Y-187588D01*
X882509D01*
Y-187302D01*
Y-187016D01*
Y-186730D01*
Y-186443D01*
Y-186157D01*
Y-185871D01*
X882795D01*
Y-185584D01*
Y-185298D01*
Y-185012D01*
Y-184725D01*
Y-184439D01*
Y-184153D01*
Y-183866D01*
X883081D01*
Y-183580D01*
Y-183294D01*
Y-183007D01*
Y-182721D01*
Y-182435D01*
Y-182149D01*
X883368D01*
Y-181862D01*
Y-181576D01*
Y-181290D01*
Y-181003D01*
Y-180717D01*
Y-180431D01*
X883654D01*
Y-180144D01*
Y-179858D01*
Y-179572D01*
Y-179285D01*
Y-178999D01*
Y-178713D01*
X883940D01*
Y-178426D01*
Y-178140D01*
Y-177854D01*
Y-177568D01*
Y-177281D01*
Y-176995D01*
Y-176709D01*
X884227D01*
Y-176422D01*
Y-176136D01*
Y-175850D01*
Y-175563D01*
Y-175277D01*
Y-174991D01*
X884513D01*
Y-174704D01*
Y-174418D01*
Y-174132D01*
Y-173845D01*
Y-173559D01*
Y-173273D01*
X884799D01*
Y-172986D01*
Y-172700D01*
Y-172414D01*
Y-172127D01*
Y-171841D01*
Y-171555D01*
Y-171269D01*
X885085D01*
Y-170982D01*
Y-170696D01*
Y-170410D01*
Y-170123D01*
Y-169837D01*
Y-169551D01*
X885372D01*
Y-169264D01*
Y-168978D01*
Y-168692D01*
Y-168405D01*
Y-168119D01*
Y-167833D01*
X885658D01*
Y-167547D01*
Y-167260D01*
Y-166974D01*
Y-166688D01*
Y-166401D01*
Y-166115D01*
X885944D01*
Y-165829D01*
Y-165542D01*
Y-165256D01*
Y-164970D01*
Y-164683D01*
Y-164397D01*
Y-164111D01*
X886231D01*
Y-163824D01*
Y-163538D01*
Y-163252D01*
Y-162966D01*
Y-162679D01*
Y-162393D01*
X886517D01*
Y-162107D01*
Y-161820D01*
Y-161534D01*
Y-161248D01*
Y-160961D01*
Y-160675D01*
X886803D01*
Y-160389D01*
Y-160102D01*
Y-159816D01*
Y-159530D01*
Y-159244D01*
Y-158957D01*
X887090D01*
Y-158671D01*
Y-158385D01*
Y-158098D01*
Y-157812D01*
Y-157526D01*
Y-157239D01*
Y-156953D01*
X887376D01*
Y-156667D01*
Y-156380D01*
Y-156094D01*
Y-155808D01*
Y-155521D01*
Y-155235D01*
X887662D01*
Y-154949D01*
Y-154663D01*
Y-154376D01*
Y-154090D01*
Y-153804D01*
Y-153517D01*
X887949D01*
Y-153231D01*
Y-152945D01*
Y-152658D01*
Y-152372D01*
Y-152086D01*
Y-151799D01*
Y-151513D01*
X888235D01*
Y-151227D01*
Y-150940D01*
Y-150654D01*
Y-150368D01*
Y-150082D01*
Y-149795D01*
X888521D01*
Y-149509D01*
Y-149223D01*
Y-148936D01*
Y-148650D01*
Y-148364D01*
Y-148077D01*
X888807D01*
Y-147791D01*
Y-147505D01*
Y-147218D01*
Y-146932D01*
Y-146646D01*
Y-146359D01*
X889094D01*
Y-146073D01*
Y-145787D01*
Y-145501D01*
Y-145214D01*
Y-144928D01*
Y-144641D01*
Y-144355D01*
X889380D01*
Y-144069D01*
Y-143783D01*
Y-143496D01*
Y-143210D01*
Y-142924D01*
Y-142637D01*
X889666D01*
Y-142351D01*
Y-142065D01*
Y-141778D01*
Y-141492D01*
Y-141206D01*
Y-140919D01*
X889953D01*
Y-140633D01*
Y-140347D01*
Y-140060D01*
Y-139774D01*
Y-139488D01*
Y-139202D01*
Y-138915D01*
X890239D01*
Y-138629D01*
Y-138343D01*
Y-138056D01*
X903409D01*
Y-138343D01*
D02*
G37*
G36*
X1005337Y-155808D02*
X1005050D01*
Y-156094D01*
X1004764D01*
Y-156380D01*
Y-156667D01*
X1004478D01*
Y-156953D01*
X1004192D01*
Y-157239D01*
X1003905D01*
Y-157526D01*
Y-157812D01*
X1003619D01*
Y-158098D01*
X1003333D01*
Y-158385D01*
X1003046D01*
Y-158671D01*
X1002760D01*
Y-158957D01*
Y-159244D01*
X1002474D01*
Y-159530D01*
X1002187D01*
Y-159816D01*
X1001901D01*
Y-160102D01*
Y-160389D01*
X1001615D01*
Y-160675D01*
X1001328D01*
Y-160961D01*
X1001042D01*
Y-161248D01*
X1000756D01*
Y-161534D01*
Y-161820D01*
X1000469D01*
Y-162107D01*
X1000183D01*
Y-162393D01*
X999897D01*
Y-162679D01*
Y-162966D01*
X999611D01*
Y-163252D01*
X999324D01*
Y-163538D01*
X999038D01*
Y-163824D01*
Y-164111D01*
X998752D01*
Y-164397D01*
X998465D01*
Y-164683D01*
X998179D01*
Y-164970D01*
X997893D01*
Y-165256D01*
Y-165542D01*
X997606D01*
Y-165829D01*
X997320D01*
Y-166115D01*
X997034D01*
Y-166401D01*
Y-166688D01*
X996747D01*
Y-166974D01*
X996461D01*
Y-167260D01*
X996175D01*
Y-167547D01*
Y-167833D01*
X995889D01*
Y-168119D01*
X995602D01*
Y-168405D01*
X995316D01*
Y-168692D01*
X995030D01*
Y-168978D01*
Y-169264D01*
X994743D01*
Y-169551D01*
X994457D01*
Y-169837D01*
X994171D01*
Y-170123D01*
Y-170410D01*
X993884D01*
Y-170696D01*
X993598D01*
Y-170982D01*
X993312D01*
Y-171269D01*
Y-171555D01*
X993025D01*
Y-171841D01*
X992739D01*
Y-172127D01*
X992453D01*
Y-172414D01*
X992166D01*
Y-172700D01*
Y-172986D01*
X991880D01*
Y-173273D01*
X991594D01*
Y-173559D01*
X991308D01*
Y-173845D01*
Y-174132D01*
X991021D01*
Y-174418D01*
X990735D01*
Y-174704D01*
X990449D01*
Y-174991D01*
X990162D01*
Y-175277D01*
Y-175563D01*
X990449D01*
Y-175850D01*
Y-176136D01*
X990735D01*
Y-176422D01*
Y-176709D01*
X991021D01*
Y-176995D01*
X991308D01*
Y-177281D01*
Y-177568D01*
X991594D01*
Y-177854D01*
Y-178140D01*
X991880D01*
Y-178426D01*
Y-178713D01*
X992166D01*
Y-178999D01*
Y-179285D01*
X992453D01*
Y-179572D01*
Y-179858D01*
X992739D01*
Y-180144D01*
Y-180431D01*
X993025D01*
Y-180717D01*
Y-181003D01*
X993312D01*
Y-181290D01*
Y-181576D01*
X993598D01*
Y-181862D01*
X993884D01*
Y-182149D01*
Y-182435D01*
X994171D01*
Y-182721D01*
Y-183007D01*
X994457D01*
Y-183294D01*
Y-183580D01*
X994743D01*
Y-183866D01*
Y-184153D01*
X995030D01*
Y-184439D01*
Y-184725D01*
X995316D01*
Y-185012D01*
Y-185298D01*
X995602D01*
Y-185584D01*
Y-185871D01*
X995889D01*
Y-186157D01*
X996175D01*
Y-186443D01*
Y-186730D01*
X996461D01*
Y-187016D01*
Y-187302D01*
X996747D01*
Y-187588D01*
Y-187875D01*
X997034D01*
Y-188161D01*
Y-188447D01*
X997320D01*
Y-188734D01*
Y-189020D01*
X997606D01*
Y-189306D01*
Y-189593D01*
X997893D01*
Y-189879D01*
Y-190165D01*
X998179D01*
Y-190452D01*
X998465D01*
Y-190738D01*
Y-191024D01*
X998752D01*
Y-191311D01*
Y-191597D01*
X999038D01*
Y-191883D01*
X983863D01*
Y-191597D01*
X983577D01*
Y-191311D01*
Y-191024D01*
Y-190738D01*
X983291D01*
Y-190452D01*
Y-190165D01*
Y-189879D01*
X983004D01*
Y-189593D01*
Y-189306D01*
X982718D01*
Y-189020D01*
Y-188734D01*
Y-188447D01*
X982432D01*
Y-188161D01*
Y-187875D01*
Y-187588D01*
X982146D01*
Y-187302D01*
Y-187016D01*
X981859D01*
Y-186730D01*
Y-186443D01*
Y-186157D01*
X981573D01*
Y-185871D01*
Y-185584D01*
Y-185298D01*
X981287D01*
Y-185012D01*
Y-184725D01*
Y-184439D01*
X981000D01*
Y-184153D01*
X980428D01*
Y-184439D01*
Y-184725D01*
X980141D01*
Y-185012D01*
X979855D01*
Y-185298D01*
Y-185584D01*
X979569D01*
Y-185871D01*
X979282D01*
Y-186157D01*
Y-186443D01*
X978996D01*
Y-186730D01*
X978710D01*
Y-187016D01*
Y-187302D01*
X978423D01*
Y-187588D01*
X978137D01*
Y-187875D01*
X977851D01*
Y-188161D01*
Y-188447D01*
X977565D01*
Y-188734D01*
X977278D01*
Y-189020D01*
Y-189306D01*
X976992D01*
Y-189593D01*
X976705D01*
Y-189879D01*
Y-190165D01*
X976419D01*
Y-190452D01*
X976133D01*
Y-190738D01*
Y-191024D01*
X975847D01*
Y-191311D01*
X975560D01*
Y-191597D01*
Y-191883D01*
X959527D01*
Y-191597D01*
X959813D01*
Y-191311D01*
X960099D01*
Y-191024D01*
X960386D01*
Y-190738D01*
X960672D01*
Y-190452D01*
Y-190165D01*
X960958D01*
Y-189879D01*
X961245D01*
Y-189593D01*
X961531D01*
Y-189306D01*
X961817D01*
Y-189020D01*
Y-188734D01*
X962104D01*
Y-188447D01*
X962390D01*
Y-188161D01*
X962676D01*
Y-187875D01*
Y-187588D01*
X962963D01*
Y-187302D01*
X963249D01*
Y-187016D01*
X963535D01*
Y-186730D01*
X963822D01*
Y-186443D01*
Y-186157D01*
X964108D01*
Y-185871D01*
X964394D01*
Y-185584D01*
X964680D01*
Y-185298D01*
X964967D01*
Y-185012D01*
Y-184725D01*
X965253D01*
Y-184439D01*
X965539D01*
Y-184153D01*
X965826D01*
Y-183866D01*
Y-183580D01*
X966112D01*
Y-183294D01*
X966398D01*
Y-183007D01*
X966685D01*
Y-182721D01*
X966971D01*
Y-182435D01*
Y-182149D01*
X967257D01*
Y-181862D01*
X967544D01*
Y-181576D01*
X967830D01*
Y-181290D01*
Y-181003D01*
X968116D01*
Y-180717D01*
X968402D01*
Y-180431D01*
X968689D01*
Y-180144D01*
X968975D01*
Y-179858D01*
Y-179572D01*
X969261D01*
Y-179285D01*
X969548D01*
Y-178999D01*
X969834D01*
Y-178713D01*
Y-178426D01*
X970120D01*
Y-178140D01*
X970407D01*
Y-177854D01*
X970693D01*
Y-177568D01*
X970979D01*
Y-177281D01*
Y-176995D01*
X971266D01*
Y-176709D01*
X971552D01*
Y-176422D01*
X971838D01*
Y-176136D01*
X972124D01*
Y-175850D01*
Y-175563D01*
X972411D01*
Y-175277D01*
X972697D01*
Y-174991D01*
X972983D01*
Y-174704D01*
Y-174418D01*
X973270D01*
Y-174132D01*
X973556D01*
Y-173845D01*
X973842D01*
Y-173559D01*
X974129D01*
Y-173273D01*
Y-172986D01*
X974415D01*
Y-172700D01*
Y-172414D01*
Y-172127D01*
X974129D01*
Y-171841D01*
X973842D01*
Y-171555D01*
Y-171269D01*
X973556D01*
Y-170982D01*
Y-170696D01*
X973270D01*
Y-170410D01*
Y-170123D01*
X972983D01*
Y-169837D01*
Y-169551D01*
X972697D01*
Y-169264D01*
Y-168978D01*
X972411D01*
Y-168692D01*
Y-168405D01*
X972124D01*
Y-168119D01*
X971838D01*
Y-167833D01*
Y-167547D01*
X971552D01*
Y-167260D01*
Y-166974D01*
X971266D01*
Y-166688D01*
Y-166401D01*
X970979D01*
Y-166115D01*
Y-165829D01*
X970693D01*
Y-165542D01*
Y-165256D01*
X970407D01*
Y-164970D01*
Y-164683D01*
X970120D01*
Y-164397D01*
X969834D01*
Y-164111D01*
Y-163824D01*
X969548D01*
Y-163538D01*
Y-163252D01*
X969261D01*
Y-162966D01*
Y-162679D01*
X968975D01*
Y-162393D01*
Y-162107D01*
X968689D01*
Y-161820D01*
Y-161534D01*
X968402D01*
Y-161248D01*
Y-160961D01*
X968116D01*
Y-160675D01*
Y-160389D01*
X967830D01*
Y-160102D01*
X967544D01*
Y-159816D01*
Y-159530D01*
X967257D01*
Y-159244D01*
Y-158957D01*
X966971D01*
Y-158671D01*
Y-158385D01*
X966685D01*
Y-158098D01*
Y-157812D01*
X966398D01*
Y-157526D01*
Y-157239D01*
X966112D01*
Y-156953D01*
Y-156667D01*
X965826D01*
Y-156380D01*
X965539D01*
Y-156094D01*
Y-155808D01*
X965253D01*
Y-155521D01*
X981000D01*
Y-155808D01*
X981287D01*
Y-156094D01*
Y-156380D01*
Y-156667D01*
X981573D01*
Y-156953D01*
Y-157239D01*
Y-157526D01*
X981859D01*
Y-157812D01*
Y-158098D01*
Y-158385D01*
X982146D01*
Y-158671D01*
Y-158957D01*
Y-159244D01*
X982432D01*
Y-159530D01*
Y-159816D01*
Y-160102D01*
X982718D01*
Y-160389D01*
Y-160675D01*
Y-160961D01*
X983004D01*
Y-161248D01*
Y-161534D01*
Y-161820D01*
X983291D01*
Y-162107D01*
Y-162393D01*
Y-162679D01*
X983577D01*
Y-162966D01*
Y-163252D01*
Y-163538D01*
Y-163824D01*
X984150D01*
Y-163538D01*
X984436D01*
Y-163252D01*
X984722D01*
Y-162966D01*
Y-162679D01*
X985009D01*
Y-162393D01*
X985295D01*
Y-162107D01*
Y-161820D01*
X985581D01*
Y-161534D01*
X985868D01*
Y-161248D01*
Y-160961D01*
X986154D01*
Y-160675D01*
X986440D01*
Y-160389D01*
Y-160102D01*
X986726D01*
Y-159816D01*
X987013D01*
Y-159530D01*
Y-159244D01*
X987299D01*
Y-158957D01*
X987585D01*
Y-158671D01*
Y-158385D01*
X987872D01*
Y-158098D01*
X988158D01*
Y-157812D01*
Y-157526D01*
X988444D01*
Y-157239D01*
X988731D01*
Y-156953D01*
Y-156667D01*
X989017D01*
Y-156380D01*
X989303D01*
Y-156094D01*
Y-155808D01*
X989590D01*
Y-155521D01*
X1005337D01*
Y-155808D01*
D02*
G37*
G36*
X961245D02*
Y-156094D01*
Y-156380D01*
Y-156667D01*
Y-156953D01*
Y-157239D01*
Y-157526D01*
Y-157812D01*
Y-158098D01*
Y-158385D01*
Y-158671D01*
Y-158957D01*
Y-159244D01*
Y-159530D01*
Y-159816D01*
Y-160102D01*
Y-160389D01*
Y-160675D01*
Y-160961D01*
Y-161248D01*
Y-161534D01*
X960958D01*
Y-161820D01*
Y-162107D01*
Y-162393D01*
Y-162679D01*
Y-162966D01*
X960672D01*
Y-163252D01*
Y-163538D01*
Y-163824D01*
Y-164111D01*
X960386D01*
Y-164397D01*
Y-164683D01*
Y-164970D01*
Y-165256D01*
X960099D01*
Y-165542D01*
Y-165829D01*
Y-166115D01*
X959813D01*
Y-166401D01*
Y-166688D01*
Y-166974D01*
X959527D01*
Y-167260D01*
Y-167547D01*
Y-167833D01*
X959241D01*
Y-168119D01*
Y-168405D01*
Y-168692D01*
X958954D01*
Y-168978D01*
Y-169264D01*
X958668D01*
Y-169551D01*
Y-169837D01*
X958381D01*
Y-170123D01*
Y-170410D01*
Y-170696D01*
X958095D01*
Y-170982D01*
Y-171269D01*
X957809D01*
Y-171555D01*
Y-171841D01*
Y-172127D01*
X957523D01*
Y-172414D01*
Y-172700D01*
X957236D01*
Y-172986D01*
Y-173273D01*
Y-173559D01*
X956950D01*
Y-173845D01*
Y-174132D01*
X956664D01*
Y-174418D01*
Y-174704D01*
Y-174991D01*
X956377D01*
Y-175277D01*
Y-175563D01*
X956091D01*
Y-175850D01*
Y-176136D01*
Y-176422D01*
X955805D01*
Y-176709D01*
Y-176995D01*
X955518D01*
Y-177281D01*
Y-177568D01*
Y-177854D01*
X955232D01*
Y-178140D01*
Y-178426D01*
X954946D01*
Y-178713D01*
Y-178999D01*
Y-179285D01*
X954659D01*
Y-179572D01*
Y-179858D01*
X954373D01*
Y-180144D01*
Y-180431D01*
Y-180717D01*
X954087D01*
Y-181003D01*
Y-181290D01*
X953800D01*
Y-181576D01*
Y-181862D01*
Y-182149D01*
X953514D01*
Y-182435D01*
Y-182721D01*
X953228D01*
Y-183007D01*
Y-183294D01*
Y-183580D01*
X952942D01*
Y-183866D01*
Y-184153D01*
X952655D01*
Y-184439D01*
Y-184725D01*
Y-185012D01*
X952369D01*
Y-185298D01*
Y-185584D01*
X952083D01*
Y-185871D01*
Y-186157D01*
Y-186443D01*
X951796D01*
Y-186730D01*
Y-187016D01*
X951510D01*
Y-187302D01*
Y-187588D01*
Y-187875D01*
X951224D01*
Y-188161D01*
Y-188447D01*
X950937D01*
Y-188734D01*
Y-189020D01*
Y-189306D01*
X950651D01*
Y-189593D01*
Y-189879D01*
X950365D01*
Y-190165D01*
Y-190452D01*
Y-190738D01*
X950078D01*
Y-191024D01*
Y-191311D01*
X949792D01*
Y-191597D01*
Y-191883D01*
Y-192169D01*
X949506D01*
Y-192456D01*
Y-192742D01*
X949220D01*
Y-193028D01*
Y-193315D01*
X948933D01*
Y-193601D01*
Y-193887D01*
X948647D01*
Y-194174D01*
Y-194460D01*
Y-194746D01*
X948361D01*
Y-195033D01*
X948074D01*
Y-195319D01*
Y-195605D01*
Y-195891D01*
X947788D01*
Y-196178D01*
X947502D01*
Y-196464D01*
Y-196750D01*
X947215D01*
Y-197037D01*
Y-197323D01*
X946929D01*
Y-197609D01*
Y-197896D01*
X946643D01*
Y-198182D01*
Y-198468D01*
X946356D01*
Y-198755D01*
X946070D01*
Y-199041D01*
Y-199327D01*
X945784D01*
Y-199614D01*
Y-199900D01*
X945497D01*
Y-200186D01*
X945211D01*
Y-200472D01*
X944925D01*
Y-200759D01*
Y-201045D01*
X944639D01*
Y-201331D01*
X944352D01*
Y-201618D01*
Y-201904D01*
X944066D01*
Y-202190D01*
X943780D01*
Y-202477D01*
X943493D01*
Y-202763D01*
Y-203049D01*
X943207D01*
Y-203336D01*
X942921D01*
Y-203622D01*
X942634D01*
Y-203908D01*
X942348D01*
Y-204195D01*
X942062D01*
Y-204481D01*
Y-204767D01*
X941775D01*
Y-205053D01*
X941489D01*
Y-205340D01*
X941203D01*
Y-205626D01*
X940916D01*
Y-205912D01*
X940630D01*
Y-206199D01*
X940344D01*
Y-206485D01*
X940057D01*
Y-206771D01*
X939485D01*
Y-207058D01*
X939199D01*
Y-207344D01*
X938912D01*
Y-207630D01*
X938626D01*
Y-207917D01*
X938340D01*
Y-208203D01*
X937767D01*
Y-208489D01*
X937481D01*
Y-208776D01*
X936908D01*
Y-209062D01*
X936622D01*
Y-209348D01*
X936049D01*
Y-209634D01*
X935763D01*
Y-209921D01*
X935190D01*
Y-210207D01*
X934618D01*
Y-210493D01*
X934045D01*
Y-210780D01*
X933472D01*
Y-211066D01*
X932900D01*
Y-211352D01*
X932041D01*
Y-211639D01*
X931468D01*
Y-211925D01*
X930609D01*
Y-212211D01*
X929464D01*
Y-212498D01*
X928319D01*
Y-212784D01*
X926601D01*
Y-213070D01*
X924597D01*
Y-213357D01*
X924310D01*
Y-213070D01*
Y-212784D01*
Y-212498D01*
Y-212211D01*
Y-211925D01*
Y-211639D01*
Y-211352D01*
Y-211066D01*
Y-210780D01*
Y-210493D01*
Y-210207D01*
Y-209921D01*
Y-209634D01*
Y-209348D01*
Y-209062D01*
Y-208776D01*
Y-208489D01*
Y-208203D01*
Y-207917D01*
Y-207630D01*
Y-207344D01*
Y-207058D01*
Y-206771D01*
Y-206485D01*
Y-206199D01*
Y-205912D01*
Y-205626D01*
Y-205340D01*
Y-205053D01*
Y-204767D01*
Y-204481D01*
Y-204195D01*
Y-203908D01*
X924883D01*
Y-203622D01*
X925455D01*
Y-203336D01*
X926028D01*
Y-203049D01*
X926601D01*
Y-202763D01*
X927173D01*
Y-202477D01*
X927746D01*
Y-202190D01*
X928032D01*
Y-201904D01*
X928605D01*
Y-201618D01*
X928891D01*
Y-201331D01*
X929464D01*
Y-201045D01*
X929750D01*
Y-200759D01*
X930037D01*
Y-200472D01*
X930609D01*
Y-200186D01*
X930896D01*
Y-199900D01*
X931182D01*
Y-199614D01*
X931468D01*
Y-199327D01*
X931754D01*
Y-199041D01*
X932041D01*
Y-198755D01*
X932327D01*
Y-198468D01*
X932613D01*
Y-198182D01*
X932900D01*
Y-197896D01*
X933186D01*
Y-197609D01*
X933472D01*
Y-197323D01*
X933759D01*
Y-197037D01*
Y-196750D01*
X934045D01*
Y-196464D01*
X934331D01*
Y-196178D01*
X934618D01*
Y-195891D01*
Y-195605D01*
X934904D01*
Y-195319D01*
X935190D01*
Y-195033D01*
Y-194746D01*
X935476D01*
Y-194460D01*
Y-194174D01*
X935763D01*
Y-193887D01*
X936049D01*
Y-193601D01*
Y-193315D01*
X936335D01*
Y-193028D01*
Y-192742D01*
X936622D01*
Y-192456D01*
Y-192169D01*
X934904D01*
Y-191883D01*
X932900D01*
Y-191597D01*
X931754D01*
Y-191311D01*
X931182D01*
Y-191024D01*
X930323D01*
Y-190738D01*
X929750D01*
Y-190452D01*
X929464D01*
Y-190165D01*
X928891D01*
Y-189879D01*
X928605D01*
Y-189593D01*
X928319D01*
Y-189306D01*
X928032D01*
Y-189020D01*
X927746D01*
Y-188734D01*
X927460D01*
Y-188447D01*
Y-188161D01*
X927173D01*
Y-187875D01*
X926887D01*
Y-187588D01*
Y-187302D01*
X926601D01*
Y-187016D01*
Y-186730D01*
X926315D01*
Y-186443D01*
Y-186157D01*
X926028D01*
Y-185871D01*
Y-185584D01*
Y-185298D01*
X925742D01*
Y-185012D01*
Y-184725D01*
Y-184439D01*
Y-184153D01*
X925455D01*
Y-183866D01*
Y-183580D01*
Y-183294D01*
Y-183007D01*
Y-182721D01*
Y-182435D01*
Y-182149D01*
X925169D01*
Y-181862D01*
Y-181576D01*
Y-181290D01*
Y-181003D01*
Y-180717D01*
Y-180431D01*
Y-180144D01*
Y-179858D01*
Y-179572D01*
Y-179285D01*
Y-178999D01*
Y-178713D01*
Y-178426D01*
Y-178140D01*
Y-177854D01*
X924883D01*
Y-177568D01*
Y-177281D01*
Y-176995D01*
Y-176709D01*
Y-176422D01*
Y-176136D01*
Y-175850D01*
Y-175563D01*
Y-175277D01*
Y-174991D01*
Y-174704D01*
Y-174418D01*
Y-174132D01*
Y-173845D01*
Y-173559D01*
X924597D01*
Y-173273D01*
Y-172986D01*
Y-172700D01*
Y-172414D01*
Y-172127D01*
Y-171841D01*
Y-171555D01*
Y-171269D01*
Y-170982D01*
Y-170696D01*
Y-170410D01*
Y-170123D01*
Y-169837D01*
Y-169551D01*
Y-169264D01*
Y-168978D01*
X924310D01*
Y-168692D01*
Y-168405D01*
Y-168119D01*
Y-167833D01*
Y-167547D01*
Y-167260D01*
Y-166974D01*
Y-166688D01*
Y-166401D01*
Y-166115D01*
Y-165829D01*
Y-165542D01*
Y-165256D01*
Y-164970D01*
Y-164683D01*
Y-164397D01*
X924024D01*
Y-164111D01*
Y-163824D01*
Y-163538D01*
Y-163252D01*
Y-162966D01*
Y-162679D01*
Y-162393D01*
Y-162107D01*
Y-161820D01*
Y-161534D01*
Y-161248D01*
Y-160961D01*
Y-160675D01*
Y-160389D01*
X923738D01*
Y-160102D01*
Y-159816D01*
Y-159530D01*
Y-159244D01*
Y-158957D01*
Y-158671D01*
Y-158385D01*
Y-158098D01*
Y-157812D01*
Y-157526D01*
Y-157239D01*
Y-156953D01*
Y-156667D01*
Y-156380D01*
Y-156094D01*
Y-155808D01*
X923451D01*
Y-155521D01*
X937194D01*
Y-155808D01*
Y-156094D01*
Y-156380D01*
Y-156667D01*
Y-156953D01*
Y-157239D01*
Y-157526D01*
Y-157812D01*
Y-158098D01*
Y-158385D01*
Y-158671D01*
Y-158957D01*
Y-159244D01*
Y-159530D01*
X937481D01*
Y-159816D01*
Y-160102D01*
Y-160389D01*
Y-160675D01*
Y-160961D01*
Y-161248D01*
Y-161534D01*
Y-161820D01*
Y-162107D01*
Y-162393D01*
Y-162679D01*
Y-162966D01*
Y-163252D01*
Y-163538D01*
Y-163824D01*
Y-164111D01*
Y-164397D01*
Y-164683D01*
Y-164970D01*
Y-165256D01*
Y-165542D01*
Y-165829D01*
Y-166115D01*
Y-166401D01*
Y-166688D01*
Y-166974D01*
Y-167260D01*
Y-167547D01*
Y-167833D01*
Y-168119D01*
Y-168405D01*
Y-168692D01*
Y-168978D01*
Y-169264D01*
Y-169551D01*
Y-169837D01*
Y-170123D01*
Y-170410D01*
Y-170696D01*
Y-170982D01*
Y-171269D01*
X937767D01*
Y-171555D01*
X937481D01*
Y-171841D01*
Y-172127D01*
X937767D01*
Y-172414D01*
Y-172700D01*
Y-172986D01*
Y-173273D01*
Y-173559D01*
Y-173845D01*
Y-174132D01*
Y-174418D01*
Y-174704D01*
Y-174991D01*
Y-175277D01*
Y-175563D01*
Y-175850D01*
Y-176136D01*
Y-176422D01*
Y-176709D01*
Y-176995D01*
Y-177281D01*
Y-177568D01*
Y-177854D01*
Y-178140D01*
Y-178426D01*
Y-178713D01*
Y-178999D01*
Y-179285D01*
Y-179572D01*
X938053D01*
Y-179858D01*
Y-180144D01*
Y-180431D01*
X938340D01*
Y-180717D01*
X938626D01*
Y-181003D01*
X938912D01*
Y-181290D01*
X939771D01*
Y-181576D01*
X940630D01*
Y-181290D01*
X940916D01*
Y-181003D01*
Y-180717D01*
Y-180431D01*
X941203D01*
Y-180144D01*
Y-179858D01*
X941489D01*
Y-179572D01*
Y-179285D01*
Y-178999D01*
X941775D01*
Y-178713D01*
Y-178426D01*
Y-178140D01*
X942062D01*
Y-177854D01*
Y-177568D01*
Y-177281D01*
X942348D01*
Y-176995D01*
Y-176709D01*
Y-176422D01*
X942634D01*
Y-176136D01*
Y-175850D01*
X942921D01*
Y-175563D01*
Y-175277D01*
Y-174991D01*
X943207D01*
Y-174704D01*
Y-174418D01*
Y-174132D01*
X943493D01*
Y-173845D01*
Y-173559D01*
Y-173273D01*
X943780D01*
Y-172986D01*
Y-172700D01*
X944066D01*
Y-172414D01*
Y-172127D01*
Y-171841D01*
X944352D01*
Y-171555D01*
Y-171269D01*
Y-170982D01*
X944639D01*
Y-170696D01*
Y-170410D01*
Y-170123D01*
X944925D01*
Y-169837D01*
Y-169551D01*
X945211D01*
Y-169264D01*
Y-168978D01*
Y-168692D01*
X945497D01*
Y-168405D01*
Y-168119D01*
Y-167833D01*
X945784D01*
Y-167547D01*
Y-167260D01*
Y-166974D01*
X946070D01*
Y-166688D01*
Y-166401D01*
X946356D01*
Y-166115D01*
Y-165829D01*
Y-165542D01*
X946643D01*
Y-165256D01*
Y-164970D01*
Y-164683D01*
X946929D01*
Y-164397D01*
Y-164111D01*
Y-163824D01*
X947215D01*
Y-163538D01*
Y-163252D01*
Y-162966D01*
Y-162679D01*
X947502D01*
Y-162393D01*
Y-162107D01*
Y-161820D01*
Y-161534D01*
X947788D01*
Y-161248D01*
Y-160961D01*
Y-160675D01*
Y-160389D01*
Y-160102D01*
X948074D01*
Y-159816D01*
Y-159530D01*
Y-159244D01*
Y-158957D01*
Y-158671D01*
Y-158385D01*
X948361D01*
Y-158098D01*
Y-157812D01*
Y-157526D01*
Y-157239D01*
Y-156953D01*
Y-156667D01*
Y-156380D01*
Y-156094D01*
Y-155808D01*
Y-155521D01*
X961245D01*
Y-155808D01*
D02*
G37*
%LPC*%
G36*
X867907Y-152658D02*
X859890D01*
Y-152945D01*
Y-153231D01*
Y-153517D01*
Y-153804D01*
Y-154090D01*
X859604D01*
Y-154376D01*
Y-154663D01*
Y-154949D01*
Y-155235D01*
Y-155521D01*
Y-155808D01*
X859317D01*
Y-156094D01*
Y-156380D01*
Y-156667D01*
Y-156953D01*
Y-157239D01*
Y-157526D01*
X859031D01*
Y-157812D01*
Y-158098D01*
Y-158385D01*
Y-158671D01*
Y-158957D01*
Y-159244D01*
X858745D01*
Y-159530D01*
Y-159816D01*
Y-160102D01*
Y-160389D01*
Y-160675D01*
Y-160961D01*
Y-161248D01*
X858458D01*
Y-161534D01*
Y-161820D01*
Y-162107D01*
Y-162393D01*
Y-162679D01*
Y-162966D01*
X858172D01*
Y-163252D01*
Y-163538D01*
Y-163824D01*
X865330D01*
Y-163538D01*
X866475D01*
Y-163252D01*
X867048D01*
Y-162966D01*
X867334D01*
Y-162679D01*
X867620D01*
Y-162393D01*
X867907D01*
Y-162107D01*
X868193D01*
Y-161820D01*
Y-161534D01*
X868479D01*
Y-161248D01*
Y-160961D01*
X868766D01*
Y-160675D01*
Y-160389D01*
X869052D01*
Y-160102D01*
Y-159816D01*
Y-159530D01*
Y-159244D01*
X869338D01*
Y-158957D01*
Y-158671D01*
Y-158385D01*
Y-158098D01*
Y-157812D01*
X869625D01*
Y-157526D01*
Y-157239D01*
Y-156953D01*
Y-156667D01*
Y-156380D01*
Y-156094D01*
Y-155808D01*
Y-155521D01*
Y-155235D01*
Y-154949D01*
Y-154663D01*
X869338D01*
Y-154376D01*
Y-154090D01*
X869052D01*
Y-153804D01*
Y-153517D01*
X868766D01*
Y-153231D01*
X868479D01*
Y-152945D01*
X867907D01*
Y-152658D01*
D02*
G37*
%LPD*%
D12*
X1178748Y-229571D02*
Y-190201D01*
X1021267Y-150831D02*
X1296858D01*
X1021267Y-190201D02*
X1296858D01*
X824417Y-229571D02*
X1296858D01*
X824417Y-111461D02*
X1296858D01*
X824417Y-268941D02*
Y-111461D01*
X1021267Y-268941D02*
Y-111461D01*
X-356685Y900350D02*
X1296858D01*
Y-268941D02*
Y900350D01*
X-356685Y-268941D02*
Y900350D01*
Y-268941D02*
X1296858D01*
X1035046Y-255164D02*
X1031110D01*
Y-258115D01*
X1033078D01*
X1031110D01*
Y-261067D01*
X1037014Y-257131D02*
Y-261067D01*
Y-259099D01*
X1037998Y-258115D01*
X1038981Y-257131D01*
X1039965D01*
X1042917Y-261067D02*
X1044885D01*
X1043901D01*
Y-257131D01*
X1042917D01*
X1047837Y-256147D02*
X1048821Y-255164D01*
X1050789D01*
X1051772Y-256147D01*
Y-257131D01*
X1050789Y-258115D01*
X1049805D01*
X1050789D01*
X1051772Y-259099D01*
Y-260083D01*
X1050789Y-261067D01*
X1048821D01*
X1047837Y-260083D01*
X1053740Y-255164D02*
Y-261067D01*
X1056692D01*
X1057676Y-260083D01*
Y-256147D01*
X1056692Y-255164D01*
X1053740D01*
X1059644Y-262051D02*
X1063580D01*
X1069483Y-261067D02*
X1065548D01*
X1069483Y-257131D01*
Y-256147D01*
X1068499Y-255164D01*
X1066531D01*
X1065548Y-256147D01*
X1071451D02*
X1072435Y-255164D01*
X1074403D01*
X1075387Y-256147D01*
Y-260083D01*
X1074403Y-261067D01*
X1072435D01*
X1071451Y-260083D01*
Y-256147D01*
X1081291Y-261067D02*
X1077355D01*
X1081291Y-257131D01*
Y-256147D01*
X1080307Y-255164D01*
X1078339D01*
X1077355Y-256147D01*
X1083258D02*
X1084242Y-255164D01*
X1086210D01*
X1087194Y-256147D01*
Y-260083D01*
X1086210Y-261067D01*
X1084242D01*
X1083258Y-260083D01*
Y-256147D01*
X1089162Y-262051D02*
X1093098D01*
X1099001Y-256147D02*
X1098017Y-255164D01*
X1096049D01*
X1095066Y-256147D01*
Y-257131D01*
X1096049Y-258115D01*
X1098017D01*
X1099001Y-259099D01*
Y-260083D01*
X1098017Y-261067D01*
X1096049D01*
X1095066Y-260083D01*
X1100969Y-257131D02*
Y-260083D01*
X1101953Y-261067D01*
X1102937Y-260083D01*
X1103921Y-261067D01*
X1104905Y-260083D01*
Y-257131D01*
X1109825Y-261067D02*
X1107857D01*
X1106873Y-260083D01*
Y-258115D01*
X1107857Y-257131D01*
X1109825D01*
X1110808Y-258115D01*
Y-259099D01*
X1106873D01*
X1115728Y-261067D02*
X1113760D01*
X1112776Y-260083D01*
Y-258115D01*
X1113760Y-257131D01*
X1115728D01*
X1116712Y-258115D01*
Y-259099D01*
X1112776D01*
X1119664Y-256147D02*
Y-257131D01*
X1118680D01*
X1120648D01*
X1119664D01*
Y-260083D01*
X1120648Y-261067D01*
X1126552D02*
Y-255164D01*
X1123600Y-258115D01*
X1127535D01*
X1129503Y-257131D02*
X1133439Y-261067D01*
X1131471Y-259099D01*
X1133439Y-257131D01*
X1129503Y-261067D01*
X1138359D02*
Y-255164D01*
X1135407Y-258115D01*
X1139343D01*
X1141311Y-262051D02*
X1145246D01*
X1147214Y-256147D02*
X1148198Y-255164D01*
X1150166D01*
X1151150Y-256147D01*
Y-260083D01*
X1150166Y-261067D01*
X1148198D01*
X1147214Y-260083D01*
Y-256147D01*
X1153118Y-261067D02*
X1155085D01*
X1154102D01*
Y-255164D01*
X1153118Y-256147D01*
X1158037Y-261067D02*
Y-260083D01*
X1159021D01*
Y-261067D01*
X1158037D01*
X1162957D02*
Y-255164D01*
X1165909D01*
X1166893Y-256147D01*
Y-258115D01*
X1165909Y-259099D01*
X1162957D01*
X1172796Y-257131D02*
X1169845D01*
X1168861Y-258115D01*
Y-260083D01*
X1169845Y-261067D01*
X1172796D01*
X1174764Y-255164D02*
Y-261067D01*
X1177716D01*
X1178700Y-260083D01*
Y-259099D01*
Y-258115D01*
X1177716Y-257131D01*
X1174764D01*
X1180668Y-255164D02*
Y-261067D01*
X1183620D01*
X1184604Y-260083D01*
Y-256147D01*
X1183620Y-255164D01*
X1180668D01*
X1187555Y-261067D02*
X1189523D01*
X1190507Y-260083D01*
Y-258115D01*
X1189523Y-257131D01*
X1187555D01*
X1186571Y-258115D01*
Y-260083D01*
X1187555Y-261067D01*
X1196411Y-257131D02*
X1193459D01*
X1192475Y-258115D01*
Y-260083D01*
X1193459Y-261067D01*
X1196411D01*
D14*
X72380Y201516D02*
G03*
X75740Y200105I1968J-19D01*
G01*
X74766Y208039D02*
G03*
X74766Y206647I696J-696D01*
G01*
X77549Y201915D02*
G03*
X76139Y205275I-1392J1392D01*
G01*
X66275Y206230D02*
G03*
X66275Y207622I-696J696D01*
G01*
X65110Y205066D02*
G03*
X63700Y201706I-19J-1968D01*
G01*
X71007Y202889D02*
G03*
X69615Y202889I-696J-696D01*
G01*
X65092Y200314D02*
G03*
X68452Y201724I1392J1392D01*
G01*
X75930Y209203D02*
G03*
X77341Y212563I19J1968D01*
G01*
X70033Y211380D02*
G03*
X71425Y211380I696J696D01*
G01*
X68661Y212753D02*
G03*
X65300Y214164I-1968J19D01*
G01*
X63491Y212354D02*
G03*
X64901Y208994I1392J-1392D01*
G01*
X75949Y213955D02*
G03*
X72588Y212544I-1392J-1392D01*
G01*
X27559Y163779D02*
G03*
X21654Y157874I0J-5906D01*
G01*
Y108268D02*
G03*
X27559Y102362I5906J0D01*
G01*
X76772Y157874D02*
G03*
X70866Y163779I-5906J0D01*
G01*
Y102362D02*
G03*
X76772Y108268I0J5906D01*
G01*
X452756Y0D02*
G03*
X472441Y19685I0J19685D01*
G01*
Y354331D02*
G03*
X452756Y374016I-19685J0D01*
G01*
X0Y19685D02*
G03*
X19685Y0I19685J0D01*
G01*
Y374016D02*
G03*
X0Y354331I0J-19685D01*
G01*
X37402Y374016D02*
G03*
X33695Y372481I0J-5241D01*
G01*
X23045Y372624D02*
G03*
X19685Y374016I-3360J-3360D01*
G01*
X2469Y349748D02*
G03*
X4544Y349845I989J1085D01*
G01*
X24199Y358844D02*
G03*
X24199Y361628I-1392J1392D01*
G01*
X23718Y369972D02*
G03*
X27453Y366238I1773J-1961D01*
G01*
X19109Y366718D02*
G03*
X16325Y366718I-1392J-1392D01*
G01*
X0Y354331D02*
G03*
X1494Y350724I5101J0D01*
G01*
X23718Y369972D02*
G03*
X23622Y372047I-1085J989D01*
G01*
X12388Y349817D02*
G03*
X15171Y349817I1392J1392D01*
G01*
X7298Y357691D02*
G03*
X7298Y354907I1392J-1392D01*
G01*
X7325Y347064D02*
G03*
X4544Y349845I-1320J1460D01*
G01*
X2210Y341949D02*
G03*
X0Y336614I5335J-5335D01*
G01*
X472441Y39370D02*
X511811D01*
X472441Y334646D02*
X511811D01*
X511811Y39370D02*
X511811Y334646D01*
X75740Y200105D02*
X76645Y201010D01*
X74766Y206647D02*
X76138Y205274D01*
X74766Y208039D02*
X75930Y209203D01*
X76645Y201010D02*
X77549Y201915D01*
X71007Y202889D02*
X72380Y201516D01*
X65111Y205066D02*
X66275Y206230D01*
X68451Y201725D02*
X69615Y202889D01*
X63769Y201636D02*
X64396Y201010D01*
X64902Y208994D02*
X66275Y207622D01*
X64396Y201010D02*
X65022Y200383D01*
X76645Y213259D02*
X77271Y212633D01*
X71425Y211380D02*
X72589Y212544D01*
X68660Y212753D02*
X70033Y211380D01*
X63491Y212354D02*
X64396Y213259D01*
X76018Y213885D02*
X76645Y213259D01*
X64396D02*
X65300Y214164D01*
X27559Y163779D02*
X70866D01*
X27559Y102362D02*
X70866D01*
X76772Y108268D02*
Y157874D01*
X21654Y108268D02*
Y157874D01*
X19685Y0D02*
X452756D01*
X472441Y19685D02*
Y354331D01*
X-0Y336614D02*
X0Y19685D01*
X15171Y349817D02*
X24207Y358853D01*
X19100Y366727D02*
X24207Y361619D01*
X27453Y366238D02*
X33695Y372481D01*
X7298Y357691D02*
X16333Y366727D01*
X7298Y354907D02*
X12388Y349817D01*
X2210Y341949D02*
X7325Y347064D01*
X23045Y372624D02*
X23622Y372047D01*
X1494Y350724D02*
X2469Y349748D01*
X37402Y374016D02*
X452756D01*
D16*
X1182685Y-202012D02*
Y-194141D01*
X1186621D01*
X1187932Y-195452D01*
Y-198076D01*
X1186621Y-199388D01*
X1182685D01*
X1185308D02*
X1187932Y-202012D01*
X1194492D02*
X1191868D01*
X1190556Y-200700D01*
Y-198076D01*
X1191868Y-196764D01*
X1194492D01*
X1195804Y-198076D01*
Y-199388D01*
X1190556D01*
X1198428Y-196764D02*
X1201052Y-202012D01*
X1203675Y-196764D01*
X828354Y-233511D02*
Y-241382D01*
X832290D01*
X833602Y-240070D01*
Y-234823D01*
X832290Y-233511D01*
X828354D01*
X840161Y-241382D02*
X837537D01*
X836226Y-240070D01*
Y-237446D01*
X837537Y-236134D01*
X840161D01*
X841473Y-237446D01*
Y-238758D01*
X836226D01*
X844097Y-241382D02*
X848033D01*
X849345Y-240070D01*
X848033Y-238758D01*
X845409D01*
X844097Y-237446D01*
X845409Y-236134D01*
X849345D01*
X854592Y-244006D02*
X855904D01*
X857216Y-242694D01*
Y-236134D01*
X853280D01*
X851968Y-237446D01*
Y-240070D01*
X853280Y-241382D01*
X857216D01*
X859840D02*
X862464D01*
X861152D01*
Y-236134D01*
X859840D01*
X866399Y-241382D02*
Y-236134D01*
X870335D01*
X871647Y-237446D01*
Y-241382D01*
X878207D02*
X875583D01*
X874271Y-240070D01*
Y-237446D01*
X875583Y-236134D01*
X878207D01*
X879519Y-237446D01*
Y-238758D01*
X874271D01*
X882143Y-236134D02*
Y-241382D01*
Y-238758D01*
X883454Y-237446D01*
X884766Y-236134D01*
X886078D01*
X1025204Y-115400D02*
Y-123272D01*
X1029140D01*
X1030452Y-121960D01*
Y-116712D01*
X1029140Y-115400D01*
X1025204D01*
X1034388Y-123272D02*
X1037012D01*
X1038323Y-121960D01*
Y-119336D01*
X1037012Y-118024D01*
X1034388D01*
X1033076Y-119336D01*
Y-121960D01*
X1034388Y-123272D01*
X1046195Y-118024D02*
X1042259D01*
X1040947Y-119336D01*
Y-121960D01*
X1042259Y-123272D01*
X1046195D01*
X1048819Y-118024D02*
Y-121960D01*
X1050131Y-123272D01*
X1054066D01*
Y-118024D01*
X1056690Y-123272D02*
Y-118024D01*
X1058002D01*
X1059314Y-119336D01*
Y-123272D01*
Y-119336D01*
X1060626Y-118024D01*
X1061938Y-119336D01*
Y-123272D01*
X1068498D02*
X1065874D01*
X1064562Y-121960D01*
Y-119336D01*
X1065874Y-118024D01*
X1068498D01*
X1069810Y-119336D01*
Y-120648D01*
X1064562D01*
X1072433Y-123272D02*
Y-118024D01*
X1076369D01*
X1077681Y-119336D01*
Y-123272D01*
X1081617Y-116712D02*
Y-118024D01*
X1080305D01*
X1082929D01*
X1081617D01*
Y-121960D01*
X1082929Y-123272D01*
X1025204Y-154770D02*
Y-162642D01*
X1030452D01*
X1034388Y-157394D02*
X1037012D01*
X1038323Y-158706D01*
Y-162642D01*
X1034388D01*
X1033076Y-161330D01*
X1034388Y-160018D01*
X1038323D01*
X1040947Y-157394D02*
Y-161330D01*
X1042259Y-162642D01*
X1046195D01*
Y-163954D01*
X1044883Y-165266D01*
X1043571D01*
X1046195Y-162642D02*
Y-157394D01*
X1052755Y-162642D02*
X1050131D01*
X1048819Y-161330D01*
Y-158706D01*
X1050131Y-157394D01*
X1052755D01*
X1054066Y-158706D01*
Y-160018D01*
X1048819D01*
X1056690Y-157394D02*
Y-162642D01*
Y-160018D01*
X1058002Y-158706D01*
X1059314Y-157394D01*
X1060626D01*
X1072433Y-162642D02*
Y-154770D01*
X1077681Y-162642D01*
Y-154770D01*
X1081617Y-157394D02*
X1084241D01*
X1085552Y-158706D01*
Y-162642D01*
X1081617D01*
X1080305Y-161330D01*
X1081617Y-160018D01*
X1085552D01*
X1088176Y-162642D02*
Y-157394D01*
X1089488D01*
X1090800Y-158706D01*
Y-162642D01*
Y-158706D01*
X1092112Y-157394D01*
X1093424Y-158706D01*
Y-162642D01*
X1099984D02*
X1097360D01*
X1096048Y-161330D01*
Y-158706D01*
X1097360Y-157394D01*
X1099984D01*
X1101295Y-158706D01*
Y-160018D01*
X1096048D01*
X1025204Y-194141D02*
Y-202012D01*
X1029140D01*
X1030452Y-200700D01*
Y-195452D01*
X1029140Y-194141D01*
X1025204D01*
X1034388Y-196764D02*
X1037012D01*
X1038323Y-198076D01*
Y-202012D01*
X1034388D01*
X1033076Y-200700D01*
X1034388Y-199388D01*
X1038323D01*
X1042259Y-195452D02*
Y-196764D01*
X1040947D01*
X1043571D01*
X1042259D01*
Y-200700D01*
X1043571Y-202012D01*
X1051443D02*
X1048819D01*
X1047507Y-200700D01*
Y-198076D01*
X1048819Y-196764D01*
X1051443D01*
X1052755Y-198076D01*
Y-199388D01*
X1047507D01*
X1025204Y-233511D02*
Y-241382D01*
X1029140D01*
X1030452Y-240070D01*
Y-234823D01*
X1029140Y-233511D01*
X1025204D01*
X1034388Y-241382D02*
X1037012D01*
X1038323Y-240070D01*
Y-237446D01*
X1037012Y-236134D01*
X1034388D01*
X1033076Y-237446D01*
Y-240070D01*
X1034388Y-241382D01*
X1046195Y-236134D02*
X1042259D01*
X1040947Y-237446D01*
Y-240070D01*
X1042259Y-241382D01*
X1046195D01*
X1048819Y-236134D02*
Y-240070D01*
X1050131Y-241382D01*
X1054066D01*
Y-236134D01*
X1056690Y-241382D02*
Y-236134D01*
X1058002D01*
X1059314Y-237446D01*
Y-241382D01*
Y-237446D01*
X1060626Y-236134D01*
X1061938Y-237446D01*
Y-241382D01*
X1068498D02*
X1065874D01*
X1064562Y-240070D01*
Y-237446D01*
X1065874Y-236134D01*
X1068498D01*
X1069810Y-237446D01*
Y-238758D01*
X1064562D01*
X1072433Y-241382D02*
Y-236134D01*
X1076369D01*
X1077681Y-237446D01*
Y-241382D01*
X1081617Y-234823D02*
Y-236134D01*
X1080305D01*
X1082929D01*
X1081617D01*
Y-240070D01*
X1082929Y-241382D01*
D17*
X846071Y-247293D02*
Y-263036D01*
X851318Y-257788D01*
X856566Y-263036D01*
Y-247293D01*
X861814Y-263036D02*
X867061D01*
X864437D01*
Y-252540D01*
X861814D01*
X874933Y-263036D02*
Y-252540D01*
X877556D01*
X880180Y-255164D01*
Y-263036D01*
Y-255164D01*
X882804Y-252540D01*
X885428Y-255164D01*
Y-263036D01*
X890676Y-247293D02*
Y-257788D01*
X895923Y-263036D01*
X901171Y-257788D01*
Y-247293D01*
X916914Y-249917D02*
X914290Y-247293D01*
X909042D01*
X906419Y-249917D01*
Y-260412D01*
X909042Y-263036D01*
X914290D01*
X916914Y-260412D01*
Y-255164D01*
X911666D01*
X1200401Y-210546D02*
X1203025Y-207923D01*
X1208273D01*
X1210897Y-210546D01*
Y-221042D01*
X1208273Y-223665D01*
X1203025D01*
X1200401Y-221042D01*
Y-210546D01*
X1216144Y-223665D02*
X1221392D01*
X1218768D01*
Y-207923D01*
X1216144Y-210546D01*
X1037015Y-212186D02*
X1039311Y-209890D01*
X1043903D01*
X1046199Y-212186D01*
Y-221370D01*
X1043903Y-223665D01*
X1039311D01*
X1037015Y-221370D01*
Y-212186D01*
X1050791Y-209890D02*
X1059974D01*
Y-212186D01*
X1050791Y-221370D01*
Y-223665D01*
X1064566D02*
X1073749Y-214482D01*
X1078341Y-212186D02*
X1080637Y-209890D01*
X1085228D01*
X1087524Y-212186D01*
Y-221370D01*
X1085228Y-223665D01*
X1080637D01*
X1078341Y-221370D01*
Y-212186D01*
X1101299Y-209890D02*
X1096707Y-212186D01*
X1092116Y-216778D01*
Y-221370D01*
X1094412Y-223665D01*
X1099003D01*
X1101299Y-221370D01*
Y-219074D01*
X1099003Y-216778D01*
X1092116D01*
X1105891Y-223665D02*
X1115074Y-214482D01*
X1128849Y-223665D02*
X1119666D01*
X1128849Y-214482D01*
Y-212186D01*
X1126553Y-209890D01*
X1121962D01*
X1119666Y-212186D01*
X1133441D02*
X1135737Y-209890D01*
X1140329D01*
X1142624Y-212186D01*
Y-221370D01*
X1140329Y-223665D01*
X1135737D01*
X1133441Y-221370D01*
Y-212186D01*
X1156400Y-223665D02*
X1147216D01*
X1156400Y-214482D01*
Y-212186D01*
X1154104Y-209890D01*
X1149512D01*
X1147216Y-212186D01*
X1170175Y-223665D02*
X1160991D01*
X1170175Y-214482D01*
Y-212186D01*
X1167879Y-209890D01*
X1163287D01*
X1160991Y-212186D01*
X1039506Y-132331D02*
X1031110D01*
Y-138628D01*
X1035308D01*
X1031110D01*
Y-144925D01*
X1043704Y-136529D02*
Y-144925D01*
Y-140727D01*
X1045803Y-138628D01*
X1047902Y-136529D01*
X1050002D01*
X1056299Y-144925D02*
X1060497D01*
X1058398D01*
Y-136529D01*
X1056299D01*
X1066794Y-134430D02*
X1068893Y-132331D01*
X1073091D01*
X1075190Y-134430D01*
Y-136529D01*
X1073091Y-138628D01*
X1070992D01*
X1073091D01*
X1075190Y-140727D01*
Y-142826D01*
X1073091Y-144925D01*
X1068893D01*
X1066794Y-142826D01*
X1079388Y-132331D02*
Y-144925D01*
X1085686D01*
X1087784Y-142826D01*
Y-134430D01*
X1085686Y-132331D01*
X1079388D01*
X1112973Y-144925D02*
X1104577D01*
X1112973Y-136529D01*
Y-134430D01*
X1110874Y-132331D01*
X1106676D01*
X1104577Y-134430D01*
X1117171D02*
X1119270Y-132331D01*
X1123469D01*
X1125568Y-134430D01*
Y-142826D01*
X1123469Y-144925D01*
X1119270D01*
X1117171Y-142826D01*
Y-134430D01*
X1138162Y-144925D02*
X1129766D01*
X1138162Y-136529D01*
Y-134430D01*
X1136063Y-132331D01*
X1131865D01*
X1129766Y-134430D01*
X1142360D02*
X1144459Y-132331D01*
X1148657D01*
X1150756Y-134430D01*
Y-142826D01*
X1148657Y-144925D01*
X1144459D01*
X1142360Y-142826D01*
Y-134430D01*
X1175945D02*
X1173846Y-132331D01*
X1169648D01*
X1167549Y-134430D01*
Y-136529D01*
X1169648Y-138628D01*
X1173846D01*
X1175945Y-140727D01*
Y-142826D01*
X1173846Y-144925D01*
X1169648D01*
X1167549Y-142826D01*
X1180143Y-136529D02*
Y-142826D01*
X1182242Y-144925D01*
X1184341Y-142826D01*
X1186440Y-144925D01*
X1188539Y-142826D01*
Y-136529D01*
X1199035Y-144925D02*
X1194837D01*
X1192737Y-142826D01*
Y-138628D01*
X1194837Y-136529D01*
X1199035D01*
X1201134Y-138628D01*
Y-140727D01*
X1192737D01*
X1211629Y-144925D02*
X1207431D01*
X1205332Y-142826D01*
Y-138628D01*
X1207431Y-136529D01*
X1211629D01*
X1213728Y-138628D01*
Y-140727D01*
X1205332D01*
X1220025Y-134430D02*
Y-136529D01*
X1217926D01*
X1222124D01*
X1220025D01*
Y-142826D01*
X1222124Y-144925D01*
X1247313D02*
Y-132331D01*
X1241016Y-138628D01*
X1249412D01*
X1253610Y-136529D02*
X1262006Y-144925D01*
X1257808Y-140727D01*
X1262006Y-136529D01*
X1253610Y-144925D01*
X1272502D02*
Y-132331D01*
X1266205Y-138628D01*
X1274601D01*
X1042921Y-168552D02*
Y-182327D01*
X1049809D01*
X1052104Y-180031D01*
Y-170848D01*
X1049809Y-168552D01*
X1042921D01*
X1056696Y-173144D02*
Y-182327D01*
Y-177735D01*
X1058992Y-175439D01*
X1061288Y-173144D01*
X1063584D01*
X1070471Y-182327D02*
X1075063D01*
X1072767D01*
Y-173144D01*
X1070471D01*
X1081950Y-182327D02*
X1086542D01*
X1084246D01*
Y-168552D01*
X1081950D01*
X1093430Y-182327D02*
X1098021D01*
X1095725D01*
Y-168552D01*
X1093430D01*
X1127867Y-170848D02*
X1125571Y-168552D01*
X1120980D01*
X1118684Y-170848D01*
Y-180031D01*
X1120980Y-182327D01*
X1125571D01*
X1127867Y-180031D01*
Y-175439D01*
X1123276D01*
X1132459Y-173144D02*
Y-180031D01*
X1134755Y-182327D01*
X1141642D01*
Y-173144D01*
X1146234Y-182327D02*
X1150826D01*
X1148530D01*
Y-173144D01*
X1146234D01*
X1166897Y-168552D02*
Y-182327D01*
X1160009D01*
X1157713Y-180031D01*
Y-175439D01*
X1160009Y-173144D01*
X1166897D01*
X1178376Y-182327D02*
X1173784D01*
X1171488Y-180031D01*
Y-175439D01*
X1173784Y-173144D01*
X1178376D01*
X1180672Y-175439D01*
Y-177735D01*
X1171488D01*
D71*
X494094Y74803D02*
X505905D01*
X500000Y68898D02*
Y80709D01*
X494094Y299213D02*
X505905D01*
X500000Y293307D02*
Y305118D01*
X83957Y261811D02*
X87303D01*
X85630Y260138D02*
Y263484D01*
X83957Y301181D02*
X87303D01*
X85630Y299508D02*
Y302854D01*
X234547Y37402D02*
X237894D01*
X236221Y35728D02*
Y39075D01*
X234547Y76772D02*
X237894D01*
X236221Y75098D02*
Y78445D01*
X308366Y261811D02*
X311713D01*
X310039Y260138D02*
Y263484D01*
X308366Y301181D02*
X311713D01*
X310039Y299508D02*
Y302854D01*
X207913Y271496D02*
X219724D01*
X213819Y265591D02*
Y277402D01*
X182913Y261496D02*
X194724D01*
X188819Y255591D02*
Y267402D01*
X174969Y281496D02*
X182669D01*
X178819Y277646D02*
Y285346D01*
X214969Y281496D02*
X222669D01*
X218819Y277646D02*
Y285346D01*
X190219Y281496D02*
X207419D01*
X198819Y272896D02*
Y290096D01*
X265022Y281496D02*
X282222D01*
X273622Y272896D02*
Y290096D01*
X289772Y281496D02*
X297472D01*
X293622Y277646D02*
Y285346D01*
X249772Y281496D02*
X257472D01*
X253622Y277646D02*
Y285346D01*
X257716Y261496D02*
X269528D01*
X263622Y255591D02*
Y267402D01*
X282716Y271496D02*
X294528D01*
X288622Y265591D02*
Y277402D01*
X133110Y196693D02*
X144921D01*
X139016Y190787D02*
Y202598D01*
X108110Y186693D02*
X119921D01*
X114016Y180787D02*
Y192598D01*
X100166Y206693D02*
X107866D01*
X104016Y202843D02*
Y210543D01*
X140166Y206693D02*
X147866D01*
X144016Y202843D02*
Y210543D01*
X115416Y206693D02*
X132616D01*
X124016Y198093D02*
Y215293D01*
X190219Y206693D02*
X207419D01*
X198819Y198093D02*
Y215293D01*
X214969Y206693D02*
X222669D01*
X218819Y202843D02*
Y210543D01*
X174969Y206693D02*
X182669D01*
X178819Y202843D02*
Y210543D01*
X182913Y186693D02*
X194724D01*
X188819Y180787D02*
Y192598D01*
X207913Y196693D02*
X219724D01*
X213819Y190787D02*
Y202598D01*
X282716Y196693D02*
X294528D01*
X288622Y190787D02*
Y202598D01*
X257716Y186693D02*
X269528D01*
X263622Y180787D02*
Y192598D01*
X249772Y206693D02*
X257472D01*
X253622Y202843D02*
Y210543D01*
X289772Y206693D02*
X297472D01*
X293622Y202843D02*
Y210543D01*
X265022Y206693D02*
X282222D01*
X273622Y198093D02*
Y215293D01*
X339825Y206693D02*
X357025D01*
X348425Y198093D02*
Y215293D01*
X364575Y206693D02*
X372275D01*
X368425Y202843D02*
Y210543D01*
X324575Y206693D02*
X332275D01*
X328425Y202843D02*
Y210543D01*
X332520Y186693D02*
X344331D01*
X338425Y180787D02*
Y192598D01*
X357520Y196693D02*
X369331D01*
X363425Y190787D02*
Y202598D01*
X133110Y121890D02*
X144921D01*
X139016Y115984D02*
Y127795D01*
X108110Y111890D02*
X119921D01*
X114016Y105984D02*
Y117795D01*
X100166Y131890D02*
X107866D01*
X104016Y128040D02*
Y135740D01*
X140166Y131890D02*
X147866D01*
X144016Y128040D02*
Y135740D01*
X115416Y131890D02*
X132616D01*
X124016Y123290D02*
Y140490D01*
X190219Y131890D02*
X207419D01*
X198819Y123290D02*
Y140490D01*
X214969Y131890D02*
X222669D01*
X218819Y128040D02*
Y135740D01*
X174969Y131890D02*
X182669D01*
X178819Y128040D02*
Y135740D01*
X182913Y111890D02*
X194724D01*
X188819Y105984D02*
Y117795D01*
X207913Y121890D02*
X219724D01*
X213819Y115984D02*
Y127795D01*
X282717Y121890D02*
X294528D01*
X288622Y115984D02*
Y127795D01*
X257717Y111890D02*
X269528D01*
X263622Y105984D02*
Y117795D01*
X249772Y131890D02*
X257472D01*
X253622Y128040D02*
Y135740D01*
X289772Y131890D02*
X297472D01*
X293622Y128040D02*
Y135740D01*
X265022Y131890D02*
X282222D01*
X273622Y123290D02*
Y140490D01*
X339825Y131890D02*
X357025D01*
X348425Y123290D02*
Y140490D01*
X364575Y131890D02*
X372275D01*
X368425Y128040D02*
Y135740D01*
X324575Y131890D02*
X332275D01*
X328425Y128040D02*
Y135740D01*
X332520Y111890D02*
X344331D01*
X338425Y105984D02*
Y117795D01*
X357520Y121890D02*
X369331D01*
X363425Y115984D02*
Y127795D01*
X133110Y47087D02*
X144921D01*
X139016Y41181D02*
Y52992D01*
X108110Y37087D02*
X119921D01*
X114016Y31181D02*
Y42992D01*
X100166Y57087D02*
X107866D01*
X104016Y53237D02*
Y60937D01*
X140166Y57087D02*
X147866D01*
X144016Y53237D02*
Y60937D01*
X115416Y57087D02*
X132616D01*
X124016Y48487D02*
Y65687D01*
X190219Y57087D02*
X207419D01*
X198819Y48487D02*
Y65687D01*
X214969Y57087D02*
X222669D01*
X218819Y53237D02*
Y60937D01*
X174969Y57087D02*
X182669D01*
X178819Y53237D02*
Y60937D01*
X182913Y37087D02*
X194724D01*
X188819Y31181D02*
Y42992D01*
X207913Y47087D02*
X219724D01*
X213819Y41181D02*
Y52992D01*
X282717Y47087D02*
X294528D01*
X288622Y41181D02*
Y52992D01*
X257717Y37087D02*
X269528D01*
X263622Y31181D02*
Y42992D01*
X249772Y57087D02*
X257472D01*
X253622Y53237D02*
Y60937D01*
X289772Y57087D02*
X297472D01*
X293622Y53237D02*
Y60937D01*
X265022Y57087D02*
X282222D01*
X273622Y48487D02*
Y65687D01*
X339825Y57087D02*
X357025D01*
X348425Y48487D02*
Y65687D01*
X364575Y57087D02*
X372275D01*
X368425Y53237D02*
Y60937D01*
X324575Y57087D02*
X332275D01*
X328425Y53237D02*
Y60937D01*
X332520Y37087D02*
X344331D01*
X338425Y31181D02*
Y42992D01*
X357520Y47087D02*
X369331D01*
X363425Y41181D02*
Y52992D01*
X133110Y271496D02*
X144921D01*
X139016Y265591D02*
Y277402D01*
X108110Y261496D02*
X119921D01*
X114016Y255591D02*
Y267402D01*
X100166Y281496D02*
X107866D01*
X104016Y277646D02*
Y285346D01*
X140166Y281496D02*
X147866D01*
X144016Y277646D02*
Y285346D01*
X115416Y281496D02*
X132616D01*
X124016Y272896D02*
Y290096D01*
X339825Y281496D02*
X357025D01*
X348425Y272896D02*
Y290096D01*
X364575Y281496D02*
X372275D01*
X368425Y277646D02*
Y285346D01*
X324575Y281496D02*
X332275D01*
X328425Y277646D02*
Y285346D01*
X332520Y261496D02*
X344331D01*
X338425Y255591D02*
Y267402D01*
X357520Y271496D02*
X369331D01*
X363425Y265591D02*
Y277402D01*
X451437Y300020D02*
X454980D01*
X453209Y298248D02*
Y301791D01*
X451437Y310020D02*
X454980D01*
X453209Y308248D02*
Y311791D01*
X451437Y320020D02*
X454980D01*
X453209Y318248D02*
Y321791D01*
X451437Y330020D02*
X454980D01*
X453209Y328248D02*
Y331791D01*
X451437Y340020D02*
X454980D01*
X453209Y338248D02*
Y341791D01*
X451437Y360020D02*
X454980D01*
X453209Y358248D02*
Y361791D01*
X451437Y350020D02*
X454980D01*
X453209Y348248D02*
Y351791D01*
X391437Y300020D02*
X394980D01*
X393209Y298248D02*
Y301791D01*
X391437Y310020D02*
X394980D01*
X393209Y308248D02*
Y311791D01*
X391437Y320020D02*
X394980D01*
X393209Y318248D02*
Y321791D01*
X391437Y330020D02*
X394980D01*
X393209Y328248D02*
Y331791D01*
X391437Y340020D02*
X394980D01*
X393209Y338248D02*
Y341791D01*
X391437Y360020D02*
X394980D01*
X393209Y358248D02*
Y361791D01*
X391437Y350020D02*
X394980D01*
X393209Y348248D02*
Y351791D01*
X339961Y343701D02*
X344291D01*
X342126Y341535D02*
Y345866D01*
X128150Y343701D02*
X132480D01*
X130315Y341535D02*
Y345866D01*
X128937Y361850D02*
X130905D01*
X129921Y360866D02*
Y362835D01*
X341535Y361850D02*
X343504D01*
X342520Y360866D02*
Y362835D01*
X181890Y355315D02*
X188189D01*
X185039Y352165D02*
Y358465D01*
X284252Y355315D02*
X290551D01*
X287402Y352165D02*
Y358465D01*
X116535Y259055D02*
X123622D01*
X120079Y255512D02*
Y262598D01*
X128393Y302687D02*
X135479D01*
X131936Y299143D02*
Y306230D01*
X352802Y302687D02*
X359889D01*
X356345Y299143D02*
Y306230D01*
X417519Y53051D02*
X420865D01*
X419192Y51378D02*
Y54724D01*
X398031Y33564D02*
X401378D01*
X399705Y31891D02*
Y35237D01*
X425591Y53051D02*
X428937D01*
X427264Y51378D02*
Y54724D01*
X445078Y33564D02*
X448424D01*
X446751Y31891D02*
Y35237D01*
X417519Y285532D02*
X420865D01*
X419192Y283859D02*
Y287206D01*
X398031Y305020D02*
X401378D01*
X399705Y303346D02*
Y306693D01*
X417519Y277461D02*
X420865D01*
X419192Y275787D02*
Y279134D01*
X398031Y257973D02*
X401378D01*
X399705Y256300D02*
Y259647D01*
X425591Y285532D02*
X428937D01*
X427264Y283859D02*
Y287206D01*
X445078Y305020D02*
X448424D01*
X446751Y303346D02*
Y306693D01*
X425591Y277461D02*
X428937D01*
X427264Y275787D02*
Y279134D01*
X445078Y257973D02*
X448424D01*
X446751Y256300D02*
Y259647D01*
X51575Y285532D02*
X54922D01*
X53249Y283859D02*
Y287205D01*
X71062Y305019D02*
X74409D01*
X72736Y303346D02*
Y306692D01*
X43503Y285532D02*
X46850D01*
X45177Y283859D02*
Y287205D01*
X24016Y305019D02*
X27363D01*
X25690Y303346D02*
Y306692D01*
X43514Y277450D02*
X46860D01*
X45187Y275777D02*
Y279123D01*
X24026Y257963D02*
X27373D01*
X25700Y256290D02*
Y259636D01*
X51575Y277461D02*
X54921D01*
X53248Y275787D02*
Y279134D01*
X71062Y257973D02*
X74409D01*
X72735Y256300D02*
Y259647D01*
X43503Y53051D02*
X46849D01*
X45176Y51378D02*
Y54724D01*
X24016Y33564D02*
X27362D01*
X25689Y31891D02*
Y35237D01*
X43503Y61123D02*
X46849D01*
X45176Y59450D02*
Y62796D01*
X24016Y80610D02*
X27362D01*
X25689Y78937D02*
Y82283D01*
X51575Y61123D02*
X54921D01*
X53248Y59450D02*
Y62796D01*
X71062Y80610D02*
X74408D01*
X72735Y78937D02*
Y82283D01*
X51575Y53051D02*
X54921D01*
X53248Y51378D02*
Y54724D01*
X71062Y33564D02*
X74409D01*
X72735Y31891D02*
Y35237D01*
X374016Y291339D02*
X377953D01*
X375984Y289370D02*
Y293307D01*
X374016Y271654D02*
X377953D01*
X375984Y269685D02*
Y273622D01*
X316929Y281496D02*
X320866D01*
X318898Y279528D02*
Y283465D01*
X316929Y271654D02*
X320866D01*
X318898Y269685D02*
Y273622D01*
X316929Y291339D02*
X320866D01*
X318898Y289370D02*
Y293307D01*
X340945Y259055D02*
X348031D01*
X344488Y255512D02*
Y262598D01*
X344882Y303937D02*
X351969D01*
X348425Y300394D02*
Y307480D01*
X364575Y281496D02*
X372275D01*
X368425Y277646D02*
Y285346D01*
X324575Y281496D02*
X332275D01*
X328425Y277646D02*
Y285346D01*
X339825Y281496D02*
X357025D01*
X348425Y272896D02*
Y290096D01*
X330475Y291496D02*
X336375D01*
X333425Y288546D02*
Y294446D01*
X354882Y301496D02*
X361968D01*
X358425Y297953D02*
Y305039D01*
X131066Y77087D02*
X136966D01*
X134016Y74137D02*
Y80037D01*
X106066Y67087D02*
X111966D01*
X109016Y64137D02*
Y70037D01*
X115416Y57087D02*
X132616D01*
X124016Y48487D02*
Y65687D01*
X100166Y57087D02*
X107866D01*
X104016Y53237D02*
Y60937D01*
X140166Y57087D02*
X147866D01*
X144016Y53237D02*
Y60937D01*
X205869Y77087D02*
X211769D01*
X208819Y74137D02*
Y80037D01*
X180869Y67087D02*
X186769D01*
X183819Y64137D02*
Y70037D01*
X190219Y57087D02*
X207419D01*
X198819Y48487D02*
Y65687D01*
X174969Y57087D02*
X182669D01*
X178819Y53237D02*
Y60937D01*
X214969Y57087D02*
X222669D01*
X218819Y53237D02*
Y60937D01*
X280672Y77087D02*
X286572D01*
X283622Y74137D02*
Y80037D01*
X255672Y67087D02*
X261572D01*
X258622Y64137D02*
Y70037D01*
X265022Y57087D02*
X282222D01*
X273622Y48487D02*
Y65687D01*
X249772Y57087D02*
X257472D01*
X253622Y53237D02*
Y60937D01*
X289772Y57087D02*
X297472D01*
X293622Y53237D02*
Y60937D01*
X355475Y77087D02*
X361375D01*
X358425Y74137D02*
Y80037D01*
X330475Y67087D02*
X336375D01*
X333425Y64137D02*
Y70037D01*
X339825Y57087D02*
X357025D01*
X348425Y48487D02*
Y65687D01*
X324575Y57087D02*
X332275D01*
X328425Y53237D02*
Y60937D01*
X364575Y57087D02*
X372275D01*
X368425Y53237D02*
Y60937D01*
X355475Y151890D02*
X361375D01*
X358425Y148940D02*
Y154840D01*
X330475Y141890D02*
X336375D01*
X333425Y138940D02*
Y144840D01*
X339825Y131890D02*
X357025D01*
X348425Y123290D02*
Y140490D01*
X324575Y131890D02*
X332275D01*
X328425Y128040D02*
Y135740D01*
X364575Y131890D02*
X372275D01*
X368425Y128040D02*
Y135740D01*
X280672Y151890D02*
X286572D01*
X283622Y148940D02*
Y154840D01*
X255672Y141890D02*
X261572D01*
X258622Y138940D02*
Y144840D01*
X265022Y131890D02*
X282222D01*
X273622Y123290D02*
Y140490D01*
X249772Y131890D02*
X257472D01*
X253622Y128040D02*
Y135740D01*
X289772Y131890D02*
X297472D01*
X293622Y128040D02*
Y135740D01*
X205869Y151890D02*
X211769D01*
X208819Y148940D02*
Y154840D01*
X180869Y141890D02*
X186769D01*
X183819Y138940D02*
Y144840D01*
X190219Y131890D02*
X207419D01*
X198819Y123290D02*
Y140490D01*
X174969Y131890D02*
X182669D01*
X178819Y128040D02*
Y135740D01*
X214969Y131890D02*
X222669D01*
X218819Y128040D02*
Y135740D01*
X131066Y151890D02*
X136966D01*
X134016Y148940D02*
Y154840D01*
X106066Y141890D02*
X111966D01*
X109016Y138940D02*
Y144840D01*
X115416Y131890D02*
X132616D01*
X124016Y123290D02*
Y140490D01*
X100166Y131890D02*
X107866D01*
X104016Y128040D02*
Y135740D01*
X140166Y131890D02*
X147866D01*
X144016Y128040D02*
Y135740D01*
X131066Y226693D02*
X136966D01*
X134016Y223743D02*
Y229643D01*
X106066Y216693D02*
X111966D01*
X109016Y213743D02*
Y219643D01*
X115416Y206693D02*
X132616D01*
X124016Y198093D02*
Y215293D01*
X100166Y206693D02*
X107866D01*
X104016Y202843D02*
Y210543D01*
X140166Y206693D02*
X147866D01*
X144016Y202843D02*
Y210543D01*
X205869Y226693D02*
X211769D01*
X208819Y223743D02*
Y229643D01*
X180869Y216693D02*
X186769D01*
X183819Y213743D02*
Y219643D01*
X190219Y206693D02*
X207419D01*
X198819Y198093D02*
Y215293D01*
X174969Y206693D02*
X182669D01*
X178819Y202843D02*
Y210543D01*
X214969Y206693D02*
X222669D01*
X218819Y202843D02*
Y210543D01*
X280672Y226693D02*
X286572D01*
X283622Y223743D02*
Y229643D01*
X255672Y216693D02*
X261572D01*
X258622Y213743D02*
Y219643D01*
X265022Y206693D02*
X282222D01*
X273622Y198093D02*
Y215293D01*
X249772Y206693D02*
X257472D01*
X253622Y202843D02*
Y210543D01*
X289772Y206693D02*
X297472D01*
X293622Y202843D02*
Y210543D01*
X355475Y226693D02*
X361375D01*
X358425Y223743D02*
Y229643D01*
X330475Y216693D02*
X336375D01*
X333425Y213743D02*
Y219643D01*
X339825Y206693D02*
X357025D01*
X348425Y198093D02*
Y215293D01*
X324575Y206693D02*
X332275D01*
X328425Y202843D02*
Y210543D01*
X364575Y206693D02*
X372275D01*
X368425Y202843D02*
Y210543D01*
X280672Y301339D02*
X286572D01*
X283622Y298389D02*
Y304289D01*
X255672Y291339D02*
X261572D01*
X258622Y288389D02*
Y294289D01*
X265022Y281339D02*
X282222D01*
X273622Y272739D02*
Y289939D01*
X249772Y281339D02*
X257472D01*
X253622Y277489D02*
Y285189D01*
X289772Y281339D02*
X297472D01*
X293622Y277489D02*
Y285189D01*
X205869Y301496D02*
X211769D01*
X208819Y298546D02*
Y304446D01*
X180869Y291496D02*
X186769D01*
X183819Y288546D02*
Y294446D01*
X190219Y281496D02*
X207419D01*
X198819Y272896D02*
Y290096D01*
X174969Y281496D02*
X182669D01*
X178819Y277646D02*
Y285346D01*
X214969Y281496D02*
X222669D01*
X218819Y277646D02*
Y285346D01*
X131066Y301496D02*
X136966D01*
X134016Y298546D02*
Y304446D01*
X106066Y291496D02*
X111966D01*
X109016Y288546D02*
Y294446D01*
X115416Y281496D02*
X132616D01*
X124016Y272896D02*
Y290096D01*
X100166Y281496D02*
X107866D01*
X104016Y277646D02*
Y285346D01*
X140166Y281496D02*
X147866D01*
X144016Y277646D02*
Y285346D01*
X120473Y303937D02*
X127559D01*
X124016Y300394D02*
Y307480D01*
X92520Y291339D02*
X96457D01*
X94488Y289370D02*
Y293307D01*
X92520Y271654D02*
X96457D01*
X94488Y269685D02*
Y273622D01*
X92520Y281496D02*
X96457D01*
X94488Y279528D02*
Y283465D01*
X149606Y271654D02*
X153543D01*
X151575Y269685D02*
Y273622D01*
X149606Y291339D02*
X153543D01*
X151575Y289370D02*
Y293307D01*
X417519Y61123D02*
X420865D01*
X419192Y59450D02*
Y62796D01*
X398031Y80610D02*
X401378D01*
X399705Y78937D02*
Y82284D01*
X425591Y61123D02*
X428937D01*
X427264Y59450D02*
Y62796D01*
X445078Y80610D02*
X448424D01*
X446751Y78937D02*
Y82284D01*
X451929Y229291D02*
X455473D01*
X453701Y227520D02*
Y231063D01*
X441929Y229291D02*
X445472D01*
X443701Y227520D02*
Y231063D01*
X391929Y229291D02*
X395472D01*
X393701Y227520D02*
Y231063D01*
X461929Y229291D02*
X465473D01*
X463701Y227520D02*
Y231063D01*
X421929Y229291D02*
X425472D01*
X423701Y227520D02*
Y231063D01*
X411929Y229291D02*
X415473D01*
X413701Y227520D02*
Y231063D01*
X401929Y229291D02*
X405472D01*
X403701Y227520D02*
Y231063D01*
X421929Y109291D02*
X425472D01*
X423701Y107520D02*
Y111063D01*
X411929Y109291D02*
X415473D01*
X413701Y107520D02*
Y111063D01*
X431929Y229291D02*
X435472D01*
X433701Y227520D02*
Y231063D01*
X441929Y109291D02*
X445472D01*
X443701Y107520D02*
Y111063D01*
X431929Y109291D02*
X435472D01*
X433701Y107520D02*
Y111063D01*
X401929Y109291D02*
X405472D01*
X403701Y107520D02*
Y111063D01*
X461929Y219291D02*
X465473D01*
X463701Y217520D02*
Y221063D01*
X451929Y219291D02*
X455473D01*
X453701Y217520D02*
Y221063D01*
X461929Y209291D02*
X465473D01*
X463701Y207520D02*
Y211063D01*
X451929Y209291D02*
X455473D01*
X453701Y207520D02*
Y211063D01*
X461929Y199291D02*
X465473D01*
X463701Y197520D02*
Y201063D01*
X451929Y199291D02*
X455473D01*
X453701Y197520D02*
Y201063D01*
X461929Y189291D02*
X465473D01*
X463701Y187520D02*
Y191063D01*
X451929Y189291D02*
X455473D01*
X453701Y187520D02*
Y191063D01*
X461929Y179291D02*
X465473D01*
X463701Y177520D02*
Y181063D01*
X451929Y179291D02*
X455473D01*
X453701Y177520D02*
Y181063D01*
X461929Y169291D02*
X465473D01*
X463701Y167520D02*
Y171063D01*
X451929Y169291D02*
X455473D01*
X453701Y167520D02*
Y171063D01*
X451929Y109291D02*
X455473D01*
X453701Y107520D02*
Y111063D01*
X461929Y109291D02*
X465473D01*
X463701Y107520D02*
Y111063D01*
X451929Y119291D02*
X455473D01*
X453701Y117520D02*
Y121063D01*
X461929Y119291D02*
X465473D01*
X463701Y117520D02*
Y121063D01*
X451929Y129291D02*
X455473D01*
X453701Y127520D02*
Y131063D01*
X461929Y129291D02*
X465473D01*
X463701Y127520D02*
Y131063D01*
X451929Y139291D02*
X455473D01*
X453701Y137520D02*
Y141063D01*
X461929Y139291D02*
X465473D01*
X463701Y137520D02*
Y141063D01*
X451929Y149291D02*
X455473D01*
X453701Y147520D02*
Y151063D01*
X461929Y149291D02*
X465473D01*
X463701Y147520D02*
Y151063D01*
X451929Y159291D02*
X455473D01*
X453701Y157520D02*
Y161063D01*
X461929Y159291D02*
X465473D01*
X463701Y157520D02*
Y161063D01*
X42913Y307088D02*
X55512D01*
X49213Y300788D02*
Y313387D01*
X416929Y307088D02*
X429528D01*
X423228Y300788D02*
Y313387D01*
X416928Y31496D02*
X429527D01*
X423227Y25197D02*
Y37795D01*
X42913Y31496D02*
X55512D01*
X49213Y25197D02*
Y37795D01*
X441929Y159291D02*
X445472D01*
X443701Y157520D02*
Y161063D01*
X431929Y159291D02*
X435472D01*
X433701Y157520D02*
Y161063D01*
X421929Y159291D02*
X425472D01*
X423701Y157520D02*
Y161063D01*
X411929Y159291D02*
X415473D01*
X413701Y157520D02*
Y161063D01*
X401929Y159291D02*
X405472D01*
X403701Y157520D02*
Y161063D01*
X441929Y149291D02*
X445472D01*
X443701Y147520D02*
Y151063D01*
X431929Y149291D02*
X435472D01*
X433701Y147520D02*
Y151063D01*
X421929Y149291D02*
X425472D01*
X423701Y147520D02*
Y151063D01*
X411929Y149291D02*
X415473D01*
X413701Y147520D02*
Y151063D01*
X401929Y149291D02*
X405472D01*
X403701Y147520D02*
Y151063D01*
X441929Y139291D02*
X445472D01*
X443701Y137520D02*
Y141063D01*
X431929Y139291D02*
X435472D01*
X433701Y137520D02*
Y141063D01*
X421929Y139291D02*
X425472D01*
X423701Y137520D02*
Y141063D01*
X411929Y139291D02*
X415473D01*
X413701Y137520D02*
Y141063D01*
X401929Y139291D02*
X405472D01*
X403701Y137520D02*
Y141063D01*
X441929Y129291D02*
X445472D01*
X443701Y127520D02*
Y131063D01*
X431929Y129291D02*
X435472D01*
X433701Y127520D02*
Y131063D01*
X421929Y129291D02*
X425472D01*
X423701Y127520D02*
Y131063D01*
X411929Y129291D02*
X415473D01*
X413701Y127520D02*
Y131063D01*
X401929Y129291D02*
X405472D01*
X403701Y127520D02*
Y131063D01*
X441929Y119291D02*
X445472D01*
X443701Y117520D02*
Y121063D01*
X431929Y119291D02*
X435472D01*
X433701Y117520D02*
Y121063D01*
X421929Y119291D02*
X425472D01*
X423701Y117520D02*
Y121063D01*
X411929Y119291D02*
X415473D01*
X413701Y117520D02*
Y121063D01*
X401929Y119291D02*
X405472D01*
X403701Y117520D02*
Y121063D01*
X401929Y169291D02*
X405472D01*
X403701Y167520D02*
Y171063D01*
X411929Y169291D02*
X415473D01*
X413701Y167520D02*
Y171063D01*
X421929Y169291D02*
X425472D01*
X423701Y167520D02*
Y171063D01*
X431929Y169291D02*
X435472D01*
X433701Y167520D02*
Y171063D01*
X441929Y169291D02*
X445472D01*
X443701Y167520D02*
Y171063D01*
X401929Y179291D02*
X405472D01*
X403701Y177520D02*
Y181063D01*
X411929Y179291D02*
X415473D01*
X413701Y177520D02*
Y181063D01*
X421929Y179291D02*
X425472D01*
X423701Y177520D02*
Y181063D01*
X431929Y179291D02*
X435472D01*
X433701Y177520D02*
Y181063D01*
X441929Y179291D02*
X445472D01*
X443701Y177520D02*
Y181063D01*
X401929Y189291D02*
X405472D01*
X403701Y187520D02*
Y191063D01*
X411929Y189291D02*
X415473D01*
X413701Y187520D02*
Y191063D01*
X421929Y189291D02*
X425472D01*
X423701Y187520D02*
Y191063D01*
X431929Y189291D02*
X435472D01*
X433701Y187520D02*
Y191063D01*
X441929Y189291D02*
X445472D01*
X443701Y187520D02*
Y191063D01*
X401929Y199291D02*
X405472D01*
X403701Y197520D02*
Y201063D01*
X411929Y199291D02*
X415473D01*
X413701Y197520D02*
Y201063D01*
X421929Y199291D02*
X425472D01*
X423701Y197520D02*
Y201063D01*
X431929Y199291D02*
X435472D01*
X433701Y197520D02*
Y201063D01*
X441929Y199291D02*
X445472D01*
X443701Y197520D02*
Y201063D01*
X401929Y209291D02*
X405472D01*
X403701Y207520D02*
Y211063D01*
X411929Y209291D02*
X415473D01*
X413701Y207520D02*
Y211063D01*
X421929Y209291D02*
X425472D01*
X423701Y207520D02*
Y211063D01*
X431929Y209291D02*
X435472D01*
X433701Y207520D02*
Y211063D01*
X441929Y209291D02*
X445472D01*
X443701Y207520D02*
Y211063D01*
X401929Y219291D02*
X405472D01*
X403701Y217520D02*
Y221063D01*
X411929Y219291D02*
X415473D01*
X413701Y217520D02*
Y221063D01*
X421929Y219291D02*
X425472D01*
X423701Y217520D02*
Y221063D01*
X431929Y219291D02*
X435472D01*
X433701Y217520D02*
Y221063D01*
X441929Y219291D02*
X445472D01*
X443701Y217520D02*
Y221063D01*
X391929Y159291D02*
X395472D01*
X393701Y157520D02*
Y161063D01*
X391929Y149291D02*
X395472D01*
X393701Y147520D02*
Y151063D01*
X391929Y139291D02*
X395472D01*
X393701Y137520D02*
Y141063D01*
X391929Y129291D02*
X395472D01*
X393701Y127520D02*
Y131063D01*
X391929Y119291D02*
X395472D01*
X393701Y117520D02*
Y121063D01*
X391929Y109291D02*
X395472D01*
X393701Y107520D02*
Y111063D01*
X391929Y219291D02*
X395472D01*
X393701Y217520D02*
Y221063D01*
X391929Y209291D02*
X395472D01*
X393701Y207520D02*
Y211063D01*
X391929Y199291D02*
X395472D01*
X393701Y197520D02*
Y201063D01*
X391929Y189291D02*
X395472D01*
X393701Y187520D02*
Y191063D01*
X391929Y169291D02*
X395472D01*
X393701Y167520D02*
Y171063D01*
X391929Y179291D02*
X395472D01*
X393701Y177520D02*
Y181063D01*
X85138Y238189D02*
X86122D01*
X85630Y237697D02*
Y238681D01*
X225079Y83661D02*
X226063D01*
X225571Y83169D02*
Y84153D01*
X225077Y74016D02*
X226061D01*
X225569Y73524D02*
Y74508D01*
X309547Y283061D02*
X310531D01*
X310039Y282569D02*
Y283553D01*
X304232Y228490D02*
X305217D01*
X304724Y227998D02*
Y228982D01*
X208228Y321654D02*
X209213D01*
X208720Y321161D02*
Y322146D01*
X173228Y314173D02*
X174213D01*
X173721Y313681D02*
Y314665D01*
X130688Y328346D02*
X131672D01*
X131180Y327854D02*
Y328839D01*
X130688Y315434D02*
X131672D01*
X131180Y314942D02*
Y315926D01*
X318240Y339534D02*
X319225D01*
X318733Y339042D02*
Y340026D01*
X439272Y269685D02*
X440256D01*
X439764Y269193D02*
Y270177D01*
X432579Y272441D02*
X433563D01*
X433071Y271949D02*
Y272933D01*
X134611Y321850D02*
X135595D01*
X135103Y321358D02*
Y322342D01*
X163228Y321654D02*
X164213D01*
X163721Y321161D02*
Y322146D01*
X218228Y321654D02*
X219213D01*
X218721Y321161D02*
Y322146D01*
X198228Y321654D02*
X199213D01*
X198721Y321161D02*
Y322146D01*
X178228Y321654D02*
X179213D01*
X178720Y321161D02*
Y322146D01*
X268012Y335433D02*
X268996D01*
X268504Y334941D02*
Y335925D01*
X98917Y93504D02*
X99902D01*
X99410Y93012D02*
Y93996D01*
X328248Y88583D02*
X329232D01*
X328740Y88091D02*
Y89075D01*
X326279Y92520D02*
X327264D01*
X326772Y92028D02*
Y93012D01*
X159941Y228346D02*
X160925D01*
X160433Y227854D02*
Y228839D01*
X248735Y253740D02*
X249719D01*
X249227Y253248D02*
Y254232D01*
X250207Y173228D02*
X251191D01*
X250699Y172736D02*
Y173721D01*
X250065Y99410D02*
X251049D01*
X250557Y98917D02*
Y99902D01*
X176154Y99410D02*
X177138D01*
X176646Y98917D02*
Y99902D01*
X176141Y174213D02*
X177125D01*
X176633Y173721D02*
Y174705D01*
X174951Y250000D02*
X175935D01*
X175443Y249508D02*
Y250492D01*
X329914Y104134D02*
X330898D01*
X330406Y103642D02*
Y104626D01*
X325295Y169291D02*
X326279D01*
X325787Y168799D02*
Y169783D01*
X321358Y253740D02*
X322342D01*
X321850Y253248D02*
Y254232D01*
X208327Y287244D02*
X209311D01*
X208819Y286752D02*
Y287736D01*
M02*
